G04 #@! TF.GenerationSoftware,KiCad,Pcbnew,5.0.2+dfsg1-1*
G04 #@! TF.CreationDate,2019-05-16T22:01:56-07:00*
G04 #@! TF.ProjectId,jlink-c2d-adapter,6a6c696e-6b2d-4633-9264-2d6164617074,rev?*
G04 #@! TF.SameCoordinates,Original*
G04 #@! TF.FileFunction,Soldermask,Top*
G04 #@! TF.FilePolarity,Negative*
%FSLAX46Y46*%
G04 Gerber Fmt 4.6, Leading zero omitted, Abs format (unit mm)*
G04 Created by KiCad (PCBNEW 5.0.2+dfsg1-1) date Thu 16 May 2019 10:01:56 PM PDT*
%MOMM*%
%LPD*%
G01*
G04 APERTURE LIST*
%ADD10C,0.100000*%
G04 APERTURE END LIST*
D10*
G36*
X115044096Y-101687033D02*
X115044098Y-101687034D01*
X115044099Y-101687034D01*
X115508352Y-101879333D01*
X115924284Y-102157250D01*
X115926171Y-102158511D01*
X116281489Y-102513829D01*
X116281491Y-102513832D01*
X116560667Y-102931648D01*
X116752966Y-103395901D01*
X116851000Y-103888748D01*
X116851000Y-104391252D01*
X116752966Y-104884099D01*
X116560667Y-105348352D01*
X116282750Y-105764284D01*
X116281489Y-105766171D01*
X115926171Y-106121489D01*
X115926168Y-106121491D01*
X115508352Y-106400667D01*
X115044099Y-106592966D01*
X115044098Y-106592966D01*
X115044096Y-106592967D01*
X114551253Y-106691000D01*
X114048747Y-106691000D01*
X113555904Y-106592967D01*
X113555902Y-106592966D01*
X113555901Y-106592966D01*
X113091648Y-106400667D01*
X112673832Y-106121491D01*
X112673829Y-106121489D01*
X112318511Y-105766171D01*
X112317250Y-105764284D01*
X112039333Y-105348352D01*
X111847034Y-104884099D01*
X111749000Y-104391252D01*
X111749000Y-103888748D01*
X111847034Y-103395901D01*
X112039333Y-102931648D01*
X112318509Y-102513832D01*
X112318511Y-102513829D01*
X112673829Y-102158511D01*
X112675716Y-102157250D01*
X113091648Y-101879333D01*
X113555901Y-101687034D01*
X113555902Y-101687034D01*
X113555904Y-101687033D01*
X114048747Y-101589000D01*
X114551253Y-101589000D01*
X115044096Y-101687033D01*
X115044096Y-101687033D01*
G37*
G36*
X127914600Y-99974600D02*
X126085400Y-99974600D01*
X126085400Y-98145400D01*
X127914600Y-98145400D01*
X127914600Y-99974600D01*
X127914600Y-99974600D01*
G37*
G36*
X124639294Y-98158633D02*
X124811694Y-98210931D01*
X124811696Y-98210932D01*
X124970583Y-98295859D01*
X124970585Y-98295860D01*
X124970584Y-98295860D01*
X125109849Y-98410151D01*
X125224140Y-98549416D01*
X125309069Y-98708306D01*
X125361367Y-98880706D01*
X125379025Y-99060000D01*
X125361367Y-99239294D01*
X125309069Y-99411694D01*
X125309068Y-99411696D01*
X125224141Y-99570583D01*
X125109849Y-99709849D01*
X124970583Y-99824141D01*
X124811696Y-99909068D01*
X124811694Y-99909069D01*
X124639294Y-99961367D01*
X124504931Y-99974600D01*
X124415069Y-99974600D01*
X124280706Y-99961367D01*
X124108306Y-99909069D01*
X124108304Y-99909068D01*
X123949417Y-99824141D01*
X123810151Y-99709849D01*
X123695859Y-99570583D01*
X123610932Y-99411696D01*
X123610931Y-99411694D01*
X123558633Y-99239294D01*
X123540975Y-99060000D01*
X123558633Y-98880706D01*
X123610931Y-98708306D01*
X123695860Y-98549416D01*
X123810151Y-98410151D01*
X123949416Y-98295860D01*
X123949415Y-98295860D01*
X123949417Y-98295859D01*
X124108304Y-98210932D01*
X124108306Y-98210931D01*
X124280706Y-98158633D01*
X124415069Y-98145400D01*
X124504931Y-98145400D01*
X124639294Y-98158633D01*
X124639294Y-98158633D01*
G37*
G36*
X116851000Y-98971000D02*
X111749000Y-98971000D01*
X111749000Y-68669000D01*
X116851000Y-68669000D01*
X116851000Y-98971000D01*
X116851000Y-98971000D01*
G37*
G36*
X124639294Y-95618633D02*
X124811694Y-95670931D01*
X124811696Y-95670932D01*
X124970583Y-95755859D01*
X124970585Y-95755860D01*
X124970584Y-95755860D01*
X125109849Y-95870151D01*
X125224140Y-96009416D01*
X125309069Y-96168306D01*
X125361367Y-96340706D01*
X125379025Y-96520000D01*
X125361367Y-96699294D01*
X125309069Y-96871694D01*
X125309068Y-96871696D01*
X125224141Y-97030583D01*
X125109849Y-97169849D01*
X124970583Y-97284141D01*
X124811696Y-97369068D01*
X124811694Y-97369069D01*
X124639294Y-97421367D01*
X124504931Y-97434600D01*
X124415069Y-97434600D01*
X124280706Y-97421367D01*
X124108306Y-97369069D01*
X124108304Y-97369068D01*
X123949417Y-97284141D01*
X123810151Y-97169849D01*
X123695859Y-97030583D01*
X123610932Y-96871696D01*
X123610931Y-96871694D01*
X123558633Y-96699294D01*
X123540975Y-96520000D01*
X123558633Y-96340706D01*
X123610931Y-96168306D01*
X123695860Y-96009416D01*
X123810151Y-95870151D01*
X123949416Y-95755860D01*
X123949415Y-95755860D01*
X123949417Y-95755859D01*
X124108304Y-95670932D01*
X124108306Y-95670931D01*
X124280706Y-95618633D01*
X124415069Y-95605400D01*
X124504931Y-95605400D01*
X124639294Y-95618633D01*
X124639294Y-95618633D01*
G37*
G36*
X127179294Y-95618633D02*
X127351694Y-95670931D01*
X127351696Y-95670932D01*
X127510583Y-95755859D01*
X127510585Y-95755860D01*
X127510584Y-95755860D01*
X127649849Y-95870151D01*
X127764140Y-96009416D01*
X127849069Y-96168306D01*
X127901367Y-96340706D01*
X127919025Y-96520000D01*
X127901367Y-96699294D01*
X127849069Y-96871694D01*
X127849068Y-96871696D01*
X127764141Y-97030583D01*
X127649849Y-97169849D01*
X127510583Y-97284141D01*
X127351696Y-97369068D01*
X127351694Y-97369069D01*
X127179294Y-97421367D01*
X127044931Y-97434600D01*
X126955069Y-97434600D01*
X126820706Y-97421367D01*
X126648306Y-97369069D01*
X126648304Y-97369068D01*
X126489417Y-97284141D01*
X126350151Y-97169849D01*
X126235859Y-97030583D01*
X126150932Y-96871696D01*
X126150931Y-96871694D01*
X126098633Y-96699294D01*
X126080975Y-96520000D01*
X126098633Y-96340706D01*
X126150931Y-96168306D01*
X126235860Y-96009416D01*
X126350151Y-95870151D01*
X126489416Y-95755860D01*
X126489415Y-95755860D01*
X126489417Y-95755859D01*
X126648304Y-95670932D01*
X126648306Y-95670931D01*
X126820706Y-95618633D01*
X126955069Y-95605400D01*
X127044931Y-95605400D01*
X127179294Y-95618633D01*
X127179294Y-95618633D01*
G37*
G36*
X127179294Y-93078633D02*
X127351694Y-93130931D01*
X127351696Y-93130932D01*
X127510583Y-93215859D01*
X127510585Y-93215860D01*
X127510584Y-93215860D01*
X127649849Y-93330151D01*
X127764140Y-93469416D01*
X127849069Y-93628306D01*
X127901367Y-93800706D01*
X127919025Y-93980000D01*
X127901367Y-94159294D01*
X127849069Y-94331694D01*
X127849068Y-94331696D01*
X127764141Y-94490583D01*
X127649849Y-94629849D01*
X127510583Y-94744141D01*
X127351696Y-94829068D01*
X127351694Y-94829069D01*
X127179294Y-94881367D01*
X127044931Y-94894600D01*
X126955069Y-94894600D01*
X126820706Y-94881367D01*
X126648306Y-94829069D01*
X126648304Y-94829068D01*
X126489417Y-94744141D01*
X126350151Y-94629849D01*
X126235859Y-94490583D01*
X126150932Y-94331696D01*
X126150931Y-94331694D01*
X126098633Y-94159294D01*
X126080975Y-93980000D01*
X126098633Y-93800706D01*
X126150931Y-93628306D01*
X126235860Y-93469416D01*
X126350151Y-93330151D01*
X126489416Y-93215860D01*
X126489415Y-93215860D01*
X126489417Y-93215859D01*
X126648304Y-93130932D01*
X126648306Y-93130931D01*
X126820706Y-93078633D01*
X126955069Y-93065400D01*
X127044931Y-93065400D01*
X127179294Y-93078633D01*
X127179294Y-93078633D01*
G37*
G36*
X124639294Y-93078633D02*
X124811694Y-93130931D01*
X124811696Y-93130932D01*
X124970583Y-93215859D01*
X124970585Y-93215860D01*
X124970584Y-93215860D01*
X125109849Y-93330151D01*
X125224140Y-93469416D01*
X125309069Y-93628306D01*
X125361367Y-93800706D01*
X125379025Y-93980000D01*
X125361367Y-94159294D01*
X125309069Y-94331694D01*
X125309068Y-94331696D01*
X125224141Y-94490583D01*
X125109849Y-94629849D01*
X124970583Y-94744141D01*
X124811696Y-94829068D01*
X124811694Y-94829069D01*
X124639294Y-94881367D01*
X124504931Y-94894600D01*
X124415069Y-94894600D01*
X124280706Y-94881367D01*
X124108306Y-94829069D01*
X124108304Y-94829068D01*
X123949417Y-94744141D01*
X123810151Y-94629849D01*
X123695859Y-94490583D01*
X123610932Y-94331696D01*
X123610931Y-94331694D01*
X123558633Y-94159294D01*
X123540975Y-93980000D01*
X123558633Y-93800706D01*
X123610931Y-93628306D01*
X123695860Y-93469416D01*
X123810151Y-93330151D01*
X123949416Y-93215860D01*
X123949415Y-93215860D01*
X123949417Y-93215859D01*
X124108304Y-93130932D01*
X124108306Y-93130931D01*
X124280706Y-93078633D01*
X124415069Y-93065400D01*
X124504931Y-93065400D01*
X124639294Y-93078633D01*
X124639294Y-93078633D01*
G37*
G36*
X124639294Y-90538633D02*
X124811694Y-90590931D01*
X124811696Y-90590932D01*
X124970583Y-90675859D01*
X124970585Y-90675860D01*
X124970584Y-90675860D01*
X125109849Y-90790151D01*
X125224140Y-90929416D01*
X125309069Y-91088306D01*
X125361367Y-91260706D01*
X125379025Y-91440000D01*
X125361367Y-91619294D01*
X125309069Y-91791694D01*
X125309068Y-91791696D01*
X125224141Y-91950583D01*
X125109849Y-92089849D01*
X124970583Y-92204141D01*
X124811696Y-92289068D01*
X124811694Y-92289069D01*
X124639294Y-92341367D01*
X124504931Y-92354600D01*
X124415069Y-92354600D01*
X124280706Y-92341367D01*
X124108306Y-92289069D01*
X124108304Y-92289068D01*
X123949417Y-92204141D01*
X123810151Y-92089849D01*
X123695859Y-91950583D01*
X123610932Y-91791696D01*
X123610931Y-91791694D01*
X123558633Y-91619294D01*
X123540975Y-91440000D01*
X123558633Y-91260706D01*
X123610931Y-91088306D01*
X123695860Y-90929416D01*
X123810151Y-90790151D01*
X123949416Y-90675860D01*
X123949415Y-90675860D01*
X123949417Y-90675859D01*
X124108304Y-90590932D01*
X124108306Y-90590931D01*
X124280706Y-90538633D01*
X124415069Y-90525400D01*
X124504931Y-90525400D01*
X124639294Y-90538633D01*
X124639294Y-90538633D01*
G37*
G36*
X127179294Y-90538633D02*
X127351694Y-90590931D01*
X127351696Y-90590932D01*
X127510583Y-90675859D01*
X127510585Y-90675860D01*
X127510584Y-90675860D01*
X127649849Y-90790151D01*
X127764140Y-90929416D01*
X127849069Y-91088306D01*
X127901367Y-91260706D01*
X127919025Y-91440000D01*
X127901367Y-91619294D01*
X127849069Y-91791694D01*
X127849068Y-91791696D01*
X127764141Y-91950583D01*
X127649849Y-92089849D01*
X127510583Y-92204141D01*
X127351696Y-92289068D01*
X127351694Y-92289069D01*
X127179294Y-92341367D01*
X127044931Y-92354600D01*
X126955069Y-92354600D01*
X126820706Y-92341367D01*
X126648306Y-92289069D01*
X126648304Y-92289068D01*
X126489417Y-92204141D01*
X126350151Y-92089849D01*
X126235859Y-91950583D01*
X126150932Y-91791696D01*
X126150931Y-91791694D01*
X126098633Y-91619294D01*
X126080975Y-91440000D01*
X126098633Y-91260706D01*
X126150931Y-91088306D01*
X126235860Y-90929416D01*
X126350151Y-90790151D01*
X126489416Y-90675860D01*
X126489415Y-90675860D01*
X126489417Y-90675859D01*
X126648304Y-90590932D01*
X126648306Y-90590931D01*
X126820706Y-90538633D01*
X126955069Y-90525400D01*
X127044931Y-90525400D01*
X127179294Y-90538633D01*
X127179294Y-90538633D01*
G37*
G36*
X124639294Y-87998633D02*
X124811694Y-88050931D01*
X124811696Y-88050932D01*
X124970583Y-88135859D01*
X124970585Y-88135860D01*
X124970584Y-88135860D01*
X125109849Y-88250151D01*
X125224140Y-88389416D01*
X125309069Y-88548306D01*
X125361367Y-88720706D01*
X125379025Y-88900000D01*
X125361367Y-89079294D01*
X125309069Y-89251694D01*
X125309068Y-89251696D01*
X125224141Y-89410583D01*
X125109849Y-89549849D01*
X124970583Y-89664141D01*
X124811696Y-89749068D01*
X124811694Y-89749069D01*
X124639294Y-89801367D01*
X124504931Y-89814600D01*
X124415069Y-89814600D01*
X124280706Y-89801367D01*
X124108306Y-89749069D01*
X124108304Y-89749068D01*
X123949417Y-89664141D01*
X123810151Y-89549849D01*
X123695859Y-89410583D01*
X123610932Y-89251696D01*
X123610931Y-89251694D01*
X123558633Y-89079294D01*
X123540975Y-88900000D01*
X123558633Y-88720706D01*
X123610931Y-88548306D01*
X123695860Y-88389416D01*
X123810151Y-88250151D01*
X123949416Y-88135860D01*
X123949415Y-88135860D01*
X123949417Y-88135859D01*
X124108304Y-88050932D01*
X124108306Y-88050931D01*
X124280706Y-87998633D01*
X124415069Y-87985400D01*
X124504931Y-87985400D01*
X124639294Y-87998633D01*
X124639294Y-87998633D01*
G37*
G36*
X127179294Y-87998633D02*
X127351694Y-88050931D01*
X127351696Y-88050932D01*
X127510583Y-88135859D01*
X127510585Y-88135860D01*
X127510584Y-88135860D01*
X127649849Y-88250151D01*
X127764140Y-88389416D01*
X127849069Y-88548306D01*
X127901367Y-88720706D01*
X127919025Y-88900000D01*
X127901367Y-89079294D01*
X127849069Y-89251694D01*
X127849068Y-89251696D01*
X127764141Y-89410583D01*
X127649849Y-89549849D01*
X127510583Y-89664141D01*
X127351696Y-89749068D01*
X127351694Y-89749069D01*
X127179294Y-89801367D01*
X127044931Y-89814600D01*
X126955069Y-89814600D01*
X126820706Y-89801367D01*
X126648306Y-89749069D01*
X126648304Y-89749068D01*
X126489417Y-89664141D01*
X126350151Y-89549849D01*
X126235859Y-89410583D01*
X126150932Y-89251696D01*
X126150931Y-89251694D01*
X126098633Y-89079294D01*
X126080975Y-88900000D01*
X126098633Y-88720706D01*
X126150931Y-88548306D01*
X126235860Y-88389416D01*
X126350151Y-88250151D01*
X126489416Y-88135860D01*
X126489415Y-88135860D01*
X126489417Y-88135859D01*
X126648304Y-88050932D01*
X126648306Y-88050931D01*
X126820706Y-87998633D01*
X126955069Y-87985400D01*
X127044931Y-87985400D01*
X127179294Y-87998633D01*
X127179294Y-87998633D01*
G37*
G36*
X124639294Y-85458633D02*
X124811694Y-85510931D01*
X124811696Y-85510932D01*
X124970583Y-85595859D01*
X124970585Y-85595860D01*
X124970584Y-85595860D01*
X125109849Y-85710151D01*
X125224140Y-85849416D01*
X125309069Y-86008306D01*
X125361367Y-86180706D01*
X125379025Y-86360000D01*
X125361367Y-86539294D01*
X125309069Y-86711694D01*
X125309068Y-86711696D01*
X125224141Y-86870583D01*
X125109849Y-87009849D01*
X124970583Y-87124141D01*
X124811696Y-87209068D01*
X124811694Y-87209069D01*
X124639294Y-87261367D01*
X124504931Y-87274600D01*
X124415069Y-87274600D01*
X124280706Y-87261367D01*
X124108306Y-87209069D01*
X124108304Y-87209068D01*
X123949417Y-87124141D01*
X123810151Y-87009849D01*
X123695859Y-86870583D01*
X123610932Y-86711696D01*
X123610931Y-86711694D01*
X123558633Y-86539294D01*
X123540975Y-86360000D01*
X123558633Y-86180706D01*
X123610931Y-86008306D01*
X123695860Y-85849416D01*
X123810151Y-85710151D01*
X123949416Y-85595860D01*
X123949415Y-85595860D01*
X123949417Y-85595859D01*
X124108304Y-85510932D01*
X124108306Y-85510931D01*
X124280706Y-85458633D01*
X124415069Y-85445400D01*
X124504931Y-85445400D01*
X124639294Y-85458633D01*
X124639294Y-85458633D01*
G37*
G36*
X127179294Y-85458633D02*
X127351694Y-85510931D01*
X127351696Y-85510932D01*
X127510583Y-85595859D01*
X127510585Y-85595860D01*
X127510584Y-85595860D01*
X127649849Y-85710151D01*
X127764140Y-85849416D01*
X127849069Y-86008306D01*
X127901367Y-86180706D01*
X127919025Y-86360000D01*
X127901367Y-86539294D01*
X127849069Y-86711694D01*
X127849068Y-86711696D01*
X127764141Y-86870583D01*
X127649849Y-87009849D01*
X127510583Y-87124141D01*
X127351696Y-87209068D01*
X127351694Y-87209069D01*
X127179294Y-87261367D01*
X127044931Y-87274600D01*
X126955069Y-87274600D01*
X126820706Y-87261367D01*
X126648306Y-87209069D01*
X126648304Y-87209068D01*
X126489417Y-87124141D01*
X126350151Y-87009849D01*
X126235859Y-86870583D01*
X126150932Y-86711696D01*
X126150931Y-86711694D01*
X126098633Y-86539294D01*
X126080975Y-86360000D01*
X126098633Y-86180706D01*
X126150931Y-86008306D01*
X126235860Y-85849416D01*
X126350151Y-85710151D01*
X126489416Y-85595860D01*
X126489415Y-85595860D01*
X126489417Y-85595859D01*
X126648304Y-85510932D01*
X126648306Y-85510931D01*
X126820706Y-85458633D01*
X126955069Y-85445400D01*
X127044931Y-85445400D01*
X127179294Y-85458633D01*
X127179294Y-85458633D01*
G37*
G36*
X124639294Y-82918633D02*
X124811694Y-82970931D01*
X124811696Y-82970932D01*
X124970583Y-83055859D01*
X124970585Y-83055860D01*
X124970584Y-83055860D01*
X125109849Y-83170151D01*
X125224140Y-83309416D01*
X125309069Y-83468306D01*
X125361367Y-83640706D01*
X125379025Y-83820000D01*
X125361367Y-83999294D01*
X125309069Y-84171694D01*
X125309068Y-84171696D01*
X125224141Y-84330583D01*
X125109849Y-84469849D01*
X124970583Y-84584141D01*
X124811696Y-84669068D01*
X124811694Y-84669069D01*
X124639294Y-84721367D01*
X124504931Y-84734600D01*
X124415069Y-84734600D01*
X124280706Y-84721367D01*
X124108306Y-84669069D01*
X124108304Y-84669068D01*
X123949417Y-84584141D01*
X123810151Y-84469849D01*
X123695859Y-84330583D01*
X123610932Y-84171696D01*
X123610931Y-84171694D01*
X123558633Y-83999294D01*
X123540975Y-83820000D01*
X123558633Y-83640706D01*
X123610931Y-83468306D01*
X123695860Y-83309416D01*
X123810151Y-83170151D01*
X123949416Y-83055860D01*
X123949415Y-83055860D01*
X123949417Y-83055859D01*
X124108304Y-82970932D01*
X124108306Y-82970931D01*
X124280706Y-82918633D01*
X124415069Y-82905400D01*
X124504931Y-82905400D01*
X124639294Y-82918633D01*
X124639294Y-82918633D01*
G37*
G36*
X127179294Y-82918633D02*
X127351694Y-82970931D01*
X127351696Y-82970932D01*
X127510583Y-83055859D01*
X127510585Y-83055860D01*
X127510584Y-83055860D01*
X127649849Y-83170151D01*
X127764140Y-83309416D01*
X127849069Y-83468306D01*
X127901367Y-83640706D01*
X127919025Y-83820000D01*
X127901367Y-83999294D01*
X127849069Y-84171694D01*
X127849068Y-84171696D01*
X127764141Y-84330583D01*
X127649849Y-84469849D01*
X127510583Y-84584141D01*
X127351696Y-84669068D01*
X127351694Y-84669069D01*
X127179294Y-84721367D01*
X127044931Y-84734600D01*
X126955069Y-84734600D01*
X126820706Y-84721367D01*
X126648306Y-84669069D01*
X126648304Y-84669068D01*
X126489417Y-84584141D01*
X126350151Y-84469849D01*
X126235859Y-84330583D01*
X126150932Y-84171696D01*
X126150931Y-84171694D01*
X126098633Y-83999294D01*
X126080975Y-83820000D01*
X126098633Y-83640706D01*
X126150931Y-83468306D01*
X126235860Y-83309416D01*
X126350151Y-83170151D01*
X126489416Y-83055860D01*
X126489415Y-83055860D01*
X126489417Y-83055859D01*
X126648304Y-82970932D01*
X126648306Y-82970931D01*
X126820706Y-82918633D01*
X126955069Y-82905400D01*
X127044931Y-82905400D01*
X127179294Y-82918633D01*
X127179294Y-82918633D01*
G37*
G36*
X124639294Y-80378633D02*
X124811694Y-80430931D01*
X124811696Y-80430932D01*
X124970583Y-80515859D01*
X124970585Y-80515860D01*
X124970584Y-80515860D01*
X125109849Y-80630151D01*
X125224140Y-80769416D01*
X125309069Y-80928306D01*
X125361367Y-81100706D01*
X125379025Y-81280000D01*
X125361367Y-81459294D01*
X125309069Y-81631694D01*
X125309068Y-81631696D01*
X125224141Y-81790583D01*
X125109849Y-81929849D01*
X124970583Y-82044141D01*
X124811696Y-82129068D01*
X124811694Y-82129069D01*
X124639294Y-82181367D01*
X124504931Y-82194600D01*
X124415069Y-82194600D01*
X124280706Y-82181367D01*
X124108306Y-82129069D01*
X124108304Y-82129068D01*
X123949417Y-82044141D01*
X123810151Y-81929849D01*
X123695859Y-81790583D01*
X123610932Y-81631696D01*
X123610931Y-81631694D01*
X123558633Y-81459294D01*
X123540975Y-81280000D01*
X123558633Y-81100706D01*
X123610931Y-80928306D01*
X123695860Y-80769416D01*
X123810151Y-80630151D01*
X123949416Y-80515860D01*
X123949415Y-80515860D01*
X123949417Y-80515859D01*
X124108304Y-80430932D01*
X124108306Y-80430931D01*
X124280706Y-80378633D01*
X124415069Y-80365400D01*
X124504931Y-80365400D01*
X124639294Y-80378633D01*
X124639294Y-80378633D01*
G37*
G36*
X127179294Y-80378633D02*
X127351694Y-80430931D01*
X127351696Y-80430932D01*
X127510583Y-80515859D01*
X127510585Y-80515860D01*
X127510584Y-80515860D01*
X127649849Y-80630151D01*
X127764140Y-80769416D01*
X127849069Y-80928306D01*
X127901367Y-81100706D01*
X127919025Y-81280000D01*
X127901367Y-81459294D01*
X127849069Y-81631694D01*
X127849068Y-81631696D01*
X127764141Y-81790583D01*
X127649849Y-81929849D01*
X127510583Y-82044141D01*
X127351696Y-82129068D01*
X127351694Y-82129069D01*
X127179294Y-82181367D01*
X127044931Y-82194600D01*
X126955069Y-82194600D01*
X126820706Y-82181367D01*
X126648306Y-82129069D01*
X126648304Y-82129068D01*
X126489417Y-82044141D01*
X126350151Y-81929849D01*
X126235859Y-81790583D01*
X126150932Y-81631696D01*
X126150931Y-81631694D01*
X126098633Y-81459294D01*
X126080975Y-81280000D01*
X126098633Y-81100706D01*
X126150931Y-80928306D01*
X126235860Y-80769416D01*
X126350151Y-80630151D01*
X126489416Y-80515860D01*
X126489415Y-80515860D01*
X126489417Y-80515859D01*
X126648304Y-80430932D01*
X126648306Y-80430931D01*
X126820706Y-80378633D01*
X126955069Y-80365400D01*
X127044931Y-80365400D01*
X127179294Y-80378633D01*
X127179294Y-80378633D01*
G37*
G36*
X124639294Y-77838633D02*
X124811694Y-77890931D01*
X124811696Y-77890932D01*
X124970583Y-77975859D01*
X124970585Y-77975860D01*
X124970584Y-77975860D01*
X125109849Y-78090151D01*
X125224140Y-78229416D01*
X125309069Y-78388306D01*
X125361367Y-78560706D01*
X125379025Y-78740000D01*
X125361367Y-78919294D01*
X125309069Y-79091694D01*
X125309068Y-79091696D01*
X125224141Y-79250583D01*
X125109849Y-79389849D01*
X124970583Y-79504141D01*
X124811696Y-79589068D01*
X124811694Y-79589069D01*
X124639294Y-79641367D01*
X124504931Y-79654600D01*
X124415069Y-79654600D01*
X124280706Y-79641367D01*
X124108306Y-79589069D01*
X124108304Y-79589068D01*
X123949417Y-79504141D01*
X123810151Y-79389849D01*
X123695859Y-79250583D01*
X123610932Y-79091696D01*
X123610931Y-79091694D01*
X123558633Y-78919294D01*
X123540975Y-78740000D01*
X123558633Y-78560706D01*
X123610931Y-78388306D01*
X123695860Y-78229416D01*
X123810151Y-78090151D01*
X123949416Y-77975860D01*
X123949415Y-77975860D01*
X123949417Y-77975859D01*
X124108304Y-77890932D01*
X124108306Y-77890931D01*
X124280706Y-77838633D01*
X124415069Y-77825400D01*
X124504931Y-77825400D01*
X124639294Y-77838633D01*
X124639294Y-77838633D01*
G37*
G36*
X127179294Y-77838633D02*
X127351694Y-77890931D01*
X127351696Y-77890932D01*
X127510583Y-77975859D01*
X127510585Y-77975860D01*
X127510584Y-77975860D01*
X127649849Y-78090151D01*
X127764140Y-78229416D01*
X127849069Y-78388306D01*
X127901367Y-78560706D01*
X127919025Y-78740000D01*
X127901367Y-78919294D01*
X127849069Y-79091694D01*
X127849068Y-79091696D01*
X127764141Y-79250583D01*
X127649849Y-79389849D01*
X127510583Y-79504141D01*
X127351696Y-79589068D01*
X127351694Y-79589069D01*
X127179294Y-79641367D01*
X127044931Y-79654600D01*
X126955069Y-79654600D01*
X126820706Y-79641367D01*
X126648306Y-79589069D01*
X126648304Y-79589068D01*
X126489417Y-79504141D01*
X126350151Y-79389849D01*
X126235859Y-79250583D01*
X126150932Y-79091696D01*
X126150931Y-79091694D01*
X126098633Y-78919294D01*
X126080975Y-78740000D01*
X126098633Y-78560706D01*
X126150931Y-78388306D01*
X126235860Y-78229416D01*
X126350151Y-78090151D01*
X126489416Y-77975860D01*
X126489415Y-77975860D01*
X126489417Y-77975859D01*
X126648304Y-77890932D01*
X126648306Y-77890931D01*
X126820706Y-77838633D01*
X126955069Y-77825400D01*
X127044931Y-77825400D01*
X127179294Y-77838633D01*
X127179294Y-77838633D01*
G37*
G36*
X127179294Y-75298633D02*
X127351694Y-75350931D01*
X127351696Y-75350932D01*
X127510583Y-75435859D01*
X127510585Y-75435860D01*
X127510584Y-75435860D01*
X127649849Y-75550151D01*
X127764140Y-75689416D01*
X127849069Y-75848306D01*
X127901367Y-76020706D01*
X127919025Y-76200000D01*
X127901367Y-76379294D01*
X127849069Y-76551694D01*
X127849068Y-76551696D01*
X127764141Y-76710583D01*
X127649849Y-76849849D01*
X127510583Y-76964141D01*
X127351696Y-77049068D01*
X127351694Y-77049069D01*
X127179294Y-77101367D01*
X127044931Y-77114600D01*
X126955069Y-77114600D01*
X126820706Y-77101367D01*
X126648306Y-77049069D01*
X126648304Y-77049068D01*
X126489417Y-76964141D01*
X126350151Y-76849849D01*
X126235859Y-76710583D01*
X126150932Y-76551696D01*
X126150931Y-76551694D01*
X126098633Y-76379294D01*
X126080975Y-76200000D01*
X126098633Y-76020706D01*
X126150931Y-75848306D01*
X126235860Y-75689416D01*
X126350151Y-75550151D01*
X126489416Y-75435860D01*
X126489415Y-75435860D01*
X126489417Y-75435859D01*
X126648304Y-75350932D01*
X126648306Y-75350931D01*
X126820706Y-75298633D01*
X126955069Y-75285400D01*
X127044931Y-75285400D01*
X127179294Y-75298633D01*
X127179294Y-75298633D01*
G37*
G36*
X124639294Y-75298633D02*
X124811694Y-75350931D01*
X124811696Y-75350932D01*
X124970583Y-75435859D01*
X124970585Y-75435860D01*
X124970584Y-75435860D01*
X125109849Y-75550151D01*
X125224140Y-75689416D01*
X125309069Y-75848306D01*
X125361367Y-76020706D01*
X125379025Y-76200000D01*
X125361367Y-76379294D01*
X125309069Y-76551694D01*
X125309068Y-76551696D01*
X125224141Y-76710583D01*
X125109849Y-76849849D01*
X124970583Y-76964141D01*
X124811696Y-77049068D01*
X124811694Y-77049069D01*
X124639294Y-77101367D01*
X124504931Y-77114600D01*
X124415069Y-77114600D01*
X124280706Y-77101367D01*
X124108306Y-77049069D01*
X124108304Y-77049068D01*
X123949417Y-76964141D01*
X123810151Y-76849849D01*
X123695859Y-76710583D01*
X123610932Y-76551696D01*
X123610931Y-76551694D01*
X123558633Y-76379294D01*
X123540975Y-76200000D01*
X123558633Y-76020706D01*
X123610931Y-75848306D01*
X123695860Y-75689416D01*
X123810151Y-75550151D01*
X123949416Y-75435860D01*
X123949415Y-75435860D01*
X123949417Y-75435859D01*
X124108304Y-75350932D01*
X124108306Y-75350931D01*
X124280706Y-75298633D01*
X124415069Y-75285400D01*
X124504931Y-75285400D01*
X124639294Y-75298633D01*
X124639294Y-75298633D01*
G37*
G36*
X124104600Y-66954600D02*
X122275400Y-66954600D01*
X122275400Y-65125400D01*
X124104600Y-65125400D01*
X124104600Y-66954600D01*
X124104600Y-66954600D01*
G37*
G36*
X125909294Y-65138633D02*
X126081694Y-65190931D01*
X126081696Y-65190932D01*
X126240583Y-65275859D01*
X126240585Y-65275860D01*
X126240584Y-65275860D01*
X126379849Y-65390151D01*
X126494140Y-65529416D01*
X126579069Y-65688306D01*
X126631367Y-65860706D01*
X126649025Y-66040000D01*
X126631367Y-66219294D01*
X126579069Y-66391694D01*
X126579068Y-66391696D01*
X126494141Y-66550583D01*
X126379849Y-66689849D01*
X126240583Y-66804141D01*
X126081696Y-66889068D01*
X126081694Y-66889069D01*
X125909294Y-66941367D01*
X125774931Y-66954600D01*
X125685069Y-66954600D01*
X125550706Y-66941367D01*
X125378306Y-66889069D01*
X125378304Y-66889068D01*
X125219417Y-66804141D01*
X125080151Y-66689849D01*
X124965859Y-66550583D01*
X124880932Y-66391696D01*
X124880931Y-66391694D01*
X124828633Y-66219294D01*
X124810975Y-66040000D01*
X124828633Y-65860706D01*
X124880931Y-65688306D01*
X124965860Y-65529416D01*
X125080151Y-65390151D01*
X125219416Y-65275860D01*
X125219415Y-65275860D01*
X125219417Y-65275859D01*
X125378304Y-65190932D01*
X125378306Y-65190931D01*
X125550706Y-65138633D01*
X125685069Y-65125400D01*
X125774931Y-65125400D01*
X125909294Y-65138633D01*
X125909294Y-65138633D01*
G37*
G36*
X128449294Y-65138633D02*
X128621694Y-65190931D01*
X128621696Y-65190932D01*
X128780583Y-65275859D01*
X128780585Y-65275860D01*
X128780584Y-65275860D01*
X128919849Y-65390151D01*
X129034140Y-65529416D01*
X129119069Y-65688306D01*
X129171367Y-65860706D01*
X129189025Y-66040000D01*
X129171367Y-66219294D01*
X129119069Y-66391694D01*
X129119068Y-66391696D01*
X129034141Y-66550583D01*
X128919849Y-66689849D01*
X128780583Y-66804141D01*
X128621696Y-66889068D01*
X128621694Y-66889069D01*
X128449294Y-66941367D01*
X128314931Y-66954600D01*
X128225069Y-66954600D01*
X128090706Y-66941367D01*
X127918306Y-66889069D01*
X127918304Y-66889068D01*
X127759417Y-66804141D01*
X127620151Y-66689849D01*
X127505859Y-66550583D01*
X127420932Y-66391696D01*
X127420931Y-66391694D01*
X127368633Y-66219294D01*
X127350975Y-66040000D01*
X127368633Y-65860706D01*
X127420931Y-65688306D01*
X127505860Y-65529416D01*
X127620151Y-65390151D01*
X127759416Y-65275860D01*
X127759415Y-65275860D01*
X127759417Y-65275859D01*
X127918304Y-65190932D01*
X127918306Y-65190931D01*
X128090706Y-65138633D01*
X128225069Y-65125400D01*
X128314931Y-65125400D01*
X128449294Y-65138633D01*
X128449294Y-65138633D01*
G37*
G36*
X128449294Y-62598633D02*
X128621694Y-62650931D01*
X128621696Y-62650932D01*
X128780583Y-62735859D01*
X128780585Y-62735860D01*
X128780584Y-62735860D01*
X128919849Y-62850151D01*
X129034140Y-62989416D01*
X129119069Y-63148306D01*
X129171367Y-63320706D01*
X129189025Y-63500000D01*
X129171367Y-63679294D01*
X129119069Y-63851694D01*
X129119068Y-63851696D01*
X129034141Y-64010583D01*
X128919849Y-64149849D01*
X128780583Y-64264141D01*
X128621696Y-64349068D01*
X128621694Y-64349069D01*
X128449294Y-64401367D01*
X128314931Y-64414600D01*
X128225069Y-64414600D01*
X128090706Y-64401367D01*
X127918306Y-64349069D01*
X127918304Y-64349068D01*
X127759417Y-64264141D01*
X127620151Y-64149849D01*
X127505859Y-64010583D01*
X127420932Y-63851696D01*
X127420931Y-63851694D01*
X127368633Y-63679294D01*
X127350975Y-63500000D01*
X127368633Y-63320706D01*
X127420931Y-63148306D01*
X127505860Y-62989416D01*
X127620151Y-62850151D01*
X127759416Y-62735860D01*
X127759415Y-62735860D01*
X127759417Y-62735859D01*
X127918304Y-62650932D01*
X127918306Y-62650931D01*
X128090706Y-62598633D01*
X128225069Y-62585400D01*
X128314931Y-62585400D01*
X128449294Y-62598633D01*
X128449294Y-62598633D01*
G37*
G36*
X125909294Y-62598633D02*
X126081694Y-62650931D01*
X126081696Y-62650932D01*
X126240583Y-62735859D01*
X126240585Y-62735860D01*
X126240584Y-62735860D01*
X126379849Y-62850151D01*
X126494140Y-62989416D01*
X126579069Y-63148306D01*
X126631367Y-63320706D01*
X126649025Y-63500000D01*
X126631367Y-63679294D01*
X126579069Y-63851694D01*
X126579068Y-63851696D01*
X126494141Y-64010583D01*
X126379849Y-64149849D01*
X126240583Y-64264141D01*
X126081696Y-64349068D01*
X126081694Y-64349069D01*
X125909294Y-64401367D01*
X125774931Y-64414600D01*
X125685069Y-64414600D01*
X125550706Y-64401367D01*
X125378306Y-64349069D01*
X125378304Y-64349068D01*
X125219417Y-64264141D01*
X125080151Y-64149849D01*
X124965859Y-64010583D01*
X124880932Y-63851696D01*
X124880931Y-63851694D01*
X124828633Y-63679294D01*
X124810975Y-63500000D01*
X124828633Y-63320706D01*
X124880931Y-63148306D01*
X124965860Y-62989416D01*
X125080151Y-62850151D01*
X125219416Y-62735860D01*
X125219415Y-62735860D01*
X125219417Y-62735859D01*
X125378304Y-62650932D01*
X125378306Y-62650931D01*
X125550706Y-62598633D01*
X125685069Y-62585400D01*
X125774931Y-62585400D01*
X125909294Y-62598633D01*
X125909294Y-62598633D01*
G37*
G36*
X123369294Y-62598633D02*
X123541694Y-62650931D01*
X123541696Y-62650932D01*
X123700583Y-62735859D01*
X123700585Y-62735860D01*
X123700584Y-62735860D01*
X123839849Y-62850151D01*
X123954140Y-62989416D01*
X124039069Y-63148306D01*
X124091367Y-63320706D01*
X124109025Y-63500000D01*
X124091367Y-63679294D01*
X124039069Y-63851694D01*
X124039068Y-63851696D01*
X123954141Y-64010583D01*
X123839849Y-64149849D01*
X123700583Y-64264141D01*
X123541696Y-64349068D01*
X123541694Y-64349069D01*
X123369294Y-64401367D01*
X123234931Y-64414600D01*
X123145069Y-64414600D01*
X123010706Y-64401367D01*
X122838306Y-64349069D01*
X122838304Y-64349068D01*
X122679417Y-64264141D01*
X122540151Y-64149849D01*
X122425859Y-64010583D01*
X122340932Y-63851696D01*
X122340931Y-63851694D01*
X122288633Y-63679294D01*
X122270975Y-63500000D01*
X122288633Y-63320706D01*
X122340931Y-63148306D01*
X122425860Y-62989416D01*
X122540151Y-62850151D01*
X122679416Y-62735860D01*
X122679415Y-62735860D01*
X122679417Y-62735859D01*
X122838304Y-62650932D01*
X122838306Y-62650931D01*
X123010706Y-62598633D01*
X123145069Y-62585400D01*
X123234931Y-62585400D01*
X123369294Y-62598633D01*
X123369294Y-62598633D01*
G37*
G36*
X115044096Y-58507033D02*
X115044098Y-58507034D01*
X115044099Y-58507034D01*
X115508352Y-58699333D01*
X115924284Y-58977250D01*
X115926171Y-58978511D01*
X116281489Y-59333829D01*
X116281491Y-59333832D01*
X116560667Y-59751648D01*
X116752966Y-60215901D01*
X116851000Y-60708748D01*
X116851000Y-61211252D01*
X116752966Y-61704099D01*
X116560667Y-62168352D01*
X116282750Y-62584284D01*
X116281489Y-62586171D01*
X115926171Y-62941489D01*
X115926168Y-62941491D01*
X115508352Y-63220667D01*
X115044099Y-63412966D01*
X115044098Y-63412966D01*
X115044096Y-63412967D01*
X114551253Y-63511000D01*
X114048747Y-63511000D01*
X113555904Y-63412967D01*
X113555902Y-63412966D01*
X113555901Y-63412966D01*
X113091648Y-63220667D01*
X112673832Y-62941491D01*
X112673829Y-62941489D01*
X112318511Y-62586171D01*
X112317250Y-62584284D01*
X112039333Y-62168352D01*
X111847034Y-61704099D01*
X111749000Y-61211252D01*
X111749000Y-60708748D01*
X111847034Y-60215901D01*
X112039333Y-59751648D01*
X112318509Y-59333832D01*
X112318511Y-59333829D01*
X112673829Y-58978511D01*
X112675716Y-58977250D01*
X113091648Y-58699333D01*
X113555901Y-58507034D01*
X113555902Y-58507034D01*
X113555904Y-58507033D01*
X114048747Y-58409000D01*
X114551253Y-58409000D01*
X115044096Y-58507033D01*
X115044096Y-58507033D01*
G37*
M02*
