G04 #@! TF.GenerationSoftware,KiCad,Pcbnew,5.0.2+dfsg1-1*
G04 #@! TF.CreationDate,2019-05-16T22:01:56-07:00*
G04 #@! TF.ProjectId,jlink-c2d-adapter,6a6c696e-6b2d-4633-9264-2d6164617074,rev?*
G04 #@! TF.SameCoordinates,Original*
G04 #@! TF.FileFunction,Legend,Top*
G04 #@! TF.FilePolarity,Positive*
%FSLAX46Y46*%
G04 Gerber Fmt 4.6, Leading zero omitted, Abs format (unit mm)*
G04 Created by KiCad (PCBNEW 5.0.2+dfsg1-1) date Thu 16 May 2019 10:01:56 PM PDT*
%MOMM*%
%LPD*%
G01*
G04 APERTURE LIST*
%ADD10C,0.150000*%
%ADD11C,0.127000*%
%ADD12C,0.120000*%
G04 APERTURE END LIST*
D10*
G36*
X123190000Y-68580000D02*
X123190000Y-69850000D01*
X128270000Y-69850000D01*
X128270000Y-68580000D01*
X123190000Y-68580000D01*
G37*
X123190000Y-68580000D02*
X123190000Y-69850000D01*
X128270000Y-69850000D01*
X128270000Y-68580000D01*
X123190000Y-68580000D01*
D11*
X132464523Y-100981259D02*
X132505000Y-101021735D01*
X132545476Y-101102688D01*
X132545476Y-101305069D01*
X132505000Y-101386021D01*
X132464523Y-101426497D01*
X132383571Y-101466973D01*
X132302619Y-101466973D01*
X132181190Y-101426497D01*
X131695476Y-100940783D01*
X131695476Y-101466973D01*
X132545476Y-101993164D02*
X132545476Y-102074116D01*
X132505000Y-102155069D01*
X132464523Y-102195545D01*
X132383571Y-102236021D01*
X132221666Y-102276497D01*
X132019285Y-102276497D01*
X131857380Y-102236021D01*
X131776428Y-102195545D01*
X131735952Y-102155069D01*
X131695476Y-102074116D01*
X131695476Y-101993164D01*
X131735952Y-101912211D01*
X131776428Y-101871735D01*
X131857380Y-101831259D01*
X132019285Y-101790783D01*
X132221666Y-101790783D01*
X132383571Y-101831259D01*
X132464523Y-101871735D01*
X132505000Y-101912211D01*
X132545476Y-101993164D01*
X131695476Y-103086021D02*
X131695476Y-102600307D01*
X131695476Y-102843164D02*
X132545476Y-102843164D01*
X132424047Y-102762211D01*
X132343095Y-102681259D01*
X132302619Y-102600307D01*
X131695476Y-103490783D02*
X131695476Y-103652688D01*
X131735952Y-103733640D01*
X131776428Y-103774116D01*
X131897857Y-103855069D01*
X132059761Y-103895545D01*
X132383571Y-103895545D01*
X132464523Y-103855069D01*
X132505000Y-103814592D01*
X132545476Y-103733640D01*
X132545476Y-103571735D01*
X132505000Y-103490783D01*
X132464523Y-103450307D01*
X132383571Y-103409830D01*
X132181190Y-103409830D01*
X132100238Y-103450307D01*
X132059761Y-103490783D01*
X132019285Y-103571735D01*
X132019285Y-103733640D01*
X132059761Y-103814592D01*
X132100238Y-103855069D01*
X132181190Y-103895545D01*
X132262142Y-71404930D02*
X131533571Y-71404930D01*
X131452619Y-71364454D01*
X131412142Y-71283502D01*
X131412142Y-71243026D01*
X132545476Y-71404930D02*
X132505000Y-71364454D01*
X132464523Y-71404930D01*
X132505000Y-71445407D01*
X132545476Y-71404930D01*
X132464523Y-71404930D01*
X131735952Y-72133502D02*
X131695476Y-72052550D01*
X131695476Y-71890645D01*
X131735952Y-71809692D01*
X131816904Y-71769216D01*
X132140714Y-71769216D01*
X132221666Y-71809692D01*
X132262142Y-71890645D01*
X132262142Y-72052550D01*
X132221666Y-72133502D01*
X132140714Y-72173978D01*
X132059761Y-72173978D01*
X131978809Y-71769216D01*
X131695476Y-72538264D02*
X132262142Y-72538264D01*
X132100238Y-72538264D02*
X132181190Y-72578740D01*
X132221666Y-72619216D01*
X132262142Y-72700169D01*
X132262142Y-72781121D01*
X131735952Y-73388264D02*
X131695476Y-73307311D01*
X131695476Y-73145407D01*
X131735952Y-73064454D01*
X131816904Y-73023978D01*
X132140714Y-73023978D01*
X132221666Y-73064454D01*
X132262142Y-73145407D01*
X132262142Y-73307311D01*
X132221666Y-73388264D01*
X132140714Y-73428740D01*
X132059761Y-73428740D01*
X131978809Y-73023978D01*
X131695476Y-73793026D02*
X132262142Y-73793026D01*
X132181190Y-73793026D02*
X132221666Y-73833502D01*
X132262142Y-73914454D01*
X132262142Y-74035883D01*
X132221666Y-74116835D01*
X132140714Y-74157311D01*
X131695476Y-74157311D01*
X132140714Y-74157311D02*
X132221666Y-74197788D01*
X132262142Y-74278740D01*
X132262142Y-74400169D01*
X132221666Y-74481121D01*
X132140714Y-74521597D01*
X131695476Y-74521597D01*
X132262142Y-74845407D02*
X131695476Y-75047788D01*
X132262142Y-75250169D02*
X131695476Y-75047788D01*
X131493095Y-74966835D01*
X131452619Y-74926359D01*
X131412142Y-74845407D01*
X132100238Y-76100169D02*
X132140714Y-76059692D01*
X132181190Y-75978740D01*
X132181190Y-75897788D01*
X132140714Y-75816835D01*
X132100238Y-75776359D01*
X132019285Y-75735883D01*
X131938333Y-75735883D01*
X131857380Y-75776359D01*
X131816904Y-75816835D01*
X131776428Y-75897788D01*
X131776428Y-75978740D01*
X131816904Y-76059692D01*
X131857380Y-76100169D01*
X132181190Y-76100169D02*
X131857380Y-76100169D01*
X131816904Y-76140645D01*
X131816904Y-76181121D01*
X131857380Y-76262073D01*
X131938333Y-76302550D01*
X132140714Y-76302550D01*
X132262142Y-76221597D01*
X132343095Y-76100169D01*
X132383571Y-75938264D01*
X132343095Y-75776359D01*
X132262142Y-75654930D01*
X132140714Y-75573978D01*
X131978809Y-75533502D01*
X131816904Y-75573978D01*
X131695476Y-75654930D01*
X131614523Y-75776359D01*
X131574047Y-75938264D01*
X131614523Y-76100169D01*
X131695476Y-76221597D01*
X131735952Y-76626359D02*
X131695476Y-76707311D01*
X131695476Y-76869216D01*
X131735952Y-76950169D01*
X131816904Y-76990645D01*
X131857380Y-76990645D01*
X131938333Y-76950169D01*
X131978809Y-76869216D01*
X131978809Y-76747788D01*
X132019285Y-76666835D01*
X132100238Y-76626359D01*
X132140714Y-76626359D01*
X132221666Y-76666835D01*
X132262142Y-76747788D01*
X132262142Y-76869216D01*
X132221666Y-76950169D01*
X132262142Y-77273978D02*
X131695476Y-77476359D01*
X132262142Y-77678740D02*
X131695476Y-77476359D01*
X131493095Y-77395407D01*
X131452619Y-77354930D01*
X131412142Y-77273978D01*
X132262142Y-78002550D02*
X131695476Y-78002550D01*
X132181190Y-78002550D02*
X132221666Y-78043026D01*
X132262142Y-78123978D01*
X132262142Y-78245407D01*
X132221666Y-78326359D01*
X132140714Y-78366835D01*
X131695476Y-78366835D01*
X131695476Y-79135883D02*
X132140714Y-79135883D01*
X132221666Y-79095407D01*
X132262142Y-79014454D01*
X132262142Y-78852550D01*
X132221666Y-78771597D01*
X131735952Y-79135883D02*
X131695476Y-79054930D01*
X131695476Y-78852550D01*
X131735952Y-78771597D01*
X131816904Y-78731121D01*
X131897857Y-78731121D01*
X131978809Y-78771597D01*
X132019285Y-78852550D01*
X132019285Y-79054930D01*
X132059761Y-79135883D01*
X131735952Y-79904930D02*
X131695476Y-79823978D01*
X131695476Y-79662073D01*
X131735952Y-79581121D01*
X131776428Y-79540645D01*
X131857380Y-79500169D01*
X132100238Y-79500169D01*
X132181190Y-79540645D01*
X132221666Y-79581121D01*
X132262142Y-79662073D01*
X132262142Y-79823978D01*
X132221666Y-79904930D01*
X131695476Y-80269216D02*
X132545476Y-80269216D01*
X132019285Y-80350169D02*
X131695476Y-80593026D01*
X132262142Y-80593026D02*
X131938333Y-80269216D01*
X131776428Y-80957311D02*
X131735952Y-80997788D01*
X131695476Y-80957311D01*
X131735952Y-80916835D01*
X131776428Y-80957311D01*
X131695476Y-80957311D01*
X131695476Y-81362073D02*
X132262142Y-81362073D01*
X132181190Y-81362073D02*
X132221666Y-81402550D01*
X132262142Y-81483502D01*
X132262142Y-81604930D01*
X132221666Y-81685883D01*
X132140714Y-81726359D01*
X131695476Y-81726359D01*
X132140714Y-81726359D02*
X132221666Y-81766835D01*
X132262142Y-81847788D01*
X132262142Y-81969216D01*
X132221666Y-82050169D01*
X132140714Y-82090645D01*
X131695476Y-82090645D01*
X131735952Y-82819216D02*
X131695476Y-82738264D01*
X131695476Y-82576359D01*
X131735952Y-82495407D01*
X131816904Y-82454930D01*
X132140714Y-82454930D01*
X132221666Y-82495407D01*
X132262142Y-82576359D01*
X132262142Y-82738264D01*
X132221666Y-82819216D01*
X132140714Y-82859692D01*
X132059761Y-82859692D01*
X131978809Y-82454930D01*
D10*
G36*
X129540000Y-85090000D02*
X130810000Y-85090000D01*
X130810000Y-90170000D01*
X129540000Y-90170000D01*
X129540000Y-85090000D01*
G37*
X129540000Y-85090000D02*
X130810000Y-85090000D01*
X130810000Y-90170000D01*
X129540000Y-90170000D01*
X129540000Y-85090000D01*
D11*
X118887100Y-94597380D02*
X118887100Y-95447380D01*
X117725476Y-95285476D02*
X118130238Y-95002142D01*
X117725476Y-94799761D02*
X118575476Y-94799761D01*
X118575476Y-95123571D01*
X118535000Y-95204523D01*
X118494523Y-95245000D01*
X118413571Y-95285476D01*
X118292142Y-95285476D01*
X118211190Y-95245000D01*
X118170714Y-95204523D01*
X118130238Y-95123571D01*
X118130238Y-94799761D01*
X118887100Y-95447380D02*
X118887100Y-96216428D01*
X118170714Y-95649761D02*
X118170714Y-95933095D01*
X117725476Y-96054523D02*
X117725476Y-95649761D01*
X118575476Y-95649761D01*
X118575476Y-96054523D01*
X118887100Y-96216428D02*
X118887100Y-97025952D01*
X117765952Y-96378333D02*
X117725476Y-96499761D01*
X117725476Y-96702142D01*
X117765952Y-96783095D01*
X117806428Y-96823571D01*
X117887380Y-96864047D01*
X117968333Y-96864047D01*
X118049285Y-96823571D01*
X118089761Y-96783095D01*
X118130238Y-96702142D01*
X118170714Y-96540238D01*
X118211190Y-96459285D01*
X118251666Y-96418809D01*
X118332619Y-96378333D01*
X118413571Y-96378333D01*
X118494523Y-96418809D01*
X118535000Y-96459285D01*
X118575476Y-96540238D01*
X118575476Y-96742619D01*
X118535000Y-96864047D01*
X118887100Y-97025952D02*
X118887100Y-97795000D01*
X118170714Y-97228333D02*
X118170714Y-97511666D01*
X117725476Y-97633095D02*
X117725476Y-97228333D01*
X118575476Y-97228333D01*
X118575476Y-97633095D01*
X118887100Y-97795000D02*
X118887100Y-98442619D01*
X118575476Y-97875952D02*
X118575476Y-98361666D01*
X117725476Y-98118809D02*
X118575476Y-98118809D01*
X117806428Y-90873333D02*
X117765952Y-90832857D01*
X117725476Y-90711428D01*
X117725476Y-90630476D01*
X117765952Y-90509047D01*
X117846904Y-90428095D01*
X117927857Y-90387619D01*
X118089761Y-90347142D01*
X118211190Y-90347142D01*
X118373095Y-90387619D01*
X118454047Y-90428095D01*
X118535000Y-90509047D01*
X118575476Y-90630476D01*
X118575476Y-90711428D01*
X118535000Y-90832857D01*
X118494523Y-90873333D01*
X118494523Y-91197142D02*
X118535000Y-91237619D01*
X118575476Y-91318571D01*
X118575476Y-91520952D01*
X118535000Y-91601904D01*
X118494523Y-91642380D01*
X118413571Y-91682857D01*
X118332619Y-91682857D01*
X118211190Y-91642380D01*
X117725476Y-91156666D01*
X117725476Y-91682857D01*
X117725476Y-92047142D02*
X118575476Y-92047142D01*
X118575476Y-92249523D01*
X118535000Y-92370952D01*
X118454047Y-92451904D01*
X118373095Y-92492380D01*
X118211190Y-92532857D01*
X118089761Y-92532857D01*
X117927857Y-92492380D01*
X117846904Y-92451904D01*
X117765952Y-92370952D01*
X117725476Y-92249523D01*
X117725476Y-92047142D01*
X117806428Y-85368333D02*
X117765952Y-85327857D01*
X117725476Y-85206428D01*
X117725476Y-85125476D01*
X117765952Y-85004047D01*
X117846904Y-84923095D01*
X117927857Y-84882619D01*
X118089761Y-84842142D01*
X118211190Y-84842142D01*
X118373095Y-84882619D01*
X118454047Y-84923095D01*
X118535000Y-85004047D01*
X118575476Y-85125476D01*
X118575476Y-85206428D01*
X118535000Y-85327857D01*
X118494523Y-85368333D01*
X118494523Y-85692142D02*
X118535000Y-85732619D01*
X118575476Y-85813571D01*
X118575476Y-86015952D01*
X118535000Y-86096904D01*
X118494523Y-86137380D01*
X118413571Y-86177857D01*
X118332619Y-86177857D01*
X118211190Y-86137380D01*
X117725476Y-85651666D01*
X117725476Y-86177857D01*
X117806428Y-87027857D02*
X117765952Y-86987380D01*
X117725476Y-86865952D01*
X117725476Y-86785000D01*
X117765952Y-86663571D01*
X117846904Y-86582619D01*
X117927857Y-86542142D01*
X118089761Y-86501666D01*
X118211190Y-86501666D01*
X118373095Y-86542142D01*
X118454047Y-86582619D01*
X118535000Y-86663571D01*
X118575476Y-86785000D01*
X118575476Y-86865952D01*
X118535000Y-86987380D01*
X118494523Y-87027857D01*
X117725476Y-87392142D02*
X118575476Y-87392142D01*
X117725476Y-87877857D02*
X118211190Y-87513571D01*
X118575476Y-87877857D02*
X118089761Y-87392142D01*
X118575476Y-80227619D02*
X118575476Y-80753809D01*
X118251666Y-80470476D01*
X118251666Y-80591904D01*
X118211190Y-80672857D01*
X118170714Y-80713333D01*
X118089761Y-80753809D01*
X117887380Y-80753809D01*
X117806428Y-80713333D01*
X117765952Y-80672857D01*
X117725476Y-80591904D01*
X117725476Y-80349047D01*
X117765952Y-80268095D01*
X117806428Y-80227619D01*
X118575476Y-80996666D02*
X117725476Y-81280000D01*
X118575476Y-81563333D01*
X118575476Y-81765714D02*
X118575476Y-82291904D01*
X118251666Y-82008571D01*
X118251666Y-82130000D01*
X118211190Y-82210952D01*
X118170714Y-82251428D01*
X118089761Y-82291904D01*
X117887380Y-82291904D01*
X117806428Y-82251428D01*
X117765952Y-82210952D01*
X117725476Y-82130000D01*
X117725476Y-81887142D01*
X117765952Y-81806190D01*
X117806428Y-81765714D01*
X118535000Y-75552380D02*
X118575476Y-75471428D01*
X118575476Y-75350000D01*
X118535000Y-75228571D01*
X118454047Y-75147619D01*
X118373095Y-75107142D01*
X118211190Y-75066666D01*
X118089761Y-75066666D01*
X117927857Y-75107142D01*
X117846904Y-75147619D01*
X117765952Y-75228571D01*
X117725476Y-75350000D01*
X117725476Y-75430952D01*
X117765952Y-75552380D01*
X117806428Y-75592857D01*
X118089761Y-75592857D01*
X118089761Y-75430952D01*
X117725476Y-75957142D02*
X118575476Y-75957142D01*
X117725476Y-76442857D01*
X118575476Y-76442857D01*
X117725476Y-76847619D02*
X118575476Y-76847619D01*
X118575476Y-77050000D01*
X118535000Y-77171428D01*
X118454047Y-77252380D01*
X118373095Y-77292857D01*
X118211190Y-77333333D01*
X118089761Y-77333333D01*
X117927857Y-77292857D01*
X117846904Y-77252380D01*
X117765952Y-77171428D01*
X117725476Y-77050000D01*
X117725476Y-76847619D01*
X121905000Y-104944523D02*
X121905000Y-105551666D01*
X121864523Y-105673095D01*
X121783571Y-105754047D01*
X121662142Y-105794523D01*
X121581190Y-105794523D01*
X122714523Y-105794523D02*
X122309761Y-105794523D01*
X122309761Y-104944523D01*
X122997857Y-105794523D02*
X122997857Y-104944523D01*
X123402619Y-105794523D02*
X123402619Y-104944523D01*
X123888333Y-105794523D01*
X123888333Y-104944523D01*
X124293095Y-105794523D02*
X124293095Y-104944523D01*
X124778809Y-105794523D02*
X124414523Y-105308809D01*
X124778809Y-104944523D02*
X124293095Y-105430238D01*
X125669285Y-105227857D02*
X125993095Y-105227857D01*
X125790714Y-104944523D02*
X125790714Y-105673095D01*
X125831190Y-105754047D01*
X125912142Y-105794523D01*
X125993095Y-105794523D01*
X126397857Y-105794523D02*
X126316904Y-105754047D01*
X126276428Y-105713571D01*
X126235952Y-105632619D01*
X126235952Y-105389761D01*
X126276428Y-105308809D01*
X126316904Y-105268333D01*
X126397857Y-105227857D01*
X126519285Y-105227857D01*
X126600238Y-105268333D01*
X126640714Y-105308809D01*
X126681190Y-105389761D01*
X126681190Y-105632619D01*
X126640714Y-105713571D01*
X126600238Y-105754047D01*
X126519285Y-105794523D01*
X126397857Y-105794523D01*
X128178809Y-105713571D02*
X128138333Y-105754047D01*
X128016904Y-105794523D01*
X127935952Y-105794523D01*
X127814523Y-105754047D01*
X127733571Y-105673095D01*
X127693095Y-105592142D01*
X127652619Y-105430238D01*
X127652619Y-105308809D01*
X127693095Y-105146904D01*
X127733571Y-105065952D01*
X127814523Y-104985000D01*
X127935952Y-104944523D01*
X128016904Y-104944523D01*
X128138333Y-104985000D01*
X128178809Y-105025476D01*
X128502619Y-105025476D02*
X128543095Y-104985000D01*
X128624047Y-104944523D01*
X128826428Y-104944523D01*
X128907380Y-104985000D01*
X128947857Y-105025476D01*
X128988333Y-105106428D01*
X128988333Y-105187380D01*
X128947857Y-105308809D01*
X128462142Y-105794523D01*
X128988333Y-105794523D01*
X129352619Y-105794523D02*
X129352619Y-104944523D01*
X129555000Y-104944523D01*
X129676428Y-104985000D01*
X129757380Y-105065952D01*
X129797857Y-105146904D01*
X129838333Y-105308809D01*
X129838333Y-105430238D01*
X129797857Y-105592142D01*
X129757380Y-105673095D01*
X129676428Y-105754047D01*
X129555000Y-105794523D01*
X129352619Y-105794523D01*
X118575476Y-70958095D02*
X118575476Y-70553333D01*
X118170714Y-70512857D01*
X118211190Y-70553333D01*
X118251666Y-70634285D01*
X118251666Y-70836666D01*
X118211190Y-70917619D01*
X118170714Y-70958095D01*
X118089761Y-70998571D01*
X117887380Y-70998571D01*
X117806428Y-70958095D01*
X117765952Y-70917619D01*
X117725476Y-70836666D01*
X117725476Y-70634285D01*
X117765952Y-70553333D01*
X117806428Y-70512857D01*
X118575476Y-71241428D02*
X117725476Y-71524761D01*
X118575476Y-71808095D01*
D10*
G04 #@! TO.C,J4*
X117094000Y-68326000D02*
X114554000Y-68326000D01*
X117094000Y-68326000D02*
X117094000Y-70866000D01*
D12*
G04 #@! TO.C,J1*
X121055000Y-104410000D02*
X121055000Y-70850000D01*
X121055000Y-70850000D02*
X130405000Y-70850000D01*
X130405000Y-70850000D02*
X130405000Y-104410000D01*
X130405000Y-104410000D02*
X121055000Y-104410000D01*
X130655000Y-104660000D02*
X130655000Y-102120000D01*
X130655000Y-104660000D02*
X128115000Y-104660000D01*
G04 #@! TO.C,J2*
X117840000Y-60095000D02*
X133620000Y-60095000D01*
X133620000Y-60095000D02*
X133620000Y-69445000D01*
X133620000Y-69445000D02*
X117840000Y-69445000D01*
X117840000Y-69445000D02*
X117840000Y-60095000D01*
X117590000Y-69695000D02*
X120130000Y-69695000D01*
X117590000Y-69695000D02*
X117590000Y-67155000D01*
G04 #@! TD*
M02*
