M48
;DRILL file {KiCad 5.0.2+dfsg1-1} date Thu 16 May 2019 10:01:58 PM PDT
;FORMAT={-:-/ absolute / inch / decimal}
FMAT,2
INCH,TZ
T1C0.0400
T2C0.0984
T3C0.1043
%
G90
G05
T1
X4.85Y-2.5
X4.85Y-2.6
X4.95Y-2.5
X4.95Y-2.6
X5.05Y-2.5
X5.05Y-2.6
X4.9Y-3.
X4.9Y-3.1
X4.9Y-3.2
X4.9Y-3.3
X4.9Y-3.4
X4.9Y-3.5
X4.9Y-3.6
X4.9Y-3.7
X4.9Y-3.8
X4.9Y-3.9
X5.Y-3.
X5.Y-3.1
X5.Y-3.2
X5.Y-3.3
X5.Y-3.4
X5.Y-3.5
X5.Y-3.6
X5.Y-3.7
X5.Y-3.8
X5.Y-3.9
T2
X4.5Y-2.4
X4.5Y-4.1
T3
X4.5Y-2.8
X4.5Y-3.
X4.5Y-3.2
X4.5Y-3.4
X4.5Y-3.6
X4.5Y-3.8
T0
M30
