G04 #@! TF.GenerationSoftware,KiCad,Pcbnew,5.0.2+dfsg1-1*
G04 #@! TF.CreationDate,2019-05-16T22:01:56-07:00*
G04 #@! TF.ProjectId,jlink-c2d-adapter,6a6c696e-6b2d-4633-9264-2d6164617074,rev?*
G04 #@! TF.SameCoordinates,Original*
G04 #@! TF.FileFunction,Copper,L1,Top*
G04 #@! TF.FilePolarity,Positive*
%FSLAX46Y46*%
G04 Gerber Fmt 4.6, Leading zero omitted, Abs format (unit mm)*
G04 Created by KiCad (PCBNEW 5.0.2+dfsg1-1) date Thu 16 May 2019 10:01:56 PM PDT*
%MOMM*%
%LPD*%
G01*
G04 APERTURE LIST*
G04 #@! TA.AperFunction,ComponentPad*
%ADD10R,5.000000X4.800000*%
G04 #@! TD*
G04 #@! TA.AperFunction,ComponentPad*
%ADD11R,1.727200X1.727200*%
G04 #@! TD*
G04 #@! TA.AperFunction,ComponentPad*
%ADD12O,1.727200X1.727200*%
G04 #@! TD*
G04 #@! TA.AperFunction,ComponentPad*
%ADD13C,5.000000*%
G04 #@! TD*
G04 #@! TA.AperFunction,Conductor*
%ADD14C,0.250000*%
G04 #@! TD*
G04 #@! TA.AperFunction,Conductor*
%ADD15C,0.254000*%
G04 #@! TD*
G04 APERTURE END LIST*
D10*
G04 #@! TO.P,J4,6*
G04 #@! TO.N,/~RESET*
X114300000Y-96520000D03*
G04 #@! TO.P,J4,5*
G04 #@! TO.N,/TMS_C2D*
X114300000Y-91440000D03*
G04 #@! TO.P,J4,4*
G04 #@! TO.N,/TCK_C2CK*
X114300000Y-86360000D03*
G04 #@! TO.P,J4,3*
G04 #@! TO.N,+3V3*
X114300000Y-81280000D03*
G04 #@! TO.P,J4,2*
G04 #@! TO.N,GND*
X114300000Y-76200000D03*
G04 #@! TO.P,J4,1*
G04 #@! TO.N,+5V*
X114300000Y-71120000D03*
G04 #@! TD*
D11*
G04 #@! TO.P,J1,1*
G04 #@! TO.N,+3V3*
X127000000Y-99060000D03*
D12*
G04 #@! TO.P,J1,2*
G04 #@! TO.N,N/C*
X124460000Y-99060000D03*
G04 #@! TO.P,J1,3*
X127000000Y-96520000D03*
G04 #@! TO.P,J1,4*
G04 #@! TO.N,GND*
X124460000Y-96520000D03*
G04 #@! TO.P,J1,5*
G04 #@! TO.N,N/C*
X127000000Y-93980000D03*
G04 #@! TO.P,J1,6*
G04 #@! TO.N,GND*
X124460000Y-93980000D03*
G04 #@! TO.P,J1,7*
G04 #@! TO.N,/TMS_C2D*
X127000000Y-91440000D03*
G04 #@! TO.P,J1,8*
G04 #@! TO.N,GND*
X124460000Y-91440000D03*
G04 #@! TO.P,J1,9*
G04 #@! TO.N,/TCK_C2CK*
X127000000Y-88900000D03*
G04 #@! TO.P,J1,10*
G04 #@! TO.N,GND*
X124460000Y-88900000D03*
G04 #@! TO.P,J1,11*
G04 #@! TO.N,N/C*
X127000000Y-86360000D03*
G04 #@! TO.P,J1,12*
G04 #@! TO.N,GND*
X124460000Y-86360000D03*
G04 #@! TO.P,J1,13*
G04 #@! TO.N,N/C*
X127000000Y-83820000D03*
G04 #@! TO.P,J1,14*
G04 #@! TO.N,GND*
X124460000Y-83820000D03*
G04 #@! TO.P,J1,15*
G04 #@! TO.N,N/C*
X127000000Y-81280000D03*
G04 #@! TO.P,J1,16*
G04 #@! TO.N,GND*
X124460000Y-81280000D03*
G04 #@! TO.P,J1,17*
G04 #@! TO.N,N/C*
X127000000Y-78740000D03*
G04 #@! TO.P,J1,18*
G04 #@! TO.N,GND*
X124460000Y-78740000D03*
G04 #@! TO.P,J1,19*
G04 #@! TO.N,+5V*
X127000000Y-76200000D03*
G04 #@! TO.P,J1,20*
G04 #@! TO.N,GND*
X124460000Y-76200000D03*
G04 #@! TD*
D11*
G04 #@! TO.P,J2,1*
G04 #@! TO.N,+5V*
X123190000Y-66040000D03*
D12*
G04 #@! TO.P,J2,2*
G04 #@! TO.N,+3V3*
X123190000Y-63500000D03*
G04 #@! TO.P,J2,3*
G04 #@! TO.N,/TCK_C2CK*
X125730000Y-66040000D03*
G04 #@! TO.P,J2,4*
G04 #@! TO.N,/TMS_C2D*
X125730000Y-63500000D03*
G04 #@! TO.P,J2,5*
G04 #@! TO.N,/~RESET*
X128270000Y-66040000D03*
G04 #@! TO.P,J2,6*
G04 #@! TO.N,GND*
X128270000Y-63500000D03*
G04 #@! TD*
D13*
G04 #@! TO.P,REF\002A\002A,1*
G04 #@! TO.N,GND*
X114300000Y-60960000D03*
G04 #@! TD*
G04 #@! TO.P,REF\002A\002A,1*
G04 #@! TO.N,GND*
X114300000Y-104140000D03*
G04 #@! TD*
D14*
G04 #@! TO.N,/TMS_C2D*
X127000000Y-64770000D02*
X127000000Y-67310000D01*
X125730000Y-63500000D02*
X127000000Y-64770000D01*
X127000000Y-67310000D02*
X120650000Y-73660000D01*
X120650000Y-87840000D02*
X117050000Y-91440000D01*
X120650000Y-73660000D02*
X120650000Y-87840000D01*
X117050000Y-91440000D02*
X114300000Y-91440000D01*
G04 #@! TO.N,/TCK_C2CK*
X125730000Y-66040000D02*
X119380000Y-72390000D01*
X119380000Y-72390000D02*
X119380000Y-84030000D01*
X119380000Y-84030000D02*
X117050000Y-86360000D01*
X117050000Y-86360000D02*
X114300000Y-86360000D01*
G04 #@! TO.N,+3V3*
X123190000Y-63500000D02*
X118110000Y-68580000D01*
X118110000Y-68580000D02*
X118110000Y-80220000D01*
X118110000Y-80220000D02*
X117050000Y-81280000D01*
X117050000Y-81280000D02*
X114300000Y-81280000D01*
G04 #@! TO.N,/~RESET*
X128270000Y-66040000D02*
X128270000Y-68580000D01*
X128270000Y-68580000D02*
X121920000Y-74930000D01*
X121920000Y-91650000D02*
X117050000Y-96520000D01*
X121920000Y-74930000D02*
X121920000Y-91650000D01*
X117050000Y-96520000D02*
X114300000Y-96520000D01*
G04 #@! TD*
D15*
G04 #@! TO.N,GND*
G36*
X132533698Y-59192958D02*
X132958893Y-59361305D01*
X133328858Y-59630101D01*
X133620356Y-59982462D01*
X133815067Y-60396244D01*
X133907093Y-60878662D01*
X133910000Y-60971164D01*
X133910001Y-104095326D01*
X133847042Y-104593699D01*
X133678697Y-105018889D01*
X133409899Y-105388859D01*
X133057541Y-105680355D01*
X132643756Y-105875067D01*
X132161339Y-105967093D01*
X132068836Y-105970000D01*
X116875405Y-105970000D01*
X116958564Y-105914579D01*
X117435294Y-104762108D01*
X117434705Y-103514928D01*
X116958564Y-102365421D01*
X116535880Y-102083725D01*
X114479605Y-104140000D01*
X114493748Y-104154143D01*
X114314143Y-104333748D01*
X114300000Y-104319605D01*
X114285858Y-104333748D01*
X114106253Y-104154143D01*
X114120395Y-104140000D01*
X114106253Y-104125858D01*
X114285858Y-103946253D01*
X114300000Y-103960395D01*
X116356275Y-101904120D01*
X116074579Y-101481436D01*
X114922108Y-101004706D01*
X113674928Y-101005295D01*
X112525421Y-101481436D01*
X112470000Y-101564595D01*
X112470000Y-99567440D01*
X116800000Y-99567440D01*
X117047765Y-99518157D01*
X117257809Y-99377809D01*
X117398157Y-99167765D01*
X117419592Y-99060000D01*
X122932041Y-99060000D01*
X123048350Y-99644725D01*
X123379570Y-100140430D01*
X123875275Y-100471650D01*
X124312402Y-100558600D01*
X124607598Y-100558600D01*
X125044725Y-100471650D01*
X125533068Y-100145349D01*
X125538243Y-100171365D01*
X125678591Y-100381409D01*
X125888635Y-100521757D01*
X126136400Y-100571040D01*
X127863600Y-100571040D01*
X128111365Y-100521757D01*
X128321409Y-100381409D01*
X128461757Y-100171365D01*
X128511040Y-99923600D01*
X128511040Y-98196400D01*
X128461757Y-97948635D01*
X128321409Y-97738591D01*
X128111365Y-97598243D01*
X128085349Y-97593068D01*
X128411650Y-97104725D01*
X128527959Y-96520000D01*
X128411650Y-95935275D01*
X128080430Y-95439570D01*
X127796719Y-95250000D01*
X128080430Y-95060430D01*
X128411650Y-94564725D01*
X128527959Y-93980000D01*
X128411650Y-93395275D01*
X128080430Y-92899570D01*
X127796719Y-92710000D01*
X128080430Y-92520430D01*
X128411650Y-92024725D01*
X128527959Y-91440000D01*
X128411650Y-90855275D01*
X128080430Y-90359570D01*
X127796719Y-90170000D01*
X128080430Y-89980430D01*
X128411650Y-89484725D01*
X128527959Y-88900000D01*
X128411650Y-88315275D01*
X128080430Y-87819570D01*
X127796719Y-87630000D01*
X128080430Y-87440430D01*
X128411650Y-86944725D01*
X128527959Y-86360000D01*
X128411650Y-85775275D01*
X128080430Y-85279570D01*
X127796719Y-85090000D01*
X128080430Y-84900430D01*
X128411650Y-84404725D01*
X128527959Y-83820000D01*
X128411650Y-83235275D01*
X128080430Y-82739570D01*
X127796719Y-82550000D01*
X128080430Y-82360430D01*
X128411650Y-81864725D01*
X128527959Y-81280000D01*
X128411650Y-80695275D01*
X128080430Y-80199570D01*
X127796719Y-80010000D01*
X128080430Y-79820430D01*
X128411650Y-79324725D01*
X128527959Y-78740000D01*
X128411650Y-78155275D01*
X128080430Y-77659570D01*
X127796719Y-77470000D01*
X128080430Y-77280430D01*
X128411650Y-76784725D01*
X128527959Y-76200000D01*
X128411650Y-75615275D01*
X128080430Y-75119570D01*
X127584725Y-74788350D01*
X127147598Y-74701400D01*
X126852402Y-74701400D01*
X126415275Y-74788350D01*
X125919570Y-75119570D01*
X125726963Y-75407826D01*
X125348490Y-74993179D01*
X124819027Y-74745032D01*
X124587000Y-74865531D01*
X124587000Y-76073000D01*
X124607000Y-76073000D01*
X124607000Y-76327000D01*
X124587000Y-76327000D01*
X124587000Y-78613000D01*
X124607000Y-78613000D01*
X124607000Y-78867000D01*
X124587000Y-78867000D01*
X124587000Y-81153000D01*
X124607000Y-81153000D01*
X124607000Y-81407000D01*
X124587000Y-81407000D01*
X124587000Y-83693000D01*
X124607000Y-83693000D01*
X124607000Y-83947000D01*
X124587000Y-83947000D01*
X124587000Y-86233000D01*
X124607000Y-86233000D01*
X124607000Y-86487000D01*
X124587000Y-86487000D01*
X124587000Y-88773000D01*
X124607000Y-88773000D01*
X124607000Y-89027000D01*
X124587000Y-89027000D01*
X124587000Y-91313000D01*
X124607000Y-91313000D01*
X124607000Y-91567000D01*
X124587000Y-91567000D01*
X124587000Y-93853000D01*
X124607000Y-93853000D01*
X124607000Y-94107000D01*
X124587000Y-94107000D01*
X124587000Y-96393000D01*
X124607000Y-96393000D01*
X124607000Y-96647000D01*
X124587000Y-96647000D01*
X124587000Y-96667000D01*
X124333000Y-96667000D01*
X124333000Y-96647000D01*
X123126183Y-96647000D01*
X123005042Y-96879026D01*
X123177312Y-97294947D01*
X123571510Y-97726821D01*
X123681021Y-97778146D01*
X123379570Y-97979570D01*
X123048350Y-98475275D01*
X122932041Y-99060000D01*
X117419592Y-99060000D01*
X117447440Y-98920000D01*
X117447440Y-97168483D01*
X117597929Y-97067929D01*
X117640331Y-97004470D01*
X120305775Y-94339026D01*
X123005042Y-94339026D01*
X123177312Y-94754947D01*
X123571510Y-95186821D01*
X123706313Y-95250000D01*
X123571510Y-95313179D01*
X123177312Y-95745053D01*
X123005042Y-96160974D01*
X123126183Y-96393000D01*
X124333000Y-96393000D01*
X124333000Y-94107000D01*
X123126183Y-94107000D01*
X123005042Y-94339026D01*
X120305775Y-94339026D01*
X122404473Y-92240329D01*
X122467929Y-92197929D01*
X122635904Y-91946537D01*
X122665245Y-91799026D01*
X123005042Y-91799026D01*
X123177312Y-92214947D01*
X123571510Y-92646821D01*
X123706313Y-92710000D01*
X123571510Y-92773179D01*
X123177312Y-93205053D01*
X123005042Y-93620974D01*
X123126183Y-93853000D01*
X124333000Y-93853000D01*
X124333000Y-91567000D01*
X123126183Y-91567000D01*
X123005042Y-91799026D01*
X122665245Y-91799026D01*
X122680000Y-91724852D01*
X122680000Y-91724848D01*
X122694888Y-91650001D01*
X122680000Y-91575154D01*
X122680000Y-89259026D01*
X123005042Y-89259026D01*
X123177312Y-89674947D01*
X123571510Y-90106821D01*
X123706313Y-90170000D01*
X123571510Y-90233179D01*
X123177312Y-90665053D01*
X123005042Y-91080974D01*
X123126183Y-91313000D01*
X124333000Y-91313000D01*
X124333000Y-89027000D01*
X123126183Y-89027000D01*
X123005042Y-89259026D01*
X122680000Y-89259026D01*
X122680000Y-86719026D01*
X123005042Y-86719026D01*
X123177312Y-87134947D01*
X123571510Y-87566821D01*
X123706313Y-87630000D01*
X123571510Y-87693179D01*
X123177312Y-88125053D01*
X123005042Y-88540974D01*
X123126183Y-88773000D01*
X124333000Y-88773000D01*
X124333000Y-86487000D01*
X123126183Y-86487000D01*
X123005042Y-86719026D01*
X122680000Y-86719026D01*
X122680000Y-84179026D01*
X123005042Y-84179026D01*
X123177312Y-84594947D01*
X123571510Y-85026821D01*
X123706313Y-85090000D01*
X123571510Y-85153179D01*
X123177312Y-85585053D01*
X123005042Y-86000974D01*
X123126183Y-86233000D01*
X124333000Y-86233000D01*
X124333000Y-83947000D01*
X123126183Y-83947000D01*
X123005042Y-84179026D01*
X122680000Y-84179026D01*
X122680000Y-81639026D01*
X123005042Y-81639026D01*
X123177312Y-82054947D01*
X123571510Y-82486821D01*
X123706313Y-82550000D01*
X123571510Y-82613179D01*
X123177312Y-83045053D01*
X123005042Y-83460974D01*
X123126183Y-83693000D01*
X124333000Y-83693000D01*
X124333000Y-81407000D01*
X123126183Y-81407000D01*
X123005042Y-81639026D01*
X122680000Y-81639026D01*
X122680000Y-79099026D01*
X123005042Y-79099026D01*
X123177312Y-79514947D01*
X123571510Y-79946821D01*
X123706313Y-80010000D01*
X123571510Y-80073179D01*
X123177312Y-80505053D01*
X123005042Y-80920974D01*
X123126183Y-81153000D01*
X124333000Y-81153000D01*
X124333000Y-78867000D01*
X123126183Y-78867000D01*
X123005042Y-79099026D01*
X122680000Y-79099026D01*
X122680000Y-76559026D01*
X123005042Y-76559026D01*
X123177312Y-76974947D01*
X123571510Y-77406821D01*
X123706313Y-77470000D01*
X123571510Y-77533179D01*
X123177312Y-77965053D01*
X123005042Y-78380974D01*
X123126183Y-78613000D01*
X124333000Y-78613000D01*
X124333000Y-76327000D01*
X123126183Y-76327000D01*
X123005042Y-76559026D01*
X122680000Y-76559026D01*
X122680000Y-75840974D01*
X123005042Y-75840974D01*
X123126183Y-76073000D01*
X124333000Y-76073000D01*
X124333000Y-74865531D01*
X124100973Y-74745032D01*
X123571510Y-74993179D01*
X123177312Y-75425053D01*
X123005042Y-75840974D01*
X122680000Y-75840974D01*
X122680000Y-75244801D01*
X128754473Y-69170329D01*
X128817929Y-69127929D01*
X128985904Y-68876537D01*
X129030000Y-68654852D01*
X129030000Y-68654848D01*
X129044888Y-68580001D01*
X129030000Y-68505154D01*
X129030000Y-67334535D01*
X129350430Y-67120430D01*
X129681650Y-66624725D01*
X129797959Y-66040000D01*
X129681650Y-65455275D01*
X129350430Y-64959570D01*
X129062174Y-64766963D01*
X129476821Y-64388490D01*
X129724968Y-63859027D01*
X129604469Y-63627000D01*
X128397000Y-63627000D01*
X128397000Y-63647000D01*
X128143000Y-63647000D01*
X128143000Y-63627000D01*
X128123000Y-63627000D01*
X128123000Y-63373000D01*
X128143000Y-63373000D01*
X128143000Y-62166183D01*
X128397000Y-62166183D01*
X128397000Y-63373000D01*
X129604469Y-63373000D01*
X129724968Y-63140973D01*
X129476821Y-62611510D01*
X129044947Y-62217312D01*
X128629026Y-62045042D01*
X128397000Y-62166183D01*
X128143000Y-62166183D01*
X127910974Y-62045042D01*
X127495053Y-62217312D01*
X127063179Y-62611510D01*
X127011854Y-62721021D01*
X126810430Y-62419570D01*
X126314725Y-62088350D01*
X125877598Y-62001400D01*
X125582402Y-62001400D01*
X125145275Y-62088350D01*
X124649570Y-62419570D01*
X124460000Y-62703281D01*
X124270430Y-62419570D01*
X123774725Y-62088350D01*
X123337598Y-62001400D01*
X123042402Y-62001400D01*
X122605275Y-62088350D01*
X122109570Y-62419570D01*
X121778350Y-62915275D01*
X121662041Y-63500000D01*
X121737225Y-63877974D01*
X117625530Y-67989669D01*
X117562071Y-68032071D01*
X117394096Y-68283464D01*
X117366092Y-68424247D01*
X117257809Y-68262191D01*
X117047765Y-68121843D01*
X116800000Y-68072560D01*
X112470000Y-68072560D01*
X112470000Y-63535405D01*
X112525421Y-63618564D01*
X113677892Y-64095294D01*
X114925072Y-64094705D01*
X116074579Y-63618564D01*
X116356275Y-63195880D01*
X114300000Y-61139605D01*
X114285858Y-61153748D01*
X114106253Y-60974143D01*
X114120395Y-60960000D01*
X114106253Y-60945858D01*
X114285858Y-60766253D01*
X114300000Y-60780395D01*
X114314143Y-60766253D01*
X114493748Y-60945858D01*
X114479605Y-60960000D01*
X116535880Y-63016275D01*
X116958564Y-62734579D01*
X117435294Y-61582108D01*
X117434705Y-60334928D01*
X116958564Y-59185421D01*
X116875405Y-59130000D01*
X132035334Y-59130000D01*
X132533698Y-59192958D01*
X132533698Y-59192958D01*
G37*
X132533698Y-59192958D02*
X132958893Y-59361305D01*
X133328858Y-59630101D01*
X133620356Y-59982462D01*
X133815067Y-60396244D01*
X133907093Y-60878662D01*
X133910000Y-60971164D01*
X133910001Y-104095326D01*
X133847042Y-104593699D01*
X133678697Y-105018889D01*
X133409899Y-105388859D01*
X133057541Y-105680355D01*
X132643756Y-105875067D01*
X132161339Y-105967093D01*
X132068836Y-105970000D01*
X116875405Y-105970000D01*
X116958564Y-105914579D01*
X117435294Y-104762108D01*
X117434705Y-103514928D01*
X116958564Y-102365421D01*
X116535880Y-102083725D01*
X114479605Y-104140000D01*
X114493748Y-104154143D01*
X114314143Y-104333748D01*
X114300000Y-104319605D01*
X114285858Y-104333748D01*
X114106253Y-104154143D01*
X114120395Y-104140000D01*
X114106253Y-104125858D01*
X114285858Y-103946253D01*
X114300000Y-103960395D01*
X116356275Y-101904120D01*
X116074579Y-101481436D01*
X114922108Y-101004706D01*
X113674928Y-101005295D01*
X112525421Y-101481436D01*
X112470000Y-101564595D01*
X112470000Y-99567440D01*
X116800000Y-99567440D01*
X117047765Y-99518157D01*
X117257809Y-99377809D01*
X117398157Y-99167765D01*
X117419592Y-99060000D01*
X122932041Y-99060000D01*
X123048350Y-99644725D01*
X123379570Y-100140430D01*
X123875275Y-100471650D01*
X124312402Y-100558600D01*
X124607598Y-100558600D01*
X125044725Y-100471650D01*
X125533068Y-100145349D01*
X125538243Y-100171365D01*
X125678591Y-100381409D01*
X125888635Y-100521757D01*
X126136400Y-100571040D01*
X127863600Y-100571040D01*
X128111365Y-100521757D01*
X128321409Y-100381409D01*
X128461757Y-100171365D01*
X128511040Y-99923600D01*
X128511040Y-98196400D01*
X128461757Y-97948635D01*
X128321409Y-97738591D01*
X128111365Y-97598243D01*
X128085349Y-97593068D01*
X128411650Y-97104725D01*
X128527959Y-96520000D01*
X128411650Y-95935275D01*
X128080430Y-95439570D01*
X127796719Y-95250000D01*
X128080430Y-95060430D01*
X128411650Y-94564725D01*
X128527959Y-93980000D01*
X128411650Y-93395275D01*
X128080430Y-92899570D01*
X127796719Y-92710000D01*
X128080430Y-92520430D01*
X128411650Y-92024725D01*
X128527959Y-91440000D01*
X128411650Y-90855275D01*
X128080430Y-90359570D01*
X127796719Y-90170000D01*
X128080430Y-89980430D01*
X128411650Y-89484725D01*
X128527959Y-88900000D01*
X128411650Y-88315275D01*
X128080430Y-87819570D01*
X127796719Y-87630000D01*
X128080430Y-87440430D01*
X128411650Y-86944725D01*
X128527959Y-86360000D01*
X128411650Y-85775275D01*
X128080430Y-85279570D01*
X127796719Y-85090000D01*
X128080430Y-84900430D01*
X128411650Y-84404725D01*
X128527959Y-83820000D01*
X128411650Y-83235275D01*
X128080430Y-82739570D01*
X127796719Y-82550000D01*
X128080430Y-82360430D01*
X128411650Y-81864725D01*
X128527959Y-81280000D01*
X128411650Y-80695275D01*
X128080430Y-80199570D01*
X127796719Y-80010000D01*
X128080430Y-79820430D01*
X128411650Y-79324725D01*
X128527959Y-78740000D01*
X128411650Y-78155275D01*
X128080430Y-77659570D01*
X127796719Y-77470000D01*
X128080430Y-77280430D01*
X128411650Y-76784725D01*
X128527959Y-76200000D01*
X128411650Y-75615275D01*
X128080430Y-75119570D01*
X127584725Y-74788350D01*
X127147598Y-74701400D01*
X126852402Y-74701400D01*
X126415275Y-74788350D01*
X125919570Y-75119570D01*
X125726963Y-75407826D01*
X125348490Y-74993179D01*
X124819027Y-74745032D01*
X124587000Y-74865531D01*
X124587000Y-76073000D01*
X124607000Y-76073000D01*
X124607000Y-76327000D01*
X124587000Y-76327000D01*
X124587000Y-78613000D01*
X124607000Y-78613000D01*
X124607000Y-78867000D01*
X124587000Y-78867000D01*
X124587000Y-81153000D01*
X124607000Y-81153000D01*
X124607000Y-81407000D01*
X124587000Y-81407000D01*
X124587000Y-83693000D01*
X124607000Y-83693000D01*
X124607000Y-83947000D01*
X124587000Y-83947000D01*
X124587000Y-86233000D01*
X124607000Y-86233000D01*
X124607000Y-86487000D01*
X124587000Y-86487000D01*
X124587000Y-88773000D01*
X124607000Y-88773000D01*
X124607000Y-89027000D01*
X124587000Y-89027000D01*
X124587000Y-91313000D01*
X124607000Y-91313000D01*
X124607000Y-91567000D01*
X124587000Y-91567000D01*
X124587000Y-93853000D01*
X124607000Y-93853000D01*
X124607000Y-94107000D01*
X124587000Y-94107000D01*
X124587000Y-96393000D01*
X124607000Y-96393000D01*
X124607000Y-96647000D01*
X124587000Y-96647000D01*
X124587000Y-96667000D01*
X124333000Y-96667000D01*
X124333000Y-96647000D01*
X123126183Y-96647000D01*
X123005042Y-96879026D01*
X123177312Y-97294947D01*
X123571510Y-97726821D01*
X123681021Y-97778146D01*
X123379570Y-97979570D01*
X123048350Y-98475275D01*
X122932041Y-99060000D01*
X117419592Y-99060000D01*
X117447440Y-98920000D01*
X117447440Y-97168483D01*
X117597929Y-97067929D01*
X117640331Y-97004470D01*
X120305775Y-94339026D01*
X123005042Y-94339026D01*
X123177312Y-94754947D01*
X123571510Y-95186821D01*
X123706313Y-95250000D01*
X123571510Y-95313179D01*
X123177312Y-95745053D01*
X123005042Y-96160974D01*
X123126183Y-96393000D01*
X124333000Y-96393000D01*
X124333000Y-94107000D01*
X123126183Y-94107000D01*
X123005042Y-94339026D01*
X120305775Y-94339026D01*
X122404473Y-92240329D01*
X122467929Y-92197929D01*
X122635904Y-91946537D01*
X122665245Y-91799026D01*
X123005042Y-91799026D01*
X123177312Y-92214947D01*
X123571510Y-92646821D01*
X123706313Y-92710000D01*
X123571510Y-92773179D01*
X123177312Y-93205053D01*
X123005042Y-93620974D01*
X123126183Y-93853000D01*
X124333000Y-93853000D01*
X124333000Y-91567000D01*
X123126183Y-91567000D01*
X123005042Y-91799026D01*
X122665245Y-91799026D01*
X122680000Y-91724852D01*
X122680000Y-91724848D01*
X122694888Y-91650001D01*
X122680000Y-91575154D01*
X122680000Y-89259026D01*
X123005042Y-89259026D01*
X123177312Y-89674947D01*
X123571510Y-90106821D01*
X123706313Y-90170000D01*
X123571510Y-90233179D01*
X123177312Y-90665053D01*
X123005042Y-91080974D01*
X123126183Y-91313000D01*
X124333000Y-91313000D01*
X124333000Y-89027000D01*
X123126183Y-89027000D01*
X123005042Y-89259026D01*
X122680000Y-89259026D01*
X122680000Y-86719026D01*
X123005042Y-86719026D01*
X123177312Y-87134947D01*
X123571510Y-87566821D01*
X123706313Y-87630000D01*
X123571510Y-87693179D01*
X123177312Y-88125053D01*
X123005042Y-88540974D01*
X123126183Y-88773000D01*
X124333000Y-88773000D01*
X124333000Y-86487000D01*
X123126183Y-86487000D01*
X123005042Y-86719026D01*
X122680000Y-86719026D01*
X122680000Y-84179026D01*
X123005042Y-84179026D01*
X123177312Y-84594947D01*
X123571510Y-85026821D01*
X123706313Y-85090000D01*
X123571510Y-85153179D01*
X123177312Y-85585053D01*
X123005042Y-86000974D01*
X123126183Y-86233000D01*
X124333000Y-86233000D01*
X124333000Y-83947000D01*
X123126183Y-83947000D01*
X123005042Y-84179026D01*
X122680000Y-84179026D01*
X122680000Y-81639026D01*
X123005042Y-81639026D01*
X123177312Y-82054947D01*
X123571510Y-82486821D01*
X123706313Y-82550000D01*
X123571510Y-82613179D01*
X123177312Y-83045053D01*
X123005042Y-83460974D01*
X123126183Y-83693000D01*
X124333000Y-83693000D01*
X124333000Y-81407000D01*
X123126183Y-81407000D01*
X123005042Y-81639026D01*
X122680000Y-81639026D01*
X122680000Y-79099026D01*
X123005042Y-79099026D01*
X123177312Y-79514947D01*
X123571510Y-79946821D01*
X123706313Y-80010000D01*
X123571510Y-80073179D01*
X123177312Y-80505053D01*
X123005042Y-80920974D01*
X123126183Y-81153000D01*
X124333000Y-81153000D01*
X124333000Y-78867000D01*
X123126183Y-78867000D01*
X123005042Y-79099026D01*
X122680000Y-79099026D01*
X122680000Y-76559026D01*
X123005042Y-76559026D01*
X123177312Y-76974947D01*
X123571510Y-77406821D01*
X123706313Y-77470000D01*
X123571510Y-77533179D01*
X123177312Y-77965053D01*
X123005042Y-78380974D01*
X123126183Y-78613000D01*
X124333000Y-78613000D01*
X124333000Y-76327000D01*
X123126183Y-76327000D01*
X123005042Y-76559026D01*
X122680000Y-76559026D01*
X122680000Y-75840974D01*
X123005042Y-75840974D01*
X123126183Y-76073000D01*
X124333000Y-76073000D01*
X124333000Y-74865531D01*
X124100973Y-74745032D01*
X123571510Y-74993179D01*
X123177312Y-75425053D01*
X123005042Y-75840974D01*
X122680000Y-75840974D01*
X122680000Y-75244801D01*
X128754473Y-69170329D01*
X128817929Y-69127929D01*
X128985904Y-68876537D01*
X129030000Y-68654852D01*
X129030000Y-68654848D01*
X129044888Y-68580001D01*
X129030000Y-68505154D01*
X129030000Y-67334535D01*
X129350430Y-67120430D01*
X129681650Y-66624725D01*
X129797959Y-66040000D01*
X129681650Y-65455275D01*
X129350430Y-64959570D01*
X129062174Y-64766963D01*
X129476821Y-64388490D01*
X129724968Y-63859027D01*
X129604469Y-63627000D01*
X128397000Y-63627000D01*
X128397000Y-63647000D01*
X128143000Y-63647000D01*
X128143000Y-63627000D01*
X128123000Y-63627000D01*
X128123000Y-63373000D01*
X128143000Y-63373000D01*
X128143000Y-62166183D01*
X128397000Y-62166183D01*
X128397000Y-63373000D01*
X129604469Y-63373000D01*
X129724968Y-63140973D01*
X129476821Y-62611510D01*
X129044947Y-62217312D01*
X128629026Y-62045042D01*
X128397000Y-62166183D01*
X128143000Y-62166183D01*
X127910974Y-62045042D01*
X127495053Y-62217312D01*
X127063179Y-62611510D01*
X127011854Y-62721021D01*
X126810430Y-62419570D01*
X126314725Y-62088350D01*
X125877598Y-62001400D01*
X125582402Y-62001400D01*
X125145275Y-62088350D01*
X124649570Y-62419570D01*
X124460000Y-62703281D01*
X124270430Y-62419570D01*
X123774725Y-62088350D01*
X123337598Y-62001400D01*
X123042402Y-62001400D01*
X122605275Y-62088350D01*
X122109570Y-62419570D01*
X121778350Y-62915275D01*
X121662041Y-63500000D01*
X121737225Y-63877974D01*
X117625530Y-67989669D01*
X117562071Y-68032071D01*
X117394096Y-68283464D01*
X117366092Y-68424247D01*
X117257809Y-68262191D01*
X117047765Y-68121843D01*
X116800000Y-68072560D01*
X112470000Y-68072560D01*
X112470000Y-63535405D01*
X112525421Y-63618564D01*
X113677892Y-64095294D01*
X114925072Y-64094705D01*
X116074579Y-63618564D01*
X116356275Y-63195880D01*
X114300000Y-61139605D01*
X114285858Y-61153748D01*
X114106253Y-60974143D01*
X114120395Y-60960000D01*
X114106253Y-60945858D01*
X114285858Y-60766253D01*
X114300000Y-60780395D01*
X114314143Y-60766253D01*
X114493748Y-60945858D01*
X114479605Y-60960000D01*
X116535880Y-63016275D01*
X116958564Y-62734579D01*
X117435294Y-61582108D01*
X117434705Y-60334928D01*
X116958564Y-59185421D01*
X116875405Y-59130000D01*
X132035334Y-59130000D01*
X132533698Y-59192958D01*
G36*
X114427000Y-76073000D02*
X114447000Y-76073000D01*
X114447000Y-76327000D01*
X114427000Y-76327000D01*
X114427000Y-76347000D01*
X114173000Y-76347000D01*
X114173000Y-76327000D01*
X114153000Y-76327000D01*
X114153000Y-76073000D01*
X114173000Y-76073000D01*
X114173000Y-76053000D01*
X114427000Y-76053000D01*
X114427000Y-76073000D01*
X114427000Y-76073000D01*
G37*
X114427000Y-76073000D02*
X114447000Y-76073000D01*
X114447000Y-76327000D01*
X114427000Y-76327000D01*
X114427000Y-76347000D01*
X114173000Y-76347000D01*
X114173000Y-76327000D01*
X114153000Y-76327000D01*
X114153000Y-76073000D01*
X114173000Y-76073000D01*
X114173000Y-76053000D01*
X114427000Y-76053000D01*
X114427000Y-76073000D01*
G04 #@! TD*
M02*
