G04 #@! TF.GenerationSoftware,KiCad,Pcbnew,5.0.2+dfsg1-1*
G04 #@! TF.CreationDate,2019-04-15T18:08:30-07:00*
G04 #@! TF.ProjectId,feather51,66656174-6865-4723-9531-2e6b69636164,A*
G04 #@! TF.SameCoordinates,Original*
G04 #@! TF.FileFunction,Soldermask,Top*
G04 #@! TF.FilePolarity,Negative*
%FSLAX46Y46*%
G04 Gerber Fmt 4.6, Leading zero omitted, Abs format (unit mm)*
G04 Created by KiCad (PCBNEW 5.0.2+dfsg1-1) date Mon 15 Apr 2019 06:08:30 PM PDT*
%MOMM*%
%LPD*%
G01*
G04 APERTURE LIST*
%ADD10C,0.100000*%
G04 APERTURE END LIST*
D10*
G36*
X143889485Y-91458996D02*
X143889487Y-91458997D01*
X143889488Y-91458997D01*
X144126255Y-91557069D01*
X144339342Y-91699449D01*
X144520551Y-91880658D01*
X144662931Y-92093745D01*
X144761004Y-92330515D01*
X144811000Y-92581861D01*
X144811000Y-92838139D01*
X144761004Y-93089485D01*
X144662931Y-93326255D01*
X144520551Y-93539342D01*
X144339342Y-93720551D01*
X144339339Y-93720553D01*
X144126255Y-93862931D01*
X143889488Y-93961003D01*
X143889487Y-93961003D01*
X143889485Y-93961004D01*
X143638139Y-94011000D01*
X143381861Y-94011000D01*
X143130515Y-93961004D01*
X143130513Y-93961003D01*
X143130512Y-93961003D01*
X142893745Y-93862931D01*
X142680661Y-93720553D01*
X142680658Y-93720551D01*
X142499449Y-93539342D01*
X142357069Y-93326255D01*
X142258996Y-93089485D01*
X142209000Y-92838139D01*
X142209000Y-92581861D01*
X142258996Y-92330515D01*
X142357069Y-92093745D01*
X142499449Y-91880658D01*
X142680658Y-91699449D01*
X142893745Y-91557069D01*
X143130512Y-91458997D01*
X143130513Y-91458997D01*
X143130515Y-91458996D01*
X143381861Y-91409000D01*
X143638139Y-91409000D01*
X143889485Y-91458996D01*
X143889485Y-91458996D01*
G37*
G36*
X126109485Y-91458996D02*
X126109487Y-91458997D01*
X126109488Y-91458997D01*
X126346255Y-91557069D01*
X126559342Y-91699449D01*
X126740551Y-91880658D01*
X126882931Y-92093745D01*
X126981004Y-92330515D01*
X127031000Y-92581861D01*
X127031000Y-92838139D01*
X126981004Y-93089485D01*
X126882931Y-93326255D01*
X126740551Y-93539342D01*
X126559342Y-93720551D01*
X126559339Y-93720553D01*
X126346255Y-93862931D01*
X126109488Y-93961003D01*
X126109487Y-93961003D01*
X126109485Y-93961004D01*
X125858139Y-94011000D01*
X125601861Y-94011000D01*
X125350515Y-93961004D01*
X125350513Y-93961003D01*
X125350512Y-93961003D01*
X125113745Y-93862931D01*
X124900661Y-93720553D01*
X124900658Y-93720551D01*
X124719449Y-93539342D01*
X124577069Y-93326255D01*
X124478996Y-93089485D01*
X124429000Y-92838139D01*
X124429000Y-92581861D01*
X124478996Y-92330515D01*
X124577069Y-92093745D01*
X124719449Y-91880658D01*
X124900658Y-91699449D01*
X125113745Y-91557069D01*
X125350512Y-91458997D01*
X125350513Y-91458997D01*
X125350515Y-91458996D01*
X125601861Y-91409000D01*
X125858139Y-91409000D01*
X126109485Y-91458996D01*
X126109485Y-91458996D01*
G37*
G36*
X133421000Y-93611000D02*
X132419000Y-93611000D01*
X132419000Y-91809000D01*
X133421000Y-91809000D01*
X133421000Y-93611000D01*
X133421000Y-93611000D01*
G37*
G36*
X136821000Y-93611000D02*
X135819000Y-93611000D01*
X135819000Y-91809000D01*
X136821000Y-91809000D01*
X136821000Y-93611000D01*
X136821000Y-93611000D01*
G37*
G36*
X144890443Y-88005519D02*
X144956627Y-88012037D01*
X145069853Y-88046384D01*
X145126467Y-88063557D01*
X145265087Y-88137652D01*
X145282991Y-88147222D01*
X145318729Y-88176552D01*
X145420186Y-88259814D01*
X145503448Y-88361271D01*
X145532778Y-88397009D01*
X145532779Y-88397011D01*
X145616443Y-88553533D01*
X145616443Y-88553534D01*
X145667963Y-88723373D01*
X145685359Y-88900000D01*
X145667963Y-89076627D01*
X145633616Y-89189853D01*
X145616443Y-89246467D01*
X145542348Y-89385087D01*
X145532778Y-89402991D01*
X145503448Y-89438729D01*
X145420186Y-89540186D01*
X145318729Y-89623448D01*
X145282991Y-89652778D01*
X145282989Y-89652779D01*
X145126467Y-89736443D01*
X145069853Y-89753616D01*
X144956627Y-89787963D01*
X144890443Y-89794481D01*
X144824260Y-89801000D01*
X144735740Y-89801000D01*
X144669557Y-89794481D01*
X144603373Y-89787963D01*
X144490147Y-89753616D01*
X144433533Y-89736443D01*
X144277011Y-89652779D01*
X144277009Y-89652778D01*
X144241271Y-89623448D01*
X144139814Y-89540186D01*
X144056552Y-89438729D01*
X144027222Y-89402991D01*
X144017652Y-89385087D01*
X143943557Y-89246467D01*
X143926384Y-89189853D01*
X143892037Y-89076627D01*
X143874641Y-88900000D01*
X143892037Y-88723373D01*
X143943557Y-88553534D01*
X143943557Y-88553533D01*
X144027221Y-88397011D01*
X144027222Y-88397009D01*
X144056552Y-88361271D01*
X144139814Y-88259814D01*
X144241271Y-88176552D01*
X144277009Y-88147222D01*
X144294913Y-88137652D01*
X144433533Y-88063557D01*
X144490147Y-88046384D01*
X144603373Y-88012037D01*
X144669557Y-88005519D01*
X144735740Y-87999000D01*
X144824260Y-87999000D01*
X144890443Y-88005519D01*
X144890443Y-88005519D01*
G37*
G36*
X137270443Y-88005519D02*
X137336627Y-88012037D01*
X137449853Y-88046384D01*
X137506467Y-88063557D01*
X137645087Y-88137652D01*
X137662991Y-88147222D01*
X137698729Y-88176552D01*
X137800186Y-88259814D01*
X137883448Y-88361271D01*
X137912778Y-88397009D01*
X137912779Y-88397011D01*
X137996443Y-88553533D01*
X137996443Y-88553534D01*
X138047963Y-88723373D01*
X138065359Y-88900000D01*
X138047963Y-89076627D01*
X138013616Y-89189853D01*
X137996443Y-89246467D01*
X137922348Y-89385087D01*
X137912778Y-89402991D01*
X137883448Y-89438729D01*
X137800186Y-89540186D01*
X137698729Y-89623448D01*
X137662991Y-89652778D01*
X137662989Y-89652779D01*
X137506467Y-89736443D01*
X137449853Y-89753616D01*
X137336627Y-89787963D01*
X137270443Y-89794481D01*
X137204260Y-89801000D01*
X137115740Y-89801000D01*
X137049557Y-89794481D01*
X136983373Y-89787963D01*
X136870147Y-89753616D01*
X136813533Y-89736443D01*
X136657011Y-89652779D01*
X136657009Y-89652778D01*
X136621271Y-89623448D01*
X136519814Y-89540186D01*
X136436552Y-89438729D01*
X136407222Y-89402991D01*
X136397652Y-89385087D01*
X136323557Y-89246467D01*
X136306384Y-89189853D01*
X136272037Y-89076627D01*
X136254641Y-88900000D01*
X136272037Y-88723373D01*
X136323557Y-88553534D01*
X136323557Y-88553533D01*
X136407221Y-88397011D01*
X136407222Y-88397009D01*
X136436552Y-88361271D01*
X136519814Y-88259814D01*
X136621271Y-88176552D01*
X136657009Y-88147222D01*
X136674913Y-88137652D01*
X136813533Y-88063557D01*
X136870147Y-88046384D01*
X136983373Y-88012037D01*
X137049557Y-88005519D01*
X137115740Y-87999000D01*
X137204260Y-87999000D01*
X137270443Y-88005519D01*
X137270443Y-88005519D01*
G37*
G36*
X124570443Y-88005519D02*
X124636627Y-88012037D01*
X124749853Y-88046384D01*
X124806467Y-88063557D01*
X124945087Y-88137652D01*
X124962991Y-88147222D01*
X124998729Y-88176552D01*
X125100186Y-88259814D01*
X125183448Y-88361271D01*
X125212778Y-88397009D01*
X125212779Y-88397011D01*
X125296443Y-88553533D01*
X125296443Y-88553534D01*
X125347963Y-88723373D01*
X125365359Y-88900000D01*
X125347963Y-89076627D01*
X125313616Y-89189853D01*
X125296443Y-89246467D01*
X125222348Y-89385087D01*
X125212778Y-89402991D01*
X125183448Y-89438729D01*
X125100186Y-89540186D01*
X124998729Y-89623448D01*
X124962991Y-89652778D01*
X124962989Y-89652779D01*
X124806467Y-89736443D01*
X124749853Y-89753616D01*
X124636627Y-89787963D01*
X124570443Y-89794481D01*
X124504260Y-89801000D01*
X124415740Y-89801000D01*
X124349557Y-89794481D01*
X124283373Y-89787963D01*
X124170147Y-89753616D01*
X124113533Y-89736443D01*
X123957011Y-89652779D01*
X123957009Y-89652778D01*
X123921271Y-89623448D01*
X123819814Y-89540186D01*
X123736552Y-89438729D01*
X123707222Y-89402991D01*
X123697652Y-89385087D01*
X123623557Y-89246467D01*
X123606384Y-89189853D01*
X123572037Y-89076627D01*
X123554641Y-88900000D01*
X123572037Y-88723373D01*
X123623557Y-88553534D01*
X123623557Y-88553533D01*
X123707221Y-88397011D01*
X123707222Y-88397009D01*
X123736552Y-88361271D01*
X123819814Y-88259814D01*
X123921271Y-88176552D01*
X123957009Y-88147222D01*
X123974913Y-88137652D01*
X124113533Y-88063557D01*
X124170147Y-88046384D01*
X124283373Y-88012037D01*
X124349557Y-88005519D01*
X124415740Y-87999000D01*
X124504260Y-87999000D01*
X124570443Y-88005519D01*
X124570443Y-88005519D01*
G37*
G36*
X132190443Y-88005519D02*
X132256627Y-88012037D01*
X132369853Y-88046384D01*
X132426467Y-88063557D01*
X132565087Y-88137652D01*
X132582991Y-88147222D01*
X132618729Y-88176552D01*
X132720186Y-88259814D01*
X132803448Y-88361271D01*
X132832778Y-88397009D01*
X132832779Y-88397011D01*
X132916443Y-88553533D01*
X132916443Y-88553534D01*
X132967963Y-88723373D01*
X132985359Y-88900000D01*
X132967963Y-89076627D01*
X132933616Y-89189853D01*
X132916443Y-89246467D01*
X132842348Y-89385087D01*
X132832778Y-89402991D01*
X132803448Y-89438729D01*
X132720186Y-89540186D01*
X132618729Y-89623448D01*
X132582991Y-89652778D01*
X132582989Y-89652779D01*
X132426467Y-89736443D01*
X132369853Y-89753616D01*
X132256627Y-89787963D01*
X132190443Y-89794481D01*
X132124260Y-89801000D01*
X132035740Y-89801000D01*
X131969557Y-89794481D01*
X131903373Y-89787963D01*
X131790147Y-89753616D01*
X131733533Y-89736443D01*
X131577011Y-89652779D01*
X131577009Y-89652778D01*
X131541271Y-89623448D01*
X131439814Y-89540186D01*
X131356552Y-89438729D01*
X131327222Y-89402991D01*
X131317652Y-89385087D01*
X131243557Y-89246467D01*
X131226384Y-89189853D01*
X131192037Y-89076627D01*
X131174641Y-88900000D01*
X131192037Y-88723373D01*
X131243557Y-88553534D01*
X131243557Y-88553533D01*
X131327221Y-88397011D01*
X131327222Y-88397009D01*
X131356552Y-88361271D01*
X131439814Y-88259814D01*
X131541271Y-88176552D01*
X131577009Y-88147222D01*
X131594913Y-88137652D01*
X131733533Y-88063557D01*
X131790147Y-88046384D01*
X131903373Y-88012037D01*
X131969557Y-88005519D01*
X132035740Y-87999000D01*
X132124260Y-87999000D01*
X132190443Y-88005519D01*
X132190443Y-88005519D01*
G37*
G36*
X134730443Y-88005519D02*
X134796627Y-88012037D01*
X134909853Y-88046384D01*
X134966467Y-88063557D01*
X135105087Y-88137652D01*
X135122991Y-88147222D01*
X135158729Y-88176552D01*
X135260186Y-88259814D01*
X135343448Y-88361271D01*
X135372778Y-88397009D01*
X135372779Y-88397011D01*
X135456443Y-88553533D01*
X135456443Y-88553534D01*
X135507963Y-88723373D01*
X135525359Y-88900000D01*
X135507963Y-89076627D01*
X135473616Y-89189853D01*
X135456443Y-89246467D01*
X135382348Y-89385087D01*
X135372778Y-89402991D01*
X135343448Y-89438729D01*
X135260186Y-89540186D01*
X135158729Y-89623448D01*
X135122991Y-89652778D01*
X135122989Y-89652779D01*
X134966467Y-89736443D01*
X134909853Y-89753616D01*
X134796627Y-89787963D01*
X134730443Y-89794481D01*
X134664260Y-89801000D01*
X134575740Y-89801000D01*
X134509557Y-89794481D01*
X134443373Y-89787963D01*
X134330147Y-89753616D01*
X134273533Y-89736443D01*
X134117011Y-89652779D01*
X134117009Y-89652778D01*
X134081271Y-89623448D01*
X133979814Y-89540186D01*
X133896552Y-89438729D01*
X133867222Y-89402991D01*
X133857652Y-89385087D01*
X133783557Y-89246467D01*
X133766384Y-89189853D01*
X133732037Y-89076627D01*
X133714641Y-88900000D01*
X133732037Y-88723373D01*
X133783557Y-88553534D01*
X133783557Y-88553533D01*
X133867221Y-88397011D01*
X133867222Y-88397009D01*
X133896552Y-88361271D01*
X133979814Y-88259814D01*
X134081271Y-88176552D01*
X134117009Y-88147222D01*
X134134913Y-88137652D01*
X134273533Y-88063557D01*
X134330147Y-88046384D01*
X134443373Y-88012037D01*
X134509557Y-88005519D01*
X134575740Y-87999000D01*
X134664260Y-87999000D01*
X134730443Y-88005519D01*
X134730443Y-88005519D01*
G37*
G36*
X144890442Y-85465518D02*
X144956627Y-85472037D01*
X145069853Y-85506384D01*
X145126467Y-85523557D01*
X145265087Y-85597652D01*
X145282991Y-85607222D01*
X145318729Y-85636552D01*
X145420186Y-85719814D01*
X145503448Y-85821271D01*
X145532778Y-85857009D01*
X145532779Y-85857011D01*
X145616443Y-86013533D01*
X145616443Y-86013534D01*
X145667963Y-86183373D01*
X145685359Y-86360000D01*
X145667963Y-86536627D01*
X145633616Y-86649853D01*
X145616443Y-86706467D01*
X145542348Y-86845087D01*
X145532778Y-86862991D01*
X145503448Y-86898729D01*
X145420186Y-87000186D01*
X145318729Y-87083448D01*
X145282991Y-87112778D01*
X145282989Y-87112779D01*
X145126467Y-87196443D01*
X145069853Y-87213616D01*
X144956627Y-87247963D01*
X144890442Y-87254482D01*
X144824260Y-87261000D01*
X144735740Y-87261000D01*
X144669558Y-87254482D01*
X144603373Y-87247963D01*
X144490147Y-87213616D01*
X144433533Y-87196443D01*
X144277011Y-87112779D01*
X144277009Y-87112778D01*
X144241271Y-87083448D01*
X144139814Y-87000186D01*
X144056552Y-86898729D01*
X144027222Y-86862991D01*
X144017652Y-86845087D01*
X143943557Y-86706467D01*
X143926384Y-86649853D01*
X143892037Y-86536627D01*
X143874641Y-86360000D01*
X143892037Y-86183373D01*
X143943557Y-86013534D01*
X143943557Y-86013533D01*
X144027221Y-85857011D01*
X144027222Y-85857009D01*
X144056552Y-85821271D01*
X144139814Y-85719814D01*
X144241271Y-85636552D01*
X144277009Y-85607222D01*
X144294913Y-85597652D01*
X144433533Y-85523557D01*
X144490147Y-85506384D01*
X144603373Y-85472037D01*
X144669558Y-85465518D01*
X144735740Y-85459000D01*
X144824260Y-85459000D01*
X144890442Y-85465518D01*
X144890442Y-85465518D01*
G37*
G36*
X134730442Y-85465518D02*
X134796627Y-85472037D01*
X134909853Y-85506384D01*
X134966467Y-85523557D01*
X135105087Y-85597652D01*
X135122991Y-85607222D01*
X135158729Y-85636552D01*
X135260186Y-85719814D01*
X135343448Y-85821271D01*
X135372778Y-85857009D01*
X135372779Y-85857011D01*
X135456443Y-86013533D01*
X135456443Y-86013534D01*
X135507963Y-86183373D01*
X135525359Y-86360000D01*
X135507963Y-86536627D01*
X135473616Y-86649853D01*
X135456443Y-86706467D01*
X135382348Y-86845087D01*
X135372778Y-86862991D01*
X135343448Y-86898729D01*
X135260186Y-87000186D01*
X135158729Y-87083448D01*
X135122991Y-87112778D01*
X135122989Y-87112779D01*
X134966467Y-87196443D01*
X134909853Y-87213616D01*
X134796627Y-87247963D01*
X134730442Y-87254482D01*
X134664260Y-87261000D01*
X134575740Y-87261000D01*
X134509558Y-87254482D01*
X134443373Y-87247963D01*
X134330147Y-87213616D01*
X134273533Y-87196443D01*
X134117011Y-87112779D01*
X134117009Y-87112778D01*
X134081271Y-87083448D01*
X133979814Y-87000186D01*
X133896552Y-86898729D01*
X133867222Y-86862991D01*
X133857652Y-86845087D01*
X133783557Y-86706467D01*
X133766384Y-86649853D01*
X133732037Y-86536627D01*
X133714641Y-86360000D01*
X133732037Y-86183373D01*
X133783557Y-86013534D01*
X133783557Y-86013533D01*
X133867221Y-85857011D01*
X133867222Y-85857009D01*
X133896552Y-85821271D01*
X133979814Y-85719814D01*
X134081271Y-85636552D01*
X134117009Y-85607222D01*
X134134913Y-85597652D01*
X134273533Y-85523557D01*
X134330147Y-85506384D01*
X134443373Y-85472037D01*
X134509558Y-85465518D01*
X134575740Y-85459000D01*
X134664260Y-85459000D01*
X134730442Y-85465518D01*
X134730442Y-85465518D01*
G37*
G36*
X138061000Y-87261000D02*
X136259000Y-87261000D01*
X136259000Y-85459000D01*
X138061000Y-85459000D01*
X138061000Y-87261000D01*
X138061000Y-87261000D01*
G37*
G36*
X132190442Y-85465518D02*
X132256627Y-85472037D01*
X132369853Y-85506384D01*
X132426467Y-85523557D01*
X132565087Y-85597652D01*
X132582991Y-85607222D01*
X132618729Y-85636552D01*
X132720186Y-85719814D01*
X132803448Y-85821271D01*
X132832778Y-85857009D01*
X132832779Y-85857011D01*
X132916443Y-86013533D01*
X132916443Y-86013534D01*
X132967963Y-86183373D01*
X132985359Y-86360000D01*
X132967963Y-86536627D01*
X132933616Y-86649853D01*
X132916443Y-86706467D01*
X132842348Y-86845087D01*
X132832778Y-86862991D01*
X132803448Y-86898729D01*
X132720186Y-87000186D01*
X132618729Y-87083448D01*
X132582991Y-87112778D01*
X132582989Y-87112779D01*
X132426467Y-87196443D01*
X132369853Y-87213616D01*
X132256627Y-87247963D01*
X132190442Y-87254482D01*
X132124260Y-87261000D01*
X132035740Y-87261000D01*
X131969558Y-87254482D01*
X131903373Y-87247963D01*
X131790147Y-87213616D01*
X131733533Y-87196443D01*
X131577011Y-87112779D01*
X131577009Y-87112778D01*
X131541271Y-87083448D01*
X131439814Y-87000186D01*
X131356552Y-86898729D01*
X131327222Y-86862991D01*
X131317652Y-86845087D01*
X131243557Y-86706467D01*
X131226384Y-86649853D01*
X131192037Y-86536627D01*
X131174641Y-86360000D01*
X131192037Y-86183373D01*
X131243557Y-86013534D01*
X131243557Y-86013533D01*
X131327221Y-85857011D01*
X131327222Y-85857009D01*
X131356552Y-85821271D01*
X131439814Y-85719814D01*
X131541271Y-85636552D01*
X131577009Y-85607222D01*
X131594913Y-85597652D01*
X131733533Y-85523557D01*
X131790147Y-85506384D01*
X131903373Y-85472037D01*
X131969558Y-85465518D01*
X132035740Y-85459000D01*
X132124260Y-85459000D01*
X132190442Y-85465518D01*
X132190442Y-85465518D01*
G37*
G36*
X124570442Y-85465518D02*
X124636627Y-85472037D01*
X124749853Y-85506384D01*
X124806467Y-85523557D01*
X124945087Y-85597652D01*
X124962991Y-85607222D01*
X124998729Y-85636552D01*
X125100186Y-85719814D01*
X125183448Y-85821271D01*
X125212778Y-85857009D01*
X125212779Y-85857011D01*
X125296443Y-86013533D01*
X125296443Y-86013534D01*
X125347963Y-86183373D01*
X125365359Y-86360000D01*
X125347963Y-86536627D01*
X125313616Y-86649853D01*
X125296443Y-86706467D01*
X125222348Y-86845087D01*
X125212778Y-86862991D01*
X125183448Y-86898729D01*
X125100186Y-87000186D01*
X124998729Y-87083448D01*
X124962991Y-87112778D01*
X124962989Y-87112779D01*
X124806467Y-87196443D01*
X124749853Y-87213616D01*
X124636627Y-87247963D01*
X124570442Y-87254482D01*
X124504260Y-87261000D01*
X124415740Y-87261000D01*
X124349558Y-87254482D01*
X124283373Y-87247963D01*
X124170147Y-87213616D01*
X124113533Y-87196443D01*
X123957011Y-87112779D01*
X123957009Y-87112778D01*
X123921271Y-87083448D01*
X123819814Y-87000186D01*
X123736552Y-86898729D01*
X123707222Y-86862991D01*
X123697652Y-86845087D01*
X123623557Y-86706467D01*
X123606384Y-86649853D01*
X123572037Y-86536627D01*
X123554641Y-86360000D01*
X123572037Y-86183373D01*
X123623557Y-86013534D01*
X123623557Y-86013533D01*
X123707221Y-85857011D01*
X123707222Y-85857009D01*
X123736552Y-85821271D01*
X123819814Y-85719814D01*
X123921271Y-85636552D01*
X123957009Y-85607222D01*
X123974913Y-85597652D01*
X124113533Y-85523557D01*
X124170147Y-85506384D01*
X124283373Y-85472037D01*
X124349558Y-85465518D01*
X124415740Y-85459000D01*
X124504260Y-85459000D01*
X124570442Y-85465518D01*
X124570442Y-85465518D01*
G37*
G36*
X124570443Y-82925519D02*
X124636627Y-82932037D01*
X124749853Y-82966384D01*
X124806467Y-82983557D01*
X124945087Y-83057652D01*
X124962991Y-83067222D01*
X124998729Y-83096552D01*
X125100186Y-83179814D01*
X125183448Y-83281271D01*
X125212778Y-83317009D01*
X125212779Y-83317011D01*
X125296443Y-83473533D01*
X125296443Y-83473534D01*
X125347963Y-83643373D01*
X125365359Y-83820000D01*
X125347963Y-83996627D01*
X125313616Y-84109853D01*
X125296443Y-84166467D01*
X125222348Y-84305087D01*
X125212778Y-84322991D01*
X125183448Y-84358729D01*
X125100186Y-84460186D01*
X124998729Y-84543448D01*
X124962991Y-84572778D01*
X124962989Y-84572779D01*
X124806467Y-84656443D01*
X124749853Y-84673616D01*
X124636627Y-84707963D01*
X124570443Y-84714481D01*
X124504260Y-84721000D01*
X124415740Y-84721000D01*
X124349557Y-84714481D01*
X124283373Y-84707963D01*
X124170147Y-84673616D01*
X124113533Y-84656443D01*
X123957011Y-84572779D01*
X123957009Y-84572778D01*
X123921271Y-84543448D01*
X123819814Y-84460186D01*
X123736552Y-84358729D01*
X123707222Y-84322991D01*
X123697652Y-84305087D01*
X123623557Y-84166467D01*
X123606384Y-84109853D01*
X123572037Y-83996627D01*
X123554641Y-83820000D01*
X123572037Y-83643373D01*
X123623557Y-83473534D01*
X123623557Y-83473533D01*
X123707221Y-83317011D01*
X123707222Y-83317009D01*
X123736552Y-83281271D01*
X123819814Y-83179814D01*
X123921271Y-83096552D01*
X123957009Y-83067222D01*
X123974913Y-83057652D01*
X124113533Y-82983557D01*
X124170147Y-82966384D01*
X124283373Y-82932037D01*
X124349557Y-82925519D01*
X124415740Y-82919000D01*
X124504260Y-82919000D01*
X124570443Y-82925519D01*
X124570443Y-82925519D01*
G37*
G36*
X144890443Y-82925519D02*
X144956627Y-82932037D01*
X145069853Y-82966384D01*
X145126467Y-82983557D01*
X145265087Y-83057652D01*
X145282991Y-83067222D01*
X145318729Y-83096552D01*
X145420186Y-83179814D01*
X145503448Y-83281271D01*
X145532778Y-83317009D01*
X145532779Y-83317011D01*
X145616443Y-83473533D01*
X145616443Y-83473534D01*
X145667963Y-83643373D01*
X145685359Y-83820000D01*
X145667963Y-83996627D01*
X145633616Y-84109853D01*
X145616443Y-84166467D01*
X145542348Y-84305087D01*
X145532778Y-84322991D01*
X145503448Y-84358729D01*
X145420186Y-84460186D01*
X145318729Y-84543448D01*
X145282991Y-84572778D01*
X145282989Y-84572779D01*
X145126467Y-84656443D01*
X145069853Y-84673616D01*
X144956627Y-84707963D01*
X144890443Y-84714481D01*
X144824260Y-84721000D01*
X144735740Y-84721000D01*
X144669557Y-84714481D01*
X144603373Y-84707963D01*
X144490147Y-84673616D01*
X144433533Y-84656443D01*
X144277011Y-84572779D01*
X144277009Y-84572778D01*
X144241271Y-84543448D01*
X144139814Y-84460186D01*
X144056552Y-84358729D01*
X144027222Y-84322991D01*
X144017652Y-84305087D01*
X143943557Y-84166467D01*
X143926384Y-84109853D01*
X143892037Y-83996627D01*
X143874641Y-83820000D01*
X143892037Y-83643373D01*
X143943557Y-83473534D01*
X143943557Y-83473533D01*
X144027221Y-83317011D01*
X144027222Y-83317009D01*
X144056552Y-83281271D01*
X144139814Y-83179814D01*
X144241271Y-83096552D01*
X144277009Y-83067222D01*
X144294913Y-83057652D01*
X144433533Y-82983557D01*
X144490147Y-82966384D01*
X144603373Y-82932037D01*
X144669557Y-82925519D01*
X144735740Y-82919000D01*
X144824260Y-82919000D01*
X144890443Y-82925519D01*
X144890443Y-82925519D01*
G37*
G36*
X144890442Y-80385518D02*
X144956627Y-80392037D01*
X145069853Y-80426384D01*
X145126467Y-80443557D01*
X145265087Y-80517652D01*
X145282991Y-80527222D01*
X145318729Y-80556552D01*
X145420186Y-80639814D01*
X145503448Y-80741271D01*
X145532778Y-80777009D01*
X145532779Y-80777011D01*
X145616443Y-80933533D01*
X145616443Y-80933534D01*
X145667963Y-81103373D01*
X145685359Y-81280000D01*
X145667963Y-81456627D01*
X145636074Y-81561750D01*
X145616443Y-81626467D01*
X145558718Y-81734461D01*
X145532778Y-81782991D01*
X145517746Y-81801307D01*
X145420186Y-81920186D01*
X145318729Y-82003448D01*
X145282991Y-82032778D01*
X145282989Y-82032779D01*
X145126467Y-82116443D01*
X145069853Y-82133616D01*
X144956627Y-82167963D01*
X144890443Y-82174481D01*
X144824260Y-82181000D01*
X144735740Y-82181000D01*
X144669557Y-82174481D01*
X144603373Y-82167963D01*
X144490147Y-82133616D01*
X144433533Y-82116443D01*
X144277011Y-82032779D01*
X144277009Y-82032778D01*
X144241271Y-82003448D01*
X144139814Y-81920186D01*
X144042254Y-81801307D01*
X144027222Y-81782991D01*
X144001282Y-81734461D01*
X143943557Y-81626467D01*
X143923926Y-81561750D01*
X143892037Y-81456627D01*
X143874641Y-81280000D01*
X143892037Y-81103373D01*
X143943557Y-80933534D01*
X143943557Y-80933533D01*
X144027221Y-80777011D01*
X144027222Y-80777009D01*
X144056552Y-80741271D01*
X144139814Y-80639814D01*
X144241271Y-80556552D01*
X144277009Y-80527222D01*
X144294913Y-80517652D01*
X144433533Y-80443557D01*
X144490147Y-80426384D01*
X144603373Y-80392037D01*
X144669558Y-80385518D01*
X144735740Y-80379000D01*
X144824260Y-80379000D01*
X144890442Y-80385518D01*
X144890442Y-80385518D01*
G37*
G36*
X124570442Y-80385518D02*
X124636627Y-80392037D01*
X124749853Y-80426384D01*
X124806467Y-80443557D01*
X124945087Y-80517652D01*
X124962991Y-80527222D01*
X124998729Y-80556552D01*
X125100186Y-80639814D01*
X125183448Y-80741271D01*
X125212778Y-80777009D01*
X125212779Y-80777011D01*
X125296443Y-80933533D01*
X125296443Y-80933534D01*
X125347963Y-81103373D01*
X125365359Y-81280000D01*
X125347963Y-81456627D01*
X125316074Y-81561750D01*
X125296443Y-81626467D01*
X125238718Y-81734461D01*
X125212778Y-81782991D01*
X125197746Y-81801307D01*
X125100186Y-81920186D01*
X124998729Y-82003448D01*
X124962991Y-82032778D01*
X124962989Y-82032779D01*
X124806467Y-82116443D01*
X124749853Y-82133616D01*
X124636627Y-82167963D01*
X124570443Y-82174481D01*
X124504260Y-82181000D01*
X124415740Y-82181000D01*
X124349557Y-82174481D01*
X124283373Y-82167963D01*
X124170147Y-82133616D01*
X124113533Y-82116443D01*
X123957011Y-82032779D01*
X123957009Y-82032778D01*
X123921271Y-82003448D01*
X123819814Y-81920186D01*
X123722254Y-81801307D01*
X123707222Y-81782991D01*
X123681282Y-81734461D01*
X123623557Y-81626467D01*
X123603926Y-81561750D01*
X123572037Y-81456627D01*
X123554641Y-81280000D01*
X123572037Y-81103373D01*
X123623557Y-80933534D01*
X123623557Y-80933533D01*
X123707221Y-80777011D01*
X123707222Y-80777009D01*
X123736552Y-80741271D01*
X123819814Y-80639814D01*
X123921271Y-80556552D01*
X123957009Y-80527222D01*
X123974913Y-80517652D01*
X124113533Y-80443557D01*
X124170147Y-80426384D01*
X124283373Y-80392037D01*
X124349558Y-80385518D01*
X124415740Y-80379000D01*
X124504260Y-80379000D01*
X124570442Y-80385518D01*
X124570442Y-80385518D01*
G37*
G36*
X135749591Y-80758085D02*
X135783569Y-80768393D01*
X135814887Y-80785133D01*
X135842339Y-80807661D01*
X135864867Y-80835113D01*
X135881607Y-80866431D01*
X135891915Y-80900409D01*
X135896000Y-80941890D01*
X135896000Y-81618110D01*
X135891915Y-81659591D01*
X135881607Y-81693569D01*
X135864867Y-81724887D01*
X135842339Y-81752339D01*
X135814887Y-81774867D01*
X135783569Y-81791607D01*
X135749591Y-81801915D01*
X135708110Y-81806000D01*
X135106890Y-81806000D01*
X135065409Y-81801915D01*
X135031431Y-81791607D01*
X135000113Y-81774867D01*
X134972661Y-81752339D01*
X134950133Y-81724887D01*
X134933393Y-81693569D01*
X134923085Y-81659591D01*
X134919000Y-81618110D01*
X134919000Y-80941890D01*
X134923085Y-80900409D01*
X134933393Y-80866431D01*
X134950133Y-80835113D01*
X134972661Y-80807661D01*
X135000113Y-80785133D01*
X135031431Y-80768393D01*
X135065409Y-80758085D01*
X135106890Y-80754000D01*
X135708110Y-80754000D01*
X135749591Y-80758085D01*
X135749591Y-80758085D01*
G37*
G36*
X134174591Y-80758085D02*
X134208569Y-80768393D01*
X134239887Y-80785133D01*
X134267339Y-80807661D01*
X134289867Y-80835113D01*
X134306607Y-80866431D01*
X134316915Y-80900409D01*
X134321000Y-80941890D01*
X134321000Y-81618110D01*
X134316915Y-81659591D01*
X134306607Y-81693569D01*
X134289867Y-81724887D01*
X134267339Y-81752339D01*
X134239887Y-81774867D01*
X134208569Y-81791607D01*
X134174591Y-81801915D01*
X134133110Y-81806000D01*
X133531890Y-81806000D01*
X133490409Y-81801915D01*
X133456431Y-81791607D01*
X133425113Y-81774867D01*
X133397661Y-81752339D01*
X133375133Y-81724887D01*
X133358393Y-81693569D01*
X133348085Y-81659591D01*
X133344000Y-81618110D01*
X133344000Y-80941890D01*
X133348085Y-80900409D01*
X133358393Y-80866431D01*
X133375133Y-80835113D01*
X133397661Y-80807661D01*
X133425113Y-80785133D01*
X133456431Y-80768393D01*
X133490409Y-80758085D01*
X133531890Y-80754000D01*
X134133110Y-80754000D01*
X134174591Y-80758085D01*
X134174591Y-80758085D01*
G37*
G36*
X144890443Y-77845519D02*
X144956627Y-77852037D01*
X145069853Y-77886384D01*
X145126467Y-77903557D01*
X145265087Y-77977652D01*
X145282991Y-77987222D01*
X145318729Y-78016552D01*
X145420186Y-78099814D01*
X145503448Y-78201271D01*
X145532778Y-78237009D01*
X145532779Y-78237011D01*
X145616443Y-78393533D01*
X145620106Y-78405610D01*
X145667963Y-78563373D01*
X145685359Y-78740000D01*
X145667963Y-78916627D01*
X145633616Y-79029853D01*
X145616443Y-79086467D01*
X145542348Y-79225087D01*
X145532778Y-79242991D01*
X145503448Y-79278729D01*
X145420186Y-79380186D01*
X145318729Y-79463448D01*
X145282991Y-79492778D01*
X145282989Y-79492779D01*
X145126467Y-79576443D01*
X145069853Y-79593616D01*
X144956627Y-79627963D01*
X144890442Y-79634482D01*
X144824260Y-79641000D01*
X144735740Y-79641000D01*
X144669558Y-79634482D01*
X144603373Y-79627963D01*
X144490147Y-79593616D01*
X144433533Y-79576443D01*
X144277011Y-79492779D01*
X144277009Y-79492778D01*
X144241271Y-79463448D01*
X144139814Y-79380186D01*
X144056552Y-79278729D01*
X144027222Y-79242991D01*
X144017652Y-79225087D01*
X143943557Y-79086467D01*
X143926384Y-79029853D01*
X143892037Y-78916627D01*
X143874641Y-78740000D01*
X143892037Y-78563373D01*
X143939894Y-78405610D01*
X143943557Y-78393533D01*
X144027221Y-78237011D01*
X144027222Y-78237009D01*
X144056552Y-78201271D01*
X144139814Y-78099814D01*
X144241271Y-78016552D01*
X144277009Y-77987222D01*
X144294913Y-77977652D01*
X144433533Y-77903557D01*
X144490147Y-77886384D01*
X144603373Y-77852037D01*
X144669557Y-77845519D01*
X144735740Y-77839000D01*
X144824260Y-77839000D01*
X144890443Y-77845519D01*
X144890443Y-77845519D01*
G37*
G36*
X124570443Y-77845519D02*
X124636627Y-77852037D01*
X124749853Y-77886384D01*
X124806467Y-77903557D01*
X124945087Y-77977652D01*
X124962991Y-77987222D01*
X124998729Y-78016552D01*
X125100186Y-78099814D01*
X125183448Y-78201271D01*
X125212778Y-78237009D01*
X125212779Y-78237011D01*
X125296443Y-78393533D01*
X125300106Y-78405610D01*
X125347963Y-78563373D01*
X125365359Y-78740000D01*
X125347963Y-78916627D01*
X125313616Y-79029853D01*
X125296443Y-79086467D01*
X125222348Y-79225087D01*
X125212778Y-79242991D01*
X125183448Y-79278729D01*
X125100186Y-79380186D01*
X124998729Y-79463448D01*
X124962991Y-79492778D01*
X124962989Y-79492779D01*
X124806467Y-79576443D01*
X124749853Y-79593616D01*
X124636627Y-79627963D01*
X124570442Y-79634482D01*
X124504260Y-79641000D01*
X124415740Y-79641000D01*
X124349558Y-79634482D01*
X124283373Y-79627963D01*
X124170147Y-79593616D01*
X124113533Y-79576443D01*
X123957011Y-79492779D01*
X123957009Y-79492778D01*
X123921271Y-79463448D01*
X123819814Y-79380186D01*
X123736552Y-79278729D01*
X123707222Y-79242991D01*
X123697652Y-79225087D01*
X123623557Y-79086467D01*
X123606384Y-79029853D01*
X123572037Y-78916627D01*
X123554641Y-78740000D01*
X123572037Y-78563373D01*
X123619894Y-78405610D01*
X123623557Y-78393533D01*
X123707221Y-78237011D01*
X123707222Y-78237009D01*
X123736552Y-78201271D01*
X123819814Y-78099814D01*
X123921271Y-78016552D01*
X123957009Y-77987222D01*
X123974913Y-77977652D01*
X124113533Y-77903557D01*
X124170147Y-77886384D01*
X124283373Y-77852037D01*
X124349557Y-77845519D01*
X124415740Y-77839000D01*
X124504260Y-77839000D01*
X124570443Y-77845519D01*
X124570443Y-77845519D01*
G37*
G36*
X141984591Y-77620585D02*
X142018569Y-77630893D01*
X142049887Y-77647633D01*
X142077339Y-77670161D01*
X142099867Y-77697613D01*
X142116607Y-77728931D01*
X142126915Y-77762909D01*
X142131000Y-77804390D01*
X142131000Y-78405610D01*
X142126915Y-78447091D01*
X142116607Y-78481069D01*
X142099867Y-78512387D01*
X142077339Y-78539839D01*
X142049887Y-78562367D01*
X142018569Y-78579107D01*
X141984591Y-78589415D01*
X141943110Y-78593500D01*
X141266890Y-78593500D01*
X141225409Y-78589415D01*
X141191431Y-78579107D01*
X141160113Y-78562367D01*
X141132661Y-78539839D01*
X141110133Y-78512387D01*
X141093393Y-78481069D01*
X141083085Y-78447091D01*
X141079000Y-78405610D01*
X141079000Y-77804390D01*
X141083085Y-77762909D01*
X141093393Y-77728931D01*
X141110133Y-77697613D01*
X141132661Y-77670161D01*
X141160113Y-77647633D01*
X141191431Y-77630893D01*
X141225409Y-77620585D01*
X141266890Y-77616500D01*
X141943110Y-77616500D01*
X141984591Y-77620585D01*
X141984591Y-77620585D01*
G37*
G36*
X124570442Y-75305518D02*
X124636627Y-75312037D01*
X124749853Y-75346384D01*
X124806467Y-75363557D01*
X124945087Y-75437652D01*
X124962991Y-75447222D01*
X124998729Y-75476552D01*
X125100186Y-75559814D01*
X125183448Y-75661271D01*
X125212778Y-75697009D01*
X125212779Y-75697011D01*
X125296443Y-75853533D01*
X125296443Y-75853534D01*
X125347963Y-76023373D01*
X125365359Y-76200000D01*
X125347963Y-76376627D01*
X125313616Y-76489853D01*
X125296443Y-76546467D01*
X125222348Y-76685087D01*
X125212778Y-76702991D01*
X125183448Y-76738729D01*
X125100186Y-76840186D01*
X125019906Y-76906069D01*
X124962991Y-76952778D01*
X124962989Y-76952779D01*
X124806467Y-77036443D01*
X124749853Y-77053616D01*
X124636627Y-77087963D01*
X124570442Y-77094482D01*
X124504260Y-77101000D01*
X124415740Y-77101000D01*
X124349558Y-77094482D01*
X124283373Y-77087963D01*
X124170147Y-77053616D01*
X124113533Y-77036443D01*
X123957011Y-76952779D01*
X123957009Y-76952778D01*
X123900094Y-76906069D01*
X123819814Y-76840186D01*
X123736552Y-76738729D01*
X123707222Y-76702991D01*
X123697652Y-76685087D01*
X123623557Y-76546467D01*
X123606384Y-76489853D01*
X123572037Y-76376627D01*
X123554641Y-76200000D01*
X123572037Y-76023373D01*
X123623557Y-75853534D01*
X123623557Y-75853533D01*
X123707221Y-75697011D01*
X123707222Y-75697009D01*
X123736552Y-75661271D01*
X123819814Y-75559814D01*
X123921271Y-75476552D01*
X123957009Y-75447222D01*
X123974913Y-75437652D01*
X124113533Y-75363557D01*
X124170147Y-75346384D01*
X124283373Y-75312037D01*
X124349558Y-75305518D01*
X124415740Y-75299000D01*
X124504260Y-75299000D01*
X124570442Y-75305518D01*
X124570442Y-75305518D01*
G37*
G36*
X144890442Y-75305518D02*
X144956627Y-75312037D01*
X145069853Y-75346384D01*
X145126467Y-75363557D01*
X145265087Y-75437652D01*
X145282991Y-75447222D01*
X145318729Y-75476552D01*
X145420186Y-75559814D01*
X145503448Y-75661271D01*
X145532778Y-75697009D01*
X145532779Y-75697011D01*
X145616443Y-75853533D01*
X145616443Y-75853534D01*
X145667963Y-76023373D01*
X145685359Y-76200000D01*
X145667963Y-76376627D01*
X145633616Y-76489853D01*
X145616443Y-76546467D01*
X145542348Y-76685087D01*
X145532778Y-76702991D01*
X145503448Y-76738729D01*
X145420186Y-76840186D01*
X145339906Y-76906069D01*
X145282991Y-76952778D01*
X145282989Y-76952779D01*
X145126467Y-77036443D01*
X145069853Y-77053616D01*
X144956627Y-77087963D01*
X144890442Y-77094482D01*
X144824260Y-77101000D01*
X144735740Y-77101000D01*
X144669558Y-77094482D01*
X144603373Y-77087963D01*
X144490147Y-77053616D01*
X144433533Y-77036443D01*
X144277011Y-76952779D01*
X144277009Y-76952778D01*
X144220094Y-76906069D01*
X144139814Y-76840186D01*
X144056552Y-76738729D01*
X144027222Y-76702991D01*
X144017652Y-76685087D01*
X143943557Y-76546467D01*
X143926384Y-76489853D01*
X143892037Y-76376627D01*
X143874641Y-76200000D01*
X143892037Y-76023373D01*
X143943557Y-75853534D01*
X143943557Y-75853533D01*
X144027221Y-75697011D01*
X144027222Y-75697009D01*
X144056552Y-75661271D01*
X144139814Y-75559814D01*
X144241271Y-75476552D01*
X144277009Y-75447222D01*
X144294913Y-75437652D01*
X144433533Y-75363557D01*
X144490147Y-75346384D01*
X144603373Y-75312037D01*
X144669558Y-75305518D01*
X144735740Y-75299000D01*
X144824260Y-75299000D01*
X144890442Y-75305518D01*
X144890442Y-75305518D01*
G37*
G36*
X141984591Y-76045585D02*
X142018569Y-76055893D01*
X142049887Y-76072633D01*
X142077339Y-76095161D01*
X142099867Y-76122613D01*
X142116607Y-76153931D01*
X142126915Y-76187909D01*
X142131000Y-76229390D01*
X142131000Y-76830610D01*
X142126915Y-76872091D01*
X142116607Y-76906069D01*
X142099867Y-76937387D01*
X142077339Y-76964839D01*
X142049887Y-76987367D01*
X142018569Y-77004107D01*
X141984591Y-77014415D01*
X141943110Y-77018500D01*
X141266890Y-77018500D01*
X141225409Y-77014415D01*
X141191431Y-77004107D01*
X141160113Y-76987367D01*
X141132661Y-76964839D01*
X141110133Y-76937387D01*
X141093393Y-76906069D01*
X141083085Y-76872091D01*
X141079000Y-76830610D01*
X141079000Y-76229390D01*
X141083085Y-76187909D01*
X141093393Y-76153931D01*
X141110133Y-76122613D01*
X141132661Y-76095161D01*
X141160113Y-76072633D01*
X141191431Y-76055893D01*
X141225409Y-76045585D01*
X141266890Y-76041500D01*
X141943110Y-76041500D01*
X141984591Y-76045585D01*
X141984591Y-76045585D01*
G37*
G36*
X124570442Y-72765518D02*
X124636627Y-72772037D01*
X124749853Y-72806384D01*
X124806467Y-72823557D01*
X124945087Y-72897652D01*
X124962991Y-72907222D01*
X124998729Y-72936552D01*
X125100186Y-73019814D01*
X125183448Y-73121271D01*
X125212778Y-73157009D01*
X125212779Y-73157011D01*
X125296443Y-73313533D01*
X125296443Y-73313534D01*
X125347963Y-73483373D01*
X125365359Y-73660000D01*
X125347963Y-73836627D01*
X125313616Y-73949853D01*
X125296443Y-74006467D01*
X125222348Y-74145087D01*
X125212778Y-74162991D01*
X125183448Y-74198729D01*
X125100186Y-74300186D01*
X124998729Y-74383448D01*
X124962991Y-74412778D01*
X124962989Y-74412779D01*
X124806467Y-74496443D01*
X124749853Y-74513616D01*
X124636627Y-74547963D01*
X124570442Y-74554482D01*
X124504260Y-74561000D01*
X124415740Y-74561000D01*
X124349558Y-74554482D01*
X124283373Y-74547963D01*
X124170147Y-74513616D01*
X124113533Y-74496443D01*
X123957011Y-74412779D01*
X123957009Y-74412778D01*
X123921271Y-74383448D01*
X123819814Y-74300186D01*
X123736552Y-74198729D01*
X123707222Y-74162991D01*
X123697652Y-74145087D01*
X123623557Y-74006467D01*
X123606384Y-73949853D01*
X123572037Y-73836627D01*
X123554641Y-73660000D01*
X123572037Y-73483373D01*
X123623557Y-73313534D01*
X123623557Y-73313533D01*
X123707221Y-73157011D01*
X123707222Y-73157009D01*
X123736552Y-73121271D01*
X123819814Y-73019814D01*
X123921271Y-72936552D01*
X123957009Y-72907222D01*
X123974913Y-72897652D01*
X124113533Y-72823557D01*
X124170147Y-72806384D01*
X124283373Y-72772037D01*
X124349558Y-72765518D01*
X124415740Y-72759000D01*
X124504260Y-72759000D01*
X124570442Y-72765518D01*
X124570442Y-72765518D01*
G37*
G36*
X144890442Y-72765518D02*
X144956627Y-72772037D01*
X145069853Y-72806384D01*
X145126467Y-72823557D01*
X145265087Y-72897652D01*
X145282991Y-72907222D01*
X145318729Y-72936552D01*
X145420186Y-73019814D01*
X145503448Y-73121271D01*
X145532778Y-73157009D01*
X145532779Y-73157011D01*
X145616443Y-73313533D01*
X145616443Y-73313534D01*
X145667963Y-73483373D01*
X145685359Y-73660000D01*
X145667963Y-73836627D01*
X145633616Y-73949853D01*
X145616443Y-74006467D01*
X145542348Y-74145087D01*
X145532778Y-74162991D01*
X145503448Y-74198729D01*
X145420186Y-74300186D01*
X145318729Y-74383448D01*
X145282991Y-74412778D01*
X145282989Y-74412779D01*
X145126467Y-74496443D01*
X145069853Y-74513616D01*
X144956627Y-74547963D01*
X144890442Y-74554482D01*
X144824260Y-74561000D01*
X144735740Y-74561000D01*
X144669558Y-74554482D01*
X144603373Y-74547963D01*
X144490147Y-74513616D01*
X144433533Y-74496443D01*
X144277011Y-74412779D01*
X144277009Y-74412778D01*
X144241271Y-74383448D01*
X144139814Y-74300186D01*
X144056552Y-74198729D01*
X144027222Y-74162991D01*
X144017652Y-74145087D01*
X143943557Y-74006467D01*
X143926384Y-73949853D01*
X143892037Y-73836627D01*
X143874641Y-73660000D01*
X143892037Y-73483373D01*
X143943557Y-73313534D01*
X143943557Y-73313533D01*
X144027221Y-73157011D01*
X144027222Y-73157009D01*
X144056552Y-73121271D01*
X144139814Y-73019814D01*
X144241271Y-72936552D01*
X144277009Y-72907222D01*
X144294913Y-72897652D01*
X144433533Y-72823557D01*
X144490147Y-72806384D01*
X144603373Y-72772037D01*
X144669558Y-72765518D01*
X144735740Y-72759000D01*
X144824260Y-72759000D01*
X144890442Y-72765518D01*
X144890442Y-72765518D01*
G37*
G36*
X124570442Y-70225518D02*
X124636627Y-70232037D01*
X124749853Y-70266384D01*
X124806467Y-70283557D01*
X124945087Y-70357652D01*
X124962991Y-70367222D01*
X124998729Y-70396552D01*
X125100186Y-70479814D01*
X125183448Y-70581271D01*
X125212778Y-70617009D01*
X125212779Y-70617011D01*
X125296443Y-70773533D01*
X125296443Y-70773534D01*
X125347963Y-70943373D01*
X125365359Y-71120000D01*
X125347963Y-71296627D01*
X125313616Y-71409853D01*
X125296443Y-71466467D01*
X125222348Y-71605087D01*
X125212778Y-71622991D01*
X125183448Y-71658729D01*
X125100186Y-71760186D01*
X124998729Y-71843448D01*
X124962991Y-71872778D01*
X124962989Y-71872779D01*
X124806467Y-71956443D01*
X124749853Y-71973616D01*
X124636627Y-72007963D01*
X124570443Y-72014481D01*
X124504260Y-72021000D01*
X124415740Y-72021000D01*
X124349557Y-72014481D01*
X124283373Y-72007963D01*
X124170147Y-71973616D01*
X124113533Y-71956443D01*
X123957011Y-71872779D01*
X123957009Y-71872778D01*
X123921271Y-71843448D01*
X123819814Y-71760186D01*
X123736552Y-71658729D01*
X123707222Y-71622991D01*
X123697652Y-71605087D01*
X123623557Y-71466467D01*
X123606384Y-71409853D01*
X123572037Y-71296627D01*
X123554641Y-71120000D01*
X123572037Y-70943373D01*
X123623557Y-70773534D01*
X123623557Y-70773533D01*
X123707221Y-70617011D01*
X123707222Y-70617009D01*
X123736552Y-70581271D01*
X123819814Y-70479814D01*
X123921271Y-70396552D01*
X123957009Y-70367222D01*
X123974913Y-70357652D01*
X124113533Y-70283557D01*
X124170147Y-70266384D01*
X124283373Y-70232037D01*
X124349558Y-70225518D01*
X124415740Y-70219000D01*
X124504260Y-70219000D01*
X124570442Y-70225518D01*
X124570442Y-70225518D01*
G37*
G36*
X144890442Y-70225518D02*
X144956627Y-70232037D01*
X145069853Y-70266384D01*
X145126467Y-70283557D01*
X145265087Y-70357652D01*
X145282991Y-70367222D01*
X145318729Y-70396552D01*
X145420186Y-70479814D01*
X145503448Y-70581271D01*
X145532778Y-70617009D01*
X145532779Y-70617011D01*
X145616443Y-70773533D01*
X145616443Y-70773534D01*
X145667963Y-70943373D01*
X145685359Y-71120000D01*
X145667963Y-71296627D01*
X145633616Y-71409853D01*
X145616443Y-71466467D01*
X145542348Y-71605087D01*
X145532778Y-71622991D01*
X145503448Y-71658729D01*
X145420186Y-71760186D01*
X145318729Y-71843448D01*
X145282991Y-71872778D01*
X145282989Y-71872779D01*
X145126467Y-71956443D01*
X145069853Y-71973616D01*
X144956627Y-72007963D01*
X144890443Y-72014481D01*
X144824260Y-72021000D01*
X144735740Y-72021000D01*
X144669557Y-72014481D01*
X144603373Y-72007963D01*
X144490147Y-71973616D01*
X144433533Y-71956443D01*
X144277011Y-71872779D01*
X144277009Y-71872778D01*
X144241271Y-71843448D01*
X144139814Y-71760186D01*
X144056552Y-71658729D01*
X144027222Y-71622991D01*
X144017652Y-71605087D01*
X143943557Y-71466467D01*
X143926384Y-71409853D01*
X143892037Y-71296627D01*
X143874641Y-71120000D01*
X143892037Y-70943373D01*
X143943557Y-70773534D01*
X143943557Y-70773533D01*
X144027221Y-70617011D01*
X144027222Y-70617009D01*
X144056552Y-70581271D01*
X144139814Y-70479814D01*
X144241271Y-70396552D01*
X144277009Y-70367222D01*
X144294913Y-70357652D01*
X144433533Y-70283557D01*
X144490147Y-70266384D01*
X144603373Y-70232037D01*
X144669558Y-70225518D01*
X144735740Y-70219000D01*
X144824260Y-70219000D01*
X144890442Y-70225518D01*
X144890442Y-70225518D01*
G37*
G36*
X144890443Y-67685519D02*
X144956627Y-67692037D01*
X145069853Y-67726384D01*
X145126467Y-67743557D01*
X145265087Y-67817652D01*
X145282991Y-67827222D01*
X145318729Y-67856552D01*
X145420186Y-67939814D01*
X145503448Y-68041271D01*
X145532778Y-68077009D01*
X145532779Y-68077011D01*
X145616443Y-68233533D01*
X145616443Y-68233534D01*
X145667963Y-68403373D01*
X145685359Y-68580000D01*
X145667963Y-68756627D01*
X145636074Y-68861750D01*
X145616443Y-68926467D01*
X145558718Y-69034461D01*
X145532778Y-69082991D01*
X145517746Y-69101307D01*
X145420186Y-69220186D01*
X145318729Y-69303448D01*
X145282991Y-69332778D01*
X145282989Y-69332779D01*
X145126467Y-69416443D01*
X145069853Y-69433616D01*
X144956627Y-69467963D01*
X144890442Y-69474482D01*
X144824260Y-69481000D01*
X144735740Y-69481000D01*
X144669558Y-69474482D01*
X144603373Y-69467963D01*
X144490147Y-69433616D01*
X144433533Y-69416443D01*
X144277011Y-69332779D01*
X144277009Y-69332778D01*
X144241271Y-69303448D01*
X144139814Y-69220186D01*
X144042254Y-69101307D01*
X144027222Y-69082991D01*
X144001282Y-69034461D01*
X143943557Y-68926467D01*
X143923926Y-68861750D01*
X143892037Y-68756627D01*
X143874641Y-68580000D01*
X143892037Y-68403373D01*
X143943557Y-68233534D01*
X143943557Y-68233533D01*
X144027221Y-68077011D01*
X144027222Y-68077009D01*
X144056552Y-68041271D01*
X144139814Y-67939814D01*
X144241271Y-67856552D01*
X144277009Y-67827222D01*
X144294913Y-67817652D01*
X144433533Y-67743557D01*
X144490147Y-67726384D01*
X144603373Y-67692037D01*
X144669557Y-67685519D01*
X144735740Y-67679000D01*
X144824260Y-67679000D01*
X144890443Y-67685519D01*
X144890443Y-67685519D01*
G37*
G36*
X124570443Y-67685519D02*
X124636627Y-67692037D01*
X124749853Y-67726384D01*
X124806467Y-67743557D01*
X124945087Y-67817652D01*
X124962991Y-67827222D01*
X124998729Y-67856552D01*
X125100186Y-67939814D01*
X125183448Y-68041271D01*
X125212778Y-68077009D01*
X125212779Y-68077011D01*
X125296443Y-68233533D01*
X125296443Y-68233534D01*
X125347963Y-68403373D01*
X125365359Y-68580000D01*
X125347963Y-68756627D01*
X125316074Y-68861750D01*
X125296443Y-68926467D01*
X125238718Y-69034461D01*
X125212778Y-69082991D01*
X125197746Y-69101307D01*
X125100186Y-69220186D01*
X124998729Y-69303448D01*
X124962991Y-69332778D01*
X124962989Y-69332779D01*
X124806467Y-69416443D01*
X124749853Y-69433616D01*
X124636627Y-69467963D01*
X124570442Y-69474482D01*
X124504260Y-69481000D01*
X124415740Y-69481000D01*
X124349558Y-69474482D01*
X124283373Y-69467963D01*
X124170147Y-69433616D01*
X124113533Y-69416443D01*
X123957011Y-69332779D01*
X123957009Y-69332778D01*
X123921271Y-69303448D01*
X123819814Y-69220186D01*
X123722254Y-69101307D01*
X123707222Y-69082991D01*
X123681282Y-69034461D01*
X123623557Y-68926467D01*
X123603926Y-68861750D01*
X123572037Y-68756627D01*
X123554641Y-68580000D01*
X123572037Y-68403373D01*
X123623557Y-68233534D01*
X123623557Y-68233533D01*
X123707221Y-68077011D01*
X123707222Y-68077009D01*
X123736552Y-68041271D01*
X123819814Y-67939814D01*
X123921271Y-67856552D01*
X123957009Y-67827222D01*
X123974913Y-67817652D01*
X124113533Y-67743557D01*
X124170147Y-67726384D01*
X124283373Y-67692037D01*
X124349557Y-67685519D01*
X124415740Y-67679000D01*
X124504260Y-67679000D01*
X124570443Y-67685519D01*
X124570443Y-67685519D01*
G37*
G36*
X140804091Y-68058085D02*
X140838069Y-68068393D01*
X140869387Y-68085133D01*
X140896839Y-68107661D01*
X140919367Y-68135113D01*
X140936107Y-68166431D01*
X140946415Y-68200409D01*
X140950500Y-68241890D01*
X140950500Y-68918110D01*
X140946415Y-68959591D01*
X140936107Y-68993569D01*
X140919367Y-69024887D01*
X140896839Y-69052339D01*
X140869387Y-69074867D01*
X140838069Y-69091607D01*
X140804091Y-69101915D01*
X140762610Y-69106000D01*
X140161390Y-69106000D01*
X140119909Y-69101915D01*
X140085931Y-69091607D01*
X140054613Y-69074867D01*
X140027161Y-69052339D01*
X140004633Y-69024887D01*
X139987893Y-68993569D01*
X139977585Y-68959591D01*
X139973500Y-68918110D01*
X139973500Y-68241890D01*
X139977585Y-68200409D01*
X139987893Y-68166431D01*
X140004633Y-68135113D01*
X140027161Y-68107661D01*
X140054613Y-68085133D01*
X140085931Y-68068393D01*
X140119909Y-68058085D01*
X140161390Y-68054000D01*
X140762610Y-68054000D01*
X140804091Y-68058085D01*
X140804091Y-68058085D01*
G37*
G36*
X142379091Y-68058085D02*
X142413069Y-68068393D01*
X142444387Y-68085133D01*
X142471839Y-68107661D01*
X142494367Y-68135113D01*
X142511107Y-68166431D01*
X142521415Y-68200409D01*
X142525500Y-68241890D01*
X142525500Y-68918110D01*
X142521415Y-68959591D01*
X142511107Y-68993569D01*
X142494367Y-69024887D01*
X142471839Y-69052339D01*
X142444387Y-69074867D01*
X142413069Y-69091607D01*
X142379091Y-69101915D01*
X142337610Y-69106000D01*
X141736390Y-69106000D01*
X141694909Y-69101915D01*
X141660931Y-69091607D01*
X141629613Y-69074867D01*
X141602161Y-69052339D01*
X141579633Y-69024887D01*
X141562893Y-68993569D01*
X141552585Y-68959591D01*
X141548500Y-68918110D01*
X141548500Y-68241890D01*
X141552585Y-68200409D01*
X141562893Y-68166431D01*
X141579633Y-68135113D01*
X141602161Y-68107661D01*
X141629613Y-68085133D01*
X141660931Y-68068393D01*
X141694909Y-68058085D01*
X141736390Y-68054000D01*
X142337610Y-68054000D01*
X142379091Y-68058085D01*
X142379091Y-68058085D01*
G37*
G36*
X140804091Y-66534085D02*
X140838069Y-66544393D01*
X140869387Y-66561133D01*
X140896839Y-66583661D01*
X140919367Y-66611113D01*
X140936107Y-66642431D01*
X140946415Y-66676409D01*
X140950500Y-66717890D01*
X140950500Y-67394110D01*
X140946415Y-67435591D01*
X140936107Y-67469569D01*
X140919367Y-67500887D01*
X140896839Y-67528339D01*
X140869387Y-67550867D01*
X140838069Y-67567607D01*
X140804091Y-67577915D01*
X140762610Y-67582000D01*
X140161390Y-67582000D01*
X140119909Y-67577915D01*
X140085931Y-67567607D01*
X140054613Y-67550867D01*
X140027161Y-67528339D01*
X140004633Y-67500887D01*
X139987893Y-67469569D01*
X139977585Y-67435591D01*
X139973500Y-67394110D01*
X139973500Y-66717890D01*
X139977585Y-66676409D01*
X139987893Y-66642431D01*
X140004633Y-66611113D01*
X140027161Y-66583661D01*
X140054613Y-66561133D01*
X140085931Y-66544393D01*
X140119909Y-66534085D01*
X140161390Y-66530000D01*
X140762610Y-66530000D01*
X140804091Y-66534085D01*
X140804091Y-66534085D01*
G37*
G36*
X139229091Y-66534085D02*
X139263069Y-66544393D01*
X139294387Y-66561133D01*
X139321839Y-66583661D01*
X139344367Y-66611113D01*
X139361107Y-66642431D01*
X139371415Y-66676409D01*
X139375500Y-66717890D01*
X139375500Y-67394110D01*
X139371415Y-67435591D01*
X139361107Y-67469569D01*
X139344367Y-67500887D01*
X139321839Y-67528339D01*
X139294387Y-67550867D01*
X139263069Y-67567607D01*
X139229091Y-67577915D01*
X139187610Y-67582000D01*
X138586390Y-67582000D01*
X138544909Y-67577915D01*
X138510931Y-67567607D01*
X138479613Y-67550867D01*
X138452161Y-67528339D01*
X138429633Y-67500887D01*
X138412893Y-67469569D01*
X138402585Y-67435591D01*
X138398500Y-67394110D01*
X138398500Y-66717890D01*
X138402585Y-66676409D01*
X138412893Y-66642431D01*
X138429633Y-66611113D01*
X138452161Y-66583661D01*
X138479613Y-66561133D01*
X138510931Y-66544393D01*
X138544909Y-66534085D01*
X138586390Y-66530000D01*
X139187610Y-66530000D01*
X139229091Y-66534085D01*
X139229091Y-66534085D01*
G37*
G36*
X144890442Y-65145518D02*
X144956627Y-65152037D01*
X145069853Y-65186384D01*
X145126467Y-65203557D01*
X145265087Y-65277652D01*
X145282991Y-65287222D01*
X145318729Y-65316552D01*
X145420186Y-65399814D01*
X145503448Y-65501271D01*
X145532778Y-65537009D01*
X145532779Y-65537011D01*
X145616443Y-65693533D01*
X145616443Y-65693534D01*
X145667963Y-65863373D01*
X145685359Y-66040000D01*
X145667963Y-66216627D01*
X145633616Y-66329853D01*
X145616443Y-66386467D01*
X145542348Y-66525087D01*
X145532778Y-66542991D01*
X145531627Y-66544393D01*
X145420186Y-66680186D01*
X145318729Y-66763448D01*
X145282991Y-66792778D01*
X145282989Y-66792779D01*
X145126467Y-66876443D01*
X145069853Y-66893616D01*
X144956627Y-66927963D01*
X144890442Y-66934482D01*
X144824260Y-66941000D01*
X144735740Y-66941000D01*
X144669558Y-66934482D01*
X144603373Y-66927963D01*
X144490147Y-66893616D01*
X144433533Y-66876443D01*
X144277011Y-66792779D01*
X144277009Y-66792778D01*
X144241271Y-66763448D01*
X144139814Y-66680186D01*
X144028373Y-66544393D01*
X144027222Y-66542991D01*
X144017652Y-66525087D01*
X143943557Y-66386467D01*
X143926384Y-66329853D01*
X143892037Y-66216627D01*
X143874641Y-66040000D01*
X143892037Y-65863373D01*
X143943557Y-65693534D01*
X143943557Y-65693533D01*
X144027221Y-65537011D01*
X144027222Y-65537009D01*
X144056552Y-65501271D01*
X144139814Y-65399814D01*
X144241271Y-65316552D01*
X144277009Y-65287222D01*
X144294913Y-65277652D01*
X144433533Y-65203557D01*
X144490147Y-65186384D01*
X144603373Y-65152037D01*
X144669558Y-65145518D01*
X144735740Y-65139000D01*
X144824260Y-65139000D01*
X144890442Y-65145518D01*
X144890442Y-65145518D01*
G37*
G36*
X124570442Y-65145518D02*
X124636627Y-65152037D01*
X124749853Y-65186384D01*
X124806467Y-65203557D01*
X124945087Y-65277652D01*
X124962991Y-65287222D01*
X124998729Y-65316552D01*
X125100186Y-65399814D01*
X125183448Y-65501271D01*
X125212778Y-65537009D01*
X125212779Y-65537011D01*
X125296443Y-65693533D01*
X125296443Y-65693534D01*
X125347963Y-65863373D01*
X125365359Y-66040000D01*
X125347963Y-66216627D01*
X125313616Y-66329853D01*
X125296443Y-66386467D01*
X125222348Y-66525087D01*
X125212778Y-66542991D01*
X125211627Y-66544393D01*
X125100186Y-66680186D01*
X124998729Y-66763448D01*
X124962991Y-66792778D01*
X124962989Y-66792779D01*
X124806467Y-66876443D01*
X124749853Y-66893616D01*
X124636627Y-66927963D01*
X124570442Y-66934482D01*
X124504260Y-66941000D01*
X124415740Y-66941000D01*
X124349558Y-66934482D01*
X124283373Y-66927963D01*
X124170147Y-66893616D01*
X124113533Y-66876443D01*
X123957011Y-66792779D01*
X123957009Y-66792778D01*
X123921271Y-66763448D01*
X123819814Y-66680186D01*
X123708373Y-66544393D01*
X123707222Y-66542991D01*
X123697652Y-66525087D01*
X123623557Y-66386467D01*
X123606384Y-66329853D01*
X123572037Y-66216627D01*
X123554641Y-66040000D01*
X123572037Y-65863373D01*
X123623557Y-65693534D01*
X123623557Y-65693533D01*
X123707221Y-65537011D01*
X123707222Y-65537009D01*
X123736552Y-65501271D01*
X123819814Y-65399814D01*
X123921271Y-65316552D01*
X123957009Y-65287222D01*
X123974913Y-65277652D01*
X124113533Y-65203557D01*
X124170147Y-65186384D01*
X124283373Y-65152037D01*
X124349558Y-65145518D01*
X124415740Y-65139000D01*
X124504260Y-65139000D01*
X124570442Y-65145518D01*
X124570442Y-65145518D01*
G37*
G36*
X144890442Y-62605518D02*
X144956627Y-62612037D01*
X145069853Y-62646384D01*
X145126467Y-62663557D01*
X145265087Y-62737652D01*
X145282991Y-62747222D01*
X145318729Y-62776552D01*
X145420186Y-62859814D01*
X145503448Y-62961271D01*
X145532778Y-62997009D01*
X145532779Y-62997011D01*
X145616443Y-63153533D01*
X145616443Y-63153534D01*
X145667963Y-63323373D01*
X145685359Y-63500000D01*
X145667963Y-63676627D01*
X145633616Y-63789853D01*
X145616443Y-63846467D01*
X145542348Y-63985087D01*
X145532778Y-64002991D01*
X145503448Y-64038729D01*
X145420186Y-64140186D01*
X145318729Y-64223448D01*
X145282991Y-64252778D01*
X145282989Y-64252779D01*
X145126467Y-64336443D01*
X145069853Y-64353616D01*
X144956627Y-64387963D01*
X144890442Y-64394482D01*
X144824260Y-64401000D01*
X144735740Y-64401000D01*
X144669558Y-64394482D01*
X144603373Y-64387963D01*
X144490147Y-64353616D01*
X144433533Y-64336443D01*
X144277011Y-64252779D01*
X144277009Y-64252778D01*
X144241271Y-64223448D01*
X144139814Y-64140186D01*
X144056552Y-64038729D01*
X144027222Y-64002991D01*
X144017652Y-63985087D01*
X143943557Y-63846467D01*
X143926384Y-63789853D01*
X143892037Y-63676627D01*
X143874641Y-63500000D01*
X143892037Y-63323373D01*
X143943557Y-63153534D01*
X143943557Y-63153533D01*
X144027221Y-62997011D01*
X144027222Y-62997009D01*
X144056552Y-62961271D01*
X144139814Y-62859814D01*
X144241271Y-62776552D01*
X144277009Y-62747222D01*
X144294913Y-62737652D01*
X144433533Y-62663557D01*
X144490147Y-62646384D01*
X144603373Y-62612037D01*
X144669558Y-62605518D01*
X144735740Y-62599000D01*
X144824260Y-62599000D01*
X144890442Y-62605518D01*
X144890442Y-62605518D01*
G37*
G36*
X124570442Y-62605518D02*
X124636627Y-62612037D01*
X124749853Y-62646384D01*
X124806467Y-62663557D01*
X124945087Y-62737652D01*
X124962991Y-62747222D01*
X124998729Y-62776552D01*
X125100186Y-62859814D01*
X125183448Y-62961271D01*
X125212778Y-62997009D01*
X125212779Y-62997011D01*
X125296443Y-63153533D01*
X125296443Y-63153534D01*
X125347963Y-63323373D01*
X125365359Y-63500000D01*
X125347963Y-63676627D01*
X125313616Y-63789853D01*
X125296443Y-63846467D01*
X125222348Y-63985087D01*
X125212778Y-64002991D01*
X125183448Y-64038729D01*
X125100186Y-64140186D01*
X124998729Y-64223448D01*
X124962991Y-64252778D01*
X124962989Y-64252779D01*
X124806467Y-64336443D01*
X124749853Y-64353616D01*
X124636627Y-64387963D01*
X124570442Y-64394482D01*
X124504260Y-64401000D01*
X124415740Y-64401000D01*
X124349558Y-64394482D01*
X124283373Y-64387963D01*
X124170147Y-64353616D01*
X124113533Y-64336443D01*
X123957011Y-64252779D01*
X123957009Y-64252778D01*
X123921271Y-64223448D01*
X123819814Y-64140186D01*
X123736552Y-64038729D01*
X123707222Y-64002991D01*
X123697652Y-63985087D01*
X123623557Y-63846467D01*
X123606384Y-63789853D01*
X123572037Y-63676627D01*
X123554641Y-63500000D01*
X123572037Y-63323373D01*
X123623557Y-63153534D01*
X123623557Y-63153533D01*
X123707221Y-62997011D01*
X123707222Y-62997009D01*
X123736552Y-62961271D01*
X123819814Y-62859814D01*
X123921271Y-62776552D01*
X123957009Y-62747222D01*
X123974913Y-62737652D01*
X124113533Y-62663557D01*
X124170147Y-62646384D01*
X124283373Y-62612037D01*
X124349558Y-62605518D01*
X124415740Y-62599000D01*
X124504260Y-62599000D01*
X124570442Y-62605518D01*
X124570442Y-62605518D01*
G37*
G36*
X145681000Y-61861000D02*
X143879000Y-61861000D01*
X143879000Y-60059000D01*
X145681000Y-60059000D01*
X145681000Y-61861000D01*
X145681000Y-61861000D01*
G37*
G36*
X124570442Y-60065518D02*
X124636627Y-60072037D01*
X124749853Y-60106384D01*
X124806467Y-60123557D01*
X124945087Y-60197652D01*
X124962991Y-60207222D01*
X124998729Y-60236552D01*
X125100186Y-60319814D01*
X125183448Y-60421271D01*
X125212778Y-60457009D01*
X125212779Y-60457011D01*
X125296443Y-60613533D01*
X125296443Y-60613534D01*
X125347963Y-60783373D01*
X125365359Y-60960000D01*
X125347963Y-61136627D01*
X125313616Y-61249853D01*
X125296443Y-61306467D01*
X125222348Y-61445087D01*
X125212778Y-61462991D01*
X125183448Y-61498729D01*
X125100186Y-61600186D01*
X124998729Y-61683448D01*
X124962991Y-61712778D01*
X124962989Y-61712779D01*
X124806467Y-61796443D01*
X124749853Y-61813616D01*
X124636627Y-61847963D01*
X124570443Y-61854481D01*
X124504260Y-61861000D01*
X124415740Y-61861000D01*
X124349557Y-61854481D01*
X124283373Y-61847963D01*
X124170147Y-61813616D01*
X124113533Y-61796443D01*
X123957011Y-61712779D01*
X123957009Y-61712778D01*
X123921271Y-61683448D01*
X123819814Y-61600186D01*
X123736552Y-61498729D01*
X123707222Y-61462991D01*
X123697652Y-61445087D01*
X123623557Y-61306467D01*
X123606384Y-61249853D01*
X123572037Y-61136627D01*
X123554641Y-60960000D01*
X123572037Y-60783373D01*
X123623557Y-60613534D01*
X123623557Y-60613533D01*
X123707221Y-60457011D01*
X123707222Y-60457009D01*
X123736552Y-60421271D01*
X123819814Y-60319814D01*
X123921271Y-60236552D01*
X123957009Y-60207222D01*
X123974913Y-60197652D01*
X124113533Y-60123557D01*
X124170147Y-60106384D01*
X124283373Y-60072037D01*
X124349558Y-60065518D01*
X124415740Y-60059000D01*
X124504260Y-60059000D01*
X124570442Y-60065518D01*
X124570442Y-60065518D01*
G37*
G36*
X138672000Y-61759000D02*
X135920000Y-61759000D01*
X135920000Y-59907000D01*
X138672000Y-59907000D01*
X138672000Y-61759000D01*
X138672000Y-61759000D01*
G37*
G36*
X142972000Y-61759000D02*
X140220000Y-61759000D01*
X140220000Y-59907000D01*
X142972000Y-59907000D01*
X142972000Y-61759000D01*
X142972000Y-61759000D01*
G37*
G36*
X124570443Y-57525519D02*
X124636627Y-57532037D01*
X124749853Y-57566384D01*
X124806467Y-57583557D01*
X124945087Y-57657652D01*
X124962991Y-57667222D01*
X124998729Y-57696552D01*
X125100186Y-57779814D01*
X125183448Y-57881271D01*
X125212778Y-57917009D01*
X125212779Y-57917011D01*
X125296443Y-58073533D01*
X125296443Y-58073534D01*
X125347963Y-58243373D01*
X125365359Y-58420000D01*
X125347963Y-58596627D01*
X125313616Y-58709853D01*
X125296443Y-58766467D01*
X125222348Y-58905087D01*
X125212778Y-58922991D01*
X125183448Y-58958729D01*
X125100186Y-59060186D01*
X124998729Y-59143448D01*
X124962991Y-59172778D01*
X124962989Y-59172779D01*
X124806467Y-59256443D01*
X124749853Y-59273616D01*
X124636627Y-59307963D01*
X124570442Y-59314482D01*
X124504260Y-59321000D01*
X124415740Y-59321000D01*
X124349558Y-59314482D01*
X124283373Y-59307963D01*
X124170147Y-59273616D01*
X124113533Y-59256443D01*
X123957011Y-59172779D01*
X123957009Y-59172778D01*
X123921271Y-59143448D01*
X123819814Y-59060186D01*
X123736552Y-58958729D01*
X123707222Y-58922991D01*
X123697652Y-58905087D01*
X123623557Y-58766467D01*
X123606384Y-58709853D01*
X123572037Y-58596627D01*
X123554641Y-58420000D01*
X123572037Y-58243373D01*
X123623557Y-58073534D01*
X123623557Y-58073533D01*
X123707221Y-57917011D01*
X123707222Y-57917009D01*
X123736552Y-57881271D01*
X123819814Y-57779814D01*
X123921271Y-57696552D01*
X123957009Y-57667222D01*
X123974913Y-57657652D01*
X124113533Y-57583557D01*
X124170147Y-57566384D01*
X124283373Y-57532037D01*
X124349557Y-57525519D01*
X124415740Y-57519000D01*
X124504260Y-57519000D01*
X124570443Y-57525519D01*
X124570443Y-57525519D01*
G37*
G36*
X144487091Y-57263085D02*
X144521069Y-57273393D01*
X144552387Y-57290133D01*
X144579839Y-57312661D01*
X144602367Y-57340113D01*
X144619107Y-57371431D01*
X144629415Y-57405409D01*
X144633500Y-57446890D01*
X144633500Y-58123110D01*
X144629415Y-58164591D01*
X144619107Y-58198569D01*
X144602367Y-58229887D01*
X144579839Y-58257339D01*
X144552387Y-58279867D01*
X144521069Y-58296607D01*
X144487091Y-58306915D01*
X144445610Y-58311000D01*
X143844390Y-58311000D01*
X143802909Y-58306915D01*
X143768931Y-58296607D01*
X143737613Y-58279867D01*
X143710161Y-58257339D01*
X143687633Y-58229887D01*
X143670893Y-58198569D01*
X143660585Y-58164591D01*
X143656500Y-58123110D01*
X143656500Y-57446890D01*
X143660585Y-57405409D01*
X143670893Y-57371431D01*
X143687633Y-57340113D01*
X143710161Y-57312661D01*
X143737613Y-57290133D01*
X143768931Y-57273393D01*
X143802909Y-57263085D01*
X143844390Y-57259000D01*
X144445610Y-57259000D01*
X144487091Y-57263085D01*
X144487091Y-57263085D01*
G37*
G36*
X140524591Y-57263085D02*
X140558569Y-57273393D01*
X140589887Y-57290133D01*
X140617339Y-57312661D01*
X140639867Y-57340113D01*
X140656607Y-57371431D01*
X140666915Y-57405409D01*
X140671000Y-57446890D01*
X140671000Y-58123110D01*
X140666915Y-58164591D01*
X140656607Y-58198569D01*
X140639867Y-58229887D01*
X140617339Y-58257339D01*
X140589887Y-58279867D01*
X140558569Y-58296607D01*
X140524591Y-58306915D01*
X140483110Y-58311000D01*
X139881890Y-58311000D01*
X139840409Y-58306915D01*
X139806431Y-58296607D01*
X139775113Y-58279867D01*
X139747661Y-58257339D01*
X139725133Y-58229887D01*
X139708393Y-58198569D01*
X139698085Y-58164591D01*
X139694000Y-58123110D01*
X139694000Y-57446890D01*
X139698085Y-57405409D01*
X139708393Y-57371431D01*
X139725133Y-57340113D01*
X139747661Y-57312661D01*
X139775113Y-57290133D01*
X139806431Y-57273393D01*
X139840409Y-57263085D01*
X139881890Y-57259000D01*
X140483110Y-57259000D01*
X140524591Y-57263085D01*
X140524591Y-57263085D01*
G37*
G36*
X142099591Y-57263085D02*
X142133569Y-57273393D01*
X142164887Y-57290133D01*
X142192339Y-57312661D01*
X142214867Y-57340113D01*
X142231607Y-57371431D01*
X142241915Y-57405409D01*
X142246000Y-57446890D01*
X142246000Y-58123110D01*
X142241915Y-58164591D01*
X142231607Y-58198569D01*
X142214867Y-58229887D01*
X142192339Y-58257339D01*
X142164887Y-58279867D01*
X142133569Y-58296607D01*
X142099591Y-58306915D01*
X142058110Y-58311000D01*
X141456890Y-58311000D01*
X141415409Y-58306915D01*
X141381431Y-58296607D01*
X141350113Y-58279867D01*
X141322661Y-58257339D01*
X141300133Y-58229887D01*
X141283393Y-58198569D01*
X141273085Y-58164591D01*
X141269000Y-58123110D01*
X141269000Y-57446890D01*
X141273085Y-57405409D01*
X141283393Y-57371431D01*
X141300133Y-57340113D01*
X141322661Y-57312661D01*
X141350113Y-57290133D01*
X141381431Y-57273393D01*
X141415409Y-57263085D01*
X141456890Y-57259000D01*
X142058110Y-57259000D01*
X142099591Y-57263085D01*
X142099591Y-57263085D01*
G37*
G36*
X146062091Y-57263085D02*
X146096069Y-57273393D01*
X146127387Y-57290133D01*
X146154839Y-57312661D01*
X146177367Y-57340113D01*
X146194107Y-57371431D01*
X146204415Y-57405409D01*
X146208500Y-57446890D01*
X146208500Y-58123110D01*
X146204415Y-58164591D01*
X146194107Y-58198569D01*
X146177367Y-58229887D01*
X146154839Y-58257339D01*
X146127387Y-58279867D01*
X146096069Y-58296607D01*
X146062091Y-58306915D01*
X146020610Y-58311000D01*
X145419390Y-58311000D01*
X145377909Y-58306915D01*
X145343931Y-58296607D01*
X145312613Y-58279867D01*
X145285161Y-58257339D01*
X145262633Y-58229887D01*
X145245893Y-58198569D01*
X145235585Y-58164591D01*
X145231500Y-58123110D01*
X145231500Y-57446890D01*
X145235585Y-57405409D01*
X145245893Y-57371431D01*
X145262633Y-57340113D01*
X145285161Y-57312661D01*
X145312613Y-57290133D01*
X145343931Y-57273393D01*
X145377909Y-57263085D01*
X145419390Y-57259000D01*
X146020610Y-57259000D01*
X146062091Y-57263085D01*
X146062091Y-57263085D01*
G37*
G36*
X124570443Y-54985519D02*
X124636627Y-54992037D01*
X124749853Y-55026384D01*
X124806467Y-55043557D01*
X124945087Y-55117652D01*
X124962991Y-55127222D01*
X124998729Y-55156552D01*
X125100186Y-55239814D01*
X125183448Y-55341271D01*
X125212778Y-55377009D01*
X125212779Y-55377011D01*
X125296443Y-55533533D01*
X125296443Y-55533534D01*
X125347963Y-55703373D01*
X125365359Y-55880000D01*
X125347963Y-56056627D01*
X125313616Y-56169853D01*
X125296443Y-56226467D01*
X125222348Y-56365087D01*
X125212778Y-56382991D01*
X125183448Y-56418729D01*
X125100186Y-56520186D01*
X124998729Y-56603448D01*
X124962991Y-56632778D01*
X124962989Y-56632779D01*
X124806467Y-56716443D01*
X124749853Y-56733616D01*
X124636627Y-56767963D01*
X124570443Y-56774481D01*
X124504260Y-56781000D01*
X124415740Y-56781000D01*
X124349557Y-56774481D01*
X124283373Y-56767963D01*
X124170147Y-56733616D01*
X124113533Y-56716443D01*
X123957011Y-56632779D01*
X123957009Y-56632778D01*
X123921271Y-56603448D01*
X123819814Y-56520186D01*
X123736552Y-56418729D01*
X123707222Y-56382991D01*
X123697652Y-56365087D01*
X123623557Y-56226467D01*
X123606384Y-56169853D01*
X123572037Y-56056627D01*
X123554641Y-55880000D01*
X123572037Y-55703373D01*
X123623557Y-55533534D01*
X123623557Y-55533533D01*
X123707221Y-55377011D01*
X123707222Y-55377009D01*
X123736552Y-55341271D01*
X123819814Y-55239814D01*
X123921271Y-55156552D01*
X123957009Y-55127222D01*
X123974913Y-55117652D01*
X124113533Y-55043557D01*
X124170147Y-55026384D01*
X124283373Y-54992037D01*
X124349557Y-54985519D01*
X124415740Y-54979000D01*
X124504260Y-54979000D01*
X124570443Y-54985519D01*
X124570443Y-54985519D01*
G37*
G36*
X141736242Y-53328404D02*
X141773339Y-53339657D01*
X141807520Y-53357927D01*
X141837482Y-53382518D01*
X141862073Y-53412480D01*
X141880343Y-53446661D01*
X141891596Y-53483758D01*
X141896000Y-53528473D01*
X141896000Y-54421527D01*
X141891596Y-54466242D01*
X141880343Y-54503339D01*
X141862073Y-54537520D01*
X141837482Y-54567482D01*
X141807520Y-54592073D01*
X141773339Y-54610343D01*
X141736242Y-54621596D01*
X141691527Y-54626000D01*
X140248473Y-54626000D01*
X140203758Y-54621596D01*
X140166661Y-54610343D01*
X140132480Y-54592073D01*
X140102518Y-54567482D01*
X140077927Y-54537520D01*
X140059657Y-54503339D01*
X140048404Y-54466242D01*
X140044000Y-54421527D01*
X140044000Y-53528473D01*
X140048404Y-53483758D01*
X140059657Y-53446661D01*
X140077927Y-53412480D01*
X140102518Y-53382518D01*
X140132480Y-53357927D01*
X140166661Y-53339657D01*
X140203758Y-53328404D01*
X140248473Y-53324000D01*
X141691527Y-53324000D01*
X141736242Y-53328404D01*
X141736242Y-53328404D01*
G37*
G36*
X124570443Y-52445519D02*
X124636627Y-52452037D01*
X124749853Y-52486384D01*
X124806467Y-52503557D01*
X124945087Y-52577652D01*
X124962991Y-52587222D01*
X124998729Y-52616552D01*
X125100186Y-52699814D01*
X125183448Y-52801271D01*
X125212778Y-52837009D01*
X125212779Y-52837011D01*
X125296443Y-52993533D01*
X125296443Y-52993534D01*
X125347963Y-53163373D01*
X125365359Y-53340000D01*
X125347963Y-53516627D01*
X125324113Y-53595249D01*
X125296443Y-53686467D01*
X125222348Y-53825087D01*
X125212778Y-53842991D01*
X125183448Y-53878729D01*
X125100186Y-53980186D01*
X124998729Y-54063448D01*
X124962991Y-54092778D01*
X124962989Y-54092779D01*
X124806467Y-54176443D01*
X124749853Y-54193616D01*
X124636627Y-54227963D01*
X124570442Y-54234482D01*
X124504260Y-54241000D01*
X124415740Y-54241000D01*
X124349558Y-54234482D01*
X124283373Y-54227963D01*
X124170147Y-54193616D01*
X124113533Y-54176443D01*
X123957011Y-54092779D01*
X123957009Y-54092778D01*
X123921271Y-54063448D01*
X123819814Y-53980186D01*
X123736552Y-53878729D01*
X123707222Y-53842991D01*
X123697652Y-53825087D01*
X123623557Y-53686467D01*
X123595887Y-53595249D01*
X123572037Y-53516627D01*
X123554641Y-53340000D01*
X123572037Y-53163373D01*
X123623557Y-52993534D01*
X123623557Y-52993533D01*
X123707221Y-52837011D01*
X123707222Y-52837009D01*
X123736552Y-52801271D01*
X123819814Y-52699814D01*
X123921271Y-52616552D01*
X123957009Y-52587222D01*
X123974913Y-52577652D01*
X124113533Y-52503557D01*
X124170147Y-52486384D01*
X124283373Y-52452037D01*
X124349558Y-52445518D01*
X124415740Y-52439000D01*
X124504260Y-52439000D01*
X124570443Y-52445519D01*
X124570443Y-52445519D01*
G37*
G36*
X141308855Y-51327140D02*
X141372618Y-51333420D01*
X141454427Y-51358237D01*
X141495333Y-51370645D01*
X141595491Y-51424181D01*
X141608426Y-51431095D01*
X141707553Y-51512447D01*
X141788905Y-51611574D01*
X141788906Y-51611576D01*
X141849355Y-51724667D01*
X141849355Y-51724668D01*
X141886580Y-51847382D01*
X141899149Y-51975000D01*
X141886580Y-52102618D01*
X141861763Y-52184427D01*
X141849355Y-52225333D01*
X141795819Y-52325491D01*
X141788905Y-52338426D01*
X141707553Y-52437553D01*
X141608426Y-52518905D01*
X141608424Y-52518906D01*
X141495333Y-52579355D01*
X141469398Y-52587222D01*
X141372618Y-52616580D01*
X141308855Y-52622860D01*
X141276974Y-52626000D01*
X140663026Y-52626000D01*
X140631145Y-52622860D01*
X140567382Y-52616580D01*
X140470602Y-52587222D01*
X140444667Y-52579355D01*
X140331576Y-52518906D01*
X140331574Y-52518905D01*
X140232447Y-52437553D01*
X140151095Y-52338426D01*
X140144181Y-52325491D01*
X140090645Y-52225333D01*
X140078237Y-52184427D01*
X140053420Y-52102618D01*
X140040851Y-51975000D01*
X140053420Y-51847382D01*
X140090645Y-51724668D01*
X140090645Y-51724667D01*
X140151094Y-51611576D01*
X140151095Y-51611574D01*
X140232447Y-51512447D01*
X140331574Y-51431095D01*
X140344509Y-51424181D01*
X140444667Y-51370645D01*
X140485573Y-51358237D01*
X140567382Y-51333420D01*
X140631145Y-51327140D01*
X140663026Y-51324000D01*
X141276974Y-51324000D01*
X141308855Y-51327140D01*
X141308855Y-51327140D01*
G37*
G36*
X125361000Y-51701000D02*
X123559000Y-51701000D01*
X123559000Y-49899000D01*
X125361000Y-49899000D01*
X125361000Y-51701000D01*
X125361000Y-51701000D01*
G37*
G36*
X132311321Y-45238505D02*
X132448172Y-45280019D01*
X132448174Y-45280020D01*
X132448177Y-45280021D01*
X132574296Y-45347432D01*
X132684843Y-45438157D01*
X132775568Y-45548704D01*
X132842980Y-45674824D01*
X132842981Y-45674828D01*
X132884495Y-45811680D01*
X132891498Y-45882788D01*
X132895000Y-45918341D01*
X132895000Y-46339660D01*
X132884495Y-46446322D01*
X132880383Y-46459876D01*
X132875602Y-46483909D01*
X132875000Y-46496162D01*
X132875000Y-48203000D01*
X132877402Y-48227386D01*
X132884515Y-48250835D01*
X132896066Y-48272446D01*
X132911612Y-48291388D01*
X132930554Y-48306934D01*
X132952165Y-48318485D01*
X132975614Y-48325598D01*
X133000000Y-48328000D01*
X133050000Y-48328000D01*
X133050000Y-48722414D01*
X133052402Y-48746800D01*
X133055383Y-48758700D01*
X133071304Y-48811182D01*
X133080000Y-48899482D01*
X133080000Y-49358519D01*
X133071304Y-49446818D01*
X133055383Y-49499300D01*
X133050602Y-49523333D01*
X133050000Y-49535586D01*
X133050000Y-49930000D01*
X132514659Y-49930000D01*
X132502407Y-49930602D01*
X132479000Y-49932907D01*
X132455593Y-49930602D01*
X132443341Y-49930000D01*
X130948000Y-49930000D01*
X130948000Y-48335000D01*
X130945598Y-48310614D01*
X130938485Y-48287165D01*
X130935500Y-48281580D01*
X130935500Y-47408000D01*
X131298000Y-47408000D01*
X131322386Y-47405598D01*
X131345835Y-47398485D01*
X131367446Y-47386934D01*
X131386388Y-47371388D01*
X131401934Y-47352446D01*
X131413485Y-47330835D01*
X131420598Y-47307386D01*
X131423000Y-47283000D01*
X131423000Y-45954651D01*
X131424810Y-45952446D01*
X131436361Y-45930835D01*
X131445274Y-45895252D01*
X131445382Y-45894159D01*
X131453505Y-45811679D01*
X131495019Y-45674828D01*
X131495021Y-45674824D01*
X131495021Y-45674823D01*
X131562430Y-45548708D01*
X131653160Y-45438155D01*
X131763705Y-45347432D01*
X131889824Y-45280021D01*
X131889827Y-45280020D01*
X131889829Y-45280019D01*
X132026680Y-45238505D01*
X132169000Y-45224488D01*
X132311321Y-45238505D01*
X132311321Y-45238505D01*
G37*
G36*
X137771321Y-45238505D02*
X137908172Y-45280019D01*
X137908174Y-45280020D01*
X137908177Y-45280021D01*
X138034296Y-45347432D01*
X138144843Y-45438157D01*
X138235568Y-45548704D01*
X138302980Y-45674824D01*
X138302981Y-45674828D01*
X138344495Y-45811680D01*
X138349887Y-45866428D01*
X138352726Y-45895252D01*
X138355000Y-45906683D01*
X138355000Y-47283000D01*
X138357402Y-47307386D01*
X138364515Y-47330835D01*
X138376066Y-47352446D01*
X138391612Y-47371388D01*
X138410554Y-47386934D01*
X138432165Y-47398485D01*
X138455614Y-47405598D01*
X138480000Y-47408000D01*
X138812500Y-47408000D01*
X138812500Y-48281580D01*
X138809515Y-48287165D01*
X138802402Y-48310614D01*
X138800000Y-48335000D01*
X138800000Y-49910000D01*
X137492620Y-49910000D01*
X137468234Y-49912402D01*
X137456334Y-49915383D01*
X137436817Y-49921304D01*
X137319000Y-49932907D01*
X137201182Y-49921304D01*
X137181665Y-49915383D01*
X137157632Y-49910602D01*
X137145379Y-49910000D01*
X136647239Y-49910000D01*
X136642446Y-49906066D01*
X136620835Y-49894515D01*
X136597386Y-49887402D01*
X136573000Y-49885000D01*
X133348000Y-49885000D01*
X133348000Y-48133000D01*
X136450000Y-48133000D01*
X136450000Y-48183000D01*
X136452402Y-48207386D01*
X136459515Y-48230835D01*
X136471066Y-48252446D01*
X136486612Y-48271388D01*
X136505554Y-48286934D01*
X136527165Y-48298485D01*
X136550614Y-48305598D01*
X136575000Y-48308000D01*
X136760500Y-48308000D01*
X136784886Y-48305598D01*
X136808335Y-48298485D01*
X136829946Y-48286934D01*
X136848888Y-48271388D01*
X136864434Y-48252446D01*
X136875985Y-48230835D01*
X136883098Y-48207386D01*
X136885500Y-48183000D01*
X136885500Y-47345774D01*
X136893485Y-47330835D01*
X136900598Y-47307386D01*
X136903000Y-47283000D01*
X136903000Y-45904330D01*
X136905274Y-45895252D01*
X136905382Y-45894159D01*
X136913505Y-45811679D01*
X136955019Y-45674828D01*
X136955021Y-45674824D01*
X136955021Y-45674823D01*
X137022430Y-45548708D01*
X137113160Y-45438155D01*
X137223705Y-45347432D01*
X137349824Y-45280021D01*
X137349827Y-45280020D01*
X137349829Y-45280019D01*
X137486680Y-45238505D01*
X137629000Y-45224488D01*
X137771321Y-45238505D01*
X137771321Y-45238505D01*
G37*
G36*
X126109485Y-45738996D02*
X126109487Y-45738997D01*
X126109488Y-45738997D01*
X126284958Y-45811679D01*
X126346255Y-45837069D01*
X126559342Y-45979449D01*
X126740551Y-46160658D01*
X126740553Y-46160661D01*
X126882931Y-46373745D01*
X126912993Y-46446320D01*
X126981004Y-46610515D01*
X127022642Y-46819843D01*
X127031000Y-46861863D01*
X127031000Y-47118137D01*
X126981003Y-47369488D01*
X126968992Y-47398485D01*
X126882931Y-47606255D01*
X126740551Y-47819342D01*
X126559342Y-48000551D01*
X126559339Y-48000553D01*
X126346255Y-48142931D01*
X126109488Y-48241003D01*
X126109487Y-48241003D01*
X126109485Y-48241004D01*
X125858139Y-48291000D01*
X125601861Y-48291000D01*
X125350515Y-48241004D01*
X125350513Y-48241003D01*
X125350512Y-48241003D01*
X125113745Y-48142931D01*
X124900661Y-48000553D01*
X124900658Y-48000551D01*
X124719449Y-47819342D01*
X124577069Y-47606255D01*
X124491008Y-47398485D01*
X124478997Y-47369488D01*
X124429000Y-47118137D01*
X124429000Y-46861863D01*
X124437358Y-46819843D01*
X124478996Y-46610515D01*
X124547008Y-46446320D01*
X124577069Y-46373745D01*
X124719447Y-46160661D01*
X124719449Y-46160658D01*
X124900658Y-45979449D01*
X125113745Y-45837069D01*
X125175042Y-45811679D01*
X125350512Y-45738997D01*
X125350513Y-45738997D01*
X125350515Y-45738996D01*
X125601861Y-45689000D01*
X125858139Y-45689000D01*
X126109485Y-45738996D01*
X126109485Y-45738996D01*
G37*
G36*
X143889485Y-45738996D02*
X143889487Y-45738997D01*
X143889488Y-45738997D01*
X144064958Y-45811679D01*
X144126255Y-45837069D01*
X144339342Y-45979449D01*
X144520551Y-46160658D01*
X144520553Y-46160661D01*
X144662931Y-46373745D01*
X144692993Y-46446320D01*
X144761004Y-46610515D01*
X144802642Y-46819843D01*
X144811000Y-46861863D01*
X144811000Y-47118137D01*
X144761003Y-47369488D01*
X144748992Y-47398485D01*
X144662931Y-47606255D01*
X144520551Y-47819342D01*
X144339342Y-48000551D01*
X144339339Y-48000553D01*
X144126255Y-48142931D01*
X143889488Y-48241003D01*
X143889487Y-48241003D01*
X143889485Y-48241004D01*
X143638139Y-48291000D01*
X143381861Y-48291000D01*
X143130515Y-48241004D01*
X143130513Y-48241003D01*
X143130512Y-48241003D01*
X142893745Y-48142931D01*
X142680661Y-48000553D01*
X142680658Y-48000551D01*
X142499449Y-47819342D01*
X142357069Y-47606255D01*
X142271008Y-47398485D01*
X142258997Y-47369488D01*
X142209000Y-47118137D01*
X142209000Y-46861863D01*
X142217358Y-46819843D01*
X142258996Y-46610515D01*
X142327008Y-46446320D01*
X142357069Y-46373745D01*
X142499447Y-46160661D01*
X142499449Y-46160658D01*
X142680658Y-45979449D01*
X142893745Y-45837069D01*
X142955042Y-45811679D01*
X143130512Y-45738997D01*
X143130513Y-45738997D01*
X143130515Y-45738996D01*
X143381861Y-45689000D01*
X143638139Y-45689000D01*
X143889485Y-45738996D01*
X143889485Y-45738996D01*
G37*
G36*
X136625000Y-47160000D02*
X135093000Y-47160000D01*
X135093000Y-44558000D01*
X136625000Y-44558000D01*
X136625000Y-47160000D01*
X136625000Y-47160000D01*
G37*
G36*
X134705000Y-47160000D02*
X133173000Y-47160000D01*
X133173000Y-44558000D01*
X134705000Y-44558000D01*
X134705000Y-47160000D01*
X134705000Y-47160000D01*
G37*
M02*
