M48
;DRILL file {KiCad 5.0.2+dfsg1-1} date Mon 15 Apr 2019 06:08:37 PM PDT
;FORMAT={3:3/ absolute / metric / suppress leading zeros}
FMAT,2
METRIC,TZ
T1C0.330
T2C0.650
T3C0.700
T4C0.750
T5C1.000
T6C2.500
%
G90
G05
T1
X129286Y-75438
X130048Y-74676
X130175Y-46990
X131191Y-71247
X131445Y-55245
X132038Y-70527
X132842Y-64008
X132842Y-68072
X133350Y-53340
X133373Y-73937
X135128Y-76200
X135710Y-62330
X135818Y-67437
X136109Y-74916
X136398Y-66548
X136588Y-56515
X136652Y-81280
X136886Y-75231
X137160Y-52832
X137160Y-65786
X137668Y-74930
X138303Y-68707
X138938Y-64008
X138938Y-74168
X138950Y-78111
X139192Y-55118
X139192Y-68834
X139263Y-70452
X139424Y-63224
X140144Y-78704
X140780Y-70313
X140970Y-79248
X141224Y-62232
X141500Y-83767
T4
X140970Y-51975
X140970Y-53975
T5
X132080Y-86360
X132080Y-88900
X134620Y-86360
X134620Y-88900
X137160Y-86360
X137160Y-88900
X144780Y-60960
X144780Y-63500
X144780Y-66040
X144780Y-68580
X144780Y-71120
X144780Y-73660
X144780Y-76200
X144780Y-78740
X144780Y-81280
X144780Y-83820
X144780Y-86360
X144780Y-88900
X124460Y-50800
X124460Y-53340
X124460Y-55880
X124460Y-58420
X124460Y-60960
X124460Y-63500
X124460Y-66040
X124460Y-68580
X124460Y-71120
X124460Y-73660
X124460Y-76200
X124460Y-78740
X124460Y-81280
X124460Y-83820
X124460Y-86360
X124460Y-88900
T6
X143510Y-46990
X125730Y-92710
X125730Y-46990
X143510Y-92710
T2
X132479Y-48929G85X132479Y-49329
G05
X137319Y-48929G85X137319Y-49329
G05
T3
X132169Y-45879G85X132169Y-46379
G05
X137629Y-45879G85X137629Y-46379
G05
T0
M30
