G04 #@! TF.GenerationSoftware,KiCad,Pcbnew,5.0.2+dfsg1-1*
G04 #@! TF.CreationDate,2019-04-15T18:08:30-07:00*
G04 #@! TF.ProjectId,feather51,66656174-6865-4723-9531-2e6b69636164,A*
G04 #@! TF.SameCoordinates,Original*
G04 #@! TF.FileFunction,Other,Fab,Bot*
%FSLAX46Y46*%
G04 Gerber Fmt 4.6, Leading zero omitted, Abs format (unit mm)*
G04 Created by KiCad (PCBNEW 5.0.2+dfsg1-1) date Mon 15 Apr 2019 06:08:30 PM PDT*
%MOMM*%
%LPD*%
G01*
G04 APERTURE LIST*
%ADD10C,0.150000*%
%ADD11C,0.100000*%
%ADD12C,0.080000*%
%ADD13C,0.060000*%
%ADD14C,0.075000*%
G04 APERTURE END LIST*
D10*
G04 #@! TO.C,D2*
G36*
X136897000Y-62103000D02*
X137532000Y-62103000D01*
X137532000Y-59563000D01*
X136897000Y-59563000D01*
X136897000Y-62103000D01*
G37*
X136897000Y-62103000D02*
X137532000Y-62103000D01*
X137532000Y-59563000D01*
X136897000Y-59563000D01*
X136897000Y-62103000D01*
X136637000Y-59358000D02*
X136637000Y-62308000D01*
X142237000Y-59358000D02*
X136637000Y-59358000D01*
X142237000Y-62308000D02*
X142237000Y-59358000D01*
X136637000Y-62308000D02*
X142237000Y-62308000D01*
G04 #@! TO.C,D1*
G36*
X132715000Y-56125000D02*
X132715000Y-56760000D01*
X135255000Y-56760000D01*
X135255000Y-56125000D01*
X132715000Y-56125000D01*
G37*
X132715000Y-56125000D02*
X132715000Y-56760000D01*
X135255000Y-56760000D01*
X135255000Y-56125000D01*
X132715000Y-56125000D01*
X135460000Y-55865000D02*
X132510000Y-55865000D01*
X135460000Y-61465000D02*
X135460000Y-55865000D01*
X132510000Y-61465000D02*
X135460000Y-61465000D01*
X132510000Y-55865000D02*
X132510000Y-61465000D01*
D11*
G04 #@! TO.C,C1*
X129194000Y-48530000D02*
X129194000Y-50530000D01*
X130394000Y-48530000D02*
X129194000Y-48530000D01*
X130394000Y-50530000D02*
X130394000Y-48530000D01*
X129194000Y-50530000D02*
X130394000Y-50530000D01*
G04 #@! TO.C,C2*
X129477500Y-55915000D02*
X129477500Y-57115000D01*
X129477500Y-57115000D02*
X131477500Y-57115000D01*
X131477500Y-57115000D02*
X131477500Y-55915000D01*
X131477500Y-55915000D02*
X129477500Y-55915000D01*
G04 #@! TO.C,C3*
X131477500Y-57947000D02*
X129477500Y-57947000D01*
X131477500Y-59147000D02*
X131477500Y-57947000D01*
X129477500Y-59147000D02*
X131477500Y-59147000D01*
X129477500Y-57947000D02*
X129477500Y-59147000D01*
G04 #@! TO.C,C4*
X137938000Y-64170000D02*
X137938000Y-65370000D01*
X137938000Y-65370000D02*
X139938000Y-65370000D01*
X139938000Y-65370000D02*
X139938000Y-64170000D01*
X139938000Y-64170000D02*
X137938000Y-64170000D01*
G04 #@! TO.C,C5*
X139938000Y-66202000D02*
X137938000Y-66202000D01*
X139938000Y-67402000D02*
X139938000Y-66202000D01*
X137938000Y-67402000D02*
X139938000Y-67402000D01*
X137938000Y-66202000D02*
X137938000Y-67402000D01*
G04 #@! TO.C,C6*
X134020000Y-66102500D02*
X135220000Y-66102500D01*
X135220000Y-66102500D02*
X135220000Y-64102500D01*
X135220000Y-64102500D02*
X134020000Y-64102500D01*
X134020000Y-64102500D02*
X134020000Y-66102500D01*
G04 #@! TO.C,C7*
X131477500Y-59979000D02*
X129477500Y-59979000D01*
X131477500Y-61179000D02*
X131477500Y-59979000D01*
X129477500Y-61179000D02*
X131477500Y-61179000D01*
X129477500Y-59979000D02*
X129477500Y-61179000D01*
G04 #@! TO.C,C8*
X144685500Y-51400000D02*
X144685500Y-50200000D01*
X144685500Y-50200000D02*
X142685500Y-50200000D01*
X142685500Y-50200000D02*
X142685500Y-51400000D01*
X142685500Y-51400000D02*
X144685500Y-51400000D01*
G04 #@! TO.C,R1*
X141205000Y-65087500D02*
X142005000Y-65087500D01*
X142005000Y-65087500D02*
X142005000Y-63487500D01*
X142005000Y-63487500D02*
X141205000Y-63487500D01*
X141205000Y-63487500D02*
X141205000Y-65087500D01*
G04 #@! TO.C,R3*
X137122000Y-81896000D02*
X137122000Y-82696000D01*
X137122000Y-82696000D02*
X138722000Y-82696000D01*
X138722000Y-82696000D02*
X138722000Y-81896000D01*
X138722000Y-81896000D02*
X137122000Y-81896000D01*
G04 #@! TO.C,R4*
X140316000Y-47180500D02*
X140316000Y-48780500D01*
X141116000Y-47180500D02*
X140316000Y-47180500D01*
X141116000Y-48780500D02*
X141116000Y-47180500D01*
X140316000Y-48780500D02*
X141116000Y-48780500D01*
G04 #@! TO.C,R6*
X141205000Y-78143000D02*
X142005000Y-78143000D01*
X142005000Y-78143000D02*
X142005000Y-76543000D01*
X142005000Y-76543000D02*
X141205000Y-76543000D01*
X141205000Y-76543000D02*
X141205000Y-78143000D01*
G04 #@! TO.C,U1*
X129910000Y-51790000D02*
X129910000Y-54890000D01*
X129910000Y-54890000D02*
X131710000Y-54890000D01*
X131710000Y-52440000D02*
X131710000Y-54890000D01*
X129910000Y-51790000D02*
X131060000Y-51790000D01*
X131710000Y-52440000D02*
X131060000Y-51790000D01*
G04 #@! TO.C,U2*
X134390000Y-68620000D02*
X133390000Y-69620000D01*
X138390000Y-68620000D02*
X134390000Y-68620000D01*
X138390000Y-73620000D02*
X138390000Y-68620000D01*
X133390000Y-73620000D02*
X138390000Y-73620000D01*
X133390000Y-69620000D02*
X133390000Y-73620000D01*
G04 #@! TO.C,U3*
X138060000Y-54197000D02*
X138710000Y-53547000D01*
X138710000Y-52397000D02*
X138710000Y-53547000D01*
X138060000Y-54197000D02*
X135610000Y-54197000D01*
X135610000Y-52397000D02*
X135610000Y-54197000D01*
X138710000Y-52397000D02*
X135610000Y-52397000D01*
G04 #@! TD*
G04 #@! TO.C,D2*
D10*
X140184095Y-61412380D02*
X140184095Y-60412380D01*
X139946000Y-60412380D01*
X139803142Y-60460000D01*
X139707904Y-60555238D01*
X139660285Y-60650476D01*
X139612666Y-60840952D01*
X139612666Y-60983809D01*
X139660285Y-61174285D01*
X139707904Y-61269523D01*
X139803142Y-61364761D01*
X139946000Y-61412380D01*
X140184095Y-61412380D01*
X139231714Y-60507619D02*
X139184095Y-60460000D01*
X139088857Y-60412380D01*
X138850761Y-60412380D01*
X138755523Y-60460000D01*
X138707904Y-60507619D01*
X138660285Y-60602857D01*
X138660285Y-60698095D01*
X138707904Y-60840952D01*
X139279333Y-61412380D01*
X138660285Y-61412380D01*
G04 #@! TO.C,D1*
X134437380Y-57681904D02*
X133437380Y-57681904D01*
X133437380Y-57920000D01*
X133485000Y-58062857D01*
X133580238Y-58158095D01*
X133675476Y-58205714D01*
X133865952Y-58253333D01*
X134008809Y-58253333D01*
X134199285Y-58205714D01*
X134294523Y-58158095D01*
X134389761Y-58062857D01*
X134437380Y-57920000D01*
X134437380Y-57681904D01*
X134437380Y-59205714D02*
X134437380Y-58634285D01*
X134437380Y-58920000D02*
X133437380Y-58920000D01*
X133580238Y-58824761D01*
X133675476Y-58729523D01*
X133723095Y-58634285D01*
G04 #@! TO.C,C1*
X128198428Y-49982380D02*
X128769857Y-49982380D01*
X128484142Y-49982380D02*
X128484142Y-48982380D01*
X128579380Y-49125238D01*
X128674619Y-49220476D01*
X128769857Y-49268095D01*
X127579380Y-48982380D02*
X127484142Y-48982380D01*
X127388904Y-49030000D01*
X127341285Y-49077619D01*
X127293666Y-49172857D01*
X127246047Y-49363333D01*
X127246047Y-49601428D01*
X127293666Y-49791904D01*
X127341285Y-49887142D01*
X127388904Y-49934761D01*
X127484142Y-49982380D01*
X127579380Y-49982380D01*
X127674619Y-49934761D01*
X127722238Y-49887142D01*
X127769857Y-49791904D01*
X127817476Y-49601428D01*
X127817476Y-49363333D01*
X127769857Y-49172857D01*
X127722238Y-49077619D01*
X127674619Y-49030000D01*
X127579380Y-48982380D01*
X126388904Y-49315714D02*
X126388904Y-49982380D01*
X126817476Y-49315714D02*
X126817476Y-49839523D01*
X126769857Y-49934761D01*
X126674619Y-49982380D01*
X126531761Y-49982380D01*
X126436523Y-49934761D01*
X126388904Y-49887142D01*
X125579380Y-49458571D02*
X125912714Y-49458571D01*
X125912714Y-49982380D02*
X125912714Y-48982380D01*
X125436523Y-48982380D01*
D12*
X129972571Y-49446666D02*
X129996380Y-49422857D01*
X130020190Y-49351428D01*
X130020190Y-49303809D01*
X129996380Y-49232380D01*
X129948761Y-49184761D01*
X129901142Y-49160952D01*
X129805904Y-49137142D01*
X129734476Y-49137142D01*
X129639238Y-49160952D01*
X129591619Y-49184761D01*
X129544000Y-49232380D01*
X129520190Y-49303809D01*
X129520190Y-49351428D01*
X129544000Y-49422857D01*
X129567809Y-49446666D01*
X130020190Y-49922857D02*
X130020190Y-49637142D01*
X130020190Y-49780000D02*
X129520190Y-49780000D01*
X129591619Y-49732380D01*
X129639238Y-49684761D01*
X129663047Y-49637142D01*
G04 #@! TO.C,C2*
D10*
X128579428Y-56840380D02*
X129150857Y-56840380D01*
X128865142Y-56840380D02*
X128865142Y-55840380D01*
X128960380Y-55983238D01*
X129055619Y-56078476D01*
X129150857Y-56126095D01*
X127960380Y-55840380D02*
X127865142Y-55840380D01*
X127769904Y-55888000D01*
X127722285Y-55935619D01*
X127674666Y-56030857D01*
X127627047Y-56221333D01*
X127627047Y-56459428D01*
X127674666Y-56649904D01*
X127722285Y-56745142D01*
X127769904Y-56792761D01*
X127865142Y-56840380D01*
X127960380Y-56840380D01*
X128055619Y-56792761D01*
X128103238Y-56745142D01*
X128150857Y-56649904D01*
X128198476Y-56459428D01*
X128198476Y-56221333D01*
X128150857Y-56030857D01*
X128103238Y-55935619D01*
X128055619Y-55888000D01*
X127960380Y-55840380D01*
X126769904Y-56173714D02*
X126769904Y-56840380D01*
X127198476Y-56173714D02*
X127198476Y-56697523D01*
X127150857Y-56792761D01*
X127055619Y-56840380D01*
X126912761Y-56840380D01*
X126817523Y-56792761D01*
X126769904Y-56745142D01*
X125960380Y-56316571D02*
X126293714Y-56316571D01*
X126293714Y-56840380D02*
X126293714Y-55840380D01*
X125817523Y-55840380D01*
D12*
X130560833Y-56693571D02*
X130584642Y-56717380D01*
X130656071Y-56741190D01*
X130703690Y-56741190D01*
X130775119Y-56717380D01*
X130822738Y-56669761D01*
X130846547Y-56622142D01*
X130870357Y-56526904D01*
X130870357Y-56455476D01*
X130846547Y-56360238D01*
X130822738Y-56312619D01*
X130775119Y-56265000D01*
X130703690Y-56241190D01*
X130656071Y-56241190D01*
X130584642Y-56265000D01*
X130560833Y-56288809D01*
X130370357Y-56288809D02*
X130346547Y-56265000D01*
X130298928Y-56241190D01*
X130179880Y-56241190D01*
X130132261Y-56265000D01*
X130108452Y-56288809D01*
X130084642Y-56336428D01*
X130084642Y-56384047D01*
X130108452Y-56455476D01*
X130394166Y-56741190D01*
X130084642Y-56741190D01*
G04 #@! TO.C,C3*
D10*
X128611238Y-59126380D02*
X129182666Y-59126380D01*
X128896952Y-59126380D02*
X128896952Y-58126380D01*
X128992190Y-58269238D01*
X129087428Y-58364476D01*
X129182666Y-58412095D01*
X127754095Y-58459714D02*
X127754095Y-59126380D01*
X128182666Y-58459714D02*
X128182666Y-58983523D01*
X128135047Y-59078761D01*
X128039809Y-59126380D01*
X127896952Y-59126380D01*
X127801714Y-59078761D01*
X127754095Y-59031142D01*
X126944571Y-58602571D02*
X127277904Y-58602571D01*
X127277904Y-59126380D02*
X127277904Y-58126380D01*
X126801714Y-58126380D01*
D12*
X130560833Y-58725571D02*
X130584642Y-58749380D01*
X130656071Y-58773190D01*
X130703690Y-58773190D01*
X130775119Y-58749380D01*
X130822738Y-58701761D01*
X130846547Y-58654142D01*
X130870357Y-58558904D01*
X130870357Y-58487476D01*
X130846547Y-58392238D01*
X130822738Y-58344619D01*
X130775119Y-58297000D01*
X130703690Y-58273190D01*
X130656071Y-58273190D01*
X130584642Y-58297000D01*
X130560833Y-58320809D01*
X130394166Y-58273190D02*
X130084642Y-58273190D01*
X130251309Y-58463666D01*
X130179880Y-58463666D01*
X130132261Y-58487476D01*
X130108452Y-58511285D01*
X130084642Y-58558904D01*
X130084642Y-58677952D01*
X130108452Y-58725571D01*
X130132261Y-58749380D01*
X130179880Y-58773190D01*
X130322738Y-58773190D01*
X130370357Y-58749380D01*
X130394166Y-58725571D01*
G04 #@! TO.C,C4*
D10*
X139834761Y-63285714D02*
X139834761Y-63952380D01*
X140072857Y-62904761D02*
X140310952Y-63619047D01*
X139691904Y-63619047D01*
X139310952Y-63857142D02*
X139263333Y-63904761D01*
X139310952Y-63952380D01*
X139358571Y-63904761D01*
X139310952Y-63857142D01*
X139310952Y-63952380D01*
X138930000Y-62952380D02*
X138263333Y-62952380D01*
X138691904Y-63952380D01*
X137453809Y-63285714D02*
X137453809Y-63952380D01*
X137882380Y-63285714D02*
X137882380Y-63809523D01*
X137834761Y-63904761D01*
X137739523Y-63952380D01*
X137596666Y-63952380D01*
X137501428Y-63904761D01*
X137453809Y-63857142D01*
X136644285Y-63428571D02*
X136977619Y-63428571D01*
X136977619Y-63952380D02*
X136977619Y-62952380D01*
X136501428Y-62952380D01*
D12*
X139021333Y-64948571D02*
X139045142Y-64972380D01*
X139116571Y-64996190D01*
X139164190Y-64996190D01*
X139235619Y-64972380D01*
X139283238Y-64924761D01*
X139307047Y-64877142D01*
X139330857Y-64781904D01*
X139330857Y-64710476D01*
X139307047Y-64615238D01*
X139283238Y-64567619D01*
X139235619Y-64520000D01*
X139164190Y-64496190D01*
X139116571Y-64496190D01*
X139045142Y-64520000D01*
X139021333Y-64543809D01*
X138592761Y-64662857D02*
X138592761Y-64996190D01*
X138711809Y-64472380D02*
X138830857Y-64829523D01*
X138521333Y-64829523D01*
G04 #@! TO.C,C5*
D10*
X143628857Y-66508380D02*
X143533619Y-66508380D01*
X143438380Y-66556000D01*
X143390761Y-66603619D01*
X143343142Y-66698857D01*
X143295523Y-66889333D01*
X143295523Y-67127428D01*
X143343142Y-67317904D01*
X143390761Y-67413142D01*
X143438380Y-67460761D01*
X143533619Y-67508380D01*
X143628857Y-67508380D01*
X143724095Y-67460761D01*
X143771714Y-67413142D01*
X143819333Y-67317904D01*
X143866952Y-67127428D01*
X143866952Y-66889333D01*
X143819333Y-66698857D01*
X143771714Y-66603619D01*
X143724095Y-66556000D01*
X143628857Y-66508380D01*
X142866952Y-67413142D02*
X142819333Y-67460761D01*
X142866952Y-67508380D01*
X142914571Y-67460761D01*
X142866952Y-67413142D01*
X142866952Y-67508380D01*
X141866952Y-67508380D02*
X142438380Y-67508380D01*
X142152666Y-67508380D02*
X142152666Y-66508380D01*
X142247904Y-66651238D01*
X142343142Y-66746476D01*
X142438380Y-66794095D01*
X141009809Y-66841714D02*
X141009809Y-67508380D01*
X141438380Y-66841714D02*
X141438380Y-67365523D01*
X141390761Y-67460761D01*
X141295523Y-67508380D01*
X141152666Y-67508380D01*
X141057428Y-67460761D01*
X141009809Y-67413142D01*
X140200285Y-66984571D02*
X140533619Y-66984571D01*
X140533619Y-67508380D02*
X140533619Y-66508380D01*
X140057428Y-66508380D01*
D12*
X139021333Y-66980571D02*
X139045142Y-67004380D01*
X139116571Y-67028190D01*
X139164190Y-67028190D01*
X139235619Y-67004380D01*
X139283238Y-66956761D01*
X139307047Y-66909142D01*
X139330857Y-66813904D01*
X139330857Y-66742476D01*
X139307047Y-66647238D01*
X139283238Y-66599619D01*
X139235619Y-66552000D01*
X139164190Y-66528190D01*
X139116571Y-66528190D01*
X139045142Y-66552000D01*
X139021333Y-66575809D01*
X138568952Y-66528190D02*
X138807047Y-66528190D01*
X138830857Y-66766285D01*
X138807047Y-66742476D01*
X138759428Y-66718666D01*
X138640380Y-66718666D01*
X138592761Y-66742476D01*
X138568952Y-66766285D01*
X138545142Y-66813904D01*
X138545142Y-66932952D01*
X138568952Y-66980571D01*
X138592761Y-67004380D01*
X138640380Y-67028190D01*
X138759428Y-67028190D01*
X138807047Y-67004380D01*
X138830857Y-66980571D01*
G04 #@! TO.C,C6*
D10*
X133183238Y-65476380D02*
X133754666Y-65476380D01*
X133468952Y-65476380D02*
X133468952Y-64476380D01*
X133564190Y-64619238D01*
X133659428Y-64714476D01*
X133754666Y-64762095D01*
X132326095Y-64809714D02*
X132326095Y-65476380D01*
X132754666Y-64809714D02*
X132754666Y-65333523D01*
X132707047Y-65428761D01*
X132611809Y-65476380D01*
X132468952Y-65476380D01*
X132373714Y-65428761D01*
X132326095Y-65381142D01*
X131516571Y-64952571D02*
X131849904Y-64952571D01*
X131849904Y-65476380D02*
X131849904Y-64476380D01*
X131373714Y-64476380D01*
D12*
X134798571Y-65019166D02*
X134822380Y-64995357D01*
X134846190Y-64923928D01*
X134846190Y-64876309D01*
X134822380Y-64804880D01*
X134774761Y-64757261D01*
X134727142Y-64733452D01*
X134631904Y-64709642D01*
X134560476Y-64709642D01*
X134465238Y-64733452D01*
X134417619Y-64757261D01*
X134370000Y-64804880D01*
X134346190Y-64876309D01*
X134346190Y-64923928D01*
X134370000Y-64995357D01*
X134393809Y-65019166D01*
X134346190Y-65447738D02*
X134346190Y-65352500D01*
X134370000Y-65304880D01*
X134393809Y-65281071D01*
X134465238Y-65233452D01*
X134560476Y-65209642D01*
X134750952Y-65209642D01*
X134798571Y-65233452D01*
X134822380Y-65257261D01*
X134846190Y-65304880D01*
X134846190Y-65400119D01*
X134822380Y-65447738D01*
X134798571Y-65471547D01*
X134750952Y-65495357D01*
X134631904Y-65495357D01*
X134584285Y-65471547D01*
X134560476Y-65447738D01*
X134536666Y-65400119D01*
X134536666Y-65304880D01*
X134560476Y-65257261D01*
X134584285Y-65233452D01*
X134631904Y-65209642D01*
G04 #@! TO.C,C7*
D10*
X128579428Y-61158380D02*
X129150857Y-61158380D01*
X128865142Y-61158380D02*
X128865142Y-60158380D01*
X128960380Y-60301238D01*
X129055619Y-60396476D01*
X129150857Y-60444095D01*
X127960380Y-60158380D02*
X127865142Y-60158380D01*
X127769904Y-60206000D01*
X127722285Y-60253619D01*
X127674666Y-60348857D01*
X127627047Y-60539333D01*
X127627047Y-60777428D01*
X127674666Y-60967904D01*
X127722285Y-61063142D01*
X127769904Y-61110761D01*
X127865142Y-61158380D01*
X127960380Y-61158380D01*
X128055619Y-61110761D01*
X128103238Y-61063142D01*
X128150857Y-60967904D01*
X128198476Y-60777428D01*
X128198476Y-60539333D01*
X128150857Y-60348857D01*
X128103238Y-60253619D01*
X128055619Y-60206000D01*
X127960380Y-60158380D01*
X126769904Y-60491714D02*
X126769904Y-61158380D01*
X127198476Y-60491714D02*
X127198476Y-61015523D01*
X127150857Y-61110761D01*
X127055619Y-61158380D01*
X126912761Y-61158380D01*
X126817523Y-61110761D01*
X126769904Y-61063142D01*
X125960380Y-60634571D02*
X126293714Y-60634571D01*
X126293714Y-61158380D02*
X126293714Y-60158380D01*
X125817523Y-60158380D01*
D12*
X130560833Y-60757571D02*
X130584642Y-60781380D01*
X130656071Y-60805190D01*
X130703690Y-60805190D01*
X130775119Y-60781380D01*
X130822738Y-60733761D01*
X130846547Y-60686142D01*
X130870357Y-60590904D01*
X130870357Y-60519476D01*
X130846547Y-60424238D01*
X130822738Y-60376619D01*
X130775119Y-60329000D01*
X130703690Y-60305190D01*
X130656071Y-60305190D01*
X130584642Y-60329000D01*
X130560833Y-60352809D01*
X130394166Y-60305190D02*
X130060833Y-60305190D01*
X130275119Y-60805190D01*
G04 #@! TO.C,C8*
D10*
X144756928Y-52902380D02*
X145328357Y-52902380D01*
X145042642Y-52902380D02*
X145042642Y-51902380D01*
X145137880Y-52045238D01*
X145233119Y-52140476D01*
X145328357Y-52188095D01*
X144137880Y-51902380D02*
X144042642Y-51902380D01*
X143947404Y-51950000D01*
X143899785Y-51997619D01*
X143852166Y-52092857D01*
X143804547Y-52283333D01*
X143804547Y-52521428D01*
X143852166Y-52711904D01*
X143899785Y-52807142D01*
X143947404Y-52854761D01*
X144042642Y-52902380D01*
X144137880Y-52902380D01*
X144233119Y-52854761D01*
X144280738Y-52807142D01*
X144328357Y-52711904D01*
X144375976Y-52521428D01*
X144375976Y-52283333D01*
X144328357Y-52092857D01*
X144280738Y-51997619D01*
X144233119Y-51950000D01*
X144137880Y-51902380D01*
X142947404Y-52235714D02*
X142947404Y-52902380D01*
X143375976Y-52235714D02*
X143375976Y-52759523D01*
X143328357Y-52854761D01*
X143233119Y-52902380D01*
X143090261Y-52902380D01*
X142995023Y-52854761D01*
X142947404Y-52807142D01*
X142137880Y-52378571D02*
X142471214Y-52378571D01*
X142471214Y-52902380D02*
X142471214Y-51902380D01*
X141995023Y-51902380D01*
D12*
X143768833Y-50978571D02*
X143792642Y-51002380D01*
X143864071Y-51026190D01*
X143911690Y-51026190D01*
X143983119Y-51002380D01*
X144030738Y-50954761D01*
X144054547Y-50907142D01*
X144078357Y-50811904D01*
X144078357Y-50740476D01*
X144054547Y-50645238D01*
X144030738Y-50597619D01*
X143983119Y-50550000D01*
X143911690Y-50526190D01*
X143864071Y-50526190D01*
X143792642Y-50550000D01*
X143768833Y-50573809D01*
X143483119Y-50740476D02*
X143530738Y-50716666D01*
X143554547Y-50692857D01*
X143578357Y-50645238D01*
X143578357Y-50621428D01*
X143554547Y-50573809D01*
X143530738Y-50550000D01*
X143483119Y-50526190D01*
X143387880Y-50526190D01*
X143340261Y-50550000D01*
X143316452Y-50573809D01*
X143292642Y-50621428D01*
X143292642Y-50645238D01*
X143316452Y-50692857D01*
X143340261Y-50716666D01*
X143387880Y-50740476D01*
X143483119Y-50740476D01*
X143530738Y-50764285D01*
X143554547Y-50788095D01*
X143578357Y-50835714D01*
X143578357Y-50930952D01*
X143554547Y-50978571D01*
X143530738Y-51002380D01*
X143483119Y-51026190D01*
X143387880Y-51026190D01*
X143340261Y-51002380D01*
X143316452Y-50978571D01*
X143292642Y-50930952D01*
X143292642Y-50835714D01*
X143316452Y-50788095D01*
X143340261Y-50764285D01*
X143387880Y-50740476D01*
G04 #@! TO.C,R1*
D10*
X145089428Y-64739880D02*
X145660857Y-64739880D01*
X145375142Y-64739880D02*
X145375142Y-63739880D01*
X145470380Y-63882738D01*
X145565619Y-63977976D01*
X145660857Y-64025595D01*
X144470380Y-63739880D02*
X144375142Y-63739880D01*
X144279904Y-63787500D01*
X144232285Y-63835119D01*
X144184666Y-63930357D01*
X144137047Y-64120833D01*
X144137047Y-64358928D01*
X144184666Y-64549404D01*
X144232285Y-64644642D01*
X144279904Y-64692261D01*
X144375142Y-64739880D01*
X144470380Y-64739880D01*
X144565619Y-64692261D01*
X144613238Y-64644642D01*
X144660857Y-64549404D01*
X144708476Y-64358928D01*
X144708476Y-64120833D01*
X144660857Y-63930357D01*
X144613238Y-63835119D01*
X144565619Y-63787500D01*
X144470380Y-63739880D01*
X143518000Y-63739880D02*
X143422761Y-63739880D01*
X143327523Y-63787500D01*
X143279904Y-63835119D01*
X143232285Y-63930357D01*
X143184666Y-64120833D01*
X143184666Y-64358928D01*
X143232285Y-64549404D01*
X143279904Y-64644642D01*
X143327523Y-64692261D01*
X143422761Y-64739880D01*
X143518000Y-64739880D01*
X143613238Y-64692261D01*
X143660857Y-64644642D01*
X143708476Y-64549404D01*
X143756095Y-64358928D01*
X143756095Y-64120833D01*
X143708476Y-63930357D01*
X143660857Y-63835119D01*
X143613238Y-63787500D01*
X143518000Y-63739880D01*
X142756095Y-64739880D02*
X142756095Y-63739880D01*
X142660857Y-64358928D02*
X142375142Y-64739880D01*
X142375142Y-64073214D02*
X142756095Y-64454166D01*
D13*
X141785952Y-64220833D02*
X141595476Y-64087500D01*
X141785952Y-63992261D02*
X141385952Y-63992261D01*
X141385952Y-64144642D01*
X141405000Y-64182738D01*
X141424047Y-64201785D01*
X141462142Y-64220833D01*
X141519285Y-64220833D01*
X141557380Y-64201785D01*
X141576428Y-64182738D01*
X141595476Y-64144642D01*
X141595476Y-63992261D01*
X141785952Y-64601785D02*
X141785952Y-64373214D01*
X141785952Y-64487500D02*
X141385952Y-64487500D01*
X141443095Y-64449404D01*
X141481190Y-64411309D01*
X141500238Y-64373214D01*
G04 #@! TO.C,R3*
D10*
X138041047Y-81318380D02*
X138612476Y-81318380D01*
X138326761Y-81318380D02*
X138326761Y-80318380D01*
X138422000Y-80461238D01*
X138517238Y-80556476D01*
X138612476Y-80604095D01*
X137612476Y-81318380D02*
X137612476Y-80318380D01*
X137517238Y-80937428D02*
X137231523Y-81318380D01*
X137231523Y-80651714D02*
X137612476Y-81032666D01*
D13*
X137988666Y-82476952D02*
X138122000Y-82286476D01*
X138217238Y-82476952D02*
X138217238Y-82076952D01*
X138064857Y-82076952D01*
X138026761Y-82096000D01*
X138007714Y-82115047D01*
X137988666Y-82153142D01*
X137988666Y-82210285D01*
X138007714Y-82248380D01*
X138026761Y-82267428D01*
X138064857Y-82286476D01*
X138217238Y-82286476D01*
X137855333Y-82076952D02*
X137607714Y-82076952D01*
X137741047Y-82229333D01*
X137683904Y-82229333D01*
X137645809Y-82248380D01*
X137626761Y-82267428D01*
X137607714Y-82305523D01*
X137607714Y-82400761D01*
X137626761Y-82438857D01*
X137645809Y-82457904D01*
X137683904Y-82476952D01*
X137798190Y-82476952D01*
X137836285Y-82457904D01*
X137855333Y-82438857D01*
G04 #@! TO.C,R4*
D10*
X139501428Y-48077380D02*
X140072857Y-48077380D01*
X139787142Y-48077380D02*
X139787142Y-47077380D01*
X139882380Y-47220238D01*
X139977619Y-47315476D01*
X140072857Y-47363095D01*
X138882380Y-47077380D02*
X138787142Y-47077380D01*
X138691904Y-47125000D01*
X138644285Y-47172619D01*
X138596666Y-47267857D01*
X138549047Y-47458333D01*
X138549047Y-47696428D01*
X138596666Y-47886904D01*
X138644285Y-47982142D01*
X138691904Y-48029761D01*
X138787142Y-48077380D01*
X138882380Y-48077380D01*
X138977619Y-48029761D01*
X139025238Y-47982142D01*
X139072857Y-47886904D01*
X139120476Y-47696428D01*
X139120476Y-47458333D01*
X139072857Y-47267857D01*
X139025238Y-47172619D01*
X138977619Y-47125000D01*
X138882380Y-47077380D01*
X137930000Y-47077380D02*
X137834761Y-47077380D01*
X137739523Y-47125000D01*
X137691904Y-47172619D01*
X137644285Y-47267857D01*
X137596666Y-47458333D01*
X137596666Y-47696428D01*
X137644285Y-47886904D01*
X137691904Y-47982142D01*
X137739523Y-48029761D01*
X137834761Y-48077380D01*
X137930000Y-48077380D01*
X138025238Y-48029761D01*
X138072857Y-47982142D01*
X138120476Y-47886904D01*
X138168095Y-47696428D01*
X138168095Y-47458333D01*
X138120476Y-47267857D01*
X138072857Y-47172619D01*
X138025238Y-47125000D01*
X137930000Y-47077380D01*
X137168095Y-48077380D02*
X137168095Y-47077380D01*
X137072857Y-47696428D02*
X136787142Y-48077380D01*
X136787142Y-47410714D02*
X137168095Y-47791666D01*
D13*
X140896952Y-47913833D02*
X140706476Y-47780500D01*
X140896952Y-47685261D02*
X140496952Y-47685261D01*
X140496952Y-47837642D01*
X140516000Y-47875738D01*
X140535047Y-47894785D01*
X140573142Y-47913833D01*
X140630285Y-47913833D01*
X140668380Y-47894785D01*
X140687428Y-47875738D01*
X140706476Y-47837642D01*
X140706476Y-47685261D01*
X140630285Y-48256690D02*
X140896952Y-48256690D01*
X140477904Y-48161452D02*
X140763619Y-48066214D01*
X140763619Y-48313833D01*
G04 #@! TO.C,R6*
D10*
X140263428Y-77922380D02*
X140834857Y-77922380D01*
X140549142Y-77922380D02*
X140549142Y-76922380D01*
X140644380Y-77065238D01*
X140739619Y-77160476D01*
X140834857Y-77208095D01*
X139644380Y-76922380D02*
X139549142Y-76922380D01*
X139453904Y-76970000D01*
X139406285Y-77017619D01*
X139358666Y-77112857D01*
X139311047Y-77303333D01*
X139311047Y-77541428D01*
X139358666Y-77731904D01*
X139406285Y-77827142D01*
X139453904Y-77874761D01*
X139549142Y-77922380D01*
X139644380Y-77922380D01*
X139739619Y-77874761D01*
X139787238Y-77827142D01*
X139834857Y-77731904D01*
X139882476Y-77541428D01*
X139882476Y-77303333D01*
X139834857Y-77112857D01*
X139787238Y-77017619D01*
X139739619Y-76970000D01*
X139644380Y-76922380D01*
X138692000Y-76922380D02*
X138596761Y-76922380D01*
X138501523Y-76970000D01*
X138453904Y-77017619D01*
X138406285Y-77112857D01*
X138358666Y-77303333D01*
X138358666Y-77541428D01*
X138406285Y-77731904D01*
X138453904Y-77827142D01*
X138501523Y-77874761D01*
X138596761Y-77922380D01*
X138692000Y-77922380D01*
X138787238Y-77874761D01*
X138834857Y-77827142D01*
X138882476Y-77731904D01*
X138930095Y-77541428D01*
X138930095Y-77303333D01*
X138882476Y-77112857D01*
X138834857Y-77017619D01*
X138787238Y-76970000D01*
X138692000Y-76922380D01*
X137930095Y-77922380D02*
X137930095Y-76922380D01*
X137834857Y-77541428D02*
X137549142Y-77922380D01*
X137549142Y-77255714D02*
X137930095Y-77636666D01*
D13*
X141785952Y-77276333D02*
X141595476Y-77143000D01*
X141785952Y-77047761D02*
X141385952Y-77047761D01*
X141385952Y-77200142D01*
X141405000Y-77238238D01*
X141424047Y-77257285D01*
X141462142Y-77276333D01*
X141519285Y-77276333D01*
X141557380Y-77257285D01*
X141576428Y-77238238D01*
X141595476Y-77200142D01*
X141595476Y-77047761D01*
X141385952Y-77619190D02*
X141385952Y-77543000D01*
X141405000Y-77504904D01*
X141424047Y-77485857D01*
X141481190Y-77447761D01*
X141557380Y-77428714D01*
X141709761Y-77428714D01*
X141747857Y-77447761D01*
X141766904Y-77466809D01*
X141785952Y-77504904D01*
X141785952Y-77581095D01*
X141766904Y-77619190D01*
X141747857Y-77638238D01*
X141709761Y-77657285D01*
X141614523Y-77657285D01*
X141576428Y-77638238D01*
X141557380Y-77619190D01*
X141538333Y-77581095D01*
X141538333Y-77504904D01*
X141557380Y-77466809D01*
X141576428Y-77447761D01*
X141614523Y-77428714D01*
G04 #@! TO.C,U1*
D10*
X129602571Y-53998761D02*
X129459714Y-54046380D01*
X129221619Y-54046380D01*
X129126380Y-53998761D01*
X129078761Y-53951142D01*
X129031142Y-53855904D01*
X129031142Y-53760666D01*
X129078761Y-53665428D01*
X129126380Y-53617809D01*
X129221619Y-53570190D01*
X129412095Y-53522571D01*
X129507333Y-53474952D01*
X129554952Y-53427333D01*
X129602571Y-53332095D01*
X129602571Y-53236857D01*
X129554952Y-53141619D01*
X129507333Y-53094000D01*
X129412095Y-53046380D01*
X129174000Y-53046380D01*
X129031142Y-53094000D01*
X128602571Y-54046380D02*
X128602571Y-53046380D01*
X128221619Y-53046380D01*
X128126380Y-53094000D01*
X128078761Y-53141619D01*
X128031142Y-53236857D01*
X128031142Y-53379714D01*
X128078761Y-53474952D01*
X128126380Y-53522571D01*
X128221619Y-53570190D01*
X128602571Y-53570190D01*
X127697809Y-53046380D02*
X127031142Y-54046380D01*
X127031142Y-53046380D02*
X127697809Y-54046380D01*
X126745428Y-53046380D02*
X126126380Y-53046380D01*
X126459714Y-53427333D01*
X126316857Y-53427333D01*
X126221619Y-53474952D01*
X126174000Y-53522571D01*
X126126380Y-53617809D01*
X126126380Y-53855904D01*
X126174000Y-53951142D01*
X126221619Y-53998761D01*
X126316857Y-54046380D01*
X126602571Y-54046380D01*
X126697809Y-53998761D01*
X126745428Y-53951142D01*
X125554952Y-53474952D02*
X125650190Y-53427333D01*
X125697809Y-53379714D01*
X125745428Y-53284476D01*
X125745428Y-53236857D01*
X125697809Y-53141619D01*
X125650190Y-53094000D01*
X125554952Y-53046380D01*
X125364476Y-53046380D01*
X125269238Y-53094000D01*
X125221619Y-53141619D01*
X125174000Y-53236857D01*
X125174000Y-53284476D01*
X125221619Y-53379714D01*
X125269238Y-53427333D01*
X125364476Y-53474952D01*
X125554952Y-53474952D01*
X125650190Y-53522571D01*
X125697809Y-53570190D01*
X125745428Y-53665428D01*
X125745428Y-53855904D01*
X125697809Y-53951142D01*
X125650190Y-53998761D01*
X125554952Y-54046380D01*
X125364476Y-54046380D01*
X125269238Y-53998761D01*
X125221619Y-53951142D01*
X125174000Y-53855904D01*
X125174000Y-53665428D01*
X125221619Y-53570190D01*
X125269238Y-53522571D01*
X125364476Y-53474952D01*
X124221619Y-54046380D02*
X124793047Y-54046380D01*
X124507333Y-54046380D02*
X124507333Y-53046380D01*
X124602571Y-53189238D01*
X124697809Y-53284476D01*
X124793047Y-53332095D01*
X123745428Y-54046380D02*
X123554952Y-54046380D01*
X123459714Y-53998761D01*
X123412095Y-53951142D01*
X123316857Y-53808285D01*
X123269238Y-53617809D01*
X123269238Y-53236857D01*
X123316857Y-53141619D01*
X123364476Y-53094000D01*
X123459714Y-53046380D01*
X123650190Y-53046380D01*
X123745428Y-53094000D01*
X123793047Y-53141619D01*
X123840666Y-53236857D01*
X123840666Y-53474952D01*
X123793047Y-53570190D01*
X123745428Y-53617809D01*
X123650190Y-53665428D01*
X123459714Y-53665428D01*
X123364476Y-53617809D01*
X123316857Y-53570190D01*
X123269238Y-53474952D01*
X122840666Y-54046380D02*
X122840666Y-53046380D01*
X122507333Y-53760666D01*
X122174000Y-53046380D01*
X122174000Y-54046380D01*
X121221619Y-53046380D02*
X121697809Y-53046380D01*
X121745428Y-53522571D01*
X121697809Y-53474952D01*
X121602571Y-53427333D01*
X121364476Y-53427333D01*
X121269238Y-53474952D01*
X121221619Y-53522571D01*
X121174000Y-53617809D01*
X121174000Y-53855904D01*
X121221619Y-53951142D01*
X121269238Y-53998761D01*
X121364476Y-54046380D01*
X121602571Y-54046380D01*
X121697809Y-53998761D01*
X121745428Y-53951142D01*
X120745428Y-53665428D02*
X119983523Y-53665428D01*
X119031142Y-54046380D02*
X119507333Y-54046380D01*
X119507333Y-53046380D01*
X118697809Y-53665428D02*
X117935904Y-53665428D01*
X117554952Y-53046380D02*
X116935904Y-53046380D01*
X117269238Y-53427333D01*
X117126380Y-53427333D01*
X117031142Y-53474952D01*
X116983523Y-53522571D01*
X116935904Y-53617809D01*
X116935904Y-53855904D01*
X116983523Y-53951142D01*
X117031142Y-53998761D01*
X117126380Y-54046380D01*
X117412095Y-54046380D01*
X117507333Y-53998761D01*
X117554952Y-53951142D01*
X116507333Y-53665428D02*
X115745428Y-53665428D01*
X115364476Y-53046380D02*
X114745428Y-53046380D01*
X115078761Y-53427333D01*
X114935904Y-53427333D01*
X114840666Y-53474952D01*
X114793047Y-53522571D01*
X114745428Y-53617809D01*
X114745428Y-53855904D01*
X114793047Y-53951142D01*
X114840666Y-53998761D01*
X114935904Y-54046380D01*
X115221619Y-54046380D01*
X115316857Y-53998761D01*
X115364476Y-53951142D01*
D14*
X130536190Y-52959047D02*
X130940952Y-52959047D01*
X130988571Y-52982857D01*
X131012380Y-53006666D01*
X131036190Y-53054285D01*
X131036190Y-53149523D01*
X131012380Y-53197142D01*
X130988571Y-53220952D01*
X130940952Y-53244761D01*
X130536190Y-53244761D01*
X131036190Y-53744761D02*
X131036190Y-53459047D01*
X131036190Y-53601904D02*
X130536190Y-53601904D01*
X130607619Y-53554285D01*
X130655238Y-53506666D01*
X130679047Y-53459047D01*
G04 #@! TO.C,U2*
D10*
X145604285Y-74350571D02*
X145270952Y-74350571D01*
X145128095Y-74874380D02*
X145604285Y-74874380D01*
X145604285Y-73874380D01*
X145128095Y-73874380D01*
X144366190Y-74350571D02*
X144699523Y-74350571D01*
X144699523Y-74874380D02*
X144699523Y-73874380D01*
X144223333Y-73874380D01*
X143842380Y-74874380D02*
X143842380Y-73874380D01*
X143509047Y-74588666D01*
X143175714Y-73874380D01*
X143175714Y-74874380D01*
X142556666Y-74302952D02*
X142651904Y-74255333D01*
X142699523Y-74207714D01*
X142747142Y-74112476D01*
X142747142Y-74064857D01*
X142699523Y-73969619D01*
X142651904Y-73922000D01*
X142556666Y-73874380D01*
X142366190Y-73874380D01*
X142270952Y-73922000D01*
X142223333Y-73969619D01*
X142175714Y-74064857D01*
X142175714Y-74112476D01*
X142223333Y-74207714D01*
X142270952Y-74255333D01*
X142366190Y-74302952D01*
X142556666Y-74302952D01*
X142651904Y-74350571D01*
X142699523Y-74398190D01*
X142747142Y-74493428D01*
X142747142Y-74683904D01*
X142699523Y-74779142D01*
X142651904Y-74826761D01*
X142556666Y-74874380D01*
X142366190Y-74874380D01*
X142270952Y-74826761D01*
X142223333Y-74779142D01*
X142175714Y-74683904D01*
X142175714Y-74493428D01*
X142223333Y-74398190D01*
X142270952Y-74350571D01*
X142366190Y-74302952D01*
X141747142Y-73874380D02*
X141747142Y-74683904D01*
X141699523Y-74779142D01*
X141651904Y-74826761D01*
X141556666Y-74874380D01*
X141366190Y-74874380D01*
X141270952Y-74826761D01*
X141223333Y-74779142D01*
X141175714Y-74683904D01*
X141175714Y-73874380D01*
X140366190Y-74350571D02*
X140223333Y-74398190D01*
X140175714Y-74445809D01*
X140128095Y-74541047D01*
X140128095Y-74683904D01*
X140175714Y-74779142D01*
X140223333Y-74826761D01*
X140318571Y-74874380D01*
X140699523Y-74874380D01*
X140699523Y-73874380D01*
X140366190Y-73874380D01*
X140270952Y-73922000D01*
X140223333Y-73969619D01*
X140175714Y-74064857D01*
X140175714Y-74160095D01*
X140223333Y-74255333D01*
X140270952Y-74302952D01*
X140366190Y-74350571D01*
X140699523Y-74350571D01*
X139175714Y-74874380D02*
X139747142Y-74874380D01*
X139461428Y-74874380D02*
X139461428Y-73874380D01*
X139556666Y-74017238D01*
X139651904Y-74112476D01*
X139747142Y-74160095D01*
X138556666Y-73874380D02*
X138461428Y-73874380D01*
X138366190Y-73922000D01*
X138318571Y-73969619D01*
X138270952Y-74064857D01*
X138223333Y-74255333D01*
X138223333Y-74493428D01*
X138270952Y-74683904D01*
X138318571Y-74779142D01*
X138366190Y-74826761D01*
X138461428Y-74874380D01*
X138556666Y-74874380D01*
X138651904Y-74826761D01*
X138699523Y-74779142D01*
X138747142Y-74683904D01*
X138794761Y-74493428D01*
X138794761Y-74255333D01*
X138747142Y-74064857D01*
X138699523Y-73969619D01*
X138651904Y-73922000D01*
X138556666Y-73874380D01*
X137461428Y-74350571D02*
X137794761Y-74350571D01*
X137794761Y-74874380D02*
X137794761Y-73874380D01*
X137318571Y-73874380D01*
X136413809Y-74874380D02*
X136985238Y-74874380D01*
X136699523Y-74874380D02*
X136699523Y-73874380D01*
X136794761Y-74017238D01*
X136890000Y-74112476D01*
X136985238Y-74160095D01*
X135556666Y-73874380D02*
X135747142Y-73874380D01*
X135842380Y-73922000D01*
X135890000Y-73969619D01*
X135985238Y-74112476D01*
X136032857Y-74302952D01*
X136032857Y-74683904D01*
X135985238Y-74779142D01*
X135937619Y-74826761D01*
X135842380Y-74874380D01*
X135651904Y-74874380D01*
X135556666Y-74826761D01*
X135509047Y-74779142D01*
X135461428Y-74683904D01*
X135461428Y-74445809D01*
X135509047Y-74350571D01*
X135556666Y-74302952D01*
X135651904Y-74255333D01*
X135842380Y-74255333D01*
X135937619Y-74302952D01*
X135985238Y-74350571D01*
X136032857Y-74445809D01*
X134509047Y-73922000D02*
X134604285Y-73874380D01*
X134747142Y-73874380D01*
X134890000Y-73922000D01*
X134985238Y-74017238D01*
X135032857Y-74112476D01*
X135080476Y-74302952D01*
X135080476Y-74445809D01*
X135032857Y-74636285D01*
X134985238Y-74731523D01*
X134890000Y-74826761D01*
X134747142Y-74874380D01*
X134651904Y-74874380D01*
X134509047Y-74826761D01*
X134461428Y-74779142D01*
X134461428Y-74445809D01*
X134651904Y-74445809D01*
X134032857Y-74493428D02*
X133270952Y-74493428D01*
X132223333Y-74779142D02*
X132270952Y-74826761D01*
X132413809Y-74874380D01*
X132509047Y-74874380D01*
X132651904Y-74826761D01*
X132747142Y-74731523D01*
X132794761Y-74636285D01*
X132842380Y-74445809D01*
X132842380Y-74302952D01*
X132794761Y-74112476D01*
X132747142Y-74017238D01*
X132651904Y-73922000D01*
X132509047Y-73874380D01*
X132413809Y-73874380D01*
X132270952Y-73922000D01*
X132223333Y-73969619D01*
X131794761Y-74493428D02*
X131032857Y-74493428D01*
X129890000Y-74969619D02*
X129985238Y-74922000D01*
X130080476Y-74826761D01*
X130223333Y-74683904D01*
X130318571Y-74636285D01*
X130413809Y-74636285D01*
X130366190Y-74874380D02*
X130461428Y-74826761D01*
X130556666Y-74731523D01*
X130604285Y-74541047D01*
X130604285Y-74207714D01*
X130556666Y-74017238D01*
X130461428Y-73922000D01*
X130366190Y-73874380D01*
X130175714Y-73874380D01*
X130080476Y-73922000D01*
X129985238Y-74017238D01*
X129937619Y-74207714D01*
X129937619Y-74541047D01*
X129985238Y-74731523D01*
X130080476Y-74826761D01*
X130175714Y-74874380D01*
X130366190Y-74874380D01*
X129175714Y-74350571D02*
X129509047Y-74350571D01*
X129509047Y-74874380D02*
X129509047Y-73874380D01*
X129032857Y-73874380D01*
X128651904Y-74874380D02*
X128651904Y-73874380D01*
X128080476Y-74874380D01*
X128080476Y-73874380D01*
X127651904Y-73969619D02*
X127604285Y-73922000D01*
X127509047Y-73874380D01*
X127270952Y-73874380D01*
X127175714Y-73922000D01*
X127128095Y-73969619D01*
X127080476Y-74064857D01*
X127080476Y-74160095D01*
X127128095Y-74302952D01*
X127699523Y-74874380D01*
X127080476Y-74874380D01*
X126509047Y-74302952D02*
X126604285Y-74255333D01*
X126651904Y-74207714D01*
X126699523Y-74112476D01*
X126699523Y-74064857D01*
X126651904Y-73969619D01*
X126604285Y-73922000D01*
X126509047Y-73874380D01*
X126318571Y-73874380D01*
X126223333Y-73922000D01*
X126175714Y-73969619D01*
X126128095Y-74064857D01*
X126128095Y-74112476D01*
X126175714Y-74207714D01*
X126223333Y-74255333D01*
X126318571Y-74302952D01*
X126509047Y-74302952D01*
X126604285Y-74350571D01*
X126651904Y-74398190D01*
X126699523Y-74493428D01*
X126699523Y-74683904D01*
X126651904Y-74779142D01*
X126604285Y-74826761D01*
X126509047Y-74874380D01*
X126318571Y-74874380D01*
X126223333Y-74826761D01*
X126175714Y-74779142D01*
X126128095Y-74683904D01*
X126128095Y-74493428D01*
X126175714Y-74398190D01*
X126223333Y-74350571D01*
X126318571Y-74302952D01*
X136651904Y-70572380D02*
X136651904Y-71381904D01*
X136604285Y-71477142D01*
X136556666Y-71524761D01*
X136461428Y-71572380D01*
X136270952Y-71572380D01*
X136175714Y-71524761D01*
X136128095Y-71477142D01*
X136080476Y-71381904D01*
X136080476Y-70572380D01*
X135651904Y-70667619D02*
X135604285Y-70620000D01*
X135509047Y-70572380D01*
X135270952Y-70572380D01*
X135175714Y-70620000D01*
X135128095Y-70667619D01*
X135080476Y-70762857D01*
X135080476Y-70858095D01*
X135128095Y-71000952D01*
X135699523Y-71572380D01*
X135080476Y-71572380D01*
G04 #@! TO.C,U3*
X144763333Y-55697380D02*
X144763333Y-54697380D01*
X144430000Y-55411666D01*
X144096666Y-54697380D01*
X144096666Y-55697380D01*
X143049047Y-55602142D02*
X143096666Y-55649761D01*
X143239523Y-55697380D01*
X143334761Y-55697380D01*
X143477619Y-55649761D01*
X143572857Y-55554523D01*
X143620476Y-55459285D01*
X143668095Y-55268809D01*
X143668095Y-55125952D01*
X143620476Y-54935476D01*
X143572857Y-54840238D01*
X143477619Y-54745000D01*
X143334761Y-54697380D01*
X143239523Y-54697380D01*
X143096666Y-54745000D01*
X143049047Y-54792619D01*
X142620476Y-55697380D02*
X142620476Y-54697380D01*
X142239523Y-54697380D01*
X142144285Y-54745000D01*
X142096666Y-54792619D01*
X142049047Y-54887857D01*
X142049047Y-55030714D01*
X142096666Y-55125952D01*
X142144285Y-55173571D01*
X142239523Y-55221190D01*
X142620476Y-55221190D01*
X141715714Y-54697380D02*
X141049047Y-54697380D01*
X141477619Y-55697380D01*
X140763333Y-54697380D02*
X140144285Y-54697380D01*
X140477619Y-55078333D01*
X140334761Y-55078333D01*
X140239523Y-55125952D01*
X140191904Y-55173571D01*
X140144285Y-55268809D01*
X140144285Y-55506904D01*
X140191904Y-55602142D01*
X140239523Y-55649761D01*
X140334761Y-55697380D01*
X140620476Y-55697380D01*
X140715714Y-55649761D01*
X140763333Y-55602142D01*
X139572857Y-55125952D02*
X139668095Y-55078333D01*
X139715714Y-55030714D01*
X139763333Y-54935476D01*
X139763333Y-54887857D01*
X139715714Y-54792619D01*
X139668095Y-54745000D01*
X139572857Y-54697380D01*
X139382380Y-54697380D01*
X139287142Y-54745000D01*
X139239523Y-54792619D01*
X139191904Y-54887857D01*
X139191904Y-54935476D01*
X139239523Y-55030714D01*
X139287142Y-55078333D01*
X139382380Y-55125952D01*
X139572857Y-55125952D01*
X139668095Y-55173571D01*
X139715714Y-55221190D01*
X139763333Y-55316428D01*
X139763333Y-55506904D01*
X139715714Y-55602142D01*
X139668095Y-55649761D01*
X139572857Y-55697380D01*
X139382380Y-55697380D01*
X139287142Y-55649761D01*
X139239523Y-55602142D01*
X139191904Y-55506904D01*
X139191904Y-55316428D01*
X139239523Y-55221190D01*
X139287142Y-55173571D01*
X139382380Y-55125952D01*
X138858571Y-54697380D02*
X138239523Y-54697380D01*
X138572857Y-55078333D01*
X138430000Y-55078333D01*
X138334761Y-55125952D01*
X138287142Y-55173571D01*
X138239523Y-55268809D01*
X138239523Y-55506904D01*
X138287142Y-55602142D01*
X138334761Y-55649761D01*
X138430000Y-55697380D01*
X138715714Y-55697380D01*
X138810952Y-55649761D01*
X138858571Y-55602142D01*
X137287142Y-55697380D02*
X137858571Y-55697380D01*
X137572857Y-55697380D02*
X137572857Y-54697380D01*
X137668095Y-54840238D01*
X137763333Y-54935476D01*
X137858571Y-54983095D01*
X136858571Y-55316428D02*
X136096666Y-55316428D01*
X135668095Y-54792619D02*
X135620476Y-54745000D01*
X135525238Y-54697380D01*
X135287142Y-54697380D01*
X135191904Y-54745000D01*
X135144285Y-54792619D01*
X135096666Y-54887857D01*
X135096666Y-54983095D01*
X135144285Y-55125952D01*
X135715714Y-55697380D01*
X135096666Y-55697380D01*
X134668095Y-55316428D02*
X133906190Y-55316428D01*
X133239523Y-54697380D02*
X133049047Y-54697380D01*
X132953809Y-54745000D01*
X132858571Y-54840238D01*
X132810952Y-55030714D01*
X132810952Y-55364047D01*
X132858571Y-55554523D01*
X132953809Y-55649761D01*
X133049047Y-55697380D01*
X133239523Y-55697380D01*
X133334761Y-55649761D01*
X133430000Y-55554523D01*
X133477619Y-55364047D01*
X133477619Y-55030714D01*
X133430000Y-54840238D01*
X133334761Y-54745000D01*
X133239523Y-54697380D01*
X132525238Y-54697380D02*
X131953809Y-54697380D01*
X132239523Y-55697380D02*
X132239523Y-54697380D01*
D14*
X137540952Y-53023190D02*
X137540952Y-53427952D01*
X137517142Y-53475571D01*
X137493333Y-53499380D01*
X137445714Y-53523190D01*
X137350476Y-53523190D01*
X137302857Y-53499380D01*
X137279047Y-53475571D01*
X137255238Y-53427952D01*
X137255238Y-53023190D01*
X137064761Y-53023190D02*
X136755238Y-53023190D01*
X136921904Y-53213666D01*
X136850476Y-53213666D01*
X136802857Y-53237476D01*
X136779047Y-53261285D01*
X136755238Y-53308904D01*
X136755238Y-53427952D01*
X136779047Y-53475571D01*
X136802857Y-53499380D01*
X136850476Y-53523190D01*
X136993333Y-53523190D01*
X137040952Y-53499380D01*
X137064761Y-53475571D01*
G04 #@! TD*
M02*
