G04 #@! TF.GenerationSoftware,KiCad,Pcbnew,5.0.2+dfsg1-1*
G04 #@! TF.CreationDate,2019-04-15T18:08:30-07:00*
G04 #@! TF.ProjectId,feather51,66656174-6865-4723-9531-2e6b69636164,A*
G04 #@! TF.SameCoordinates,Original*
G04 #@! TF.FileFunction,Other,Fab,Top*
%FSLAX46Y46*%
G04 Gerber Fmt 4.6, Leading zero omitted, Abs format (unit mm)*
G04 Created by KiCad (PCBNEW 5.0.2+dfsg1-1) date Mon 15 Apr 2019 06:08:30 PM PDT*
%MOMM*%
%LPD*%
G01*
G04 APERTURE LIST*
%ADD10C,0.150000*%
%ADD11C,0.100000*%
%ADD12C,0.120000*%
%ADD13C,0.060000*%
G04 APERTURE END LIST*
D10*
G04 #@! TO.C,D3*
G36*
X136906000Y-59563000D02*
X137541000Y-59563000D01*
X137541000Y-62103000D01*
X136906000Y-62103000D01*
X136906000Y-59563000D01*
G37*
X136906000Y-59563000D02*
X137541000Y-59563000D01*
X137541000Y-62103000D01*
X136906000Y-62103000D01*
X136906000Y-59563000D01*
X136646000Y-62308000D02*
X136646000Y-59358000D01*
X142246000Y-62308000D02*
X136646000Y-62308000D01*
X142246000Y-59358000D02*
X142246000Y-62308000D01*
X136646000Y-59358000D02*
X142246000Y-59358000D01*
D11*
G04 #@! TO.C,J1*
X141220000Y-55225000D02*
X139620000Y-55225000D01*
X139620000Y-55225000D02*
X139620000Y-55925000D01*
X139620000Y-55925000D02*
X147220000Y-55925000D01*
X147220000Y-55925000D02*
X147220000Y-50025000D01*
X147220000Y-50025000D02*
X139620000Y-50025000D01*
X139620000Y-50025000D02*
X139620000Y-50725000D01*
X139620000Y-50725000D02*
X141220000Y-50725000D01*
X141220000Y-50725000D02*
X141220000Y-55225000D01*
X141845000Y-53975000D02*
X142345000Y-54475000D01*
X142345000Y-54475000D02*
X142345000Y-53475000D01*
X142345000Y-53475000D02*
X141845000Y-53975000D01*
G04 #@! TO.C,D4*
X145732500Y-57385000D02*
X144432500Y-57385000D01*
X144432500Y-57385000D02*
X144132500Y-57685000D01*
X144132500Y-57685000D02*
X144132500Y-58185000D01*
X144132500Y-58185000D02*
X145732500Y-58185000D01*
X145732500Y-58185000D02*
X145732500Y-57385000D01*
G04 #@! TO.C,D5*
X140474500Y-67456000D02*
X140474500Y-66656000D01*
X138874500Y-67456000D02*
X140474500Y-67456000D01*
X138874500Y-66956000D02*
X138874500Y-67456000D01*
X139174500Y-66656000D02*
X138874500Y-66956000D01*
X140474500Y-66656000D02*
X139174500Y-66656000D01*
D12*
G04 #@! TO.C,J2*
X138649000Y-48109000D02*
X137849000Y-48859000D01*
X131149000Y-43909000D02*
X138649000Y-43909000D01*
X131149000Y-48859000D02*
X131149000Y-43909000D01*
X137849000Y-48859000D02*
X131149000Y-48859000D01*
X138649000Y-43909000D02*
X138649000Y-48109000D01*
D11*
G04 #@! TO.C,J3*
X143510000Y-90170000D02*
X143510000Y-59690000D01*
X146050000Y-90170000D02*
X143510000Y-90170000D01*
X146050000Y-60325000D02*
X146050000Y-90170000D01*
X145415000Y-59690000D02*
X146050000Y-60325000D01*
X143510000Y-59690000D02*
X145415000Y-59690000D01*
G04 #@! TO.C,J4*
X137160000Y-85090000D02*
X138430000Y-86360000D01*
X130810000Y-85090000D02*
X137160000Y-85090000D01*
X130810000Y-90170000D02*
X130810000Y-85090000D01*
X138430000Y-90170000D02*
X130810000Y-90170000D01*
X138430000Y-86360000D02*
X138430000Y-90170000D01*
G04 #@! TO.C,J5*
X123190000Y-90170000D02*
X123190000Y-49530000D01*
X125730000Y-90170000D02*
X123190000Y-90170000D01*
X125730000Y-50165000D02*
X125730000Y-90170000D01*
X125095000Y-49530000D02*
X125730000Y-50165000D01*
X123190000Y-49530000D02*
X125095000Y-49530000D01*
G04 #@! TO.C,R2*
X133820000Y-80880000D02*
X135420000Y-80880000D01*
X133820000Y-81680000D02*
X133820000Y-80880000D01*
X135420000Y-81680000D02*
X133820000Y-81680000D01*
X135420000Y-80880000D02*
X135420000Y-81680000D01*
G04 #@! TO.C,R5*
X141205000Y-78117500D02*
X141205000Y-76517500D01*
X142005000Y-78117500D02*
X141205000Y-78117500D01*
X142005000Y-76517500D02*
X142005000Y-78117500D01*
X141205000Y-76517500D02*
X142005000Y-76517500D01*
G04 #@! TO.C,R7*
X141770000Y-57385000D02*
X141770000Y-58185000D01*
X141770000Y-58185000D02*
X140170000Y-58185000D01*
X140170000Y-58185000D02*
X140170000Y-57385000D01*
X140170000Y-57385000D02*
X141770000Y-57385000D01*
G04 #@! TO.C,R8*
X140449500Y-68180000D02*
X142049500Y-68180000D01*
X140449500Y-68980000D02*
X140449500Y-68180000D01*
X142049500Y-68980000D02*
X140449500Y-68980000D01*
X142049500Y-68180000D02*
X142049500Y-68980000D01*
G04 #@! TO.C,SW1*
X133120000Y-91460000D02*
X136120000Y-91460000D01*
X136120000Y-91460000D02*
X136120000Y-93960000D01*
X136120000Y-93960000D02*
X133120000Y-93960000D01*
X133120000Y-93960000D02*
X133120000Y-91460000D01*
X135370000Y-92710000D02*
G75*
G03X135370000Y-92710000I-750000J0D01*
G01*
G04 #@! TD*
G04 #@! TO.C,D3*
D10*
X138707904Y-61412380D02*
X138707904Y-60412380D01*
X138946000Y-60412380D01*
X139088857Y-60460000D01*
X139184095Y-60555238D01*
X139231714Y-60650476D01*
X139279333Y-60840952D01*
X139279333Y-60983809D01*
X139231714Y-61174285D01*
X139184095Y-61269523D01*
X139088857Y-61364761D01*
X138946000Y-61412380D01*
X138707904Y-61412380D01*
X139612666Y-60412380D02*
X140231714Y-60412380D01*
X139898380Y-60793333D01*
X140041238Y-60793333D01*
X140136476Y-60840952D01*
X140184095Y-60888571D01*
X140231714Y-60983809D01*
X140231714Y-61221904D01*
X140184095Y-61317142D01*
X140136476Y-61364761D01*
X140041238Y-61412380D01*
X139755523Y-61412380D01*
X139660285Y-61364761D01*
X139612666Y-61317142D01*
G04 #@! TO.C,J1*
X148348571Y-55475000D02*
X148396190Y-55332142D01*
X148443809Y-55284523D01*
X148539047Y-55236904D01*
X148681904Y-55236904D01*
X148777142Y-55284523D01*
X148824761Y-55332142D01*
X148872380Y-55427380D01*
X148872380Y-55808333D01*
X147872380Y-55808333D01*
X147872380Y-55475000D01*
X147920000Y-55379761D01*
X147967619Y-55332142D01*
X148062857Y-55284523D01*
X148158095Y-55284523D01*
X148253333Y-55332142D01*
X148300952Y-55379761D01*
X148348571Y-55475000D01*
X148348571Y-55808333D01*
X148586666Y-54855952D02*
X148586666Y-54379761D01*
X148872380Y-54951190D02*
X147872380Y-54617857D01*
X148872380Y-54284523D01*
X147872380Y-54094047D02*
X147872380Y-53522619D01*
X148872380Y-53808333D02*
X147872380Y-53808333D01*
X147872380Y-53332142D02*
X147872380Y-52760714D01*
X148872380Y-53046428D02*
X147872380Y-53046428D01*
X148348571Y-52427380D02*
X148348571Y-52094047D01*
X148872380Y-51951190D02*
X148872380Y-52427380D01*
X147872380Y-52427380D01*
X147872380Y-51951190D01*
X148872380Y-50951190D02*
X148396190Y-51284523D01*
X148872380Y-51522619D02*
X147872380Y-51522619D01*
X147872380Y-51141666D01*
X147920000Y-51046428D01*
X147967619Y-50998809D01*
X148062857Y-50951190D01*
X148205714Y-50951190D01*
X148300952Y-50998809D01*
X148348571Y-51046428D01*
X148396190Y-51141666D01*
X148396190Y-51522619D01*
X148396190Y-50332142D02*
X148872380Y-50332142D01*
X147872380Y-50665476D02*
X148396190Y-50332142D01*
X147872380Y-49998809D01*
X142922380Y-53308333D02*
X143636666Y-53308333D01*
X143779523Y-53355952D01*
X143874761Y-53451190D01*
X143922380Y-53594047D01*
X143922380Y-53689285D01*
X143922380Y-52308333D02*
X143922380Y-52879761D01*
X143922380Y-52594047D02*
X142922380Y-52594047D01*
X143065238Y-52689285D01*
X143160476Y-52784523D01*
X143208095Y-52879761D01*
G04 #@! TO.C,D4*
X146725000Y-57237380D02*
X146915476Y-57237380D01*
X147010714Y-57285000D01*
X147105952Y-57380238D01*
X147153571Y-57570714D01*
X147153571Y-57904047D01*
X147105952Y-58094523D01*
X147010714Y-58189761D01*
X146915476Y-58237380D01*
X146725000Y-58237380D01*
X146629761Y-58189761D01*
X146534523Y-58094523D01*
X146486904Y-57904047D01*
X146486904Y-57570714D01*
X146534523Y-57380238D01*
X146629761Y-57285000D01*
X146725000Y-57237380D01*
X148153571Y-58237380D02*
X147820238Y-57761190D01*
X147582142Y-58237380D02*
X147582142Y-57237380D01*
X147963095Y-57237380D01*
X148058333Y-57285000D01*
X148105952Y-57332619D01*
X148153571Y-57427857D01*
X148153571Y-57570714D01*
X148105952Y-57665952D01*
X148058333Y-57713571D01*
X147963095Y-57761190D01*
X147582142Y-57761190D01*
X148534523Y-57951666D02*
X149010714Y-57951666D01*
X148439285Y-58237380D02*
X148772619Y-57237380D01*
X149105952Y-58237380D01*
X149439285Y-58237380D02*
X149439285Y-57237380D01*
X150010714Y-58237380D01*
X150010714Y-57237380D01*
X151010714Y-57285000D02*
X150915476Y-57237380D01*
X150772619Y-57237380D01*
X150629761Y-57285000D01*
X150534523Y-57380238D01*
X150486904Y-57475476D01*
X150439285Y-57665952D01*
X150439285Y-57808809D01*
X150486904Y-57999285D01*
X150534523Y-58094523D01*
X150629761Y-58189761D01*
X150772619Y-58237380D01*
X150867857Y-58237380D01*
X151010714Y-58189761D01*
X151058333Y-58142142D01*
X151058333Y-57808809D01*
X150867857Y-57808809D01*
X151486904Y-57713571D02*
X151820238Y-57713571D01*
X151963095Y-58237380D02*
X151486904Y-58237380D01*
X151486904Y-57237380D01*
X151963095Y-57237380D01*
D13*
X144637261Y-57965952D02*
X144637261Y-57565952D01*
X144732500Y-57565952D01*
X144789642Y-57585000D01*
X144827738Y-57623095D01*
X144846785Y-57661190D01*
X144865833Y-57737380D01*
X144865833Y-57794523D01*
X144846785Y-57870714D01*
X144827738Y-57908809D01*
X144789642Y-57946904D01*
X144732500Y-57965952D01*
X144637261Y-57965952D01*
X145208690Y-57699285D02*
X145208690Y-57965952D01*
X145113452Y-57546904D02*
X145018214Y-57832619D01*
X145265833Y-57832619D01*
G04 #@! TO.C,D5*
D10*
X141343142Y-67508380D02*
X141009809Y-67032190D01*
X140771714Y-67508380D02*
X140771714Y-66508380D01*
X141152666Y-66508380D01*
X141247904Y-66556000D01*
X141295523Y-66603619D01*
X141343142Y-66698857D01*
X141343142Y-66841714D01*
X141295523Y-66936952D01*
X141247904Y-66984571D01*
X141152666Y-67032190D01*
X140771714Y-67032190D01*
X141771714Y-66984571D02*
X142105047Y-66984571D01*
X142247904Y-67508380D02*
X141771714Y-67508380D01*
X141771714Y-66508380D01*
X142247904Y-66508380D01*
X142676476Y-67508380D02*
X142676476Y-66508380D01*
X142914571Y-66508380D01*
X143057428Y-66556000D01*
X143152666Y-66651238D01*
X143200285Y-66746476D01*
X143247904Y-66936952D01*
X143247904Y-67079809D01*
X143200285Y-67270285D01*
X143152666Y-67365523D01*
X143057428Y-67460761D01*
X142914571Y-67508380D01*
X142676476Y-67508380D01*
D13*
X139379261Y-67236952D02*
X139379261Y-66836952D01*
X139474500Y-66836952D01*
X139531642Y-66856000D01*
X139569738Y-66894095D01*
X139588785Y-66932190D01*
X139607833Y-67008380D01*
X139607833Y-67065523D01*
X139588785Y-67141714D01*
X139569738Y-67179809D01*
X139531642Y-67217904D01*
X139474500Y-67236952D01*
X139379261Y-67236952D01*
X139969738Y-66836952D02*
X139779261Y-66836952D01*
X139760214Y-67027428D01*
X139779261Y-67008380D01*
X139817357Y-66989333D01*
X139912595Y-66989333D01*
X139950690Y-67008380D01*
X139969738Y-67027428D01*
X139988785Y-67065523D01*
X139988785Y-67160761D01*
X139969738Y-67198857D01*
X139950690Y-67217904D01*
X139912595Y-67236952D01*
X139817357Y-67236952D01*
X139779261Y-67217904D01*
X139760214Y-67198857D01*
G04 #@! TO.C,J2*
D10*
X130375190Y-42261380D02*
X130375190Y-43070904D01*
X130422809Y-43166142D01*
X130470428Y-43213761D01*
X130565666Y-43261380D01*
X130756142Y-43261380D01*
X130851380Y-43213761D01*
X130899000Y-43166142D01*
X130946619Y-43070904D01*
X130946619Y-42261380D01*
X131375190Y-43213761D02*
X131518047Y-43261380D01*
X131756142Y-43261380D01*
X131851380Y-43213761D01*
X131899000Y-43166142D01*
X131946619Y-43070904D01*
X131946619Y-42975666D01*
X131899000Y-42880428D01*
X131851380Y-42832809D01*
X131756142Y-42785190D01*
X131565666Y-42737571D01*
X131470428Y-42689952D01*
X131422809Y-42642333D01*
X131375190Y-42547095D01*
X131375190Y-42451857D01*
X131422809Y-42356619D01*
X131470428Y-42309000D01*
X131565666Y-42261380D01*
X131803761Y-42261380D01*
X131946619Y-42309000D01*
X132708523Y-42737571D02*
X132851380Y-42785190D01*
X132899000Y-42832809D01*
X132946619Y-42928047D01*
X132946619Y-43070904D01*
X132899000Y-43166142D01*
X132851380Y-43213761D01*
X132756142Y-43261380D01*
X132375190Y-43261380D01*
X132375190Y-42261380D01*
X132708523Y-42261380D01*
X132803761Y-42309000D01*
X132851380Y-42356619D01*
X132899000Y-42451857D01*
X132899000Y-42547095D01*
X132851380Y-42642333D01*
X132803761Y-42689952D01*
X132708523Y-42737571D01*
X132375190Y-42737571D01*
X133137095Y-43356619D02*
X133899000Y-43356619D01*
X134470428Y-42737571D02*
X134613285Y-42785190D01*
X134660904Y-42832809D01*
X134708523Y-42928047D01*
X134708523Y-43070904D01*
X134660904Y-43166142D01*
X134613285Y-43213761D01*
X134518047Y-43261380D01*
X134137095Y-43261380D01*
X134137095Y-42261380D01*
X134470428Y-42261380D01*
X134565666Y-42309000D01*
X134613285Y-42356619D01*
X134660904Y-42451857D01*
X134660904Y-42547095D01*
X134613285Y-42642333D01*
X134565666Y-42689952D01*
X134470428Y-42737571D01*
X134137095Y-42737571D01*
X134899000Y-43356619D02*
X135660904Y-43356619D01*
X135899000Y-43261380D02*
X135899000Y-42261380D01*
X136232333Y-42975666D01*
X136565666Y-42261380D01*
X136565666Y-43261380D01*
X137041857Y-43261380D02*
X137041857Y-42594714D01*
X137041857Y-42261380D02*
X136994238Y-42309000D01*
X137041857Y-42356619D01*
X137089476Y-42309000D01*
X137041857Y-42261380D01*
X137041857Y-42356619D01*
X137946619Y-43213761D02*
X137851380Y-43261380D01*
X137660904Y-43261380D01*
X137565666Y-43213761D01*
X137518047Y-43166142D01*
X137470428Y-43070904D01*
X137470428Y-42785190D01*
X137518047Y-42689952D01*
X137565666Y-42642333D01*
X137660904Y-42594714D01*
X137851380Y-42594714D01*
X137946619Y-42642333D01*
X138375190Y-43261380D02*
X138375190Y-42594714D01*
X138375190Y-42785190D02*
X138422809Y-42689952D01*
X138470428Y-42642333D01*
X138565666Y-42594714D01*
X138660904Y-42594714D01*
X139137095Y-43261380D02*
X139041857Y-43213761D01*
X138994238Y-43166142D01*
X138946619Y-43070904D01*
X138946619Y-42785190D01*
X138994238Y-42689952D01*
X139041857Y-42642333D01*
X139137095Y-42594714D01*
X139279952Y-42594714D01*
X139375190Y-42642333D01*
X139422809Y-42689952D01*
X139470428Y-42785190D01*
X139470428Y-43070904D01*
X139422809Y-43166142D01*
X139375190Y-43213761D01*
X139279952Y-43261380D01*
X139137095Y-43261380D01*
X134565666Y-46711380D02*
X134565666Y-47425666D01*
X134518047Y-47568523D01*
X134422809Y-47663761D01*
X134279952Y-47711380D01*
X134184714Y-47711380D01*
X134994238Y-46806619D02*
X135041857Y-46759000D01*
X135137095Y-46711380D01*
X135375190Y-46711380D01*
X135470428Y-46759000D01*
X135518047Y-46806619D01*
X135565666Y-46901857D01*
X135565666Y-46997095D01*
X135518047Y-47139952D01*
X134946619Y-47711380D01*
X135565666Y-47711380D01*
G04 #@! TO.C,J3*
X144232380Y-75263333D02*
X144946666Y-75263333D01*
X145089523Y-75310952D01*
X145184761Y-75406190D01*
X145232380Y-75549047D01*
X145232380Y-75644285D01*
X144232380Y-74882380D02*
X144232380Y-74263333D01*
X144613333Y-74596666D01*
X144613333Y-74453809D01*
X144660952Y-74358571D01*
X144708571Y-74310952D01*
X144803809Y-74263333D01*
X145041904Y-74263333D01*
X145137142Y-74310952D01*
X145184761Y-74358571D01*
X145232380Y-74453809D01*
X145232380Y-74739523D01*
X145184761Y-74834761D01*
X145137142Y-74882380D01*
G04 #@! TO.C,J4*
X128238333Y-87987142D02*
X128190714Y-88034761D01*
X128047857Y-88082380D01*
X127952619Y-88082380D01*
X127809761Y-88034761D01*
X127714523Y-87939523D01*
X127666904Y-87844285D01*
X127619285Y-87653809D01*
X127619285Y-87510952D01*
X127666904Y-87320476D01*
X127714523Y-87225238D01*
X127809761Y-87130000D01*
X127952619Y-87082380D01*
X128047857Y-87082380D01*
X128190714Y-87130000D01*
X128238333Y-87177619D01*
X128619285Y-87177619D02*
X128666904Y-87130000D01*
X128762142Y-87082380D01*
X129000238Y-87082380D01*
X129095476Y-87130000D01*
X129143095Y-87177619D01*
X129190714Y-87272857D01*
X129190714Y-87368095D01*
X129143095Y-87510952D01*
X128571666Y-88082380D01*
X129190714Y-88082380D01*
X129619285Y-88082380D02*
X129619285Y-87082380D01*
X129857380Y-87082380D01*
X130000238Y-87130000D01*
X130095476Y-87225238D01*
X130143095Y-87320476D01*
X130190714Y-87510952D01*
X130190714Y-87653809D01*
X130143095Y-87844285D01*
X130095476Y-87939523D01*
X130000238Y-88034761D01*
X129857380Y-88082380D01*
X129619285Y-88082380D01*
X134286666Y-87082380D02*
X134286666Y-87796666D01*
X134239047Y-87939523D01*
X134143809Y-88034761D01*
X134000952Y-88082380D01*
X133905714Y-88082380D01*
X135191428Y-87415714D02*
X135191428Y-88082380D01*
X134953333Y-87034761D02*
X134715238Y-87749047D01*
X135334285Y-87749047D01*
G04 #@! TO.C,J5*
X123912380Y-70183333D02*
X124626666Y-70183333D01*
X124769523Y-70230952D01*
X124864761Y-70326190D01*
X124912380Y-70469047D01*
X124912380Y-70564285D01*
X123912380Y-69230952D02*
X123912380Y-69707142D01*
X124388571Y-69754761D01*
X124340952Y-69707142D01*
X124293333Y-69611904D01*
X124293333Y-69373809D01*
X124340952Y-69278571D01*
X124388571Y-69230952D01*
X124483809Y-69183333D01*
X124721904Y-69183333D01*
X124817142Y-69230952D01*
X124864761Y-69278571D01*
X124912380Y-69373809D01*
X124912380Y-69611904D01*
X124864761Y-69707142D01*
X124817142Y-69754761D01*
G04 #@! TO.C,R2*
X134500952Y-80302380D02*
X133929523Y-80302380D01*
X134215238Y-80302380D02*
X134215238Y-79302380D01*
X134120000Y-79445238D01*
X134024761Y-79540476D01*
X133929523Y-79588095D01*
X134929523Y-80302380D02*
X134929523Y-79302380D01*
X135024761Y-79921428D02*
X135310476Y-80302380D01*
X135310476Y-79635714D02*
X134929523Y-80016666D01*
D13*
X134553333Y-81460952D02*
X134420000Y-81270476D01*
X134324761Y-81460952D02*
X134324761Y-81060952D01*
X134477142Y-81060952D01*
X134515238Y-81080000D01*
X134534285Y-81099047D01*
X134553333Y-81137142D01*
X134553333Y-81194285D01*
X134534285Y-81232380D01*
X134515238Y-81251428D01*
X134477142Y-81270476D01*
X134324761Y-81270476D01*
X134705714Y-81099047D02*
X134724761Y-81080000D01*
X134762857Y-81060952D01*
X134858095Y-81060952D01*
X134896190Y-81080000D01*
X134915238Y-81099047D01*
X134934285Y-81137142D01*
X134934285Y-81175238D01*
X134915238Y-81232380D01*
X134686666Y-81460952D01*
X134934285Y-81460952D01*
G04 #@! TO.C,R5*
D10*
X138120571Y-77668380D02*
X137549142Y-77668380D01*
X137834857Y-77668380D02*
X137834857Y-76668380D01*
X137739619Y-76811238D01*
X137644380Y-76906476D01*
X137549142Y-76954095D01*
X138739619Y-76668380D02*
X138834857Y-76668380D01*
X138930095Y-76716000D01*
X138977714Y-76763619D01*
X139025333Y-76858857D01*
X139072952Y-77049333D01*
X139072952Y-77287428D01*
X139025333Y-77477904D01*
X138977714Y-77573142D01*
X138930095Y-77620761D01*
X138834857Y-77668380D01*
X138739619Y-77668380D01*
X138644380Y-77620761D01*
X138596761Y-77573142D01*
X138549142Y-77477904D01*
X138501523Y-77287428D01*
X138501523Y-77049333D01*
X138549142Y-76858857D01*
X138596761Y-76763619D01*
X138644380Y-76716000D01*
X138739619Y-76668380D01*
X139692000Y-76668380D02*
X139787238Y-76668380D01*
X139882476Y-76716000D01*
X139930095Y-76763619D01*
X139977714Y-76858857D01*
X140025333Y-77049333D01*
X140025333Y-77287428D01*
X139977714Y-77477904D01*
X139930095Y-77573142D01*
X139882476Y-77620761D01*
X139787238Y-77668380D01*
X139692000Y-77668380D01*
X139596761Y-77620761D01*
X139549142Y-77573142D01*
X139501523Y-77477904D01*
X139453904Y-77287428D01*
X139453904Y-77049333D01*
X139501523Y-76858857D01*
X139549142Y-76763619D01*
X139596761Y-76716000D01*
X139692000Y-76668380D01*
X140453904Y-77668380D02*
X140453904Y-76668380D01*
X140549142Y-77287428D02*
X140834857Y-77668380D01*
X140834857Y-77001714D02*
X140453904Y-77382666D01*
D13*
X141785952Y-77384166D02*
X141595476Y-77517500D01*
X141785952Y-77612738D02*
X141385952Y-77612738D01*
X141385952Y-77460357D01*
X141405000Y-77422261D01*
X141424047Y-77403214D01*
X141462142Y-77384166D01*
X141519285Y-77384166D01*
X141557380Y-77403214D01*
X141576428Y-77422261D01*
X141595476Y-77460357D01*
X141595476Y-77612738D01*
X141385952Y-77022261D02*
X141385952Y-77212738D01*
X141576428Y-77231785D01*
X141557380Y-77212738D01*
X141538333Y-77174642D01*
X141538333Y-77079404D01*
X141557380Y-77041309D01*
X141576428Y-77022261D01*
X141614523Y-77003214D01*
X141709761Y-77003214D01*
X141747857Y-77022261D01*
X141766904Y-77041309D01*
X141785952Y-77079404D01*
X141785952Y-77174642D01*
X141766904Y-77212738D01*
X141747857Y-77231785D01*
G04 #@! TO.C,R7*
D10*
X138945952Y-58237380D02*
X138374523Y-58237380D01*
X138660238Y-58237380D02*
X138660238Y-57237380D01*
X138565000Y-57380238D01*
X138469761Y-57475476D01*
X138374523Y-57523095D01*
X139374523Y-58237380D02*
X139374523Y-57237380D01*
X139469761Y-57856428D02*
X139755476Y-58237380D01*
X139755476Y-57570714D02*
X139374523Y-57951666D01*
D13*
X140903333Y-57965952D02*
X140770000Y-57775476D01*
X140674761Y-57965952D02*
X140674761Y-57565952D01*
X140827142Y-57565952D01*
X140865238Y-57585000D01*
X140884285Y-57604047D01*
X140903333Y-57642142D01*
X140903333Y-57699285D01*
X140884285Y-57737380D01*
X140865238Y-57756428D01*
X140827142Y-57775476D01*
X140674761Y-57775476D01*
X141036666Y-57565952D02*
X141303333Y-57565952D01*
X141131904Y-57965952D01*
G04 #@! TO.C,R8*
D10*
X137279238Y-68127619D02*
X137326857Y-68080000D01*
X137422095Y-68032380D01*
X137660190Y-68032380D01*
X137755428Y-68080000D01*
X137803047Y-68127619D01*
X137850666Y-68222857D01*
X137850666Y-68318095D01*
X137803047Y-68460952D01*
X137231619Y-69032380D01*
X137850666Y-69032380D01*
X138279238Y-68937142D02*
X138326857Y-68984761D01*
X138279238Y-69032380D01*
X138231619Y-68984761D01*
X138279238Y-68937142D01*
X138279238Y-69032380D01*
X138707809Y-68127619D02*
X138755428Y-68080000D01*
X138850666Y-68032380D01*
X139088761Y-68032380D01*
X139184000Y-68080000D01*
X139231619Y-68127619D01*
X139279238Y-68222857D01*
X139279238Y-68318095D01*
X139231619Y-68460952D01*
X138660190Y-69032380D01*
X139279238Y-69032380D01*
X139707809Y-69032380D02*
X139707809Y-68032380D01*
X139803047Y-68651428D02*
X140088761Y-69032380D01*
X140088761Y-68365714D02*
X139707809Y-68746666D01*
D13*
X141182833Y-68760952D02*
X141049500Y-68570476D01*
X140954261Y-68760952D02*
X140954261Y-68360952D01*
X141106642Y-68360952D01*
X141144738Y-68380000D01*
X141163785Y-68399047D01*
X141182833Y-68437142D01*
X141182833Y-68494285D01*
X141163785Y-68532380D01*
X141144738Y-68551428D01*
X141106642Y-68570476D01*
X140954261Y-68570476D01*
X141411404Y-68532380D02*
X141373309Y-68513333D01*
X141354261Y-68494285D01*
X141335214Y-68456190D01*
X141335214Y-68437142D01*
X141354261Y-68399047D01*
X141373309Y-68380000D01*
X141411404Y-68360952D01*
X141487595Y-68360952D01*
X141525690Y-68380000D01*
X141544738Y-68399047D01*
X141563785Y-68437142D01*
X141563785Y-68456190D01*
X141544738Y-68494285D01*
X141525690Y-68513333D01*
X141487595Y-68532380D01*
X141411404Y-68532380D01*
X141373309Y-68551428D01*
X141354261Y-68570476D01*
X141335214Y-68608571D01*
X141335214Y-68684761D01*
X141354261Y-68722857D01*
X141373309Y-68741904D01*
X141411404Y-68760952D01*
X141487595Y-68760952D01*
X141525690Y-68741904D01*
X141544738Y-68722857D01*
X141563785Y-68684761D01*
X141563785Y-68608571D01*
X141544738Y-68570476D01*
X141525690Y-68551428D01*
X141487595Y-68532380D01*
G04 #@! TO.C,SW1*
D10*
X133167619Y-95662380D02*
X132834285Y-95186190D01*
X132596190Y-95662380D02*
X132596190Y-94662380D01*
X132977142Y-94662380D01*
X133072380Y-94710000D01*
X133120000Y-94757619D01*
X133167619Y-94852857D01*
X133167619Y-94995714D01*
X133120000Y-95090952D01*
X133072380Y-95138571D01*
X132977142Y-95186190D01*
X132596190Y-95186190D01*
X133596190Y-95138571D02*
X133929523Y-95138571D01*
X134072380Y-95662380D02*
X133596190Y-95662380D01*
X133596190Y-94662380D01*
X134072380Y-94662380D01*
X134453333Y-95614761D02*
X134596190Y-95662380D01*
X134834285Y-95662380D01*
X134929523Y-95614761D01*
X134977142Y-95567142D01*
X135024761Y-95471904D01*
X135024761Y-95376666D01*
X134977142Y-95281428D01*
X134929523Y-95233809D01*
X134834285Y-95186190D01*
X134643809Y-95138571D01*
X134548571Y-95090952D01*
X134500952Y-95043333D01*
X134453333Y-94948095D01*
X134453333Y-94852857D01*
X134500952Y-94757619D01*
X134548571Y-94710000D01*
X134643809Y-94662380D01*
X134881904Y-94662380D01*
X135024761Y-94710000D01*
X135453333Y-95138571D02*
X135786666Y-95138571D01*
X135929523Y-95662380D02*
X135453333Y-95662380D01*
X135453333Y-94662380D01*
X135929523Y-94662380D01*
X136215238Y-94662380D02*
X136786666Y-94662380D01*
X136500952Y-95662380D02*
X136500952Y-94662380D01*
X136461666Y-93114761D02*
X136604523Y-93162380D01*
X136842619Y-93162380D01*
X136937857Y-93114761D01*
X136985476Y-93067142D01*
X137033095Y-92971904D01*
X137033095Y-92876666D01*
X136985476Y-92781428D01*
X136937857Y-92733809D01*
X136842619Y-92686190D01*
X136652142Y-92638571D01*
X136556904Y-92590952D01*
X136509285Y-92543333D01*
X136461666Y-92448095D01*
X136461666Y-92352857D01*
X136509285Y-92257619D01*
X136556904Y-92210000D01*
X136652142Y-92162380D01*
X136890238Y-92162380D01*
X137033095Y-92210000D01*
X137366428Y-92162380D02*
X137604523Y-93162380D01*
X137795000Y-92448095D01*
X137985476Y-93162380D01*
X138223571Y-92162380D01*
X139128333Y-93162380D02*
X138556904Y-93162380D01*
X138842619Y-93162380D02*
X138842619Y-92162380D01*
X138747380Y-92305238D01*
X138652142Y-92400476D01*
X138556904Y-92448095D01*
G04 #@! TD*
M02*
