G04 #@! TF.GenerationSoftware,KiCad,Pcbnew,5.0.2+dfsg1-1*
G04 #@! TF.CreationDate,2019-04-15T18:08:30-07:00*
G04 #@! TF.ProjectId,feather51,66656174-6865-4723-9531-2e6b69636164,A*
G04 #@! TF.SameCoordinates,Original*
G04 #@! TF.FileFunction,Copper,L2,Bot*
G04 #@! TF.FilePolarity,Positive*
%FSLAX46Y46*%
G04 Gerber Fmt 4.6, Leading zero omitted, Abs format (unit mm)*
G04 Created by KiCad (PCBNEW 5.0.2+dfsg1-1) date Mon 15 Apr 2019 06:08:30 PM PDT*
%MOMM*%
%LPD*%
G01*
G04 APERTURE LIST*
G04 #@! TA.AperFunction,SMDPad,CuDef*
%ADD10R,2.650000X1.750000*%
G04 #@! TD*
G04 #@! TA.AperFunction,SMDPad,CuDef*
%ADD11R,1.750000X2.650000*%
G04 #@! TD*
G04 #@! TA.AperFunction,Conductor*
%ADD12C,0.100000*%
G04 #@! TD*
G04 #@! TA.AperFunction,ComponentPad*
%ADD13C,1.200000*%
G04 #@! TD*
G04 #@! TA.AperFunction,ComponentPad*
%ADD14O,1.750000X1.200000*%
G04 #@! TD*
G04 #@! TA.AperFunction,SMDPad,CuDef*
%ADD15C,0.975000*%
G04 #@! TD*
G04 #@! TA.AperFunction,ComponentPad*
%ADD16O,1.100000X1.500000*%
G04 #@! TD*
G04 #@! TA.AperFunction,ComponentPad*
%ADD17O,1.350000X1.700000*%
G04 #@! TD*
G04 #@! TA.AperFunction,ComponentPad*
%ADD18O,1.700000X1.700000*%
G04 #@! TD*
G04 #@! TA.AperFunction,ComponentPad*
%ADD19R,1.700000X1.700000*%
G04 #@! TD*
G04 #@! TA.AperFunction,SMDPad,CuDef*
%ADD20C,0.875000*%
G04 #@! TD*
G04 #@! TA.AperFunction,SMDPad,CuDef*
%ADD21R,1.060000X0.650000*%
G04 #@! TD*
G04 #@! TA.AperFunction,SMDPad,CuDef*
%ADD22C,0.250000*%
G04 #@! TD*
G04 #@! TA.AperFunction,SMDPad,CuDef*
%ADD23C,3.350000*%
G04 #@! TD*
G04 #@! TA.AperFunction,SMDPad,CuDef*
%ADD24R,0.650000X1.060000*%
G04 #@! TD*
G04 #@! TA.AperFunction,ViaPad*
%ADD25C,0.685800*%
G04 #@! TD*
G04 #@! TA.AperFunction,Conductor*
%ADD26C,0.152400*%
G04 #@! TD*
G04 #@! TA.AperFunction,Conductor*
%ADD27C,0.254000*%
G04 #@! TD*
G04 APERTURE END LIST*
D10*
G04 #@! TO.P,D2,1*
G04 #@! TO.N,/D+*
X137287000Y-60833000D03*
G04 #@! TO.P,D2,2*
G04 #@! TO.N,GND*
X141587000Y-60833000D03*
G04 #@! TD*
D11*
G04 #@! TO.P,D1,1*
G04 #@! TO.N,VBUS*
X133985000Y-56515000D03*
G04 #@! TO.P,D1,2*
G04 #@! TO.N,/VBAT*
X133985000Y-60815000D03*
G04 #@! TD*
D12*
G04 #@! TO.N,GND*
G04 #@! TO.C,J1*
G36*
X141619505Y-53376204D02*
X141643773Y-53379804D01*
X141667572Y-53385765D01*
X141690671Y-53394030D01*
X141712850Y-53404520D01*
X141733893Y-53417132D01*
X141753599Y-53431747D01*
X141771777Y-53448223D01*
X141788253Y-53466401D01*
X141802868Y-53486107D01*
X141815480Y-53507150D01*
X141825970Y-53529329D01*
X141834235Y-53552428D01*
X141840196Y-53576227D01*
X141843796Y-53600495D01*
X141845000Y-53624999D01*
X141845000Y-54325001D01*
X141843796Y-54349505D01*
X141840196Y-54373773D01*
X141834235Y-54397572D01*
X141825970Y-54420671D01*
X141815480Y-54442850D01*
X141802868Y-54463893D01*
X141788253Y-54483599D01*
X141771777Y-54501777D01*
X141753599Y-54518253D01*
X141733893Y-54532868D01*
X141712850Y-54545480D01*
X141690671Y-54555970D01*
X141667572Y-54564235D01*
X141643773Y-54570196D01*
X141619505Y-54573796D01*
X141595001Y-54575000D01*
X140344999Y-54575000D01*
X140320495Y-54573796D01*
X140296227Y-54570196D01*
X140272428Y-54564235D01*
X140249329Y-54555970D01*
X140227150Y-54545480D01*
X140206107Y-54532868D01*
X140186401Y-54518253D01*
X140168223Y-54501777D01*
X140151747Y-54483599D01*
X140137132Y-54463893D01*
X140124520Y-54442850D01*
X140114030Y-54420671D01*
X140105765Y-54397572D01*
X140099804Y-54373773D01*
X140096204Y-54349505D01*
X140095000Y-54325001D01*
X140095000Y-53624999D01*
X140096204Y-53600495D01*
X140099804Y-53576227D01*
X140105765Y-53552428D01*
X140114030Y-53529329D01*
X140124520Y-53507150D01*
X140137132Y-53486107D01*
X140151747Y-53466401D01*
X140168223Y-53448223D01*
X140186401Y-53431747D01*
X140206107Y-53417132D01*
X140227150Y-53404520D01*
X140249329Y-53394030D01*
X140272428Y-53385765D01*
X140296227Y-53379804D01*
X140320495Y-53376204D01*
X140344999Y-53375000D01*
X141595001Y-53375000D01*
X141619505Y-53376204D01*
X141619505Y-53376204D01*
G37*
D13*
G04 #@! TD*
G04 #@! TO.P,J1,1*
G04 #@! TO.N,GND*
X140970000Y-53975000D03*
D14*
G04 #@! TO.P,J1,2*
G04 #@! TO.N,/VBAT*
X140970000Y-51975000D03*
G04 #@! TD*
D12*
G04 #@! TO.N,GND*
G04 #@! TO.C,C1*
G36*
X130274142Y-48106174D02*
X130297803Y-48109684D01*
X130321007Y-48115496D01*
X130343529Y-48123554D01*
X130365153Y-48133782D01*
X130385670Y-48146079D01*
X130404883Y-48160329D01*
X130422607Y-48176393D01*
X130438671Y-48194117D01*
X130452921Y-48213330D01*
X130465218Y-48233847D01*
X130475446Y-48255471D01*
X130483504Y-48277993D01*
X130489316Y-48301197D01*
X130492826Y-48324858D01*
X130494000Y-48348750D01*
X130494000Y-48836250D01*
X130492826Y-48860142D01*
X130489316Y-48883803D01*
X130483504Y-48907007D01*
X130475446Y-48929529D01*
X130465218Y-48951153D01*
X130452921Y-48971670D01*
X130438671Y-48990883D01*
X130422607Y-49008607D01*
X130404883Y-49024671D01*
X130385670Y-49038921D01*
X130365153Y-49051218D01*
X130343529Y-49061446D01*
X130321007Y-49069504D01*
X130297803Y-49075316D01*
X130274142Y-49078826D01*
X130250250Y-49080000D01*
X129337750Y-49080000D01*
X129313858Y-49078826D01*
X129290197Y-49075316D01*
X129266993Y-49069504D01*
X129244471Y-49061446D01*
X129222847Y-49051218D01*
X129202330Y-49038921D01*
X129183117Y-49024671D01*
X129165393Y-49008607D01*
X129149329Y-48990883D01*
X129135079Y-48971670D01*
X129122782Y-48951153D01*
X129112554Y-48929529D01*
X129104496Y-48907007D01*
X129098684Y-48883803D01*
X129095174Y-48860142D01*
X129094000Y-48836250D01*
X129094000Y-48348750D01*
X129095174Y-48324858D01*
X129098684Y-48301197D01*
X129104496Y-48277993D01*
X129112554Y-48255471D01*
X129122782Y-48233847D01*
X129135079Y-48213330D01*
X129149329Y-48194117D01*
X129165393Y-48176393D01*
X129183117Y-48160329D01*
X129202330Y-48146079D01*
X129222847Y-48133782D01*
X129244471Y-48123554D01*
X129266993Y-48115496D01*
X129290197Y-48109684D01*
X129313858Y-48106174D01*
X129337750Y-48105000D01*
X130250250Y-48105000D01*
X130274142Y-48106174D01*
X130274142Y-48106174D01*
G37*
D15*
G04 #@! TD*
G04 #@! TO.P,C1,2*
G04 #@! TO.N,GND*
X129794000Y-48592500D03*
D12*
G04 #@! TO.N,VBUS*
G04 #@! TO.C,C1*
G36*
X130274142Y-49981174D02*
X130297803Y-49984684D01*
X130321007Y-49990496D01*
X130343529Y-49998554D01*
X130365153Y-50008782D01*
X130385670Y-50021079D01*
X130404883Y-50035329D01*
X130422607Y-50051393D01*
X130438671Y-50069117D01*
X130452921Y-50088330D01*
X130465218Y-50108847D01*
X130475446Y-50130471D01*
X130483504Y-50152993D01*
X130489316Y-50176197D01*
X130492826Y-50199858D01*
X130494000Y-50223750D01*
X130494000Y-50711250D01*
X130492826Y-50735142D01*
X130489316Y-50758803D01*
X130483504Y-50782007D01*
X130475446Y-50804529D01*
X130465218Y-50826153D01*
X130452921Y-50846670D01*
X130438671Y-50865883D01*
X130422607Y-50883607D01*
X130404883Y-50899671D01*
X130385670Y-50913921D01*
X130365153Y-50926218D01*
X130343529Y-50936446D01*
X130321007Y-50944504D01*
X130297803Y-50950316D01*
X130274142Y-50953826D01*
X130250250Y-50955000D01*
X129337750Y-50955000D01*
X129313858Y-50953826D01*
X129290197Y-50950316D01*
X129266993Y-50944504D01*
X129244471Y-50936446D01*
X129222847Y-50926218D01*
X129202330Y-50913921D01*
X129183117Y-50899671D01*
X129165393Y-50883607D01*
X129149329Y-50865883D01*
X129135079Y-50846670D01*
X129122782Y-50826153D01*
X129112554Y-50804529D01*
X129104496Y-50782007D01*
X129098684Y-50758803D01*
X129095174Y-50735142D01*
X129094000Y-50711250D01*
X129094000Y-50223750D01*
X129095174Y-50199858D01*
X129098684Y-50176197D01*
X129104496Y-50152993D01*
X129112554Y-50130471D01*
X129122782Y-50108847D01*
X129135079Y-50088330D01*
X129149329Y-50069117D01*
X129165393Y-50051393D01*
X129183117Y-50035329D01*
X129202330Y-50021079D01*
X129222847Y-50008782D01*
X129244471Y-49998554D01*
X129266993Y-49990496D01*
X129290197Y-49984684D01*
X129313858Y-49981174D01*
X129337750Y-49980000D01*
X130250250Y-49980000D01*
X130274142Y-49981174D01*
X130274142Y-49981174D01*
G37*
D15*
G04 #@! TD*
G04 #@! TO.P,C1,1*
G04 #@! TO.N,VBUS*
X129794000Y-50467500D03*
D12*
G04 #@! TO.N,+3V3*
G04 #@! TO.C,C2*
G36*
X129807642Y-55816174D02*
X129831303Y-55819684D01*
X129854507Y-55825496D01*
X129877029Y-55833554D01*
X129898653Y-55843782D01*
X129919170Y-55856079D01*
X129938383Y-55870329D01*
X129956107Y-55886393D01*
X129972171Y-55904117D01*
X129986421Y-55923330D01*
X129998718Y-55943847D01*
X130008946Y-55965471D01*
X130017004Y-55987993D01*
X130022816Y-56011197D01*
X130026326Y-56034858D01*
X130027500Y-56058750D01*
X130027500Y-56971250D01*
X130026326Y-56995142D01*
X130022816Y-57018803D01*
X130017004Y-57042007D01*
X130008946Y-57064529D01*
X129998718Y-57086153D01*
X129986421Y-57106670D01*
X129972171Y-57125883D01*
X129956107Y-57143607D01*
X129938383Y-57159671D01*
X129919170Y-57173921D01*
X129898653Y-57186218D01*
X129877029Y-57196446D01*
X129854507Y-57204504D01*
X129831303Y-57210316D01*
X129807642Y-57213826D01*
X129783750Y-57215000D01*
X129296250Y-57215000D01*
X129272358Y-57213826D01*
X129248697Y-57210316D01*
X129225493Y-57204504D01*
X129202971Y-57196446D01*
X129181347Y-57186218D01*
X129160830Y-57173921D01*
X129141617Y-57159671D01*
X129123893Y-57143607D01*
X129107829Y-57125883D01*
X129093579Y-57106670D01*
X129081282Y-57086153D01*
X129071054Y-57064529D01*
X129062996Y-57042007D01*
X129057184Y-57018803D01*
X129053674Y-56995142D01*
X129052500Y-56971250D01*
X129052500Y-56058750D01*
X129053674Y-56034858D01*
X129057184Y-56011197D01*
X129062996Y-55987993D01*
X129071054Y-55965471D01*
X129081282Y-55943847D01*
X129093579Y-55923330D01*
X129107829Y-55904117D01*
X129123893Y-55886393D01*
X129141617Y-55870329D01*
X129160830Y-55856079D01*
X129181347Y-55843782D01*
X129202971Y-55833554D01*
X129225493Y-55825496D01*
X129248697Y-55819684D01*
X129272358Y-55816174D01*
X129296250Y-55815000D01*
X129783750Y-55815000D01*
X129807642Y-55816174D01*
X129807642Y-55816174D01*
G37*
D15*
G04 #@! TD*
G04 #@! TO.P,C2,1*
G04 #@! TO.N,+3V3*
X129540000Y-56515000D03*
D12*
G04 #@! TO.N,GND*
G04 #@! TO.C,C2*
G36*
X131682642Y-55816174D02*
X131706303Y-55819684D01*
X131729507Y-55825496D01*
X131752029Y-55833554D01*
X131773653Y-55843782D01*
X131794170Y-55856079D01*
X131813383Y-55870329D01*
X131831107Y-55886393D01*
X131847171Y-55904117D01*
X131861421Y-55923330D01*
X131873718Y-55943847D01*
X131883946Y-55965471D01*
X131892004Y-55987993D01*
X131897816Y-56011197D01*
X131901326Y-56034858D01*
X131902500Y-56058750D01*
X131902500Y-56971250D01*
X131901326Y-56995142D01*
X131897816Y-57018803D01*
X131892004Y-57042007D01*
X131883946Y-57064529D01*
X131873718Y-57086153D01*
X131861421Y-57106670D01*
X131847171Y-57125883D01*
X131831107Y-57143607D01*
X131813383Y-57159671D01*
X131794170Y-57173921D01*
X131773653Y-57186218D01*
X131752029Y-57196446D01*
X131729507Y-57204504D01*
X131706303Y-57210316D01*
X131682642Y-57213826D01*
X131658750Y-57215000D01*
X131171250Y-57215000D01*
X131147358Y-57213826D01*
X131123697Y-57210316D01*
X131100493Y-57204504D01*
X131077971Y-57196446D01*
X131056347Y-57186218D01*
X131035830Y-57173921D01*
X131016617Y-57159671D01*
X130998893Y-57143607D01*
X130982829Y-57125883D01*
X130968579Y-57106670D01*
X130956282Y-57086153D01*
X130946054Y-57064529D01*
X130937996Y-57042007D01*
X130932184Y-57018803D01*
X130928674Y-56995142D01*
X130927500Y-56971250D01*
X130927500Y-56058750D01*
X130928674Y-56034858D01*
X130932184Y-56011197D01*
X130937996Y-55987993D01*
X130946054Y-55965471D01*
X130956282Y-55943847D01*
X130968579Y-55923330D01*
X130982829Y-55904117D01*
X130998893Y-55886393D01*
X131016617Y-55870329D01*
X131035830Y-55856079D01*
X131056347Y-55843782D01*
X131077971Y-55833554D01*
X131100493Y-55825496D01*
X131123697Y-55819684D01*
X131147358Y-55816174D01*
X131171250Y-55815000D01*
X131658750Y-55815000D01*
X131682642Y-55816174D01*
X131682642Y-55816174D01*
G37*
D15*
G04 #@! TD*
G04 #@! TO.P,C2,2*
G04 #@! TO.N,GND*
X131415000Y-56515000D03*
D12*
G04 #@! TO.N,GND*
G04 #@! TO.C,C3*
G36*
X131682642Y-57848174D02*
X131706303Y-57851684D01*
X131729507Y-57857496D01*
X131752029Y-57865554D01*
X131773653Y-57875782D01*
X131794170Y-57888079D01*
X131813383Y-57902329D01*
X131831107Y-57918393D01*
X131847171Y-57936117D01*
X131861421Y-57955330D01*
X131873718Y-57975847D01*
X131883946Y-57997471D01*
X131892004Y-58019993D01*
X131897816Y-58043197D01*
X131901326Y-58066858D01*
X131902500Y-58090750D01*
X131902500Y-59003250D01*
X131901326Y-59027142D01*
X131897816Y-59050803D01*
X131892004Y-59074007D01*
X131883946Y-59096529D01*
X131873718Y-59118153D01*
X131861421Y-59138670D01*
X131847171Y-59157883D01*
X131831107Y-59175607D01*
X131813383Y-59191671D01*
X131794170Y-59205921D01*
X131773653Y-59218218D01*
X131752029Y-59228446D01*
X131729507Y-59236504D01*
X131706303Y-59242316D01*
X131682642Y-59245826D01*
X131658750Y-59247000D01*
X131171250Y-59247000D01*
X131147358Y-59245826D01*
X131123697Y-59242316D01*
X131100493Y-59236504D01*
X131077971Y-59228446D01*
X131056347Y-59218218D01*
X131035830Y-59205921D01*
X131016617Y-59191671D01*
X130998893Y-59175607D01*
X130982829Y-59157883D01*
X130968579Y-59138670D01*
X130956282Y-59118153D01*
X130946054Y-59096529D01*
X130937996Y-59074007D01*
X130932184Y-59050803D01*
X130928674Y-59027142D01*
X130927500Y-59003250D01*
X130927500Y-58090750D01*
X130928674Y-58066858D01*
X130932184Y-58043197D01*
X130937996Y-58019993D01*
X130946054Y-57997471D01*
X130956282Y-57975847D01*
X130968579Y-57955330D01*
X130982829Y-57936117D01*
X130998893Y-57918393D01*
X131016617Y-57902329D01*
X131035830Y-57888079D01*
X131056347Y-57875782D01*
X131077971Y-57865554D01*
X131100493Y-57857496D01*
X131123697Y-57851684D01*
X131147358Y-57848174D01*
X131171250Y-57847000D01*
X131658750Y-57847000D01*
X131682642Y-57848174D01*
X131682642Y-57848174D01*
G37*
D15*
G04 #@! TD*
G04 #@! TO.P,C3,2*
G04 #@! TO.N,GND*
X131415000Y-58547000D03*
D12*
G04 #@! TO.N,+3V3*
G04 #@! TO.C,C3*
G36*
X129807642Y-57848174D02*
X129831303Y-57851684D01*
X129854507Y-57857496D01*
X129877029Y-57865554D01*
X129898653Y-57875782D01*
X129919170Y-57888079D01*
X129938383Y-57902329D01*
X129956107Y-57918393D01*
X129972171Y-57936117D01*
X129986421Y-57955330D01*
X129998718Y-57975847D01*
X130008946Y-57997471D01*
X130017004Y-58019993D01*
X130022816Y-58043197D01*
X130026326Y-58066858D01*
X130027500Y-58090750D01*
X130027500Y-59003250D01*
X130026326Y-59027142D01*
X130022816Y-59050803D01*
X130017004Y-59074007D01*
X130008946Y-59096529D01*
X129998718Y-59118153D01*
X129986421Y-59138670D01*
X129972171Y-59157883D01*
X129956107Y-59175607D01*
X129938383Y-59191671D01*
X129919170Y-59205921D01*
X129898653Y-59218218D01*
X129877029Y-59228446D01*
X129854507Y-59236504D01*
X129831303Y-59242316D01*
X129807642Y-59245826D01*
X129783750Y-59247000D01*
X129296250Y-59247000D01*
X129272358Y-59245826D01*
X129248697Y-59242316D01*
X129225493Y-59236504D01*
X129202971Y-59228446D01*
X129181347Y-59218218D01*
X129160830Y-59205921D01*
X129141617Y-59191671D01*
X129123893Y-59175607D01*
X129107829Y-59157883D01*
X129093579Y-59138670D01*
X129081282Y-59118153D01*
X129071054Y-59096529D01*
X129062996Y-59074007D01*
X129057184Y-59050803D01*
X129053674Y-59027142D01*
X129052500Y-59003250D01*
X129052500Y-58090750D01*
X129053674Y-58066858D01*
X129057184Y-58043197D01*
X129062996Y-58019993D01*
X129071054Y-57997471D01*
X129081282Y-57975847D01*
X129093579Y-57955330D01*
X129107829Y-57936117D01*
X129123893Y-57918393D01*
X129141617Y-57902329D01*
X129160830Y-57888079D01*
X129181347Y-57875782D01*
X129202971Y-57865554D01*
X129225493Y-57857496D01*
X129248697Y-57851684D01*
X129272358Y-57848174D01*
X129296250Y-57847000D01*
X129783750Y-57847000D01*
X129807642Y-57848174D01*
X129807642Y-57848174D01*
G37*
D15*
G04 #@! TD*
G04 #@! TO.P,C3,1*
G04 #@! TO.N,+3V3*
X129540000Y-58547000D03*
D12*
G04 #@! TO.N,+3V3*
G04 #@! TO.C,C4*
G36*
X138268142Y-64071174D02*
X138291803Y-64074684D01*
X138315007Y-64080496D01*
X138337529Y-64088554D01*
X138359153Y-64098782D01*
X138379670Y-64111079D01*
X138398883Y-64125329D01*
X138416607Y-64141393D01*
X138432671Y-64159117D01*
X138446921Y-64178330D01*
X138459218Y-64198847D01*
X138469446Y-64220471D01*
X138477504Y-64242993D01*
X138483316Y-64266197D01*
X138486826Y-64289858D01*
X138488000Y-64313750D01*
X138488000Y-65226250D01*
X138486826Y-65250142D01*
X138483316Y-65273803D01*
X138477504Y-65297007D01*
X138469446Y-65319529D01*
X138459218Y-65341153D01*
X138446921Y-65361670D01*
X138432671Y-65380883D01*
X138416607Y-65398607D01*
X138398883Y-65414671D01*
X138379670Y-65428921D01*
X138359153Y-65441218D01*
X138337529Y-65451446D01*
X138315007Y-65459504D01*
X138291803Y-65465316D01*
X138268142Y-65468826D01*
X138244250Y-65470000D01*
X137756750Y-65470000D01*
X137732858Y-65468826D01*
X137709197Y-65465316D01*
X137685993Y-65459504D01*
X137663471Y-65451446D01*
X137641847Y-65441218D01*
X137621330Y-65428921D01*
X137602117Y-65414671D01*
X137584393Y-65398607D01*
X137568329Y-65380883D01*
X137554079Y-65361670D01*
X137541782Y-65341153D01*
X137531554Y-65319529D01*
X137523496Y-65297007D01*
X137517684Y-65273803D01*
X137514174Y-65250142D01*
X137513000Y-65226250D01*
X137513000Y-64313750D01*
X137514174Y-64289858D01*
X137517684Y-64266197D01*
X137523496Y-64242993D01*
X137531554Y-64220471D01*
X137541782Y-64198847D01*
X137554079Y-64178330D01*
X137568329Y-64159117D01*
X137584393Y-64141393D01*
X137602117Y-64125329D01*
X137621330Y-64111079D01*
X137641847Y-64098782D01*
X137663471Y-64088554D01*
X137685993Y-64080496D01*
X137709197Y-64074684D01*
X137732858Y-64071174D01*
X137756750Y-64070000D01*
X138244250Y-64070000D01*
X138268142Y-64071174D01*
X138268142Y-64071174D01*
G37*
D15*
G04 #@! TD*
G04 #@! TO.P,C4,1*
G04 #@! TO.N,+3V3*
X138000500Y-64770000D03*
D12*
G04 #@! TO.N,GND*
G04 #@! TO.C,C4*
G36*
X140143142Y-64071174D02*
X140166803Y-64074684D01*
X140190007Y-64080496D01*
X140212529Y-64088554D01*
X140234153Y-64098782D01*
X140254670Y-64111079D01*
X140273883Y-64125329D01*
X140291607Y-64141393D01*
X140307671Y-64159117D01*
X140321921Y-64178330D01*
X140334218Y-64198847D01*
X140344446Y-64220471D01*
X140352504Y-64242993D01*
X140358316Y-64266197D01*
X140361826Y-64289858D01*
X140363000Y-64313750D01*
X140363000Y-65226250D01*
X140361826Y-65250142D01*
X140358316Y-65273803D01*
X140352504Y-65297007D01*
X140344446Y-65319529D01*
X140334218Y-65341153D01*
X140321921Y-65361670D01*
X140307671Y-65380883D01*
X140291607Y-65398607D01*
X140273883Y-65414671D01*
X140254670Y-65428921D01*
X140234153Y-65441218D01*
X140212529Y-65451446D01*
X140190007Y-65459504D01*
X140166803Y-65465316D01*
X140143142Y-65468826D01*
X140119250Y-65470000D01*
X139631750Y-65470000D01*
X139607858Y-65468826D01*
X139584197Y-65465316D01*
X139560993Y-65459504D01*
X139538471Y-65451446D01*
X139516847Y-65441218D01*
X139496330Y-65428921D01*
X139477117Y-65414671D01*
X139459393Y-65398607D01*
X139443329Y-65380883D01*
X139429079Y-65361670D01*
X139416782Y-65341153D01*
X139406554Y-65319529D01*
X139398496Y-65297007D01*
X139392684Y-65273803D01*
X139389174Y-65250142D01*
X139388000Y-65226250D01*
X139388000Y-64313750D01*
X139389174Y-64289858D01*
X139392684Y-64266197D01*
X139398496Y-64242993D01*
X139406554Y-64220471D01*
X139416782Y-64198847D01*
X139429079Y-64178330D01*
X139443329Y-64159117D01*
X139459393Y-64141393D01*
X139477117Y-64125329D01*
X139496330Y-64111079D01*
X139516847Y-64098782D01*
X139538471Y-64088554D01*
X139560993Y-64080496D01*
X139584197Y-64074684D01*
X139607858Y-64071174D01*
X139631750Y-64070000D01*
X140119250Y-64070000D01*
X140143142Y-64071174D01*
X140143142Y-64071174D01*
G37*
D15*
G04 #@! TD*
G04 #@! TO.P,C4,2*
G04 #@! TO.N,GND*
X139875500Y-64770000D03*
D12*
G04 #@! TO.N,GND*
G04 #@! TO.C,C5*
G36*
X140143142Y-66103174D02*
X140166803Y-66106684D01*
X140190007Y-66112496D01*
X140212529Y-66120554D01*
X140234153Y-66130782D01*
X140254670Y-66143079D01*
X140273883Y-66157329D01*
X140291607Y-66173393D01*
X140307671Y-66191117D01*
X140321921Y-66210330D01*
X140334218Y-66230847D01*
X140344446Y-66252471D01*
X140352504Y-66274993D01*
X140358316Y-66298197D01*
X140361826Y-66321858D01*
X140363000Y-66345750D01*
X140363000Y-67258250D01*
X140361826Y-67282142D01*
X140358316Y-67305803D01*
X140352504Y-67329007D01*
X140344446Y-67351529D01*
X140334218Y-67373153D01*
X140321921Y-67393670D01*
X140307671Y-67412883D01*
X140291607Y-67430607D01*
X140273883Y-67446671D01*
X140254670Y-67460921D01*
X140234153Y-67473218D01*
X140212529Y-67483446D01*
X140190007Y-67491504D01*
X140166803Y-67497316D01*
X140143142Y-67500826D01*
X140119250Y-67502000D01*
X139631750Y-67502000D01*
X139607858Y-67500826D01*
X139584197Y-67497316D01*
X139560993Y-67491504D01*
X139538471Y-67483446D01*
X139516847Y-67473218D01*
X139496330Y-67460921D01*
X139477117Y-67446671D01*
X139459393Y-67430607D01*
X139443329Y-67412883D01*
X139429079Y-67393670D01*
X139416782Y-67373153D01*
X139406554Y-67351529D01*
X139398496Y-67329007D01*
X139392684Y-67305803D01*
X139389174Y-67282142D01*
X139388000Y-67258250D01*
X139388000Y-66345750D01*
X139389174Y-66321858D01*
X139392684Y-66298197D01*
X139398496Y-66274993D01*
X139406554Y-66252471D01*
X139416782Y-66230847D01*
X139429079Y-66210330D01*
X139443329Y-66191117D01*
X139459393Y-66173393D01*
X139477117Y-66157329D01*
X139496330Y-66143079D01*
X139516847Y-66130782D01*
X139538471Y-66120554D01*
X139560993Y-66112496D01*
X139584197Y-66106684D01*
X139607858Y-66103174D01*
X139631750Y-66102000D01*
X140119250Y-66102000D01*
X140143142Y-66103174D01*
X140143142Y-66103174D01*
G37*
D15*
G04 #@! TD*
G04 #@! TO.P,C5,2*
G04 #@! TO.N,GND*
X139875500Y-66802000D03*
D12*
G04 #@! TO.N,+3V3*
G04 #@! TO.C,C5*
G36*
X138268142Y-66103174D02*
X138291803Y-66106684D01*
X138315007Y-66112496D01*
X138337529Y-66120554D01*
X138359153Y-66130782D01*
X138379670Y-66143079D01*
X138398883Y-66157329D01*
X138416607Y-66173393D01*
X138432671Y-66191117D01*
X138446921Y-66210330D01*
X138459218Y-66230847D01*
X138469446Y-66252471D01*
X138477504Y-66274993D01*
X138483316Y-66298197D01*
X138486826Y-66321858D01*
X138488000Y-66345750D01*
X138488000Y-67258250D01*
X138486826Y-67282142D01*
X138483316Y-67305803D01*
X138477504Y-67329007D01*
X138469446Y-67351529D01*
X138459218Y-67373153D01*
X138446921Y-67393670D01*
X138432671Y-67412883D01*
X138416607Y-67430607D01*
X138398883Y-67446671D01*
X138379670Y-67460921D01*
X138359153Y-67473218D01*
X138337529Y-67483446D01*
X138315007Y-67491504D01*
X138291803Y-67497316D01*
X138268142Y-67500826D01*
X138244250Y-67502000D01*
X137756750Y-67502000D01*
X137732858Y-67500826D01*
X137709197Y-67497316D01*
X137685993Y-67491504D01*
X137663471Y-67483446D01*
X137641847Y-67473218D01*
X137621330Y-67460921D01*
X137602117Y-67446671D01*
X137584393Y-67430607D01*
X137568329Y-67412883D01*
X137554079Y-67393670D01*
X137541782Y-67373153D01*
X137531554Y-67351529D01*
X137523496Y-67329007D01*
X137517684Y-67305803D01*
X137514174Y-67282142D01*
X137513000Y-67258250D01*
X137513000Y-66345750D01*
X137514174Y-66321858D01*
X137517684Y-66298197D01*
X137523496Y-66274993D01*
X137531554Y-66252471D01*
X137541782Y-66230847D01*
X137554079Y-66210330D01*
X137568329Y-66191117D01*
X137584393Y-66173393D01*
X137602117Y-66157329D01*
X137621330Y-66143079D01*
X137641847Y-66130782D01*
X137663471Y-66120554D01*
X137685993Y-66112496D01*
X137709197Y-66106684D01*
X137732858Y-66103174D01*
X137756750Y-66102000D01*
X138244250Y-66102000D01*
X138268142Y-66103174D01*
X138268142Y-66103174D01*
G37*
D15*
G04 #@! TD*
G04 #@! TO.P,C5,1*
G04 #@! TO.N,+3V3*
X138000500Y-66802000D03*
D12*
G04 #@! TO.N,/AREF*
G04 #@! TO.C,C6*
G36*
X135100142Y-65553674D02*
X135123803Y-65557184D01*
X135147007Y-65562996D01*
X135169529Y-65571054D01*
X135191153Y-65581282D01*
X135211670Y-65593579D01*
X135230883Y-65607829D01*
X135248607Y-65623893D01*
X135264671Y-65641617D01*
X135278921Y-65660830D01*
X135291218Y-65681347D01*
X135301446Y-65702971D01*
X135309504Y-65725493D01*
X135315316Y-65748697D01*
X135318826Y-65772358D01*
X135320000Y-65796250D01*
X135320000Y-66283750D01*
X135318826Y-66307642D01*
X135315316Y-66331303D01*
X135309504Y-66354507D01*
X135301446Y-66377029D01*
X135291218Y-66398653D01*
X135278921Y-66419170D01*
X135264671Y-66438383D01*
X135248607Y-66456107D01*
X135230883Y-66472171D01*
X135211670Y-66486421D01*
X135191153Y-66498718D01*
X135169529Y-66508946D01*
X135147007Y-66517004D01*
X135123803Y-66522816D01*
X135100142Y-66526326D01*
X135076250Y-66527500D01*
X134163750Y-66527500D01*
X134139858Y-66526326D01*
X134116197Y-66522816D01*
X134092993Y-66517004D01*
X134070471Y-66508946D01*
X134048847Y-66498718D01*
X134028330Y-66486421D01*
X134009117Y-66472171D01*
X133991393Y-66456107D01*
X133975329Y-66438383D01*
X133961079Y-66419170D01*
X133948782Y-66398653D01*
X133938554Y-66377029D01*
X133930496Y-66354507D01*
X133924684Y-66331303D01*
X133921174Y-66307642D01*
X133920000Y-66283750D01*
X133920000Y-65796250D01*
X133921174Y-65772358D01*
X133924684Y-65748697D01*
X133930496Y-65725493D01*
X133938554Y-65702971D01*
X133948782Y-65681347D01*
X133961079Y-65660830D01*
X133975329Y-65641617D01*
X133991393Y-65623893D01*
X134009117Y-65607829D01*
X134028330Y-65593579D01*
X134048847Y-65581282D01*
X134070471Y-65571054D01*
X134092993Y-65562996D01*
X134116197Y-65557184D01*
X134139858Y-65553674D01*
X134163750Y-65552500D01*
X135076250Y-65552500D01*
X135100142Y-65553674D01*
X135100142Y-65553674D01*
G37*
D15*
G04 #@! TD*
G04 #@! TO.P,C6,1*
G04 #@! TO.N,/AREF*
X134620000Y-66040000D03*
D12*
G04 #@! TO.N,GND*
G04 #@! TO.C,C6*
G36*
X135100142Y-63678674D02*
X135123803Y-63682184D01*
X135147007Y-63687996D01*
X135169529Y-63696054D01*
X135191153Y-63706282D01*
X135211670Y-63718579D01*
X135230883Y-63732829D01*
X135248607Y-63748893D01*
X135264671Y-63766617D01*
X135278921Y-63785830D01*
X135291218Y-63806347D01*
X135301446Y-63827971D01*
X135309504Y-63850493D01*
X135315316Y-63873697D01*
X135318826Y-63897358D01*
X135320000Y-63921250D01*
X135320000Y-64408750D01*
X135318826Y-64432642D01*
X135315316Y-64456303D01*
X135309504Y-64479507D01*
X135301446Y-64502029D01*
X135291218Y-64523653D01*
X135278921Y-64544170D01*
X135264671Y-64563383D01*
X135248607Y-64581107D01*
X135230883Y-64597171D01*
X135211670Y-64611421D01*
X135191153Y-64623718D01*
X135169529Y-64633946D01*
X135147007Y-64642004D01*
X135123803Y-64647816D01*
X135100142Y-64651326D01*
X135076250Y-64652500D01*
X134163750Y-64652500D01*
X134139858Y-64651326D01*
X134116197Y-64647816D01*
X134092993Y-64642004D01*
X134070471Y-64633946D01*
X134048847Y-64623718D01*
X134028330Y-64611421D01*
X134009117Y-64597171D01*
X133991393Y-64581107D01*
X133975329Y-64563383D01*
X133961079Y-64544170D01*
X133948782Y-64523653D01*
X133938554Y-64502029D01*
X133930496Y-64479507D01*
X133924684Y-64456303D01*
X133921174Y-64432642D01*
X133920000Y-64408750D01*
X133920000Y-63921250D01*
X133921174Y-63897358D01*
X133924684Y-63873697D01*
X133930496Y-63850493D01*
X133938554Y-63827971D01*
X133948782Y-63806347D01*
X133961079Y-63785830D01*
X133975329Y-63766617D01*
X133991393Y-63748893D01*
X134009117Y-63732829D01*
X134028330Y-63718579D01*
X134048847Y-63706282D01*
X134070471Y-63696054D01*
X134092993Y-63687996D01*
X134116197Y-63682184D01*
X134139858Y-63678674D01*
X134163750Y-63677500D01*
X135076250Y-63677500D01*
X135100142Y-63678674D01*
X135100142Y-63678674D01*
G37*
D15*
G04 #@! TD*
G04 #@! TO.P,C6,2*
G04 #@! TO.N,GND*
X134620000Y-64165000D03*
D12*
G04 #@! TO.N,GND*
G04 #@! TO.C,C7*
G36*
X131682642Y-59880174D02*
X131706303Y-59883684D01*
X131729507Y-59889496D01*
X131752029Y-59897554D01*
X131773653Y-59907782D01*
X131794170Y-59920079D01*
X131813383Y-59934329D01*
X131831107Y-59950393D01*
X131847171Y-59968117D01*
X131861421Y-59987330D01*
X131873718Y-60007847D01*
X131883946Y-60029471D01*
X131892004Y-60051993D01*
X131897816Y-60075197D01*
X131901326Y-60098858D01*
X131902500Y-60122750D01*
X131902500Y-61035250D01*
X131901326Y-61059142D01*
X131897816Y-61082803D01*
X131892004Y-61106007D01*
X131883946Y-61128529D01*
X131873718Y-61150153D01*
X131861421Y-61170670D01*
X131847171Y-61189883D01*
X131831107Y-61207607D01*
X131813383Y-61223671D01*
X131794170Y-61237921D01*
X131773653Y-61250218D01*
X131752029Y-61260446D01*
X131729507Y-61268504D01*
X131706303Y-61274316D01*
X131682642Y-61277826D01*
X131658750Y-61279000D01*
X131171250Y-61279000D01*
X131147358Y-61277826D01*
X131123697Y-61274316D01*
X131100493Y-61268504D01*
X131077971Y-61260446D01*
X131056347Y-61250218D01*
X131035830Y-61237921D01*
X131016617Y-61223671D01*
X130998893Y-61207607D01*
X130982829Y-61189883D01*
X130968579Y-61170670D01*
X130956282Y-61150153D01*
X130946054Y-61128529D01*
X130937996Y-61106007D01*
X130932184Y-61082803D01*
X130928674Y-61059142D01*
X130927500Y-61035250D01*
X130927500Y-60122750D01*
X130928674Y-60098858D01*
X130932184Y-60075197D01*
X130937996Y-60051993D01*
X130946054Y-60029471D01*
X130956282Y-60007847D01*
X130968579Y-59987330D01*
X130982829Y-59968117D01*
X130998893Y-59950393D01*
X131016617Y-59934329D01*
X131035830Y-59920079D01*
X131056347Y-59907782D01*
X131077971Y-59897554D01*
X131100493Y-59889496D01*
X131123697Y-59883684D01*
X131147358Y-59880174D01*
X131171250Y-59879000D01*
X131658750Y-59879000D01*
X131682642Y-59880174D01*
X131682642Y-59880174D01*
G37*
D15*
G04 #@! TD*
G04 #@! TO.P,C7,2*
G04 #@! TO.N,GND*
X131415000Y-60579000D03*
D12*
G04 #@! TO.N,+3V3*
G04 #@! TO.C,C7*
G36*
X129807642Y-59880174D02*
X129831303Y-59883684D01*
X129854507Y-59889496D01*
X129877029Y-59897554D01*
X129898653Y-59907782D01*
X129919170Y-59920079D01*
X129938383Y-59934329D01*
X129956107Y-59950393D01*
X129972171Y-59968117D01*
X129986421Y-59987330D01*
X129998718Y-60007847D01*
X130008946Y-60029471D01*
X130017004Y-60051993D01*
X130022816Y-60075197D01*
X130026326Y-60098858D01*
X130027500Y-60122750D01*
X130027500Y-61035250D01*
X130026326Y-61059142D01*
X130022816Y-61082803D01*
X130017004Y-61106007D01*
X130008946Y-61128529D01*
X129998718Y-61150153D01*
X129986421Y-61170670D01*
X129972171Y-61189883D01*
X129956107Y-61207607D01*
X129938383Y-61223671D01*
X129919170Y-61237921D01*
X129898653Y-61250218D01*
X129877029Y-61260446D01*
X129854507Y-61268504D01*
X129831303Y-61274316D01*
X129807642Y-61277826D01*
X129783750Y-61279000D01*
X129296250Y-61279000D01*
X129272358Y-61277826D01*
X129248697Y-61274316D01*
X129225493Y-61268504D01*
X129202971Y-61260446D01*
X129181347Y-61250218D01*
X129160830Y-61237921D01*
X129141617Y-61223671D01*
X129123893Y-61207607D01*
X129107829Y-61189883D01*
X129093579Y-61170670D01*
X129081282Y-61150153D01*
X129071054Y-61128529D01*
X129062996Y-61106007D01*
X129057184Y-61082803D01*
X129053674Y-61059142D01*
X129052500Y-61035250D01*
X129052500Y-60122750D01*
X129053674Y-60098858D01*
X129057184Y-60075197D01*
X129062996Y-60051993D01*
X129071054Y-60029471D01*
X129081282Y-60007847D01*
X129093579Y-59987330D01*
X129107829Y-59968117D01*
X129123893Y-59950393D01*
X129141617Y-59934329D01*
X129160830Y-59920079D01*
X129181347Y-59907782D01*
X129202971Y-59897554D01*
X129225493Y-59889496D01*
X129248697Y-59883684D01*
X129272358Y-59880174D01*
X129296250Y-59879000D01*
X129783750Y-59879000D01*
X129807642Y-59880174D01*
X129807642Y-59880174D01*
G37*
D15*
G04 #@! TD*
G04 #@! TO.P,C7,1*
G04 #@! TO.N,+3V3*
X129540000Y-60579000D03*
D12*
G04 #@! TO.N,GND*
G04 #@! TO.C,C8*
G36*
X144890642Y-50101174D02*
X144914303Y-50104684D01*
X144937507Y-50110496D01*
X144960029Y-50118554D01*
X144981653Y-50128782D01*
X145002170Y-50141079D01*
X145021383Y-50155329D01*
X145039107Y-50171393D01*
X145055171Y-50189117D01*
X145069421Y-50208330D01*
X145081718Y-50228847D01*
X145091946Y-50250471D01*
X145100004Y-50272993D01*
X145105816Y-50296197D01*
X145109326Y-50319858D01*
X145110500Y-50343750D01*
X145110500Y-51256250D01*
X145109326Y-51280142D01*
X145105816Y-51303803D01*
X145100004Y-51327007D01*
X145091946Y-51349529D01*
X145081718Y-51371153D01*
X145069421Y-51391670D01*
X145055171Y-51410883D01*
X145039107Y-51428607D01*
X145021383Y-51444671D01*
X145002170Y-51458921D01*
X144981653Y-51471218D01*
X144960029Y-51481446D01*
X144937507Y-51489504D01*
X144914303Y-51495316D01*
X144890642Y-51498826D01*
X144866750Y-51500000D01*
X144379250Y-51500000D01*
X144355358Y-51498826D01*
X144331697Y-51495316D01*
X144308493Y-51489504D01*
X144285971Y-51481446D01*
X144264347Y-51471218D01*
X144243830Y-51458921D01*
X144224617Y-51444671D01*
X144206893Y-51428607D01*
X144190829Y-51410883D01*
X144176579Y-51391670D01*
X144164282Y-51371153D01*
X144154054Y-51349529D01*
X144145996Y-51327007D01*
X144140184Y-51303803D01*
X144136674Y-51280142D01*
X144135500Y-51256250D01*
X144135500Y-50343750D01*
X144136674Y-50319858D01*
X144140184Y-50296197D01*
X144145996Y-50272993D01*
X144154054Y-50250471D01*
X144164282Y-50228847D01*
X144176579Y-50208330D01*
X144190829Y-50189117D01*
X144206893Y-50171393D01*
X144224617Y-50155329D01*
X144243830Y-50141079D01*
X144264347Y-50128782D01*
X144285971Y-50118554D01*
X144308493Y-50110496D01*
X144331697Y-50104684D01*
X144355358Y-50101174D01*
X144379250Y-50100000D01*
X144866750Y-50100000D01*
X144890642Y-50101174D01*
X144890642Y-50101174D01*
G37*
D15*
G04 #@! TD*
G04 #@! TO.P,C8,1*
G04 #@! TO.N,GND*
X144623000Y-50800000D03*
D12*
G04 #@! TO.N,/VBAT*
G04 #@! TO.C,C8*
G36*
X143015642Y-50101174D02*
X143039303Y-50104684D01*
X143062507Y-50110496D01*
X143085029Y-50118554D01*
X143106653Y-50128782D01*
X143127170Y-50141079D01*
X143146383Y-50155329D01*
X143164107Y-50171393D01*
X143180171Y-50189117D01*
X143194421Y-50208330D01*
X143206718Y-50228847D01*
X143216946Y-50250471D01*
X143225004Y-50272993D01*
X143230816Y-50296197D01*
X143234326Y-50319858D01*
X143235500Y-50343750D01*
X143235500Y-51256250D01*
X143234326Y-51280142D01*
X143230816Y-51303803D01*
X143225004Y-51327007D01*
X143216946Y-51349529D01*
X143206718Y-51371153D01*
X143194421Y-51391670D01*
X143180171Y-51410883D01*
X143164107Y-51428607D01*
X143146383Y-51444671D01*
X143127170Y-51458921D01*
X143106653Y-51471218D01*
X143085029Y-51481446D01*
X143062507Y-51489504D01*
X143039303Y-51495316D01*
X143015642Y-51498826D01*
X142991750Y-51500000D01*
X142504250Y-51500000D01*
X142480358Y-51498826D01*
X142456697Y-51495316D01*
X142433493Y-51489504D01*
X142410971Y-51481446D01*
X142389347Y-51471218D01*
X142368830Y-51458921D01*
X142349617Y-51444671D01*
X142331893Y-51428607D01*
X142315829Y-51410883D01*
X142301579Y-51391670D01*
X142289282Y-51371153D01*
X142279054Y-51349529D01*
X142270996Y-51327007D01*
X142265184Y-51303803D01*
X142261674Y-51280142D01*
X142260500Y-51256250D01*
X142260500Y-50343750D01*
X142261674Y-50319858D01*
X142265184Y-50296197D01*
X142270996Y-50272993D01*
X142279054Y-50250471D01*
X142289282Y-50228847D01*
X142301579Y-50208330D01*
X142315829Y-50189117D01*
X142331893Y-50171393D01*
X142349617Y-50155329D01*
X142368830Y-50141079D01*
X142389347Y-50128782D01*
X142410971Y-50118554D01*
X142433493Y-50110496D01*
X142456697Y-50104684D01*
X142480358Y-50101174D01*
X142504250Y-50100000D01*
X142991750Y-50100000D01*
X143015642Y-50101174D01*
X143015642Y-50101174D01*
G37*
D15*
G04 #@! TD*
G04 #@! TO.P,C8,2*
G04 #@! TO.N,/VBAT*
X142748000Y-50800000D03*
D16*
G04 #@! TO.P,J2,6*
G04 #@! TO.N,GND*
X137319000Y-49129000D03*
X132479000Y-49129000D03*
D17*
X137629000Y-46129000D03*
X132169000Y-46129000D03*
G04 #@! TD*
D18*
G04 #@! TO.P,J3,12*
G04 #@! TO.N,/SDA*
X144780000Y-88900000D03*
G04 #@! TO.P,J3,11*
G04 #@! TO.N,/SCL*
X144780000Y-86360000D03*
G04 #@! TO.P,J3,10*
G04 #@! TO.N,/D5*
X144780000Y-83820000D03*
G04 #@! TO.P,J3,9*
G04 #@! TO.N,/D6*
X144780000Y-81280000D03*
G04 #@! TO.P,J3,8*
G04 #@! TO.N,/D9*
X144780000Y-78740000D03*
G04 #@! TO.P,J3,7*
G04 #@! TO.N,/D10*
X144780000Y-76200000D03*
G04 #@! TO.P,J3,6*
G04 #@! TO.N,/D11*
X144780000Y-73660000D03*
G04 #@! TO.P,J3,5*
G04 #@! TO.N,/D12*
X144780000Y-71120000D03*
G04 #@! TO.P,J3,4*
G04 #@! TO.N,/D13*
X144780000Y-68580000D03*
G04 #@! TO.P,J3,3*
G04 #@! TO.N,VBUS*
X144780000Y-66040000D03*
G04 #@! TO.P,J3,2*
G04 #@! TO.N,/EN*
X144780000Y-63500000D03*
D19*
G04 #@! TO.P,J3,1*
G04 #@! TO.N,/VBAT*
X144780000Y-60960000D03*
G04 #@! TD*
D18*
G04 #@! TO.P,J4,6*
G04 #@! TO.N,GND*
X132080000Y-88900000D03*
G04 #@! TO.P,J4,5*
G04 #@! TO.N,/~RESET*
X132080000Y-86360000D03*
G04 #@! TO.P,J4,4*
G04 #@! TO.N,/C2D*
X134620000Y-88900000D03*
G04 #@! TO.P,J4,3*
G04 #@! TO.N,/C2CK*
X134620000Y-86360000D03*
G04 #@! TO.P,J4,2*
G04 #@! TO.N,+3V3*
X137160000Y-88900000D03*
D19*
G04 #@! TO.P,J4,1*
G04 #@! TO.N,VBUS*
X137160000Y-86360000D03*
G04 #@! TD*
D18*
G04 #@! TO.P,J5,16*
G04 #@! TO.N,GND*
X124460000Y-88900000D03*
G04 #@! TO.P,J5,15*
G04 #@! TO.N,/D1*
X124460000Y-86360000D03*
G04 #@! TO.P,J5,14*
G04 #@! TO.N,/D0*
X124460000Y-83820000D03*
G04 #@! TO.P,J5,13*
G04 #@! TO.N,/MISO*
X124460000Y-81280000D03*
G04 #@! TO.P,J5,12*
G04 #@! TO.N,/MOSI*
X124460000Y-78740000D03*
G04 #@! TO.P,J5,11*
G04 #@! TO.N,/SCK*
X124460000Y-76200000D03*
G04 #@! TO.P,J5,10*
G04 #@! TO.N,/A5*
X124460000Y-73660000D03*
G04 #@! TO.P,J5,9*
G04 #@! TO.N,/A4*
X124460000Y-71120000D03*
G04 #@! TO.P,J5,8*
G04 #@! TO.N,/A3*
X124460000Y-68580000D03*
G04 #@! TO.P,J5,7*
G04 #@! TO.N,/A2*
X124460000Y-66040000D03*
G04 #@! TO.P,J5,6*
G04 #@! TO.N,/A1*
X124460000Y-63500000D03*
G04 #@! TO.P,J5,5*
G04 #@! TO.N,/A0*
X124460000Y-60960000D03*
G04 #@! TO.P,J5,4*
G04 #@! TO.N,GND*
X124460000Y-58420000D03*
G04 #@! TO.P,J5,3*
G04 #@! TO.N,/AREF*
X124460000Y-55880000D03*
G04 #@! TO.P,J5,2*
G04 #@! TO.N,+3V3*
X124460000Y-53340000D03*
D19*
G04 #@! TO.P,J5,1*
G04 #@! TO.N,/~RESET*
X124460000Y-50800000D03*
G04 #@! TD*
D12*
G04 #@! TO.N,VBUS*
G04 #@! TO.C,R1*
G36*
X141882691Y-64638553D02*
X141903926Y-64641703D01*
X141924750Y-64646919D01*
X141944962Y-64654151D01*
X141964368Y-64663330D01*
X141982781Y-64674366D01*
X142000024Y-64687154D01*
X142015930Y-64701570D01*
X142030346Y-64717476D01*
X142043134Y-64734719D01*
X142054170Y-64753132D01*
X142063349Y-64772538D01*
X142070581Y-64792750D01*
X142075797Y-64813574D01*
X142078947Y-64834809D01*
X142080000Y-64856250D01*
X142080000Y-65293750D01*
X142078947Y-65315191D01*
X142075797Y-65336426D01*
X142070581Y-65357250D01*
X142063349Y-65377462D01*
X142054170Y-65396868D01*
X142043134Y-65415281D01*
X142030346Y-65432524D01*
X142015930Y-65448430D01*
X142000024Y-65462846D01*
X141982781Y-65475634D01*
X141964368Y-65486670D01*
X141944962Y-65495849D01*
X141924750Y-65503081D01*
X141903926Y-65508297D01*
X141882691Y-65511447D01*
X141861250Y-65512500D01*
X141348750Y-65512500D01*
X141327309Y-65511447D01*
X141306074Y-65508297D01*
X141285250Y-65503081D01*
X141265038Y-65495849D01*
X141245632Y-65486670D01*
X141227219Y-65475634D01*
X141209976Y-65462846D01*
X141194070Y-65448430D01*
X141179654Y-65432524D01*
X141166866Y-65415281D01*
X141155830Y-65396868D01*
X141146651Y-65377462D01*
X141139419Y-65357250D01*
X141134203Y-65336426D01*
X141131053Y-65315191D01*
X141130000Y-65293750D01*
X141130000Y-64856250D01*
X141131053Y-64834809D01*
X141134203Y-64813574D01*
X141139419Y-64792750D01*
X141146651Y-64772538D01*
X141155830Y-64753132D01*
X141166866Y-64734719D01*
X141179654Y-64717476D01*
X141194070Y-64701570D01*
X141209976Y-64687154D01*
X141227219Y-64674366D01*
X141245632Y-64663330D01*
X141265038Y-64654151D01*
X141285250Y-64646919D01*
X141306074Y-64641703D01*
X141327309Y-64638553D01*
X141348750Y-64637500D01*
X141861250Y-64637500D01*
X141882691Y-64638553D01*
X141882691Y-64638553D01*
G37*
D20*
G04 #@! TD*
G04 #@! TO.P,R1,1*
G04 #@! TO.N,VBUS*
X141605000Y-65075000D03*
D12*
G04 #@! TO.N,/EN*
G04 #@! TO.C,R1*
G36*
X141882691Y-63063553D02*
X141903926Y-63066703D01*
X141924750Y-63071919D01*
X141944962Y-63079151D01*
X141964368Y-63088330D01*
X141982781Y-63099366D01*
X142000024Y-63112154D01*
X142015930Y-63126570D01*
X142030346Y-63142476D01*
X142043134Y-63159719D01*
X142054170Y-63178132D01*
X142063349Y-63197538D01*
X142070581Y-63217750D01*
X142075797Y-63238574D01*
X142078947Y-63259809D01*
X142080000Y-63281250D01*
X142080000Y-63718750D01*
X142078947Y-63740191D01*
X142075797Y-63761426D01*
X142070581Y-63782250D01*
X142063349Y-63802462D01*
X142054170Y-63821868D01*
X142043134Y-63840281D01*
X142030346Y-63857524D01*
X142015930Y-63873430D01*
X142000024Y-63887846D01*
X141982781Y-63900634D01*
X141964368Y-63911670D01*
X141944962Y-63920849D01*
X141924750Y-63928081D01*
X141903926Y-63933297D01*
X141882691Y-63936447D01*
X141861250Y-63937500D01*
X141348750Y-63937500D01*
X141327309Y-63936447D01*
X141306074Y-63933297D01*
X141285250Y-63928081D01*
X141265038Y-63920849D01*
X141245632Y-63911670D01*
X141227219Y-63900634D01*
X141209976Y-63887846D01*
X141194070Y-63873430D01*
X141179654Y-63857524D01*
X141166866Y-63840281D01*
X141155830Y-63821868D01*
X141146651Y-63802462D01*
X141139419Y-63782250D01*
X141134203Y-63761426D01*
X141131053Y-63740191D01*
X141130000Y-63718750D01*
X141130000Y-63281250D01*
X141131053Y-63259809D01*
X141134203Y-63238574D01*
X141139419Y-63217750D01*
X141146651Y-63197538D01*
X141155830Y-63178132D01*
X141166866Y-63159719D01*
X141179654Y-63142476D01*
X141194070Y-63126570D01*
X141209976Y-63112154D01*
X141227219Y-63099366D01*
X141245632Y-63088330D01*
X141265038Y-63079151D01*
X141285250Y-63071919D01*
X141306074Y-63066703D01*
X141327309Y-63063553D01*
X141348750Y-63062500D01*
X141861250Y-63062500D01*
X141882691Y-63063553D01*
X141882691Y-63063553D01*
G37*
D20*
G04 #@! TD*
G04 #@! TO.P,R1,2*
G04 #@! TO.N,/EN*
X141605000Y-63500000D03*
D12*
G04 #@! TO.N,+3V3*
G04 #@! TO.C,R3*
G36*
X137374691Y-81822053D02*
X137395926Y-81825203D01*
X137416750Y-81830419D01*
X137436962Y-81837651D01*
X137456368Y-81846830D01*
X137474781Y-81857866D01*
X137492024Y-81870654D01*
X137507930Y-81885070D01*
X137522346Y-81900976D01*
X137535134Y-81918219D01*
X137546170Y-81936632D01*
X137555349Y-81956038D01*
X137562581Y-81976250D01*
X137567797Y-81997074D01*
X137570947Y-82018309D01*
X137572000Y-82039750D01*
X137572000Y-82552250D01*
X137570947Y-82573691D01*
X137567797Y-82594926D01*
X137562581Y-82615750D01*
X137555349Y-82635962D01*
X137546170Y-82655368D01*
X137535134Y-82673781D01*
X137522346Y-82691024D01*
X137507930Y-82706930D01*
X137492024Y-82721346D01*
X137474781Y-82734134D01*
X137456368Y-82745170D01*
X137436962Y-82754349D01*
X137416750Y-82761581D01*
X137395926Y-82766797D01*
X137374691Y-82769947D01*
X137353250Y-82771000D01*
X136915750Y-82771000D01*
X136894309Y-82769947D01*
X136873074Y-82766797D01*
X136852250Y-82761581D01*
X136832038Y-82754349D01*
X136812632Y-82745170D01*
X136794219Y-82734134D01*
X136776976Y-82721346D01*
X136761070Y-82706930D01*
X136746654Y-82691024D01*
X136733866Y-82673781D01*
X136722830Y-82655368D01*
X136713651Y-82635962D01*
X136706419Y-82615750D01*
X136701203Y-82594926D01*
X136698053Y-82573691D01*
X136697000Y-82552250D01*
X136697000Y-82039750D01*
X136698053Y-82018309D01*
X136701203Y-81997074D01*
X136706419Y-81976250D01*
X136713651Y-81956038D01*
X136722830Y-81936632D01*
X136733866Y-81918219D01*
X136746654Y-81900976D01*
X136761070Y-81885070D01*
X136776976Y-81870654D01*
X136794219Y-81857866D01*
X136812632Y-81846830D01*
X136832038Y-81837651D01*
X136852250Y-81830419D01*
X136873074Y-81825203D01*
X136894309Y-81822053D01*
X136915750Y-81821000D01*
X137353250Y-81821000D01*
X137374691Y-81822053D01*
X137374691Y-81822053D01*
G37*
D20*
G04 #@! TD*
G04 #@! TO.P,R3,1*
G04 #@! TO.N,+3V3*
X137134500Y-82296000D03*
D12*
G04 #@! TO.N,/C2CK*
G04 #@! TO.C,R3*
G36*
X138949691Y-81822053D02*
X138970926Y-81825203D01*
X138991750Y-81830419D01*
X139011962Y-81837651D01*
X139031368Y-81846830D01*
X139049781Y-81857866D01*
X139067024Y-81870654D01*
X139082930Y-81885070D01*
X139097346Y-81900976D01*
X139110134Y-81918219D01*
X139121170Y-81936632D01*
X139130349Y-81956038D01*
X139137581Y-81976250D01*
X139142797Y-81997074D01*
X139145947Y-82018309D01*
X139147000Y-82039750D01*
X139147000Y-82552250D01*
X139145947Y-82573691D01*
X139142797Y-82594926D01*
X139137581Y-82615750D01*
X139130349Y-82635962D01*
X139121170Y-82655368D01*
X139110134Y-82673781D01*
X139097346Y-82691024D01*
X139082930Y-82706930D01*
X139067024Y-82721346D01*
X139049781Y-82734134D01*
X139031368Y-82745170D01*
X139011962Y-82754349D01*
X138991750Y-82761581D01*
X138970926Y-82766797D01*
X138949691Y-82769947D01*
X138928250Y-82771000D01*
X138490750Y-82771000D01*
X138469309Y-82769947D01*
X138448074Y-82766797D01*
X138427250Y-82761581D01*
X138407038Y-82754349D01*
X138387632Y-82745170D01*
X138369219Y-82734134D01*
X138351976Y-82721346D01*
X138336070Y-82706930D01*
X138321654Y-82691024D01*
X138308866Y-82673781D01*
X138297830Y-82655368D01*
X138288651Y-82635962D01*
X138281419Y-82615750D01*
X138276203Y-82594926D01*
X138273053Y-82573691D01*
X138272000Y-82552250D01*
X138272000Y-82039750D01*
X138273053Y-82018309D01*
X138276203Y-81997074D01*
X138281419Y-81976250D01*
X138288651Y-81956038D01*
X138297830Y-81936632D01*
X138308866Y-81918219D01*
X138321654Y-81900976D01*
X138336070Y-81885070D01*
X138351976Y-81870654D01*
X138369219Y-81857866D01*
X138387632Y-81846830D01*
X138407038Y-81837651D01*
X138427250Y-81830419D01*
X138448074Y-81825203D01*
X138469309Y-81822053D01*
X138490750Y-81821000D01*
X138928250Y-81821000D01*
X138949691Y-81822053D01*
X138949691Y-81822053D01*
G37*
D20*
G04 #@! TD*
G04 #@! TO.P,R3,2*
G04 #@! TO.N,/C2CK*
X138709500Y-82296000D03*
D12*
G04 #@! TO.N,GND*
G04 #@! TO.C,R4*
G36*
X140993691Y-46756553D02*
X141014926Y-46759703D01*
X141035750Y-46764919D01*
X141055962Y-46772151D01*
X141075368Y-46781330D01*
X141093781Y-46792366D01*
X141111024Y-46805154D01*
X141126930Y-46819570D01*
X141141346Y-46835476D01*
X141154134Y-46852719D01*
X141165170Y-46871132D01*
X141174349Y-46890538D01*
X141181581Y-46910750D01*
X141186797Y-46931574D01*
X141189947Y-46952809D01*
X141191000Y-46974250D01*
X141191000Y-47411750D01*
X141189947Y-47433191D01*
X141186797Y-47454426D01*
X141181581Y-47475250D01*
X141174349Y-47495462D01*
X141165170Y-47514868D01*
X141154134Y-47533281D01*
X141141346Y-47550524D01*
X141126930Y-47566430D01*
X141111024Y-47580846D01*
X141093781Y-47593634D01*
X141075368Y-47604670D01*
X141055962Y-47613849D01*
X141035750Y-47621081D01*
X141014926Y-47626297D01*
X140993691Y-47629447D01*
X140972250Y-47630500D01*
X140459750Y-47630500D01*
X140438309Y-47629447D01*
X140417074Y-47626297D01*
X140396250Y-47621081D01*
X140376038Y-47613849D01*
X140356632Y-47604670D01*
X140338219Y-47593634D01*
X140320976Y-47580846D01*
X140305070Y-47566430D01*
X140290654Y-47550524D01*
X140277866Y-47533281D01*
X140266830Y-47514868D01*
X140257651Y-47495462D01*
X140250419Y-47475250D01*
X140245203Y-47454426D01*
X140242053Y-47433191D01*
X140241000Y-47411750D01*
X140241000Y-46974250D01*
X140242053Y-46952809D01*
X140245203Y-46931574D01*
X140250419Y-46910750D01*
X140257651Y-46890538D01*
X140266830Y-46871132D01*
X140277866Y-46852719D01*
X140290654Y-46835476D01*
X140305070Y-46819570D01*
X140320976Y-46805154D01*
X140338219Y-46792366D01*
X140356632Y-46781330D01*
X140376038Y-46772151D01*
X140396250Y-46764919D01*
X140417074Y-46759703D01*
X140438309Y-46756553D01*
X140459750Y-46755500D01*
X140972250Y-46755500D01*
X140993691Y-46756553D01*
X140993691Y-46756553D01*
G37*
D20*
G04 #@! TD*
G04 #@! TO.P,R4,2*
G04 #@! TO.N,GND*
X140716000Y-47193000D03*
D12*
G04 #@! TO.N,Net-(R4-Pad1)*
G04 #@! TO.C,R4*
G36*
X140993691Y-48331553D02*
X141014926Y-48334703D01*
X141035750Y-48339919D01*
X141055962Y-48347151D01*
X141075368Y-48356330D01*
X141093781Y-48367366D01*
X141111024Y-48380154D01*
X141126930Y-48394570D01*
X141141346Y-48410476D01*
X141154134Y-48427719D01*
X141165170Y-48446132D01*
X141174349Y-48465538D01*
X141181581Y-48485750D01*
X141186797Y-48506574D01*
X141189947Y-48527809D01*
X141191000Y-48549250D01*
X141191000Y-48986750D01*
X141189947Y-49008191D01*
X141186797Y-49029426D01*
X141181581Y-49050250D01*
X141174349Y-49070462D01*
X141165170Y-49089868D01*
X141154134Y-49108281D01*
X141141346Y-49125524D01*
X141126930Y-49141430D01*
X141111024Y-49155846D01*
X141093781Y-49168634D01*
X141075368Y-49179670D01*
X141055962Y-49188849D01*
X141035750Y-49196081D01*
X141014926Y-49201297D01*
X140993691Y-49204447D01*
X140972250Y-49205500D01*
X140459750Y-49205500D01*
X140438309Y-49204447D01*
X140417074Y-49201297D01*
X140396250Y-49196081D01*
X140376038Y-49188849D01*
X140356632Y-49179670D01*
X140338219Y-49168634D01*
X140320976Y-49155846D01*
X140305070Y-49141430D01*
X140290654Y-49125524D01*
X140277866Y-49108281D01*
X140266830Y-49089868D01*
X140257651Y-49070462D01*
X140250419Y-49050250D01*
X140245203Y-49029426D01*
X140242053Y-49008191D01*
X140241000Y-48986750D01*
X140241000Y-48549250D01*
X140242053Y-48527809D01*
X140245203Y-48506574D01*
X140250419Y-48485750D01*
X140257651Y-48465538D01*
X140266830Y-48446132D01*
X140277866Y-48427719D01*
X140290654Y-48410476D01*
X140305070Y-48394570D01*
X140320976Y-48380154D01*
X140338219Y-48367366D01*
X140356632Y-48356330D01*
X140376038Y-48347151D01*
X140396250Y-48339919D01*
X140417074Y-48334703D01*
X140438309Y-48331553D01*
X140459750Y-48330500D01*
X140972250Y-48330500D01*
X140993691Y-48331553D01*
X140993691Y-48331553D01*
G37*
D20*
G04 #@! TD*
G04 #@! TO.P,R4,1*
G04 #@! TO.N,Net-(R4-Pad1)*
X140716000Y-48768000D03*
D12*
G04 #@! TO.N,/D9*
G04 #@! TO.C,R6*
G36*
X141882691Y-77694053D02*
X141903926Y-77697203D01*
X141924750Y-77702419D01*
X141944962Y-77709651D01*
X141964368Y-77718830D01*
X141982781Y-77729866D01*
X142000024Y-77742654D01*
X142015930Y-77757070D01*
X142030346Y-77772976D01*
X142043134Y-77790219D01*
X142054170Y-77808632D01*
X142063349Y-77828038D01*
X142070581Y-77848250D01*
X142075797Y-77869074D01*
X142078947Y-77890309D01*
X142080000Y-77911750D01*
X142080000Y-78349250D01*
X142078947Y-78370691D01*
X142075797Y-78391926D01*
X142070581Y-78412750D01*
X142063349Y-78432962D01*
X142054170Y-78452368D01*
X142043134Y-78470781D01*
X142030346Y-78488024D01*
X142015930Y-78503930D01*
X142000024Y-78518346D01*
X141982781Y-78531134D01*
X141964368Y-78542170D01*
X141944962Y-78551349D01*
X141924750Y-78558581D01*
X141903926Y-78563797D01*
X141882691Y-78566947D01*
X141861250Y-78568000D01*
X141348750Y-78568000D01*
X141327309Y-78566947D01*
X141306074Y-78563797D01*
X141285250Y-78558581D01*
X141265038Y-78551349D01*
X141245632Y-78542170D01*
X141227219Y-78531134D01*
X141209976Y-78518346D01*
X141194070Y-78503930D01*
X141179654Y-78488024D01*
X141166866Y-78470781D01*
X141155830Y-78452368D01*
X141146651Y-78432962D01*
X141139419Y-78412750D01*
X141134203Y-78391926D01*
X141131053Y-78370691D01*
X141130000Y-78349250D01*
X141130000Y-77911750D01*
X141131053Y-77890309D01*
X141134203Y-77869074D01*
X141139419Y-77848250D01*
X141146651Y-77828038D01*
X141155830Y-77808632D01*
X141166866Y-77790219D01*
X141179654Y-77772976D01*
X141194070Y-77757070D01*
X141209976Y-77742654D01*
X141227219Y-77729866D01*
X141245632Y-77718830D01*
X141265038Y-77709651D01*
X141285250Y-77702419D01*
X141306074Y-77697203D01*
X141327309Y-77694053D01*
X141348750Y-77693000D01*
X141861250Y-77693000D01*
X141882691Y-77694053D01*
X141882691Y-77694053D01*
G37*
D20*
G04 #@! TD*
G04 #@! TO.P,R6,1*
G04 #@! TO.N,/D9*
X141605000Y-78130500D03*
D12*
G04 #@! TO.N,GND*
G04 #@! TO.C,R6*
G36*
X141882691Y-76119053D02*
X141903926Y-76122203D01*
X141924750Y-76127419D01*
X141944962Y-76134651D01*
X141964368Y-76143830D01*
X141982781Y-76154866D01*
X142000024Y-76167654D01*
X142015930Y-76182070D01*
X142030346Y-76197976D01*
X142043134Y-76215219D01*
X142054170Y-76233632D01*
X142063349Y-76253038D01*
X142070581Y-76273250D01*
X142075797Y-76294074D01*
X142078947Y-76315309D01*
X142080000Y-76336750D01*
X142080000Y-76774250D01*
X142078947Y-76795691D01*
X142075797Y-76816926D01*
X142070581Y-76837750D01*
X142063349Y-76857962D01*
X142054170Y-76877368D01*
X142043134Y-76895781D01*
X142030346Y-76913024D01*
X142015930Y-76928930D01*
X142000024Y-76943346D01*
X141982781Y-76956134D01*
X141964368Y-76967170D01*
X141944962Y-76976349D01*
X141924750Y-76983581D01*
X141903926Y-76988797D01*
X141882691Y-76991947D01*
X141861250Y-76993000D01*
X141348750Y-76993000D01*
X141327309Y-76991947D01*
X141306074Y-76988797D01*
X141285250Y-76983581D01*
X141265038Y-76976349D01*
X141245632Y-76967170D01*
X141227219Y-76956134D01*
X141209976Y-76943346D01*
X141194070Y-76928930D01*
X141179654Y-76913024D01*
X141166866Y-76895781D01*
X141155830Y-76877368D01*
X141146651Y-76857962D01*
X141139419Y-76837750D01*
X141134203Y-76816926D01*
X141131053Y-76795691D01*
X141130000Y-76774250D01*
X141130000Y-76336750D01*
X141131053Y-76315309D01*
X141134203Y-76294074D01*
X141139419Y-76273250D01*
X141146651Y-76253038D01*
X141155830Y-76233632D01*
X141166866Y-76215219D01*
X141179654Y-76197976D01*
X141194070Y-76182070D01*
X141209976Y-76167654D01*
X141227219Y-76154866D01*
X141245632Y-76143830D01*
X141265038Y-76134651D01*
X141285250Y-76127419D01*
X141306074Y-76122203D01*
X141327309Y-76119053D01*
X141348750Y-76118000D01*
X141861250Y-76118000D01*
X141882691Y-76119053D01*
X141882691Y-76119053D01*
G37*
D20*
G04 #@! TD*
G04 #@! TO.P,R6,2*
G04 #@! TO.N,GND*
X141605000Y-76555500D03*
D21*
G04 #@! TO.P,U1,5*
G04 #@! TO.N,+3V3*
X129710000Y-52390000D03*
G04 #@! TO.P,U1,4*
G04 #@! TO.N,N/C*
X129710000Y-54290000D03*
G04 #@! TO.P,U1,3*
G04 #@! TO.N,/EN*
X131910000Y-54290000D03*
G04 #@! TO.P,U1,2*
G04 #@! TO.N,GND*
X131910000Y-53340000D03*
G04 #@! TO.P,U1,1*
G04 #@! TO.N,VBUS*
X131910000Y-52390000D03*
G04 #@! TD*
D12*
G04 #@! TO.N,/A1*
G04 #@! TO.C,U2*
G36*
X133783626Y-69495301D02*
X133789693Y-69496201D01*
X133795643Y-69497691D01*
X133801418Y-69499758D01*
X133806962Y-69502380D01*
X133812223Y-69505533D01*
X133817150Y-69509187D01*
X133821694Y-69513306D01*
X133825813Y-69517850D01*
X133829467Y-69522777D01*
X133832620Y-69528038D01*
X133835242Y-69533582D01*
X133837309Y-69539357D01*
X133838799Y-69545307D01*
X133839699Y-69551374D01*
X133840000Y-69557500D01*
X133840000Y-69682500D01*
X133839699Y-69688626D01*
X133838799Y-69694693D01*
X133837309Y-69700643D01*
X133835242Y-69706418D01*
X133832620Y-69711962D01*
X133829467Y-69717223D01*
X133825813Y-69722150D01*
X133821694Y-69726694D01*
X133817150Y-69730813D01*
X133812223Y-69734467D01*
X133806962Y-69737620D01*
X133801418Y-69740242D01*
X133795643Y-69742309D01*
X133789693Y-69743799D01*
X133783626Y-69744699D01*
X133777500Y-69745000D01*
X133102500Y-69745000D01*
X133096374Y-69744699D01*
X133090307Y-69743799D01*
X133084357Y-69742309D01*
X133078582Y-69740242D01*
X133073038Y-69737620D01*
X133067777Y-69734467D01*
X133062850Y-69730813D01*
X133058306Y-69726694D01*
X133054187Y-69722150D01*
X133050533Y-69717223D01*
X133047380Y-69711962D01*
X133044758Y-69706418D01*
X133042691Y-69700643D01*
X133041201Y-69694693D01*
X133040301Y-69688626D01*
X133040000Y-69682500D01*
X133040000Y-69557500D01*
X133040301Y-69551374D01*
X133041201Y-69545307D01*
X133042691Y-69539357D01*
X133044758Y-69533582D01*
X133047380Y-69528038D01*
X133050533Y-69522777D01*
X133054187Y-69517850D01*
X133058306Y-69513306D01*
X133062850Y-69509187D01*
X133067777Y-69505533D01*
X133073038Y-69502380D01*
X133078582Y-69499758D01*
X133084357Y-69497691D01*
X133090307Y-69496201D01*
X133096374Y-69495301D01*
X133102500Y-69495000D01*
X133777500Y-69495000D01*
X133783626Y-69495301D01*
X133783626Y-69495301D01*
G37*
D22*
G04 #@! TD*
G04 #@! TO.P,U2,28*
G04 #@! TO.N,/A1*
X133440000Y-69620000D03*
D12*
G04 #@! TO.N,/A2*
G04 #@! TO.C,U2*
G36*
X133783626Y-69995301D02*
X133789693Y-69996201D01*
X133795643Y-69997691D01*
X133801418Y-69999758D01*
X133806962Y-70002380D01*
X133812223Y-70005533D01*
X133817150Y-70009187D01*
X133821694Y-70013306D01*
X133825813Y-70017850D01*
X133829467Y-70022777D01*
X133832620Y-70028038D01*
X133835242Y-70033582D01*
X133837309Y-70039357D01*
X133838799Y-70045307D01*
X133839699Y-70051374D01*
X133840000Y-70057500D01*
X133840000Y-70182500D01*
X133839699Y-70188626D01*
X133838799Y-70194693D01*
X133837309Y-70200643D01*
X133835242Y-70206418D01*
X133832620Y-70211962D01*
X133829467Y-70217223D01*
X133825813Y-70222150D01*
X133821694Y-70226694D01*
X133817150Y-70230813D01*
X133812223Y-70234467D01*
X133806962Y-70237620D01*
X133801418Y-70240242D01*
X133795643Y-70242309D01*
X133789693Y-70243799D01*
X133783626Y-70244699D01*
X133777500Y-70245000D01*
X133102500Y-70245000D01*
X133096374Y-70244699D01*
X133090307Y-70243799D01*
X133084357Y-70242309D01*
X133078582Y-70240242D01*
X133073038Y-70237620D01*
X133067777Y-70234467D01*
X133062850Y-70230813D01*
X133058306Y-70226694D01*
X133054187Y-70222150D01*
X133050533Y-70217223D01*
X133047380Y-70211962D01*
X133044758Y-70206418D01*
X133042691Y-70200643D01*
X133041201Y-70194693D01*
X133040301Y-70188626D01*
X133040000Y-70182500D01*
X133040000Y-70057500D01*
X133040301Y-70051374D01*
X133041201Y-70045307D01*
X133042691Y-70039357D01*
X133044758Y-70033582D01*
X133047380Y-70028038D01*
X133050533Y-70022777D01*
X133054187Y-70017850D01*
X133058306Y-70013306D01*
X133062850Y-70009187D01*
X133067777Y-70005533D01*
X133073038Y-70002380D01*
X133078582Y-69999758D01*
X133084357Y-69997691D01*
X133090307Y-69996201D01*
X133096374Y-69995301D01*
X133102500Y-69995000D01*
X133777500Y-69995000D01*
X133783626Y-69995301D01*
X133783626Y-69995301D01*
G37*
D22*
G04 #@! TD*
G04 #@! TO.P,U2,27*
G04 #@! TO.N,/A2*
X133440000Y-70120000D03*
D12*
G04 #@! TO.N,/A3*
G04 #@! TO.C,U2*
G36*
X133783626Y-70495301D02*
X133789693Y-70496201D01*
X133795643Y-70497691D01*
X133801418Y-70499758D01*
X133806962Y-70502380D01*
X133812223Y-70505533D01*
X133817150Y-70509187D01*
X133821694Y-70513306D01*
X133825813Y-70517850D01*
X133829467Y-70522777D01*
X133832620Y-70528038D01*
X133835242Y-70533582D01*
X133837309Y-70539357D01*
X133838799Y-70545307D01*
X133839699Y-70551374D01*
X133840000Y-70557500D01*
X133840000Y-70682500D01*
X133839699Y-70688626D01*
X133838799Y-70694693D01*
X133837309Y-70700643D01*
X133835242Y-70706418D01*
X133832620Y-70711962D01*
X133829467Y-70717223D01*
X133825813Y-70722150D01*
X133821694Y-70726694D01*
X133817150Y-70730813D01*
X133812223Y-70734467D01*
X133806962Y-70737620D01*
X133801418Y-70740242D01*
X133795643Y-70742309D01*
X133789693Y-70743799D01*
X133783626Y-70744699D01*
X133777500Y-70745000D01*
X133102500Y-70745000D01*
X133096374Y-70744699D01*
X133090307Y-70743799D01*
X133084357Y-70742309D01*
X133078582Y-70740242D01*
X133073038Y-70737620D01*
X133067777Y-70734467D01*
X133062850Y-70730813D01*
X133058306Y-70726694D01*
X133054187Y-70722150D01*
X133050533Y-70717223D01*
X133047380Y-70711962D01*
X133044758Y-70706418D01*
X133042691Y-70700643D01*
X133041201Y-70694693D01*
X133040301Y-70688626D01*
X133040000Y-70682500D01*
X133040000Y-70557500D01*
X133040301Y-70551374D01*
X133041201Y-70545307D01*
X133042691Y-70539357D01*
X133044758Y-70533582D01*
X133047380Y-70528038D01*
X133050533Y-70522777D01*
X133054187Y-70517850D01*
X133058306Y-70513306D01*
X133062850Y-70509187D01*
X133067777Y-70505533D01*
X133073038Y-70502380D01*
X133078582Y-70499758D01*
X133084357Y-70497691D01*
X133090307Y-70496201D01*
X133096374Y-70495301D01*
X133102500Y-70495000D01*
X133777500Y-70495000D01*
X133783626Y-70495301D01*
X133783626Y-70495301D01*
G37*
D22*
G04 #@! TD*
G04 #@! TO.P,U2,26*
G04 #@! TO.N,/A3*
X133440000Y-70620000D03*
D12*
G04 #@! TO.N,/D1*
G04 #@! TO.C,U2*
G36*
X133783626Y-70995301D02*
X133789693Y-70996201D01*
X133795643Y-70997691D01*
X133801418Y-70999758D01*
X133806962Y-71002380D01*
X133812223Y-71005533D01*
X133817150Y-71009187D01*
X133821694Y-71013306D01*
X133825813Y-71017850D01*
X133829467Y-71022777D01*
X133832620Y-71028038D01*
X133835242Y-71033582D01*
X133837309Y-71039357D01*
X133838799Y-71045307D01*
X133839699Y-71051374D01*
X133840000Y-71057500D01*
X133840000Y-71182500D01*
X133839699Y-71188626D01*
X133838799Y-71194693D01*
X133837309Y-71200643D01*
X133835242Y-71206418D01*
X133832620Y-71211962D01*
X133829467Y-71217223D01*
X133825813Y-71222150D01*
X133821694Y-71226694D01*
X133817150Y-71230813D01*
X133812223Y-71234467D01*
X133806962Y-71237620D01*
X133801418Y-71240242D01*
X133795643Y-71242309D01*
X133789693Y-71243799D01*
X133783626Y-71244699D01*
X133777500Y-71245000D01*
X133102500Y-71245000D01*
X133096374Y-71244699D01*
X133090307Y-71243799D01*
X133084357Y-71242309D01*
X133078582Y-71240242D01*
X133073038Y-71237620D01*
X133067777Y-71234467D01*
X133062850Y-71230813D01*
X133058306Y-71226694D01*
X133054187Y-71222150D01*
X133050533Y-71217223D01*
X133047380Y-71211962D01*
X133044758Y-71206418D01*
X133042691Y-71200643D01*
X133041201Y-71194693D01*
X133040301Y-71188626D01*
X133040000Y-71182500D01*
X133040000Y-71057500D01*
X133040301Y-71051374D01*
X133041201Y-71045307D01*
X133042691Y-71039357D01*
X133044758Y-71033582D01*
X133047380Y-71028038D01*
X133050533Y-71022777D01*
X133054187Y-71017850D01*
X133058306Y-71013306D01*
X133062850Y-71009187D01*
X133067777Y-71005533D01*
X133073038Y-71002380D01*
X133078582Y-70999758D01*
X133084357Y-70997691D01*
X133090307Y-70996201D01*
X133096374Y-70995301D01*
X133102500Y-70995000D01*
X133777500Y-70995000D01*
X133783626Y-70995301D01*
X133783626Y-70995301D01*
G37*
D22*
G04 #@! TD*
G04 #@! TO.P,U2,25*
G04 #@! TO.N,/D1*
X133440000Y-71120000D03*
D12*
G04 #@! TO.N,/D0*
G04 #@! TO.C,U2*
G36*
X133783626Y-71495301D02*
X133789693Y-71496201D01*
X133795643Y-71497691D01*
X133801418Y-71499758D01*
X133806962Y-71502380D01*
X133812223Y-71505533D01*
X133817150Y-71509187D01*
X133821694Y-71513306D01*
X133825813Y-71517850D01*
X133829467Y-71522777D01*
X133832620Y-71528038D01*
X133835242Y-71533582D01*
X133837309Y-71539357D01*
X133838799Y-71545307D01*
X133839699Y-71551374D01*
X133840000Y-71557500D01*
X133840000Y-71682500D01*
X133839699Y-71688626D01*
X133838799Y-71694693D01*
X133837309Y-71700643D01*
X133835242Y-71706418D01*
X133832620Y-71711962D01*
X133829467Y-71717223D01*
X133825813Y-71722150D01*
X133821694Y-71726694D01*
X133817150Y-71730813D01*
X133812223Y-71734467D01*
X133806962Y-71737620D01*
X133801418Y-71740242D01*
X133795643Y-71742309D01*
X133789693Y-71743799D01*
X133783626Y-71744699D01*
X133777500Y-71745000D01*
X133102500Y-71745000D01*
X133096374Y-71744699D01*
X133090307Y-71743799D01*
X133084357Y-71742309D01*
X133078582Y-71740242D01*
X133073038Y-71737620D01*
X133067777Y-71734467D01*
X133062850Y-71730813D01*
X133058306Y-71726694D01*
X133054187Y-71722150D01*
X133050533Y-71717223D01*
X133047380Y-71711962D01*
X133044758Y-71706418D01*
X133042691Y-71700643D01*
X133041201Y-71694693D01*
X133040301Y-71688626D01*
X133040000Y-71682500D01*
X133040000Y-71557500D01*
X133040301Y-71551374D01*
X133041201Y-71545307D01*
X133042691Y-71539357D01*
X133044758Y-71533582D01*
X133047380Y-71528038D01*
X133050533Y-71522777D01*
X133054187Y-71517850D01*
X133058306Y-71513306D01*
X133062850Y-71509187D01*
X133067777Y-71505533D01*
X133073038Y-71502380D01*
X133078582Y-71499758D01*
X133084357Y-71497691D01*
X133090307Y-71496201D01*
X133096374Y-71495301D01*
X133102500Y-71495000D01*
X133777500Y-71495000D01*
X133783626Y-71495301D01*
X133783626Y-71495301D01*
G37*
D22*
G04 #@! TD*
G04 #@! TO.P,U2,24*
G04 #@! TO.N,/D0*
X133440000Y-71620000D03*
D12*
G04 #@! TO.N,/A4*
G04 #@! TO.C,U2*
G36*
X133783626Y-71995301D02*
X133789693Y-71996201D01*
X133795643Y-71997691D01*
X133801418Y-71999758D01*
X133806962Y-72002380D01*
X133812223Y-72005533D01*
X133817150Y-72009187D01*
X133821694Y-72013306D01*
X133825813Y-72017850D01*
X133829467Y-72022777D01*
X133832620Y-72028038D01*
X133835242Y-72033582D01*
X133837309Y-72039357D01*
X133838799Y-72045307D01*
X133839699Y-72051374D01*
X133840000Y-72057500D01*
X133840000Y-72182500D01*
X133839699Y-72188626D01*
X133838799Y-72194693D01*
X133837309Y-72200643D01*
X133835242Y-72206418D01*
X133832620Y-72211962D01*
X133829467Y-72217223D01*
X133825813Y-72222150D01*
X133821694Y-72226694D01*
X133817150Y-72230813D01*
X133812223Y-72234467D01*
X133806962Y-72237620D01*
X133801418Y-72240242D01*
X133795643Y-72242309D01*
X133789693Y-72243799D01*
X133783626Y-72244699D01*
X133777500Y-72245000D01*
X133102500Y-72245000D01*
X133096374Y-72244699D01*
X133090307Y-72243799D01*
X133084357Y-72242309D01*
X133078582Y-72240242D01*
X133073038Y-72237620D01*
X133067777Y-72234467D01*
X133062850Y-72230813D01*
X133058306Y-72226694D01*
X133054187Y-72222150D01*
X133050533Y-72217223D01*
X133047380Y-72211962D01*
X133044758Y-72206418D01*
X133042691Y-72200643D01*
X133041201Y-72194693D01*
X133040301Y-72188626D01*
X133040000Y-72182500D01*
X133040000Y-72057500D01*
X133040301Y-72051374D01*
X133041201Y-72045307D01*
X133042691Y-72039357D01*
X133044758Y-72033582D01*
X133047380Y-72028038D01*
X133050533Y-72022777D01*
X133054187Y-72017850D01*
X133058306Y-72013306D01*
X133062850Y-72009187D01*
X133067777Y-72005533D01*
X133073038Y-72002380D01*
X133078582Y-71999758D01*
X133084357Y-71997691D01*
X133090307Y-71996201D01*
X133096374Y-71995301D01*
X133102500Y-71995000D01*
X133777500Y-71995000D01*
X133783626Y-71995301D01*
X133783626Y-71995301D01*
G37*
D22*
G04 #@! TD*
G04 #@! TO.P,U2,23*
G04 #@! TO.N,/A4*
X133440000Y-72120000D03*
D12*
G04 #@! TO.N,/A5*
G04 #@! TO.C,U2*
G36*
X133783626Y-72495301D02*
X133789693Y-72496201D01*
X133795643Y-72497691D01*
X133801418Y-72499758D01*
X133806962Y-72502380D01*
X133812223Y-72505533D01*
X133817150Y-72509187D01*
X133821694Y-72513306D01*
X133825813Y-72517850D01*
X133829467Y-72522777D01*
X133832620Y-72528038D01*
X133835242Y-72533582D01*
X133837309Y-72539357D01*
X133838799Y-72545307D01*
X133839699Y-72551374D01*
X133840000Y-72557500D01*
X133840000Y-72682500D01*
X133839699Y-72688626D01*
X133838799Y-72694693D01*
X133837309Y-72700643D01*
X133835242Y-72706418D01*
X133832620Y-72711962D01*
X133829467Y-72717223D01*
X133825813Y-72722150D01*
X133821694Y-72726694D01*
X133817150Y-72730813D01*
X133812223Y-72734467D01*
X133806962Y-72737620D01*
X133801418Y-72740242D01*
X133795643Y-72742309D01*
X133789693Y-72743799D01*
X133783626Y-72744699D01*
X133777500Y-72745000D01*
X133102500Y-72745000D01*
X133096374Y-72744699D01*
X133090307Y-72743799D01*
X133084357Y-72742309D01*
X133078582Y-72740242D01*
X133073038Y-72737620D01*
X133067777Y-72734467D01*
X133062850Y-72730813D01*
X133058306Y-72726694D01*
X133054187Y-72722150D01*
X133050533Y-72717223D01*
X133047380Y-72711962D01*
X133044758Y-72706418D01*
X133042691Y-72700643D01*
X133041201Y-72694693D01*
X133040301Y-72688626D01*
X133040000Y-72682500D01*
X133040000Y-72557500D01*
X133040301Y-72551374D01*
X133041201Y-72545307D01*
X133042691Y-72539357D01*
X133044758Y-72533582D01*
X133047380Y-72528038D01*
X133050533Y-72522777D01*
X133054187Y-72517850D01*
X133058306Y-72513306D01*
X133062850Y-72509187D01*
X133067777Y-72505533D01*
X133073038Y-72502380D01*
X133078582Y-72499758D01*
X133084357Y-72497691D01*
X133090307Y-72496201D01*
X133096374Y-72495301D01*
X133102500Y-72495000D01*
X133777500Y-72495000D01*
X133783626Y-72495301D01*
X133783626Y-72495301D01*
G37*
D22*
G04 #@! TD*
G04 #@! TO.P,U2,22*
G04 #@! TO.N,/A5*
X133440000Y-72620000D03*
D12*
G04 #@! TO.N,/D5*
G04 #@! TO.C,U2*
G36*
X134458626Y-73170301D02*
X134464693Y-73171201D01*
X134470643Y-73172691D01*
X134476418Y-73174758D01*
X134481962Y-73177380D01*
X134487223Y-73180533D01*
X134492150Y-73184187D01*
X134496694Y-73188306D01*
X134500813Y-73192850D01*
X134504467Y-73197777D01*
X134507620Y-73203038D01*
X134510242Y-73208582D01*
X134512309Y-73214357D01*
X134513799Y-73220307D01*
X134514699Y-73226374D01*
X134515000Y-73232500D01*
X134515000Y-73907500D01*
X134514699Y-73913626D01*
X134513799Y-73919693D01*
X134512309Y-73925643D01*
X134510242Y-73931418D01*
X134507620Y-73936962D01*
X134504467Y-73942223D01*
X134500813Y-73947150D01*
X134496694Y-73951694D01*
X134492150Y-73955813D01*
X134487223Y-73959467D01*
X134481962Y-73962620D01*
X134476418Y-73965242D01*
X134470643Y-73967309D01*
X134464693Y-73968799D01*
X134458626Y-73969699D01*
X134452500Y-73970000D01*
X134327500Y-73970000D01*
X134321374Y-73969699D01*
X134315307Y-73968799D01*
X134309357Y-73967309D01*
X134303582Y-73965242D01*
X134298038Y-73962620D01*
X134292777Y-73959467D01*
X134287850Y-73955813D01*
X134283306Y-73951694D01*
X134279187Y-73947150D01*
X134275533Y-73942223D01*
X134272380Y-73936962D01*
X134269758Y-73931418D01*
X134267691Y-73925643D01*
X134266201Y-73919693D01*
X134265301Y-73913626D01*
X134265000Y-73907500D01*
X134265000Y-73232500D01*
X134265301Y-73226374D01*
X134266201Y-73220307D01*
X134267691Y-73214357D01*
X134269758Y-73208582D01*
X134272380Y-73203038D01*
X134275533Y-73197777D01*
X134279187Y-73192850D01*
X134283306Y-73188306D01*
X134287850Y-73184187D01*
X134292777Y-73180533D01*
X134298038Y-73177380D01*
X134303582Y-73174758D01*
X134309357Y-73172691D01*
X134315307Y-73171201D01*
X134321374Y-73170301D01*
X134327500Y-73170000D01*
X134452500Y-73170000D01*
X134458626Y-73170301D01*
X134458626Y-73170301D01*
G37*
D22*
G04 #@! TD*
G04 #@! TO.P,U2,21*
G04 #@! TO.N,/D5*
X134390000Y-73570000D03*
D12*
G04 #@! TO.N,/MISO*
G04 #@! TO.C,U2*
G36*
X134958626Y-73170301D02*
X134964693Y-73171201D01*
X134970643Y-73172691D01*
X134976418Y-73174758D01*
X134981962Y-73177380D01*
X134987223Y-73180533D01*
X134992150Y-73184187D01*
X134996694Y-73188306D01*
X135000813Y-73192850D01*
X135004467Y-73197777D01*
X135007620Y-73203038D01*
X135010242Y-73208582D01*
X135012309Y-73214357D01*
X135013799Y-73220307D01*
X135014699Y-73226374D01*
X135015000Y-73232500D01*
X135015000Y-73907500D01*
X135014699Y-73913626D01*
X135013799Y-73919693D01*
X135012309Y-73925643D01*
X135010242Y-73931418D01*
X135007620Y-73936962D01*
X135004467Y-73942223D01*
X135000813Y-73947150D01*
X134996694Y-73951694D01*
X134992150Y-73955813D01*
X134987223Y-73959467D01*
X134981962Y-73962620D01*
X134976418Y-73965242D01*
X134970643Y-73967309D01*
X134964693Y-73968799D01*
X134958626Y-73969699D01*
X134952500Y-73970000D01*
X134827500Y-73970000D01*
X134821374Y-73969699D01*
X134815307Y-73968799D01*
X134809357Y-73967309D01*
X134803582Y-73965242D01*
X134798038Y-73962620D01*
X134792777Y-73959467D01*
X134787850Y-73955813D01*
X134783306Y-73951694D01*
X134779187Y-73947150D01*
X134775533Y-73942223D01*
X134772380Y-73936962D01*
X134769758Y-73931418D01*
X134767691Y-73925643D01*
X134766201Y-73919693D01*
X134765301Y-73913626D01*
X134765000Y-73907500D01*
X134765000Y-73232500D01*
X134765301Y-73226374D01*
X134766201Y-73220307D01*
X134767691Y-73214357D01*
X134769758Y-73208582D01*
X134772380Y-73203038D01*
X134775533Y-73197777D01*
X134779187Y-73192850D01*
X134783306Y-73188306D01*
X134787850Y-73184187D01*
X134792777Y-73180533D01*
X134798038Y-73177380D01*
X134803582Y-73174758D01*
X134809357Y-73172691D01*
X134815307Y-73171201D01*
X134821374Y-73170301D01*
X134827500Y-73170000D01*
X134952500Y-73170000D01*
X134958626Y-73170301D01*
X134958626Y-73170301D01*
G37*
D22*
G04 #@! TD*
G04 #@! TO.P,U2,20*
G04 #@! TO.N,/MISO*
X134890000Y-73570000D03*
D12*
G04 #@! TO.N,/MOSI*
G04 #@! TO.C,U2*
G36*
X135458626Y-73170301D02*
X135464693Y-73171201D01*
X135470643Y-73172691D01*
X135476418Y-73174758D01*
X135481962Y-73177380D01*
X135487223Y-73180533D01*
X135492150Y-73184187D01*
X135496694Y-73188306D01*
X135500813Y-73192850D01*
X135504467Y-73197777D01*
X135507620Y-73203038D01*
X135510242Y-73208582D01*
X135512309Y-73214357D01*
X135513799Y-73220307D01*
X135514699Y-73226374D01*
X135515000Y-73232500D01*
X135515000Y-73907500D01*
X135514699Y-73913626D01*
X135513799Y-73919693D01*
X135512309Y-73925643D01*
X135510242Y-73931418D01*
X135507620Y-73936962D01*
X135504467Y-73942223D01*
X135500813Y-73947150D01*
X135496694Y-73951694D01*
X135492150Y-73955813D01*
X135487223Y-73959467D01*
X135481962Y-73962620D01*
X135476418Y-73965242D01*
X135470643Y-73967309D01*
X135464693Y-73968799D01*
X135458626Y-73969699D01*
X135452500Y-73970000D01*
X135327500Y-73970000D01*
X135321374Y-73969699D01*
X135315307Y-73968799D01*
X135309357Y-73967309D01*
X135303582Y-73965242D01*
X135298038Y-73962620D01*
X135292777Y-73959467D01*
X135287850Y-73955813D01*
X135283306Y-73951694D01*
X135279187Y-73947150D01*
X135275533Y-73942223D01*
X135272380Y-73936962D01*
X135269758Y-73931418D01*
X135267691Y-73925643D01*
X135266201Y-73919693D01*
X135265301Y-73913626D01*
X135265000Y-73907500D01*
X135265000Y-73232500D01*
X135265301Y-73226374D01*
X135266201Y-73220307D01*
X135267691Y-73214357D01*
X135269758Y-73208582D01*
X135272380Y-73203038D01*
X135275533Y-73197777D01*
X135279187Y-73192850D01*
X135283306Y-73188306D01*
X135287850Y-73184187D01*
X135292777Y-73180533D01*
X135298038Y-73177380D01*
X135303582Y-73174758D01*
X135309357Y-73172691D01*
X135315307Y-73171201D01*
X135321374Y-73170301D01*
X135327500Y-73170000D01*
X135452500Y-73170000D01*
X135458626Y-73170301D01*
X135458626Y-73170301D01*
G37*
D22*
G04 #@! TD*
G04 #@! TO.P,U2,19*
G04 #@! TO.N,/MOSI*
X135390000Y-73570000D03*
D12*
G04 #@! TO.N,/SCK*
G04 #@! TO.C,U2*
G36*
X135958626Y-73170301D02*
X135964693Y-73171201D01*
X135970643Y-73172691D01*
X135976418Y-73174758D01*
X135981962Y-73177380D01*
X135987223Y-73180533D01*
X135992150Y-73184187D01*
X135996694Y-73188306D01*
X136000813Y-73192850D01*
X136004467Y-73197777D01*
X136007620Y-73203038D01*
X136010242Y-73208582D01*
X136012309Y-73214357D01*
X136013799Y-73220307D01*
X136014699Y-73226374D01*
X136015000Y-73232500D01*
X136015000Y-73907500D01*
X136014699Y-73913626D01*
X136013799Y-73919693D01*
X136012309Y-73925643D01*
X136010242Y-73931418D01*
X136007620Y-73936962D01*
X136004467Y-73942223D01*
X136000813Y-73947150D01*
X135996694Y-73951694D01*
X135992150Y-73955813D01*
X135987223Y-73959467D01*
X135981962Y-73962620D01*
X135976418Y-73965242D01*
X135970643Y-73967309D01*
X135964693Y-73968799D01*
X135958626Y-73969699D01*
X135952500Y-73970000D01*
X135827500Y-73970000D01*
X135821374Y-73969699D01*
X135815307Y-73968799D01*
X135809357Y-73967309D01*
X135803582Y-73965242D01*
X135798038Y-73962620D01*
X135792777Y-73959467D01*
X135787850Y-73955813D01*
X135783306Y-73951694D01*
X135779187Y-73947150D01*
X135775533Y-73942223D01*
X135772380Y-73936962D01*
X135769758Y-73931418D01*
X135767691Y-73925643D01*
X135766201Y-73919693D01*
X135765301Y-73913626D01*
X135765000Y-73907500D01*
X135765000Y-73232500D01*
X135765301Y-73226374D01*
X135766201Y-73220307D01*
X135767691Y-73214357D01*
X135769758Y-73208582D01*
X135772380Y-73203038D01*
X135775533Y-73197777D01*
X135779187Y-73192850D01*
X135783306Y-73188306D01*
X135787850Y-73184187D01*
X135792777Y-73180533D01*
X135798038Y-73177380D01*
X135803582Y-73174758D01*
X135809357Y-73172691D01*
X135815307Y-73171201D01*
X135821374Y-73170301D01*
X135827500Y-73170000D01*
X135952500Y-73170000D01*
X135958626Y-73170301D01*
X135958626Y-73170301D01*
G37*
D22*
G04 #@! TD*
G04 #@! TO.P,U2,18*
G04 #@! TO.N,/SCK*
X135890000Y-73570000D03*
D12*
G04 #@! TO.N,/SDA*
G04 #@! TO.C,U2*
G36*
X136458626Y-73170301D02*
X136464693Y-73171201D01*
X136470643Y-73172691D01*
X136476418Y-73174758D01*
X136481962Y-73177380D01*
X136487223Y-73180533D01*
X136492150Y-73184187D01*
X136496694Y-73188306D01*
X136500813Y-73192850D01*
X136504467Y-73197777D01*
X136507620Y-73203038D01*
X136510242Y-73208582D01*
X136512309Y-73214357D01*
X136513799Y-73220307D01*
X136514699Y-73226374D01*
X136515000Y-73232500D01*
X136515000Y-73907500D01*
X136514699Y-73913626D01*
X136513799Y-73919693D01*
X136512309Y-73925643D01*
X136510242Y-73931418D01*
X136507620Y-73936962D01*
X136504467Y-73942223D01*
X136500813Y-73947150D01*
X136496694Y-73951694D01*
X136492150Y-73955813D01*
X136487223Y-73959467D01*
X136481962Y-73962620D01*
X136476418Y-73965242D01*
X136470643Y-73967309D01*
X136464693Y-73968799D01*
X136458626Y-73969699D01*
X136452500Y-73970000D01*
X136327500Y-73970000D01*
X136321374Y-73969699D01*
X136315307Y-73968799D01*
X136309357Y-73967309D01*
X136303582Y-73965242D01*
X136298038Y-73962620D01*
X136292777Y-73959467D01*
X136287850Y-73955813D01*
X136283306Y-73951694D01*
X136279187Y-73947150D01*
X136275533Y-73942223D01*
X136272380Y-73936962D01*
X136269758Y-73931418D01*
X136267691Y-73925643D01*
X136266201Y-73919693D01*
X136265301Y-73913626D01*
X136265000Y-73907500D01*
X136265000Y-73232500D01*
X136265301Y-73226374D01*
X136266201Y-73220307D01*
X136267691Y-73214357D01*
X136269758Y-73208582D01*
X136272380Y-73203038D01*
X136275533Y-73197777D01*
X136279187Y-73192850D01*
X136283306Y-73188306D01*
X136287850Y-73184187D01*
X136292777Y-73180533D01*
X136298038Y-73177380D01*
X136303582Y-73174758D01*
X136309357Y-73172691D01*
X136315307Y-73171201D01*
X136321374Y-73170301D01*
X136327500Y-73170000D01*
X136452500Y-73170000D01*
X136458626Y-73170301D01*
X136458626Y-73170301D01*
G37*
D22*
G04 #@! TD*
G04 #@! TO.P,U2,17*
G04 #@! TO.N,/SDA*
X136390000Y-73570000D03*
D12*
G04 #@! TO.N,/SCL*
G04 #@! TO.C,U2*
G36*
X136958626Y-73170301D02*
X136964693Y-73171201D01*
X136970643Y-73172691D01*
X136976418Y-73174758D01*
X136981962Y-73177380D01*
X136987223Y-73180533D01*
X136992150Y-73184187D01*
X136996694Y-73188306D01*
X137000813Y-73192850D01*
X137004467Y-73197777D01*
X137007620Y-73203038D01*
X137010242Y-73208582D01*
X137012309Y-73214357D01*
X137013799Y-73220307D01*
X137014699Y-73226374D01*
X137015000Y-73232500D01*
X137015000Y-73907500D01*
X137014699Y-73913626D01*
X137013799Y-73919693D01*
X137012309Y-73925643D01*
X137010242Y-73931418D01*
X137007620Y-73936962D01*
X137004467Y-73942223D01*
X137000813Y-73947150D01*
X136996694Y-73951694D01*
X136992150Y-73955813D01*
X136987223Y-73959467D01*
X136981962Y-73962620D01*
X136976418Y-73965242D01*
X136970643Y-73967309D01*
X136964693Y-73968799D01*
X136958626Y-73969699D01*
X136952500Y-73970000D01*
X136827500Y-73970000D01*
X136821374Y-73969699D01*
X136815307Y-73968799D01*
X136809357Y-73967309D01*
X136803582Y-73965242D01*
X136798038Y-73962620D01*
X136792777Y-73959467D01*
X136787850Y-73955813D01*
X136783306Y-73951694D01*
X136779187Y-73947150D01*
X136775533Y-73942223D01*
X136772380Y-73936962D01*
X136769758Y-73931418D01*
X136767691Y-73925643D01*
X136766201Y-73919693D01*
X136765301Y-73913626D01*
X136765000Y-73907500D01*
X136765000Y-73232500D01*
X136765301Y-73226374D01*
X136766201Y-73220307D01*
X136767691Y-73214357D01*
X136769758Y-73208582D01*
X136772380Y-73203038D01*
X136775533Y-73197777D01*
X136779187Y-73192850D01*
X136783306Y-73188306D01*
X136787850Y-73184187D01*
X136792777Y-73180533D01*
X136798038Y-73177380D01*
X136803582Y-73174758D01*
X136809357Y-73172691D01*
X136815307Y-73171201D01*
X136821374Y-73170301D01*
X136827500Y-73170000D01*
X136952500Y-73170000D01*
X136958626Y-73170301D01*
X136958626Y-73170301D01*
G37*
D22*
G04 #@! TD*
G04 #@! TO.P,U2,16*
G04 #@! TO.N,/SCL*
X136890000Y-73570000D03*
D12*
G04 #@! TO.N,/D6*
G04 #@! TO.C,U2*
G36*
X137458626Y-73170301D02*
X137464693Y-73171201D01*
X137470643Y-73172691D01*
X137476418Y-73174758D01*
X137481962Y-73177380D01*
X137487223Y-73180533D01*
X137492150Y-73184187D01*
X137496694Y-73188306D01*
X137500813Y-73192850D01*
X137504467Y-73197777D01*
X137507620Y-73203038D01*
X137510242Y-73208582D01*
X137512309Y-73214357D01*
X137513799Y-73220307D01*
X137514699Y-73226374D01*
X137515000Y-73232500D01*
X137515000Y-73907500D01*
X137514699Y-73913626D01*
X137513799Y-73919693D01*
X137512309Y-73925643D01*
X137510242Y-73931418D01*
X137507620Y-73936962D01*
X137504467Y-73942223D01*
X137500813Y-73947150D01*
X137496694Y-73951694D01*
X137492150Y-73955813D01*
X137487223Y-73959467D01*
X137481962Y-73962620D01*
X137476418Y-73965242D01*
X137470643Y-73967309D01*
X137464693Y-73968799D01*
X137458626Y-73969699D01*
X137452500Y-73970000D01*
X137327500Y-73970000D01*
X137321374Y-73969699D01*
X137315307Y-73968799D01*
X137309357Y-73967309D01*
X137303582Y-73965242D01*
X137298038Y-73962620D01*
X137292777Y-73959467D01*
X137287850Y-73955813D01*
X137283306Y-73951694D01*
X137279187Y-73947150D01*
X137275533Y-73942223D01*
X137272380Y-73936962D01*
X137269758Y-73931418D01*
X137267691Y-73925643D01*
X137266201Y-73919693D01*
X137265301Y-73913626D01*
X137265000Y-73907500D01*
X137265000Y-73232500D01*
X137265301Y-73226374D01*
X137266201Y-73220307D01*
X137267691Y-73214357D01*
X137269758Y-73208582D01*
X137272380Y-73203038D01*
X137275533Y-73197777D01*
X137279187Y-73192850D01*
X137283306Y-73188306D01*
X137287850Y-73184187D01*
X137292777Y-73180533D01*
X137298038Y-73177380D01*
X137303582Y-73174758D01*
X137309357Y-73172691D01*
X137315307Y-73171201D01*
X137321374Y-73170301D01*
X137327500Y-73170000D01*
X137452500Y-73170000D01*
X137458626Y-73170301D01*
X137458626Y-73170301D01*
G37*
D22*
G04 #@! TD*
G04 #@! TO.P,U2,15*
G04 #@! TO.N,/D6*
X137390000Y-73570000D03*
D12*
G04 #@! TO.N,/D9*
G04 #@! TO.C,U2*
G36*
X138683626Y-72495301D02*
X138689693Y-72496201D01*
X138695643Y-72497691D01*
X138701418Y-72499758D01*
X138706962Y-72502380D01*
X138712223Y-72505533D01*
X138717150Y-72509187D01*
X138721694Y-72513306D01*
X138725813Y-72517850D01*
X138729467Y-72522777D01*
X138732620Y-72528038D01*
X138735242Y-72533582D01*
X138737309Y-72539357D01*
X138738799Y-72545307D01*
X138739699Y-72551374D01*
X138740000Y-72557500D01*
X138740000Y-72682500D01*
X138739699Y-72688626D01*
X138738799Y-72694693D01*
X138737309Y-72700643D01*
X138735242Y-72706418D01*
X138732620Y-72711962D01*
X138729467Y-72717223D01*
X138725813Y-72722150D01*
X138721694Y-72726694D01*
X138717150Y-72730813D01*
X138712223Y-72734467D01*
X138706962Y-72737620D01*
X138701418Y-72740242D01*
X138695643Y-72742309D01*
X138689693Y-72743799D01*
X138683626Y-72744699D01*
X138677500Y-72745000D01*
X138002500Y-72745000D01*
X137996374Y-72744699D01*
X137990307Y-72743799D01*
X137984357Y-72742309D01*
X137978582Y-72740242D01*
X137973038Y-72737620D01*
X137967777Y-72734467D01*
X137962850Y-72730813D01*
X137958306Y-72726694D01*
X137954187Y-72722150D01*
X137950533Y-72717223D01*
X137947380Y-72711962D01*
X137944758Y-72706418D01*
X137942691Y-72700643D01*
X137941201Y-72694693D01*
X137940301Y-72688626D01*
X137940000Y-72682500D01*
X137940000Y-72557500D01*
X137940301Y-72551374D01*
X137941201Y-72545307D01*
X137942691Y-72539357D01*
X137944758Y-72533582D01*
X137947380Y-72528038D01*
X137950533Y-72522777D01*
X137954187Y-72517850D01*
X137958306Y-72513306D01*
X137962850Y-72509187D01*
X137967777Y-72505533D01*
X137973038Y-72502380D01*
X137978582Y-72499758D01*
X137984357Y-72497691D01*
X137990307Y-72496201D01*
X137996374Y-72495301D01*
X138002500Y-72495000D01*
X138677500Y-72495000D01*
X138683626Y-72495301D01*
X138683626Y-72495301D01*
G37*
D22*
G04 #@! TD*
G04 #@! TO.P,U2,14*
G04 #@! TO.N,/D9*
X138340000Y-72620000D03*
D12*
G04 #@! TO.N,/D10*
G04 #@! TO.C,U2*
G36*
X138683626Y-71995301D02*
X138689693Y-71996201D01*
X138695643Y-71997691D01*
X138701418Y-71999758D01*
X138706962Y-72002380D01*
X138712223Y-72005533D01*
X138717150Y-72009187D01*
X138721694Y-72013306D01*
X138725813Y-72017850D01*
X138729467Y-72022777D01*
X138732620Y-72028038D01*
X138735242Y-72033582D01*
X138737309Y-72039357D01*
X138738799Y-72045307D01*
X138739699Y-72051374D01*
X138740000Y-72057500D01*
X138740000Y-72182500D01*
X138739699Y-72188626D01*
X138738799Y-72194693D01*
X138737309Y-72200643D01*
X138735242Y-72206418D01*
X138732620Y-72211962D01*
X138729467Y-72217223D01*
X138725813Y-72222150D01*
X138721694Y-72226694D01*
X138717150Y-72230813D01*
X138712223Y-72234467D01*
X138706962Y-72237620D01*
X138701418Y-72240242D01*
X138695643Y-72242309D01*
X138689693Y-72243799D01*
X138683626Y-72244699D01*
X138677500Y-72245000D01*
X138002500Y-72245000D01*
X137996374Y-72244699D01*
X137990307Y-72243799D01*
X137984357Y-72242309D01*
X137978582Y-72240242D01*
X137973038Y-72237620D01*
X137967777Y-72234467D01*
X137962850Y-72230813D01*
X137958306Y-72226694D01*
X137954187Y-72222150D01*
X137950533Y-72217223D01*
X137947380Y-72211962D01*
X137944758Y-72206418D01*
X137942691Y-72200643D01*
X137941201Y-72194693D01*
X137940301Y-72188626D01*
X137940000Y-72182500D01*
X137940000Y-72057500D01*
X137940301Y-72051374D01*
X137941201Y-72045307D01*
X137942691Y-72039357D01*
X137944758Y-72033582D01*
X137947380Y-72028038D01*
X137950533Y-72022777D01*
X137954187Y-72017850D01*
X137958306Y-72013306D01*
X137962850Y-72009187D01*
X137967777Y-72005533D01*
X137973038Y-72002380D01*
X137978582Y-71999758D01*
X137984357Y-71997691D01*
X137990307Y-71996201D01*
X137996374Y-71995301D01*
X138002500Y-71995000D01*
X138677500Y-71995000D01*
X138683626Y-71995301D01*
X138683626Y-71995301D01*
G37*
D22*
G04 #@! TD*
G04 #@! TO.P,U2,13*
G04 #@! TO.N,/D10*
X138340000Y-72120000D03*
D12*
G04 #@! TO.N,/D11*
G04 #@! TO.C,U2*
G36*
X138683626Y-71495301D02*
X138689693Y-71496201D01*
X138695643Y-71497691D01*
X138701418Y-71499758D01*
X138706962Y-71502380D01*
X138712223Y-71505533D01*
X138717150Y-71509187D01*
X138721694Y-71513306D01*
X138725813Y-71517850D01*
X138729467Y-71522777D01*
X138732620Y-71528038D01*
X138735242Y-71533582D01*
X138737309Y-71539357D01*
X138738799Y-71545307D01*
X138739699Y-71551374D01*
X138740000Y-71557500D01*
X138740000Y-71682500D01*
X138739699Y-71688626D01*
X138738799Y-71694693D01*
X138737309Y-71700643D01*
X138735242Y-71706418D01*
X138732620Y-71711962D01*
X138729467Y-71717223D01*
X138725813Y-71722150D01*
X138721694Y-71726694D01*
X138717150Y-71730813D01*
X138712223Y-71734467D01*
X138706962Y-71737620D01*
X138701418Y-71740242D01*
X138695643Y-71742309D01*
X138689693Y-71743799D01*
X138683626Y-71744699D01*
X138677500Y-71745000D01*
X138002500Y-71745000D01*
X137996374Y-71744699D01*
X137990307Y-71743799D01*
X137984357Y-71742309D01*
X137978582Y-71740242D01*
X137973038Y-71737620D01*
X137967777Y-71734467D01*
X137962850Y-71730813D01*
X137958306Y-71726694D01*
X137954187Y-71722150D01*
X137950533Y-71717223D01*
X137947380Y-71711962D01*
X137944758Y-71706418D01*
X137942691Y-71700643D01*
X137941201Y-71694693D01*
X137940301Y-71688626D01*
X137940000Y-71682500D01*
X137940000Y-71557500D01*
X137940301Y-71551374D01*
X137941201Y-71545307D01*
X137942691Y-71539357D01*
X137944758Y-71533582D01*
X137947380Y-71528038D01*
X137950533Y-71522777D01*
X137954187Y-71517850D01*
X137958306Y-71513306D01*
X137962850Y-71509187D01*
X137967777Y-71505533D01*
X137973038Y-71502380D01*
X137978582Y-71499758D01*
X137984357Y-71497691D01*
X137990307Y-71496201D01*
X137996374Y-71495301D01*
X138002500Y-71495000D01*
X138677500Y-71495000D01*
X138683626Y-71495301D01*
X138683626Y-71495301D01*
G37*
D22*
G04 #@! TD*
G04 #@! TO.P,U2,12*
G04 #@! TO.N,/D11*
X138340000Y-71620000D03*
D12*
G04 #@! TO.N,/D12*
G04 #@! TO.C,U2*
G36*
X138683626Y-70995301D02*
X138689693Y-70996201D01*
X138695643Y-70997691D01*
X138701418Y-70999758D01*
X138706962Y-71002380D01*
X138712223Y-71005533D01*
X138717150Y-71009187D01*
X138721694Y-71013306D01*
X138725813Y-71017850D01*
X138729467Y-71022777D01*
X138732620Y-71028038D01*
X138735242Y-71033582D01*
X138737309Y-71039357D01*
X138738799Y-71045307D01*
X138739699Y-71051374D01*
X138740000Y-71057500D01*
X138740000Y-71182500D01*
X138739699Y-71188626D01*
X138738799Y-71194693D01*
X138737309Y-71200643D01*
X138735242Y-71206418D01*
X138732620Y-71211962D01*
X138729467Y-71217223D01*
X138725813Y-71222150D01*
X138721694Y-71226694D01*
X138717150Y-71230813D01*
X138712223Y-71234467D01*
X138706962Y-71237620D01*
X138701418Y-71240242D01*
X138695643Y-71242309D01*
X138689693Y-71243799D01*
X138683626Y-71244699D01*
X138677500Y-71245000D01*
X138002500Y-71245000D01*
X137996374Y-71244699D01*
X137990307Y-71243799D01*
X137984357Y-71242309D01*
X137978582Y-71240242D01*
X137973038Y-71237620D01*
X137967777Y-71234467D01*
X137962850Y-71230813D01*
X137958306Y-71226694D01*
X137954187Y-71222150D01*
X137950533Y-71217223D01*
X137947380Y-71211962D01*
X137944758Y-71206418D01*
X137942691Y-71200643D01*
X137941201Y-71194693D01*
X137940301Y-71188626D01*
X137940000Y-71182500D01*
X137940000Y-71057500D01*
X137940301Y-71051374D01*
X137941201Y-71045307D01*
X137942691Y-71039357D01*
X137944758Y-71033582D01*
X137947380Y-71028038D01*
X137950533Y-71022777D01*
X137954187Y-71017850D01*
X137958306Y-71013306D01*
X137962850Y-71009187D01*
X137967777Y-71005533D01*
X137973038Y-71002380D01*
X137978582Y-70999758D01*
X137984357Y-70997691D01*
X137990307Y-70996201D01*
X137996374Y-70995301D01*
X138002500Y-70995000D01*
X138677500Y-70995000D01*
X138683626Y-70995301D01*
X138683626Y-70995301D01*
G37*
D22*
G04 #@! TD*
G04 #@! TO.P,U2,11*
G04 #@! TO.N,/D12*
X138340000Y-71120000D03*
D12*
G04 #@! TO.N,/C2D*
G04 #@! TO.C,U2*
G36*
X138683626Y-70495301D02*
X138689693Y-70496201D01*
X138695643Y-70497691D01*
X138701418Y-70499758D01*
X138706962Y-70502380D01*
X138712223Y-70505533D01*
X138717150Y-70509187D01*
X138721694Y-70513306D01*
X138725813Y-70517850D01*
X138729467Y-70522777D01*
X138732620Y-70528038D01*
X138735242Y-70533582D01*
X138737309Y-70539357D01*
X138738799Y-70545307D01*
X138739699Y-70551374D01*
X138740000Y-70557500D01*
X138740000Y-70682500D01*
X138739699Y-70688626D01*
X138738799Y-70694693D01*
X138737309Y-70700643D01*
X138735242Y-70706418D01*
X138732620Y-70711962D01*
X138729467Y-70717223D01*
X138725813Y-70722150D01*
X138721694Y-70726694D01*
X138717150Y-70730813D01*
X138712223Y-70734467D01*
X138706962Y-70737620D01*
X138701418Y-70740242D01*
X138695643Y-70742309D01*
X138689693Y-70743799D01*
X138683626Y-70744699D01*
X138677500Y-70745000D01*
X138002500Y-70745000D01*
X137996374Y-70744699D01*
X137990307Y-70743799D01*
X137984357Y-70742309D01*
X137978582Y-70740242D01*
X137973038Y-70737620D01*
X137967777Y-70734467D01*
X137962850Y-70730813D01*
X137958306Y-70726694D01*
X137954187Y-70722150D01*
X137950533Y-70717223D01*
X137947380Y-70711962D01*
X137944758Y-70706418D01*
X137942691Y-70700643D01*
X137941201Y-70694693D01*
X137940301Y-70688626D01*
X137940000Y-70682500D01*
X137940000Y-70557500D01*
X137940301Y-70551374D01*
X137941201Y-70545307D01*
X137942691Y-70539357D01*
X137944758Y-70533582D01*
X137947380Y-70528038D01*
X137950533Y-70522777D01*
X137954187Y-70517850D01*
X137958306Y-70513306D01*
X137962850Y-70509187D01*
X137967777Y-70505533D01*
X137973038Y-70502380D01*
X137978582Y-70499758D01*
X137984357Y-70497691D01*
X137990307Y-70496201D01*
X137996374Y-70495301D01*
X138002500Y-70495000D01*
X138677500Y-70495000D01*
X138683626Y-70495301D01*
X138683626Y-70495301D01*
G37*
D22*
G04 #@! TD*
G04 #@! TO.P,U2,10*
G04 #@! TO.N,/C2D*
X138340000Y-70620000D03*
D12*
G04 #@! TO.N,/C2CK*
G04 #@! TO.C,U2*
G36*
X138683626Y-69995301D02*
X138689693Y-69996201D01*
X138695643Y-69997691D01*
X138701418Y-69999758D01*
X138706962Y-70002380D01*
X138712223Y-70005533D01*
X138717150Y-70009187D01*
X138721694Y-70013306D01*
X138725813Y-70017850D01*
X138729467Y-70022777D01*
X138732620Y-70028038D01*
X138735242Y-70033582D01*
X138737309Y-70039357D01*
X138738799Y-70045307D01*
X138739699Y-70051374D01*
X138740000Y-70057500D01*
X138740000Y-70182500D01*
X138739699Y-70188626D01*
X138738799Y-70194693D01*
X138737309Y-70200643D01*
X138735242Y-70206418D01*
X138732620Y-70211962D01*
X138729467Y-70217223D01*
X138725813Y-70222150D01*
X138721694Y-70226694D01*
X138717150Y-70230813D01*
X138712223Y-70234467D01*
X138706962Y-70237620D01*
X138701418Y-70240242D01*
X138695643Y-70242309D01*
X138689693Y-70243799D01*
X138683626Y-70244699D01*
X138677500Y-70245000D01*
X138002500Y-70245000D01*
X137996374Y-70244699D01*
X137990307Y-70243799D01*
X137984357Y-70242309D01*
X137978582Y-70240242D01*
X137973038Y-70237620D01*
X137967777Y-70234467D01*
X137962850Y-70230813D01*
X137958306Y-70226694D01*
X137954187Y-70222150D01*
X137950533Y-70217223D01*
X137947380Y-70211962D01*
X137944758Y-70206418D01*
X137942691Y-70200643D01*
X137941201Y-70194693D01*
X137940301Y-70188626D01*
X137940000Y-70182500D01*
X137940000Y-70057500D01*
X137940301Y-70051374D01*
X137941201Y-70045307D01*
X137942691Y-70039357D01*
X137944758Y-70033582D01*
X137947380Y-70028038D01*
X137950533Y-70022777D01*
X137954187Y-70017850D01*
X137958306Y-70013306D01*
X137962850Y-70009187D01*
X137967777Y-70005533D01*
X137973038Y-70002380D01*
X137978582Y-69999758D01*
X137984357Y-69997691D01*
X137990307Y-69996201D01*
X137996374Y-69995301D01*
X138002500Y-69995000D01*
X138677500Y-69995000D01*
X138683626Y-69995301D01*
X138683626Y-69995301D01*
G37*
D22*
G04 #@! TD*
G04 #@! TO.P,U2,9*
G04 #@! TO.N,/C2CK*
X138340000Y-70120000D03*
D12*
G04 #@! TO.N,/D13*
G04 #@! TO.C,U2*
G36*
X138683626Y-69495301D02*
X138689693Y-69496201D01*
X138695643Y-69497691D01*
X138701418Y-69499758D01*
X138706962Y-69502380D01*
X138712223Y-69505533D01*
X138717150Y-69509187D01*
X138721694Y-69513306D01*
X138725813Y-69517850D01*
X138729467Y-69522777D01*
X138732620Y-69528038D01*
X138735242Y-69533582D01*
X138737309Y-69539357D01*
X138738799Y-69545307D01*
X138739699Y-69551374D01*
X138740000Y-69557500D01*
X138740000Y-69682500D01*
X138739699Y-69688626D01*
X138738799Y-69694693D01*
X138737309Y-69700643D01*
X138735242Y-69706418D01*
X138732620Y-69711962D01*
X138729467Y-69717223D01*
X138725813Y-69722150D01*
X138721694Y-69726694D01*
X138717150Y-69730813D01*
X138712223Y-69734467D01*
X138706962Y-69737620D01*
X138701418Y-69740242D01*
X138695643Y-69742309D01*
X138689693Y-69743799D01*
X138683626Y-69744699D01*
X138677500Y-69745000D01*
X138002500Y-69745000D01*
X137996374Y-69744699D01*
X137990307Y-69743799D01*
X137984357Y-69742309D01*
X137978582Y-69740242D01*
X137973038Y-69737620D01*
X137967777Y-69734467D01*
X137962850Y-69730813D01*
X137958306Y-69726694D01*
X137954187Y-69722150D01*
X137950533Y-69717223D01*
X137947380Y-69711962D01*
X137944758Y-69706418D01*
X137942691Y-69700643D01*
X137941201Y-69694693D01*
X137940301Y-69688626D01*
X137940000Y-69682500D01*
X137940000Y-69557500D01*
X137940301Y-69551374D01*
X137941201Y-69545307D01*
X137942691Y-69539357D01*
X137944758Y-69533582D01*
X137947380Y-69528038D01*
X137950533Y-69522777D01*
X137954187Y-69517850D01*
X137958306Y-69513306D01*
X137962850Y-69509187D01*
X137967777Y-69505533D01*
X137973038Y-69502380D01*
X137978582Y-69499758D01*
X137984357Y-69497691D01*
X137990307Y-69496201D01*
X137996374Y-69495301D01*
X138002500Y-69495000D01*
X138677500Y-69495000D01*
X138683626Y-69495301D01*
X138683626Y-69495301D01*
G37*
D22*
G04 #@! TD*
G04 #@! TO.P,U2,8*
G04 #@! TO.N,/D13*
X138340000Y-69620000D03*
D12*
G04 #@! TO.N,+3V3*
G04 #@! TO.C,U2*
G36*
X137458626Y-68270301D02*
X137464693Y-68271201D01*
X137470643Y-68272691D01*
X137476418Y-68274758D01*
X137481962Y-68277380D01*
X137487223Y-68280533D01*
X137492150Y-68284187D01*
X137496694Y-68288306D01*
X137500813Y-68292850D01*
X137504467Y-68297777D01*
X137507620Y-68303038D01*
X137510242Y-68308582D01*
X137512309Y-68314357D01*
X137513799Y-68320307D01*
X137514699Y-68326374D01*
X137515000Y-68332500D01*
X137515000Y-69007500D01*
X137514699Y-69013626D01*
X137513799Y-69019693D01*
X137512309Y-69025643D01*
X137510242Y-69031418D01*
X137507620Y-69036962D01*
X137504467Y-69042223D01*
X137500813Y-69047150D01*
X137496694Y-69051694D01*
X137492150Y-69055813D01*
X137487223Y-69059467D01*
X137481962Y-69062620D01*
X137476418Y-69065242D01*
X137470643Y-69067309D01*
X137464693Y-69068799D01*
X137458626Y-69069699D01*
X137452500Y-69070000D01*
X137327500Y-69070000D01*
X137321374Y-69069699D01*
X137315307Y-69068799D01*
X137309357Y-69067309D01*
X137303582Y-69065242D01*
X137298038Y-69062620D01*
X137292777Y-69059467D01*
X137287850Y-69055813D01*
X137283306Y-69051694D01*
X137279187Y-69047150D01*
X137275533Y-69042223D01*
X137272380Y-69036962D01*
X137269758Y-69031418D01*
X137267691Y-69025643D01*
X137266201Y-69019693D01*
X137265301Y-69013626D01*
X137265000Y-69007500D01*
X137265000Y-68332500D01*
X137265301Y-68326374D01*
X137266201Y-68320307D01*
X137267691Y-68314357D01*
X137269758Y-68308582D01*
X137272380Y-68303038D01*
X137275533Y-68297777D01*
X137279187Y-68292850D01*
X137283306Y-68288306D01*
X137287850Y-68284187D01*
X137292777Y-68280533D01*
X137298038Y-68277380D01*
X137303582Y-68274758D01*
X137309357Y-68272691D01*
X137315307Y-68271201D01*
X137321374Y-68270301D01*
X137327500Y-68270000D01*
X137452500Y-68270000D01*
X137458626Y-68270301D01*
X137458626Y-68270301D01*
G37*
D22*
G04 #@! TD*
G04 #@! TO.P,U2,7*
G04 #@! TO.N,+3V3*
X137390000Y-68670000D03*
D12*
G04 #@! TO.N,+3V3*
G04 #@! TO.C,U2*
G36*
X136958626Y-68270301D02*
X136964693Y-68271201D01*
X136970643Y-68272691D01*
X136976418Y-68274758D01*
X136981962Y-68277380D01*
X136987223Y-68280533D01*
X136992150Y-68284187D01*
X136996694Y-68288306D01*
X137000813Y-68292850D01*
X137004467Y-68297777D01*
X137007620Y-68303038D01*
X137010242Y-68308582D01*
X137012309Y-68314357D01*
X137013799Y-68320307D01*
X137014699Y-68326374D01*
X137015000Y-68332500D01*
X137015000Y-69007500D01*
X137014699Y-69013626D01*
X137013799Y-69019693D01*
X137012309Y-69025643D01*
X137010242Y-69031418D01*
X137007620Y-69036962D01*
X137004467Y-69042223D01*
X137000813Y-69047150D01*
X136996694Y-69051694D01*
X136992150Y-69055813D01*
X136987223Y-69059467D01*
X136981962Y-69062620D01*
X136976418Y-69065242D01*
X136970643Y-69067309D01*
X136964693Y-69068799D01*
X136958626Y-69069699D01*
X136952500Y-69070000D01*
X136827500Y-69070000D01*
X136821374Y-69069699D01*
X136815307Y-69068799D01*
X136809357Y-69067309D01*
X136803582Y-69065242D01*
X136798038Y-69062620D01*
X136792777Y-69059467D01*
X136787850Y-69055813D01*
X136783306Y-69051694D01*
X136779187Y-69047150D01*
X136775533Y-69042223D01*
X136772380Y-69036962D01*
X136769758Y-69031418D01*
X136767691Y-69025643D01*
X136766201Y-69019693D01*
X136765301Y-69013626D01*
X136765000Y-69007500D01*
X136765000Y-68332500D01*
X136765301Y-68326374D01*
X136766201Y-68320307D01*
X136767691Y-68314357D01*
X136769758Y-68308582D01*
X136772380Y-68303038D01*
X136775533Y-68297777D01*
X136779187Y-68292850D01*
X136783306Y-68288306D01*
X136787850Y-68284187D01*
X136792777Y-68280533D01*
X136798038Y-68277380D01*
X136803582Y-68274758D01*
X136809357Y-68272691D01*
X136815307Y-68271201D01*
X136821374Y-68270301D01*
X136827500Y-68270000D01*
X136952500Y-68270000D01*
X136958626Y-68270301D01*
X136958626Y-68270301D01*
G37*
D22*
G04 #@! TD*
G04 #@! TO.P,U2,6*
G04 #@! TO.N,+3V3*
X136890000Y-68670000D03*
D12*
G04 #@! TO.N,/D-*
G04 #@! TO.C,U2*
G36*
X136458626Y-68270301D02*
X136464693Y-68271201D01*
X136470643Y-68272691D01*
X136476418Y-68274758D01*
X136481962Y-68277380D01*
X136487223Y-68280533D01*
X136492150Y-68284187D01*
X136496694Y-68288306D01*
X136500813Y-68292850D01*
X136504467Y-68297777D01*
X136507620Y-68303038D01*
X136510242Y-68308582D01*
X136512309Y-68314357D01*
X136513799Y-68320307D01*
X136514699Y-68326374D01*
X136515000Y-68332500D01*
X136515000Y-69007500D01*
X136514699Y-69013626D01*
X136513799Y-69019693D01*
X136512309Y-69025643D01*
X136510242Y-69031418D01*
X136507620Y-69036962D01*
X136504467Y-69042223D01*
X136500813Y-69047150D01*
X136496694Y-69051694D01*
X136492150Y-69055813D01*
X136487223Y-69059467D01*
X136481962Y-69062620D01*
X136476418Y-69065242D01*
X136470643Y-69067309D01*
X136464693Y-69068799D01*
X136458626Y-69069699D01*
X136452500Y-69070000D01*
X136327500Y-69070000D01*
X136321374Y-69069699D01*
X136315307Y-69068799D01*
X136309357Y-69067309D01*
X136303582Y-69065242D01*
X136298038Y-69062620D01*
X136292777Y-69059467D01*
X136287850Y-69055813D01*
X136283306Y-69051694D01*
X136279187Y-69047150D01*
X136275533Y-69042223D01*
X136272380Y-69036962D01*
X136269758Y-69031418D01*
X136267691Y-69025643D01*
X136266201Y-69019693D01*
X136265301Y-69013626D01*
X136265000Y-69007500D01*
X136265000Y-68332500D01*
X136265301Y-68326374D01*
X136266201Y-68320307D01*
X136267691Y-68314357D01*
X136269758Y-68308582D01*
X136272380Y-68303038D01*
X136275533Y-68297777D01*
X136279187Y-68292850D01*
X136283306Y-68288306D01*
X136287850Y-68284187D01*
X136292777Y-68280533D01*
X136298038Y-68277380D01*
X136303582Y-68274758D01*
X136309357Y-68272691D01*
X136315307Y-68271201D01*
X136321374Y-68270301D01*
X136327500Y-68270000D01*
X136452500Y-68270000D01*
X136458626Y-68270301D01*
X136458626Y-68270301D01*
G37*
D22*
G04 #@! TD*
G04 #@! TO.P,U2,5*
G04 #@! TO.N,/D-*
X136390000Y-68670000D03*
D12*
G04 #@! TO.N,/D+*
G04 #@! TO.C,U2*
G36*
X135958626Y-68270301D02*
X135964693Y-68271201D01*
X135970643Y-68272691D01*
X135976418Y-68274758D01*
X135981962Y-68277380D01*
X135987223Y-68280533D01*
X135992150Y-68284187D01*
X135996694Y-68288306D01*
X136000813Y-68292850D01*
X136004467Y-68297777D01*
X136007620Y-68303038D01*
X136010242Y-68308582D01*
X136012309Y-68314357D01*
X136013799Y-68320307D01*
X136014699Y-68326374D01*
X136015000Y-68332500D01*
X136015000Y-69007500D01*
X136014699Y-69013626D01*
X136013799Y-69019693D01*
X136012309Y-69025643D01*
X136010242Y-69031418D01*
X136007620Y-69036962D01*
X136004467Y-69042223D01*
X136000813Y-69047150D01*
X135996694Y-69051694D01*
X135992150Y-69055813D01*
X135987223Y-69059467D01*
X135981962Y-69062620D01*
X135976418Y-69065242D01*
X135970643Y-69067309D01*
X135964693Y-69068799D01*
X135958626Y-69069699D01*
X135952500Y-69070000D01*
X135827500Y-69070000D01*
X135821374Y-69069699D01*
X135815307Y-69068799D01*
X135809357Y-69067309D01*
X135803582Y-69065242D01*
X135798038Y-69062620D01*
X135792777Y-69059467D01*
X135787850Y-69055813D01*
X135783306Y-69051694D01*
X135779187Y-69047150D01*
X135775533Y-69042223D01*
X135772380Y-69036962D01*
X135769758Y-69031418D01*
X135767691Y-69025643D01*
X135766201Y-69019693D01*
X135765301Y-69013626D01*
X135765000Y-69007500D01*
X135765000Y-68332500D01*
X135765301Y-68326374D01*
X135766201Y-68320307D01*
X135767691Y-68314357D01*
X135769758Y-68308582D01*
X135772380Y-68303038D01*
X135775533Y-68297777D01*
X135779187Y-68292850D01*
X135783306Y-68288306D01*
X135787850Y-68284187D01*
X135792777Y-68280533D01*
X135798038Y-68277380D01*
X135803582Y-68274758D01*
X135809357Y-68272691D01*
X135815307Y-68271201D01*
X135821374Y-68270301D01*
X135827500Y-68270000D01*
X135952500Y-68270000D01*
X135958626Y-68270301D01*
X135958626Y-68270301D01*
G37*
D22*
G04 #@! TD*
G04 #@! TO.P,U2,4*
G04 #@! TO.N,/D+*
X135890000Y-68670000D03*
D12*
G04 #@! TO.N,GND*
G04 #@! TO.C,U2*
G36*
X135458626Y-68270301D02*
X135464693Y-68271201D01*
X135470643Y-68272691D01*
X135476418Y-68274758D01*
X135481962Y-68277380D01*
X135487223Y-68280533D01*
X135492150Y-68284187D01*
X135496694Y-68288306D01*
X135500813Y-68292850D01*
X135504467Y-68297777D01*
X135507620Y-68303038D01*
X135510242Y-68308582D01*
X135512309Y-68314357D01*
X135513799Y-68320307D01*
X135514699Y-68326374D01*
X135515000Y-68332500D01*
X135515000Y-69007500D01*
X135514699Y-69013626D01*
X135513799Y-69019693D01*
X135512309Y-69025643D01*
X135510242Y-69031418D01*
X135507620Y-69036962D01*
X135504467Y-69042223D01*
X135500813Y-69047150D01*
X135496694Y-69051694D01*
X135492150Y-69055813D01*
X135487223Y-69059467D01*
X135481962Y-69062620D01*
X135476418Y-69065242D01*
X135470643Y-69067309D01*
X135464693Y-69068799D01*
X135458626Y-69069699D01*
X135452500Y-69070000D01*
X135327500Y-69070000D01*
X135321374Y-69069699D01*
X135315307Y-69068799D01*
X135309357Y-69067309D01*
X135303582Y-69065242D01*
X135298038Y-69062620D01*
X135292777Y-69059467D01*
X135287850Y-69055813D01*
X135283306Y-69051694D01*
X135279187Y-69047150D01*
X135275533Y-69042223D01*
X135272380Y-69036962D01*
X135269758Y-69031418D01*
X135267691Y-69025643D01*
X135266201Y-69019693D01*
X135265301Y-69013626D01*
X135265000Y-69007500D01*
X135265000Y-68332500D01*
X135265301Y-68326374D01*
X135266201Y-68320307D01*
X135267691Y-68314357D01*
X135269758Y-68308582D01*
X135272380Y-68303038D01*
X135275533Y-68297777D01*
X135279187Y-68292850D01*
X135283306Y-68288306D01*
X135287850Y-68284187D01*
X135292777Y-68280533D01*
X135298038Y-68277380D01*
X135303582Y-68274758D01*
X135309357Y-68272691D01*
X135315307Y-68271201D01*
X135321374Y-68270301D01*
X135327500Y-68270000D01*
X135452500Y-68270000D01*
X135458626Y-68270301D01*
X135458626Y-68270301D01*
G37*
D22*
G04 #@! TD*
G04 #@! TO.P,U2,3*
G04 #@! TO.N,GND*
X135390000Y-68670000D03*
D12*
G04 #@! TO.N,/AREF*
G04 #@! TO.C,U2*
G36*
X134958626Y-68270301D02*
X134964693Y-68271201D01*
X134970643Y-68272691D01*
X134976418Y-68274758D01*
X134981962Y-68277380D01*
X134987223Y-68280533D01*
X134992150Y-68284187D01*
X134996694Y-68288306D01*
X135000813Y-68292850D01*
X135004467Y-68297777D01*
X135007620Y-68303038D01*
X135010242Y-68308582D01*
X135012309Y-68314357D01*
X135013799Y-68320307D01*
X135014699Y-68326374D01*
X135015000Y-68332500D01*
X135015000Y-69007500D01*
X135014699Y-69013626D01*
X135013799Y-69019693D01*
X135012309Y-69025643D01*
X135010242Y-69031418D01*
X135007620Y-69036962D01*
X135004467Y-69042223D01*
X135000813Y-69047150D01*
X134996694Y-69051694D01*
X134992150Y-69055813D01*
X134987223Y-69059467D01*
X134981962Y-69062620D01*
X134976418Y-69065242D01*
X134970643Y-69067309D01*
X134964693Y-69068799D01*
X134958626Y-69069699D01*
X134952500Y-69070000D01*
X134827500Y-69070000D01*
X134821374Y-69069699D01*
X134815307Y-69068799D01*
X134809357Y-69067309D01*
X134803582Y-69065242D01*
X134798038Y-69062620D01*
X134792777Y-69059467D01*
X134787850Y-69055813D01*
X134783306Y-69051694D01*
X134779187Y-69047150D01*
X134775533Y-69042223D01*
X134772380Y-69036962D01*
X134769758Y-69031418D01*
X134767691Y-69025643D01*
X134766201Y-69019693D01*
X134765301Y-69013626D01*
X134765000Y-69007500D01*
X134765000Y-68332500D01*
X134765301Y-68326374D01*
X134766201Y-68320307D01*
X134767691Y-68314357D01*
X134769758Y-68308582D01*
X134772380Y-68303038D01*
X134775533Y-68297777D01*
X134779187Y-68292850D01*
X134783306Y-68288306D01*
X134787850Y-68284187D01*
X134792777Y-68280533D01*
X134798038Y-68277380D01*
X134803582Y-68274758D01*
X134809357Y-68272691D01*
X134815307Y-68271201D01*
X134821374Y-68270301D01*
X134827500Y-68270000D01*
X134952500Y-68270000D01*
X134958626Y-68270301D01*
X134958626Y-68270301D01*
G37*
D22*
G04 #@! TD*
G04 #@! TO.P,U2,2*
G04 #@! TO.N,/AREF*
X134890000Y-68670000D03*
D12*
G04 #@! TO.N,/A0*
G04 #@! TO.C,U2*
G36*
X134458626Y-68270301D02*
X134464693Y-68271201D01*
X134470643Y-68272691D01*
X134476418Y-68274758D01*
X134481962Y-68277380D01*
X134487223Y-68280533D01*
X134492150Y-68284187D01*
X134496694Y-68288306D01*
X134500813Y-68292850D01*
X134504467Y-68297777D01*
X134507620Y-68303038D01*
X134510242Y-68308582D01*
X134512309Y-68314357D01*
X134513799Y-68320307D01*
X134514699Y-68326374D01*
X134515000Y-68332500D01*
X134515000Y-69007500D01*
X134514699Y-69013626D01*
X134513799Y-69019693D01*
X134512309Y-69025643D01*
X134510242Y-69031418D01*
X134507620Y-69036962D01*
X134504467Y-69042223D01*
X134500813Y-69047150D01*
X134496694Y-69051694D01*
X134492150Y-69055813D01*
X134487223Y-69059467D01*
X134481962Y-69062620D01*
X134476418Y-69065242D01*
X134470643Y-69067309D01*
X134464693Y-69068799D01*
X134458626Y-69069699D01*
X134452500Y-69070000D01*
X134327500Y-69070000D01*
X134321374Y-69069699D01*
X134315307Y-69068799D01*
X134309357Y-69067309D01*
X134303582Y-69065242D01*
X134298038Y-69062620D01*
X134292777Y-69059467D01*
X134287850Y-69055813D01*
X134283306Y-69051694D01*
X134279187Y-69047150D01*
X134275533Y-69042223D01*
X134272380Y-69036962D01*
X134269758Y-69031418D01*
X134267691Y-69025643D01*
X134266201Y-69019693D01*
X134265301Y-69013626D01*
X134265000Y-69007500D01*
X134265000Y-68332500D01*
X134265301Y-68326374D01*
X134266201Y-68320307D01*
X134267691Y-68314357D01*
X134269758Y-68308582D01*
X134272380Y-68303038D01*
X134275533Y-68297777D01*
X134279187Y-68292850D01*
X134283306Y-68288306D01*
X134287850Y-68284187D01*
X134292777Y-68280533D01*
X134298038Y-68277380D01*
X134303582Y-68274758D01*
X134309357Y-68272691D01*
X134315307Y-68271201D01*
X134321374Y-68270301D01*
X134327500Y-68270000D01*
X134452500Y-68270000D01*
X134458626Y-68270301D01*
X134458626Y-68270301D01*
G37*
D22*
G04 #@! TD*
G04 #@! TO.P,U2,1*
G04 #@! TO.N,/A0*
X134390000Y-68670000D03*
D12*
G04 #@! TO.N,GND*
G04 #@! TO.C,U2*
G36*
X137339504Y-69446204D02*
X137363773Y-69449804D01*
X137387571Y-69455765D01*
X137410671Y-69464030D01*
X137432849Y-69474520D01*
X137453893Y-69487133D01*
X137473598Y-69501747D01*
X137491777Y-69518223D01*
X137508253Y-69536402D01*
X137522867Y-69556107D01*
X137535480Y-69577151D01*
X137545970Y-69599329D01*
X137554235Y-69622429D01*
X137560196Y-69646227D01*
X137563796Y-69670496D01*
X137565000Y-69695000D01*
X137565000Y-72545000D01*
X137563796Y-72569504D01*
X137560196Y-72593773D01*
X137554235Y-72617571D01*
X137545970Y-72640671D01*
X137535480Y-72662849D01*
X137522867Y-72683893D01*
X137508253Y-72703598D01*
X137491777Y-72721777D01*
X137473598Y-72738253D01*
X137453893Y-72752867D01*
X137432849Y-72765480D01*
X137410671Y-72775970D01*
X137387571Y-72784235D01*
X137363773Y-72790196D01*
X137339504Y-72793796D01*
X137315000Y-72795000D01*
X134465000Y-72795000D01*
X134440496Y-72793796D01*
X134416227Y-72790196D01*
X134392429Y-72784235D01*
X134369329Y-72775970D01*
X134347151Y-72765480D01*
X134326107Y-72752867D01*
X134306402Y-72738253D01*
X134288223Y-72721777D01*
X134271747Y-72703598D01*
X134257133Y-72683893D01*
X134244520Y-72662849D01*
X134234030Y-72640671D01*
X134225765Y-72617571D01*
X134219804Y-72593773D01*
X134216204Y-72569504D01*
X134215000Y-72545000D01*
X134215000Y-69695000D01*
X134216204Y-69670496D01*
X134219804Y-69646227D01*
X134225765Y-69622429D01*
X134234030Y-69599329D01*
X134244520Y-69577151D01*
X134257133Y-69556107D01*
X134271747Y-69536402D01*
X134288223Y-69518223D01*
X134306402Y-69501747D01*
X134326107Y-69487133D01*
X134347151Y-69474520D01*
X134369329Y-69464030D01*
X134392429Y-69455765D01*
X134416227Y-69449804D01*
X134440496Y-69446204D01*
X134465000Y-69445000D01*
X137315000Y-69445000D01*
X137339504Y-69446204D01*
X137339504Y-69446204D01*
G37*
D23*
G04 #@! TD*
G04 #@! TO.P,U2,29*
G04 #@! TO.N,GND*
X135890000Y-71120000D03*
D24*
G04 #@! TO.P,U3,1*
G04 #@! TO.N,Net-(R7-Pad2)*
X138110000Y-54397000D03*
G04 #@! TO.P,U3,2*
G04 #@! TO.N,GND*
X137160000Y-54397000D03*
G04 #@! TO.P,U3,3*
G04 #@! TO.N,/VBAT*
X136210000Y-54397000D03*
G04 #@! TO.P,U3,4*
G04 #@! TO.N,VBUS*
X136210000Y-52197000D03*
G04 #@! TO.P,U3,5*
G04 #@! TO.N,Net-(R4-Pad1)*
X138110000Y-52197000D03*
G04 #@! TD*
D25*
G04 #@! TO.N,VBUS*
X139424081Y-63224081D03*
X136588490Y-56515000D03*
X137160000Y-52832000D03*
X140970000Y-79248000D03*
X139192000Y-68834000D03*
G04 #@! TO.N,GND*
X130175000Y-46990000D03*
X131445000Y-55245000D03*
X133350000Y-53340000D03*
X138303000Y-68707000D03*
X132842000Y-64008000D03*
X138938000Y-64008000D03*
X141224000Y-62232400D03*
X132842000Y-68072000D03*
X138938000Y-74168000D03*
X135128000Y-76200000D03*
G04 #@! TO.N,+3V3*
X137160000Y-65786000D03*
X136652000Y-81280000D03*
G04 #@! TO.N,/D+*
X135710132Y-62330051D03*
X135818490Y-67437000D03*
G04 #@! TO.N,/D-*
X136398000Y-66548000D03*
G04 #@! TO.N,/D6*
X137668000Y-74930000D03*
G04 #@! TO.N,/D5*
X133373119Y-73937119D03*
X141499775Y-83766791D03*
G04 #@! TO.N,/SCL*
X136885596Y-75230738D03*
G04 #@! TO.N,/SDA*
X136108825Y-74915736D03*
G04 #@! TO.N,/C2CK*
X140779510Y-70312698D03*
X140144490Y-78704035D03*
G04 #@! TO.N,/C2D*
X138950281Y-78111141D03*
X139263263Y-70451941D03*
G04 #@! TO.N,/MOSI*
X129286000Y-75438000D03*
G04 #@! TO.N,/MISO*
X130048000Y-74676000D03*
G04 #@! TO.N,/D0*
X131191000Y-71247000D03*
G04 #@! TO.N,/D1*
X132038388Y-70526612D03*
G04 #@! TO.N,Net-(R7-Pad2)*
X139192000Y-55118000D03*
G04 #@! TD*
D26*
G04 #@! TO.N,VBUS*
X131910000Y-52390000D02*
X136078000Y-52390000D01*
X136078000Y-52390000D02*
X136271000Y-52197000D01*
X136271000Y-52197000D02*
X133985000Y-54483000D01*
X133985000Y-54483000D02*
X133985000Y-56515000D01*
X130175000Y-50467500D02*
X131953000Y-52245500D01*
X131953000Y-52245500D02*
X131953000Y-52451000D01*
X141605000Y-65075000D02*
X142570000Y-66040000D01*
X142570000Y-66040000D02*
X144780000Y-66040000D01*
X136271000Y-52324000D02*
X136144000Y-52324000D01*
X139754081Y-63224081D02*
X139424081Y-63224081D01*
X141605000Y-65075000D02*
X139754081Y-63224081D01*
X133985000Y-56515000D02*
X136588490Y-56515000D01*
X136210000Y-52197000D02*
X136525000Y-52197000D01*
X136525000Y-52197000D02*
X137160000Y-52832000D01*
X138162400Y-86360000D02*
X140970000Y-83552400D01*
X137160000Y-86360000D02*
X138162400Y-86360000D01*
X140970000Y-83552400D02*
X140970000Y-79248000D01*
X139776000Y-68834000D02*
X139192000Y-68834000D01*
X142570000Y-66040000D02*
X139776000Y-68834000D01*
G04 #@! TO.N,GND*
X130175000Y-48592500D02*
X130175000Y-46990000D01*
X131415000Y-60579000D02*
X131415000Y-55275000D01*
X131415000Y-55275000D02*
X131445000Y-55245000D01*
X131910000Y-53340000D02*
X133350000Y-53340000D01*
X135890000Y-71120000D02*
X138303000Y-68707000D01*
X138303000Y-68707000D02*
X139827000Y-67183000D01*
X139827000Y-67183000D02*
X139827000Y-64643000D01*
X134620000Y-64165000D02*
X132999000Y-64165000D01*
X132999000Y-64165000D02*
X132842000Y-64008000D01*
X135890000Y-71120000D02*
X135382000Y-70612000D01*
X135382000Y-70612000D02*
X135382000Y-68580000D01*
X138938000Y-64008000D02*
X139954000Y-65024000D01*
X141587000Y-61869400D02*
X141224000Y-62232400D01*
X141587000Y-60833000D02*
X141587000Y-61869400D01*
X135890000Y-71120000D02*
X132842000Y-68072000D01*
X140434000Y-47399000D02*
X140716000Y-47117000D01*
X142933060Y-49871390D02*
X140716000Y-47654330D01*
X144623000Y-50800000D02*
X143694390Y-49871390D01*
X143694390Y-49871390D02*
X142933060Y-49871390D01*
X140716000Y-47654330D02*
X140716000Y-47244000D01*
X137160000Y-53714600D02*
X137570310Y-53304290D01*
X137160000Y-54397000D02*
X137160000Y-53714600D01*
X137570310Y-53304290D02*
X140299290Y-53304290D01*
X140299290Y-53304290D02*
X140970000Y-53975000D01*
X141605000Y-76555500D02*
X139217500Y-74168000D01*
X139217500Y-74168000D02*
X138938000Y-74168000D01*
G04 #@! TO.N,+3V3*
X129540000Y-56515000D02*
X130683000Y-55372000D01*
X130683000Y-55372000D02*
X130683000Y-53340000D01*
X130683000Y-53340000D02*
X129794000Y-52451000D01*
X129540000Y-58547000D02*
X129540000Y-56388000D01*
X129540000Y-58547000D02*
X129540000Y-60579000D01*
X137377000Y-68670000D02*
X137414000Y-68707000D01*
X129540000Y-60579000D02*
X132003811Y-63042811D01*
X132003811Y-63042811D02*
X134924811Y-63042811D01*
X134924811Y-63042811D02*
X136652000Y-64770000D01*
X136652000Y-64770000D02*
X137922000Y-64770000D01*
X138000500Y-64770000D02*
X138000500Y-67993500D01*
X138000500Y-67993500D02*
X137414000Y-68580000D01*
X136890000Y-68670000D02*
X137324000Y-68670000D01*
X137324000Y-68670000D02*
X137414000Y-68580000D01*
X138000500Y-66802000D02*
X138000500Y-66626500D01*
X138000500Y-66626500D02*
X137160000Y-65786000D01*
X129710000Y-52390000D02*
X125410000Y-52390000D01*
X125410000Y-52390000D02*
X124460000Y-53340000D01*
X136652000Y-81764933D02*
X137160000Y-82272933D01*
X136652000Y-81280000D02*
X136652000Y-81764933D01*
X137160000Y-82272933D02*
X137160000Y-82296000D01*
G04 #@! TO.N,/AREF*
X134890000Y-68170000D02*
X128524000Y-61804000D01*
X134890000Y-68670000D02*
X134890000Y-68170000D01*
X128524000Y-61804000D02*
X128524000Y-57404000D01*
X128524000Y-57404000D02*
X127000000Y-55880000D01*
X134890000Y-68670000D02*
X134890000Y-66310000D01*
X134890000Y-66310000D02*
X134620000Y-66040000D01*
X127000000Y-55880000D02*
X124460000Y-55880000D01*
G04 #@! TO.N,/VBAT*
X137731502Y-57086498D02*
X133985000Y-60833000D01*
X138663601Y-56154399D02*
X141330601Y-56154399D01*
X137731502Y-57086498D02*
X138663601Y-56154399D01*
X141330601Y-56154399D02*
X142875000Y-54610000D01*
X142875000Y-54610000D02*
X142875000Y-52070000D01*
X141605000Y-52070000D02*
X140970000Y-52070000D01*
X144780000Y-56515000D02*
X142875000Y-54610000D01*
X144780000Y-60960000D02*
X144780000Y-56515000D01*
X142780000Y-51975000D02*
X142875000Y-52070000D01*
X140970000Y-51975000D02*
X142780000Y-51975000D01*
X142875000Y-52070000D02*
X142875000Y-51181000D01*
X137795011Y-56240679D02*
X137795011Y-57022989D01*
X136210000Y-54655668D02*
X137795011Y-56240679D01*
X136210000Y-54397000D02*
X136210000Y-54655668D01*
X137795011Y-57022989D02*
X137731502Y-57086498D01*
G04 #@! TO.N,/D+*
X136837000Y-60833000D02*
X135710132Y-61959868D01*
X137287000Y-60833000D02*
X136837000Y-60833000D01*
X135710132Y-61959868D02*
X135710132Y-62330051D01*
X135890000Y-68707000D02*
X135818490Y-68635490D01*
X135818490Y-68635490D02*
X135818490Y-67437000D01*
G04 #@! TO.N,/D-*
X136390000Y-66556000D02*
X136398000Y-66548000D01*
X136390000Y-68670000D02*
X136390000Y-66556000D01*
G04 #@! TO.N,/EN*
X141605000Y-63500000D02*
X144780000Y-63500000D01*
X138302340Y-63500000D02*
X135813067Y-63500000D01*
X132588000Y-62029482D02*
X132588000Y-54991000D01*
X135813067Y-63500000D02*
X135051067Y-62738000D01*
X132588000Y-54991000D02*
X131826000Y-54229000D01*
X133296518Y-62738000D02*
X132588000Y-62029482D01*
X139149760Y-62652580D02*
X138302340Y-63500000D01*
X140757580Y-62652580D02*
X139149760Y-62652580D01*
X141605000Y-63500000D02*
X140757580Y-62652580D01*
X135051067Y-62738000D02*
X133296518Y-62738000D01*
G04 #@! TO.N,/D13*
X143740000Y-69620000D02*
X143930001Y-69429999D01*
X139725689Y-69424290D02*
X139921399Y-69620000D01*
X138340000Y-69620000D02*
X138535710Y-69424290D01*
X139921399Y-69620000D02*
X143740000Y-69620000D01*
X138535710Y-69424290D02*
X139725689Y-69424290D01*
X143930001Y-69429999D02*
X144780000Y-68580000D01*
G04 #@! TO.N,/D12*
X139783824Y-71120000D02*
X144780000Y-71120000D01*
X139720322Y-71183502D02*
X139783824Y-71120000D01*
X138840000Y-71120000D02*
X138903502Y-71183502D01*
X138340000Y-71120000D02*
X138840000Y-71120000D01*
X138903502Y-71183502D02*
X139720322Y-71183502D01*
G04 #@! TO.N,/D11*
X144690000Y-73570000D02*
X144780000Y-73660000D01*
X138340000Y-71620000D02*
X142740000Y-71620000D01*
X142740000Y-71620000D02*
X144780000Y-73660000D01*
G04 #@! TO.N,/D10*
X138340000Y-72120000D02*
X140700000Y-72120000D01*
X140700000Y-72120000D02*
X144780000Y-76200000D01*
G04 #@! TO.N,/D9*
X141605000Y-78130500D02*
X144170500Y-78130500D01*
X144170500Y-78130500D02*
X144780000Y-78740000D01*
X138340000Y-72620000D02*
X138340000Y-74840000D01*
X138340000Y-74840000D02*
X141732000Y-78232000D01*
G04 #@! TO.N,/D6*
X137390000Y-73570000D02*
X137390000Y-74652000D01*
X137390000Y-74652000D02*
X137668000Y-74930000D01*
G04 #@! TO.N,/D5*
X134390000Y-73570000D02*
X133740238Y-73570000D01*
X133740238Y-73570000D02*
X133373119Y-73937119D01*
X141552984Y-83820000D02*
X141499775Y-83766791D01*
X144780000Y-83820000D02*
X141552984Y-83820000D01*
G04 #@! TO.N,/SCL*
X136890000Y-75226334D02*
X136885596Y-75230738D01*
X136890000Y-73570000D02*
X136890000Y-75226334D01*
G04 #@! TO.N,/SDA*
X136390000Y-73570000D02*
X136390000Y-74634561D01*
X136390000Y-74634561D02*
X136108825Y-74915736D01*
G04 #@! TO.N,/C2CK*
X138709500Y-82296000D02*
X139065000Y-82296000D01*
X140144490Y-79188968D02*
X140144490Y-78704035D01*
X140144490Y-80835510D02*
X140144490Y-79188968D01*
X134620000Y-86360000D02*
X140144490Y-80835510D01*
X140120668Y-70312698D02*
X140779510Y-70312698D01*
X139657959Y-69849989D02*
X140120668Y-70312698D01*
X138340000Y-70120000D02*
X138749382Y-70120000D01*
X139019393Y-69849989D02*
X139657959Y-69849989D01*
X138749382Y-70120000D02*
X139019393Y-69849989D01*
G04 #@! TO.N,/C2D*
X138950281Y-78111141D02*
X133350000Y-83711422D01*
X133350000Y-83711422D02*
X133350000Y-86360000D01*
X133350000Y-86360000D02*
X133350000Y-87630000D01*
X133350000Y-87630000D02*
X134620000Y-88900000D01*
X139095204Y-70620000D02*
X139263263Y-70451941D01*
X138340000Y-70620000D02*
X139095204Y-70620000D01*
G04 #@! TO.N,/A0*
X134390000Y-68670000D02*
X126680000Y-60960000D01*
X126680000Y-60960000D02*
X124460000Y-60960000D01*
G04 #@! TO.N,/A1*
X133440000Y-69620000D02*
X127320000Y-63500000D01*
X127320000Y-63500000D02*
X124460000Y-63500000D01*
G04 #@! TO.N,/A2*
X132940000Y-70120000D02*
X128860000Y-66040000D01*
X133440000Y-70120000D02*
X132940000Y-70120000D01*
X128860000Y-66040000D02*
X124460000Y-66040000D01*
G04 #@! TO.N,/A3*
X132940000Y-70620000D02*
X130900000Y-68580000D01*
X133440000Y-70620000D02*
X132940000Y-70620000D01*
X130900000Y-68580000D02*
X124460000Y-68580000D01*
G04 #@! TO.N,/A4*
X133440000Y-72120000D02*
X128000000Y-72120000D01*
X128000000Y-72120000D02*
X127000000Y-71120000D01*
X127000000Y-71120000D02*
X124460000Y-71120000D01*
G04 #@! TO.N,/A5*
X133440000Y-72620000D02*
X128040000Y-72620000D01*
X128040000Y-72620000D02*
X127000000Y-73660000D01*
X127000000Y-73660000D02*
X124460000Y-73660000D01*
G04 #@! TO.N,/SCK*
X133760000Y-76200000D02*
X124460000Y-76200000D01*
X135890000Y-73570000D02*
X135890000Y-74070000D01*
X135890000Y-74070000D02*
X133760000Y-76200000D01*
G04 #@! TO.N,/MOSI*
X134022000Y-75438000D02*
X129286000Y-75438000D01*
X135390000Y-73570000D02*
X135390000Y-74070000D01*
X135390000Y-74070000D02*
X134022000Y-75438000D01*
G04 #@! TO.N,/MISO*
X134890000Y-73570000D02*
X134890000Y-74070000D01*
X134890000Y-74070000D02*
X134284000Y-74676000D01*
X134284000Y-74676000D02*
X130048000Y-74676000D01*
G04 #@! TO.N,/D0*
X133440000Y-71620000D02*
X131564000Y-71620000D01*
X131564000Y-71620000D02*
X131191000Y-71247000D01*
G04 #@! TO.N,/D1*
X133440000Y-71120000D02*
X132631776Y-71120000D01*
X132631776Y-71120000D02*
X132038388Y-70526612D01*
G04 #@! TO.N,Net-(R4-Pad1)*
X138110000Y-52197000D02*
X139065000Y-52197000D01*
X139065000Y-52197000D02*
X140716000Y-50546000D01*
X140716000Y-50546000D02*
X140716000Y-48768000D01*
G04 #@! TO.N,Net-(R7-Pad2)*
X139192000Y-55118000D02*
X138430000Y-54356000D01*
X138430000Y-54356000D02*
X138176000Y-54356000D01*
G04 #@! TD*
D27*
G04 #@! TO.N,GND*
G36*
X135495132Y-75325792D02*
X135698769Y-75529429D01*
X135964832Y-75639636D01*
X136252818Y-75639636D01*
X136268699Y-75633058D01*
X136271903Y-75640794D01*
X136475540Y-75844431D01*
X136741603Y-75954638D01*
X137029589Y-75954638D01*
X137295652Y-75844431D01*
X137497261Y-75642822D01*
X137524007Y-75653900D01*
X137811993Y-75653900D01*
X138078056Y-75543693D01*
X138237586Y-75384164D01*
X140745457Y-77892035D01*
X140741536Y-77911750D01*
X140741536Y-78277332D01*
X140554546Y-78090342D01*
X140288483Y-77980135D01*
X140000497Y-77980135D01*
X139734434Y-78090342D01*
X139674181Y-78150595D01*
X139674181Y-77967148D01*
X139563974Y-77701085D01*
X139360337Y-77497448D01*
X139094274Y-77387241D01*
X138806288Y-77387241D01*
X138540225Y-77497448D01*
X138336588Y-77701085D01*
X138226381Y-77967148D01*
X138226381Y-78188463D01*
X133058554Y-83356290D01*
X133020377Y-83381799D01*
X132947828Y-83490377D01*
X132919327Y-83533032D01*
X132883843Y-83711422D01*
X132892800Y-83756452D01*
X132892801Y-85422586D01*
X132560312Y-85200424D01*
X132201239Y-85129000D01*
X131958761Y-85129000D01*
X131599688Y-85200424D01*
X131192499Y-85472499D01*
X130920424Y-85879688D01*
X130824884Y-86360000D01*
X130920424Y-86840312D01*
X131192499Y-87247501D01*
X131590512Y-87513445D01*
X131313076Y-87628355D01*
X130884817Y-88018642D01*
X130638514Y-88543108D01*
X130759181Y-88773000D01*
X131953000Y-88773000D01*
X131953000Y-88753000D01*
X132207000Y-88753000D01*
X132207000Y-88773000D01*
X132227000Y-88773000D01*
X132227000Y-89027000D01*
X132207000Y-89027000D01*
X132207000Y-90220155D01*
X132436890Y-90341476D01*
X132846924Y-90171645D01*
X133275183Y-89781358D01*
X133462245Y-89383037D01*
X133732499Y-89787501D01*
X134139688Y-90059576D01*
X134498761Y-90131000D01*
X134741239Y-90131000D01*
X135100312Y-90059576D01*
X135507501Y-89787501D01*
X135779576Y-89380312D01*
X135875116Y-88900000D01*
X135904884Y-88900000D01*
X136000424Y-89380312D01*
X136272499Y-89787501D01*
X136679688Y-90059576D01*
X137038761Y-90131000D01*
X137281239Y-90131000D01*
X137640312Y-90059576D01*
X138047501Y-89787501D01*
X138319576Y-89380312D01*
X138415116Y-88900000D01*
X138319576Y-88419688D01*
X138047501Y-88012499D01*
X137640312Y-87740424D01*
X137281239Y-87669000D01*
X137038761Y-87669000D01*
X136679688Y-87740424D01*
X136272499Y-88012499D01*
X136000424Y-88419688D01*
X135904884Y-88900000D01*
X135875116Y-88900000D01*
X135779576Y-88419688D01*
X135507501Y-88012499D01*
X135100312Y-87740424D01*
X134741239Y-87669000D01*
X134498761Y-87669000D01*
X134139688Y-87740424D01*
X134120094Y-87753516D01*
X133807200Y-87440622D01*
X133807200Y-87297415D01*
X134139688Y-87519576D01*
X134498761Y-87591000D01*
X134741239Y-87591000D01*
X135100312Y-87519576D01*
X135507501Y-87247501D01*
X135779576Y-86840312D01*
X135875116Y-86360000D01*
X135779576Y-85879688D01*
X135766484Y-85860094D01*
X135921536Y-85705042D01*
X135921536Y-87210000D01*
X135951106Y-87358659D01*
X136035314Y-87484686D01*
X136161341Y-87568894D01*
X136310000Y-87598464D01*
X138010000Y-87598464D01*
X138158659Y-87568894D01*
X138284686Y-87484686D01*
X138368894Y-87358659D01*
X138398464Y-87210000D01*
X138398464Y-86752137D01*
X138492023Y-86689623D01*
X138517532Y-86651446D01*
X140939107Y-84229872D01*
X141089719Y-84380484D01*
X141355782Y-84490691D01*
X141643768Y-84490691D01*
X141909831Y-84380484D01*
X142013115Y-84277200D01*
X143615827Y-84277200D01*
X143620424Y-84300312D01*
X143892499Y-84707501D01*
X144299688Y-84979576D01*
X144658761Y-85051000D01*
X144901239Y-85051000D01*
X145260312Y-84979576D01*
X145594001Y-84756612D01*
X145594001Y-85423388D01*
X145260312Y-85200424D01*
X144901239Y-85129000D01*
X144658761Y-85129000D01*
X144299688Y-85200424D01*
X143892499Y-85472499D01*
X143620424Y-85879688D01*
X143524884Y-86360000D01*
X143620424Y-86840312D01*
X143892499Y-87247501D01*
X144299688Y-87519576D01*
X144658761Y-87591000D01*
X144901239Y-87591000D01*
X145260312Y-87519576D01*
X145594001Y-87296612D01*
X145594001Y-87963388D01*
X145260312Y-87740424D01*
X144901239Y-87669000D01*
X144658761Y-87669000D01*
X144299688Y-87740424D01*
X143892499Y-88012499D01*
X143620424Y-88419688D01*
X143524884Y-88900000D01*
X143620424Y-89380312D01*
X143892499Y-89787501D01*
X144299688Y-90059576D01*
X144658761Y-90131000D01*
X144901239Y-90131000D01*
X145260312Y-90059576D01*
X145594001Y-89836612D01*
X145594001Y-93791118D01*
X144591119Y-94794000D01*
X124648881Y-94794000D01*
X123646000Y-93791119D01*
X123646000Y-92385574D01*
X124099000Y-92385574D01*
X124099000Y-93034426D01*
X124347305Y-93633887D01*
X124806113Y-94092695D01*
X125405574Y-94341000D01*
X126054426Y-94341000D01*
X126653887Y-94092695D01*
X127112695Y-93633887D01*
X127361000Y-93034426D01*
X127361000Y-92385574D01*
X141879000Y-92385574D01*
X141879000Y-93034426D01*
X142127305Y-93633887D01*
X142586113Y-94092695D01*
X143185574Y-94341000D01*
X143834426Y-94341000D01*
X144433887Y-94092695D01*
X144892695Y-93633887D01*
X145141000Y-93034426D01*
X145141000Y-92385574D01*
X144892695Y-91786113D01*
X144433887Y-91327305D01*
X143834426Y-91079000D01*
X143185574Y-91079000D01*
X142586113Y-91327305D01*
X142127305Y-91786113D01*
X141879000Y-92385574D01*
X127361000Y-92385574D01*
X127112695Y-91786113D01*
X126653887Y-91327305D01*
X126054426Y-91079000D01*
X125405574Y-91079000D01*
X124806113Y-91327305D01*
X124347305Y-91786113D01*
X124099000Y-92385574D01*
X123646000Y-92385574D01*
X123646000Y-90126816D01*
X124103108Y-90341486D01*
X124333000Y-90220819D01*
X124333000Y-89027000D01*
X124587000Y-89027000D01*
X124587000Y-90220819D01*
X124816892Y-90341486D01*
X125341358Y-90095183D01*
X125731645Y-89666924D01*
X125901475Y-89256892D01*
X130638514Y-89256892D01*
X130884817Y-89781358D01*
X131313076Y-90171645D01*
X131723110Y-90341476D01*
X131953000Y-90220155D01*
X131953000Y-89027000D01*
X130759181Y-89027000D01*
X130638514Y-89256892D01*
X125901475Y-89256892D01*
X125901476Y-89256890D01*
X125780155Y-89027000D01*
X124587000Y-89027000D01*
X124333000Y-89027000D01*
X124313000Y-89027000D01*
X124313000Y-88773000D01*
X124333000Y-88773000D01*
X124333000Y-88753000D01*
X124587000Y-88753000D01*
X124587000Y-88773000D01*
X125780155Y-88773000D01*
X125901476Y-88543110D01*
X125731645Y-88133076D01*
X125341358Y-87704817D01*
X124943037Y-87517755D01*
X125347501Y-87247501D01*
X125619576Y-86840312D01*
X125715116Y-86360000D01*
X125619576Y-85879688D01*
X125347501Y-85472499D01*
X124940312Y-85200424D01*
X124581239Y-85129000D01*
X124338761Y-85129000D01*
X123979688Y-85200424D01*
X123646000Y-85423387D01*
X123646000Y-84756613D01*
X123979688Y-84979576D01*
X124338761Y-85051000D01*
X124581239Y-85051000D01*
X124940312Y-84979576D01*
X125347501Y-84707501D01*
X125619576Y-84300312D01*
X125715116Y-83820000D01*
X125619576Y-83339688D01*
X125347501Y-82932499D01*
X124940312Y-82660424D01*
X124581239Y-82589000D01*
X124338761Y-82589000D01*
X123979688Y-82660424D01*
X123646000Y-82883387D01*
X123646000Y-82216613D01*
X123979688Y-82439576D01*
X124338761Y-82511000D01*
X124581239Y-82511000D01*
X124940312Y-82439576D01*
X125347501Y-82167501D01*
X125619576Y-81760312D01*
X125715116Y-81280000D01*
X125619576Y-80799688D01*
X125347501Y-80392499D01*
X124940312Y-80120424D01*
X124581239Y-80049000D01*
X124338761Y-80049000D01*
X123979688Y-80120424D01*
X123646000Y-80343387D01*
X123646000Y-79676613D01*
X123979688Y-79899576D01*
X124338761Y-79971000D01*
X124581239Y-79971000D01*
X124940312Y-79899576D01*
X125347501Y-79627501D01*
X125619576Y-79220312D01*
X125715116Y-78740000D01*
X125619576Y-78259688D01*
X125347501Y-77852499D01*
X124940312Y-77580424D01*
X124581239Y-77509000D01*
X124338761Y-77509000D01*
X123979688Y-77580424D01*
X123646000Y-77803387D01*
X123646000Y-77136613D01*
X123979688Y-77359576D01*
X124338761Y-77431000D01*
X124581239Y-77431000D01*
X124940312Y-77359576D01*
X125347501Y-77087501D01*
X125619576Y-76680312D01*
X125624173Y-76657200D01*
X133714970Y-76657200D01*
X133760000Y-76666157D01*
X133805030Y-76657200D01*
X133938391Y-76630673D01*
X134089623Y-76529623D01*
X134115132Y-76491446D01*
X135432352Y-75174227D01*
X135495132Y-75325792D01*
X135495132Y-75325792D01*
G37*
X135495132Y-75325792D02*
X135698769Y-75529429D01*
X135964832Y-75639636D01*
X136252818Y-75639636D01*
X136268699Y-75633058D01*
X136271903Y-75640794D01*
X136475540Y-75844431D01*
X136741603Y-75954638D01*
X137029589Y-75954638D01*
X137295652Y-75844431D01*
X137497261Y-75642822D01*
X137524007Y-75653900D01*
X137811993Y-75653900D01*
X138078056Y-75543693D01*
X138237586Y-75384164D01*
X140745457Y-77892035D01*
X140741536Y-77911750D01*
X140741536Y-78277332D01*
X140554546Y-78090342D01*
X140288483Y-77980135D01*
X140000497Y-77980135D01*
X139734434Y-78090342D01*
X139674181Y-78150595D01*
X139674181Y-77967148D01*
X139563974Y-77701085D01*
X139360337Y-77497448D01*
X139094274Y-77387241D01*
X138806288Y-77387241D01*
X138540225Y-77497448D01*
X138336588Y-77701085D01*
X138226381Y-77967148D01*
X138226381Y-78188463D01*
X133058554Y-83356290D01*
X133020377Y-83381799D01*
X132947828Y-83490377D01*
X132919327Y-83533032D01*
X132883843Y-83711422D01*
X132892800Y-83756452D01*
X132892801Y-85422586D01*
X132560312Y-85200424D01*
X132201239Y-85129000D01*
X131958761Y-85129000D01*
X131599688Y-85200424D01*
X131192499Y-85472499D01*
X130920424Y-85879688D01*
X130824884Y-86360000D01*
X130920424Y-86840312D01*
X131192499Y-87247501D01*
X131590512Y-87513445D01*
X131313076Y-87628355D01*
X130884817Y-88018642D01*
X130638514Y-88543108D01*
X130759181Y-88773000D01*
X131953000Y-88773000D01*
X131953000Y-88753000D01*
X132207000Y-88753000D01*
X132207000Y-88773000D01*
X132227000Y-88773000D01*
X132227000Y-89027000D01*
X132207000Y-89027000D01*
X132207000Y-90220155D01*
X132436890Y-90341476D01*
X132846924Y-90171645D01*
X133275183Y-89781358D01*
X133462245Y-89383037D01*
X133732499Y-89787501D01*
X134139688Y-90059576D01*
X134498761Y-90131000D01*
X134741239Y-90131000D01*
X135100312Y-90059576D01*
X135507501Y-89787501D01*
X135779576Y-89380312D01*
X135875116Y-88900000D01*
X135904884Y-88900000D01*
X136000424Y-89380312D01*
X136272499Y-89787501D01*
X136679688Y-90059576D01*
X137038761Y-90131000D01*
X137281239Y-90131000D01*
X137640312Y-90059576D01*
X138047501Y-89787501D01*
X138319576Y-89380312D01*
X138415116Y-88900000D01*
X138319576Y-88419688D01*
X138047501Y-88012499D01*
X137640312Y-87740424D01*
X137281239Y-87669000D01*
X137038761Y-87669000D01*
X136679688Y-87740424D01*
X136272499Y-88012499D01*
X136000424Y-88419688D01*
X135904884Y-88900000D01*
X135875116Y-88900000D01*
X135779576Y-88419688D01*
X135507501Y-88012499D01*
X135100312Y-87740424D01*
X134741239Y-87669000D01*
X134498761Y-87669000D01*
X134139688Y-87740424D01*
X134120094Y-87753516D01*
X133807200Y-87440622D01*
X133807200Y-87297415D01*
X134139688Y-87519576D01*
X134498761Y-87591000D01*
X134741239Y-87591000D01*
X135100312Y-87519576D01*
X135507501Y-87247501D01*
X135779576Y-86840312D01*
X135875116Y-86360000D01*
X135779576Y-85879688D01*
X135766484Y-85860094D01*
X135921536Y-85705042D01*
X135921536Y-87210000D01*
X135951106Y-87358659D01*
X136035314Y-87484686D01*
X136161341Y-87568894D01*
X136310000Y-87598464D01*
X138010000Y-87598464D01*
X138158659Y-87568894D01*
X138284686Y-87484686D01*
X138368894Y-87358659D01*
X138398464Y-87210000D01*
X138398464Y-86752137D01*
X138492023Y-86689623D01*
X138517532Y-86651446D01*
X140939107Y-84229872D01*
X141089719Y-84380484D01*
X141355782Y-84490691D01*
X141643768Y-84490691D01*
X141909831Y-84380484D01*
X142013115Y-84277200D01*
X143615827Y-84277200D01*
X143620424Y-84300312D01*
X143892499Y-84707501D01*
X144299688Y-84979576D01*
X144658761Y-85051000D01*
X144901239Y-85051000D01*
X145260312Y-84979576D01*
X145594001Y-84756612D01*
X145594001Y-85423388D01*
X145260312Y-85200424D01*
X144901239Y-85129000D01*
X144658761Y-85129000D01*
X144299688Y-85200424D01*
X143892499Y-85472499D01*
X143620424Y-85879688D01*
X143524884Y-86360000D01*
X143620424Y-86840312D01*
X143892499Y-87247501D01*
X144299688Y-87519576D01*
X144658761Y-87591000D01*
X144901239Y-87591000D01*
X145260312Y-87519576D01*
X145594001Y-87296612D01*
X145594001Y-87963388D01*
X145260312Y-87740424D01*
X144901239Y-87669000D01*
X144658761Y-87669000D01*
X144299688Y-87740424D01*
X143892499Y-88012499D01*
X143620424Y-88419688D01*
X143524884Y-88900000D01*
X143620424Y-89380312D01*
X143892499Y-89787501D01*
X144299688Y-90059576D01*
X144658761Y-90131000D01*
X144901239Y-90131000D01*
X145260312Y-90059576D01*
X145594001Y-89836612D01*
X145594001Y-93791118D01*
X144591119Y-94794000D01*
X124648881Y-94794000D01*
X123646000Y-93791119D01*
X123646000Y-92385574D01*
X124099000Y-92385574D01*
X124099000Y-93034426D01*
X124347305Y-93633887D01*
X124806113Y-94092695D01*
X125405574Y-94341000D01*
X126054426Y-94341000D01*
X126653887Y-94092695D01*
X127112695Y-93633887D01*
X127361000Y-93034426D01*
X127361000Y-92385574D01*
X141879000Y-92385574D01*
X141879000Y-93034426D01*
X142127305Y-93633887D01*
X142586113Y-94092695D01*
X143185574Y-94341000D01*
X143834426Y-94341000D01*
X144433887Y-94092695D01*
X144892695Y-93633887D01*
X145141000Y-93034426D01*
X145141000Y-92385574D01*
X144892695Y-91786113D01*
X144433887Y-91327305D01*
X143834426Y-91079000D01*
X143185574Y-91079000D01*
X142586113Y-91327305D01*
X142127305Y-91786113D01*
X141879000Y-92385574D01*
X127361000Y-92385574D01*
X127112695Y-91786113D01*
X126653887Y-91327305D01*
X126054426Y-91079000D01*
X125405574Y-91079000D01*
X124806113Y-91327305D01*
X124347305Y-91786113D01*
X124099000Y-92385574D01*
X123646000Y-92385574D01*
X123646000Y-90126816D01*
X124103108Y-90341486D01*
X124333000Y-90220819D01*
X124333000Y-89027000D01*
X124587000Y-89027000D01*
X124587000Y-90220819D01*
X124816892Y-90341486D01*
X125341358Y-90095183D01*
X125731645Y-89666924D01*
X125901475Y-89256892D01*
X130638514Y-89256892D01*
X130884817Y-89781358D01*
X131313076Y-90171645D01*
X131723110Y-90341476D01*
X131953000Y-90220155D01*
X131953000Y-89027000D01*
X130759181Y-89027000D01*
X130638514Y-89256892D01*
X125901475Y-89256892D01*
X125901476Y-89256890D01*
X125780155Y-89027000D01*
X124587000Y-89027000D01*
X124333000Y-89027000D01*
X124313000Y-89027000D01*
X124313000Y-88773000D01*
X124333000Y-88773000D01*
X124333000Y-88753000D01*
X124587000Y-88753000D01*
X124587000Y-88773000D01*
X125780155Y-88773000D01*
X125901476Y-88543110D01*
X125731645Y-88133076D01*
X125341358Y-87704817D01*
X124943037Y-87517755D01*
X125347501Y-87247501D01*
X125619576Y-86840312D01*
X125715116Y-86360000D01*
X125619576Y-85879688D01*
X125347501Y-85472499D01*
X124940312Y-85200424D01*
X124581239Y-85129000D01*
X124338761Y-85129000D01*
X123979688Y-85200424D01*
X123646000Y-85423387D01*
X123646000Y-84756613D01*
X123979688Y-84979576D01*
X124338761Y-85051000D01*
X124581239Y-85051000D01*
X124940312Y-84979576D01*
X125347501Y-84707501D01*
X125619576Y-84300312D01*
X125715116Y-83820000D01*
X125619576Y-83339688D01*
X125347501Y-82932499D01*
X124940312Y-82660424D01*
X124581239Y-82589000D01*
X124338761Y-82589000D01*
X123979688Y-82660424D01*
X123646000Y-82883387D01*
X123646000Y-82216613D01*
X123979688Y-82439576D01*
X124338761Y-82511000D01*
X124581239Y-82511000D01*
X124940312Y-82439576D01*
X125347501Y-82167501D01*
X125619576Y-81760312D01*
X125715116Y-81280000D01*
X125619576Y-80799688D01*
X125347501Y-80392499D01*
X124940312Y-80120424D01*
X124581239Y-80049000D01*
X124338761Y-80049000D01*
X123979688Y-80120424D01*
X123646000Y-80343387D01*
X123646000Y-79676613D01*
X123979688Y-79899576D01*
X124338761Y-79971000D01*
X124581239Y-79971000D01*
X124940312Y-79899576D01*
X125347501Y-79627501D01*
X125619576Y-79220312D01*
X125715116Y-78740000D01*
X125619576Y-78259688D01*
X125347501Y-77852499D01*
X124940312Y-77580424D01*
X124581239Y-77509000D01*
X124338761Y-77509000D01*
X123979688Y-77580424D01*
X123646000Y-77803387D01*
X123646000Y-77136613D01*
X123979688Y-77359576D01*
X124338761Y-77431000D01*
X124581239Y-77431000D01*
X124940312Y-77359576D01*
X125347501Y-77087501D01*
X125619576Y-76680312D01*
X125624173Y-76657200D01*
X133714970Y-76657200D01*
X133760000Y-76666157D01*
X133805030Y-76657200D01*
X133938391Y-76630673D01*
X134089623Y-76529623D01*
X134115132Y-76491446D01*
X135432352Y-75174227D01*
X135495132Y-75325792D01*
G36*
X143633516Y-75700095D02*
X143620424Y-75719688D01*
X143524884Y-76200000D01*
X143620424Y-76680312D01*
X143892499Y-77087501D01*
X144299688Y-77359576D01*
X144658761Y-77431000D01*
X144901239Y-77431000D01*
X145260312Y-77359576D01*
X145594001Y-77136612D01*
X145594001Y-77803388D01*
X145260312Y-77580424D01*
X144901239Y-77509000D01*
X144658761Y-77509000D01*
X144299688Y-77580424D01*
X144173270Y-77664894D01*
X144170500Y-77664343D01*
X144125470Y-77673300D01*
X142418181Y-77673300D01*
X142348546Y-77569084D01*
X142439699Y-77531327D01*
X142618327Y-77352698D01*
X142715000Y-77119309D01*
X142715000Y-76841250D01*
X142556250Y-76682500D01*
X141732000Y-76682500D01*
X141732000Y-76702500D01*
X141478000Y-76702500D01*
X141478000Y-76682500D01*
X141458000Y-76682500D01*
X141458000Y-76428500D01*
X141478000Y-76428500D01*
X141478000Y-75641750D01*
X141732000Y-75641750D01*
X141732000Y-76428500D01*
X142556250Y-76428500D01*
X142715000Y-76269750D01*
X142715000Y-75991691D01*
X142618327Y-75758302D01*
X142439699Y-75579673D01*
X142206310Y-75483000D01*
X141890750Y-75483000D01*
X141732000Y-75641750D01*
X141478000Y-75641750D01*
X141319250Y-75483000D01*
X141003690Y-75483000D01*
X140770301Y-75579673D01*
X140591673Y-75758302D01*
X140495000Y-75991691D01*
X140495000Y-76269750D01*
X140653748Y-76428498D01*
X140575076Y-76428498D01*
X138797200Y-74650622D01*
X138797200Y-73109654D01*
X138850076Y-73099136D01*
X138996380Y-73001380D01*
X139094136Y-72855076D01*
X139128464Y-72682500D01*
X139128464Y-72577200D01*
X140510622Y-72577200D01*
X143633516Y-75700095D01*
X143633516Y-75700095D01*
G37*
X143633516Y-75700095D02*
X143620424Y-75719688D01*
X143524884Y-76200000D01*
X143620424Y-76680312D01*
X143892499Y-77087501D01*
X144299688Y-77359576D01*
X144658761Y-77431000D01*
X144901239Y-77431000D01*
X145260312Y-77359576D01*
X145594001Y-77136612D01*
X145594001Y-77803388D01*
X145260312Y-77580424D01*
X144901239Y-77509000D01*
X144658761Y-77509000D01*
X144299688Y-77580424D01*
X144173270Y-77664894D01*
X144170500Y-77664343D01*
X144125470Y-77673300D01*
X142418181Y-77673300D01*
X142348546Y-77569084D01*
X142439699Y-77531327D01*
X142618327Y-77352698D01*
X142715000Y-77119309D01*
X142715000Y-76841250D01*
X142556250Y-76682500D01*
X141732000Y-76682500D01*
X141732000Y-76702500D01*
X141478000Y-76702500D01*
X141478000Y-76682500D01*
X141458000Y-76682500D01*
X141458000Y-76428500D01*
X141478000Y-76428500D01*
X141478000Y-75641750D01*
X141732000Y-75641750D01*
X141732000Y-76428500D01*
X142556250Y-76428500D01*
X142715000Y-76269750D01*
X142715000Y-75991691D01*
X142618327Y-75758302D01*
X142439699Y-75579673D01*
X142206310Y-75483000D01*
X141890750Y-75483000D01*
X141732000Y-75641750D01*
X141478000Y-75641750D01*
X141319250Y-75483000D01*
X141003690Y-75483000D01*
X140770301Y-75579673D01*
X140591673Y-75758302D01*
X140495000Y-75991691D01*
X140495000Y-76269750D01*
X140653748Y-76428498D01*
X140575076Y-76428498D01*
X138797200Y-74650622D01*
X138797200Y-73109654D01*
X138850076Y-73099136D01*
X138996380Y-73001380D01*
X139094136Y-72855076D01*
X139128464Y-72682500D01*
X139128464Y-72577200D01*
X140510622Y-72577200D01*
X143633516Y-75700095D01*
G36*
X136017000Y-70993000D02*
X136037000Y-70993000D01*
X136037000Y-71247000D01*
X136017000Y-71247000D01*
X136017000Y-71267000D01*
X135763000Y-71267000D01*
X135763000Y-71247000D01*
X135743000Y-71247000D01*
X135743000Y-70993000D01*
X135763000Y-70993000D01*
X135763000Y-70973000D01*
X136017000Y-70973000D01*
X136017000Y-70993000D01*
X136017000Y-70993000D01*
G37*
X136017000Y-70993000D02*
X136037000Y-70993000D01*
X136037000Y-71247000D01*
X136017000Y-71247000D01*
X136017000Y-71267000D01*
X135763000Y-71267000D01*
X135763000Y-71247000D01*
X135743000Y-71247000D01*
X135743000Y-70993000D01*
X135763000Y-70993000D01*
X135763000Y-70973000D01*
X136017000Y-70973000D01*
X136017000Y-70993000D01*
G36*
X133876536Y-68803114D02*
X133876536Y-68897877D01*
X133855301Y-68906673D01*
X133676673Y-69085302D01*
X133667878Y-69106536D01*
X133573115Y-69106536D01*
X127675132Y-63208554D01*
X127649623Y-63170377D01*
X127498391Y-63069327D01*
X127365030Y-63042800D01*
X127320000Y-63033843D01*
X127274970Y-63042800D01*
X125624173Y-63042800D01*
X125619576Y-63019688D01*
X125347501Y-62612499D01*
X124940312Y-62340424D01*
X124581239Y-62269000D01*
X124338761Y-62269000D01*
X123979688Y-62340424D01*
X123646000Y-62563387D01*
X123646000Y-61896613D01*
X123979688Y-62119576D01*
X124338761Y-62191000D01*
X124581239Y-62191000D01*
X124940312Y-62119576D01*
X125347501Y-61847501D01*
X125619576Y-61440312D01*
X125624173Y-61417200D01*
X126490622Y-61417200D01*
X133876536Y-68803114D01*
X133876536Y-68803114D01*
G37*
X133876536Y-68803114D02*
X133876536Y-68897877D01*
X133855301Y-68906673D01*
X133676673Y-69085302D01*
X133667878Y-69106536D01*
X133573115Y-69106536D01*
X127675132Y-63208554D01*
X127649623Y-63170377D01*
X127498391Y-63069327D01*
X127365030Y-63042800D01*
X127320000Y-63033843D01*
X127274970Y-63042800D01*
X125624173Y-63042800D01*
X125619576Y-63019688D01*
X125347501Y-62612499D01*
X124940312Y-62340424D01*
X124581239Y-62269000D01*
X124338761Y-62269000D01*
X123979688Y-62340424D01*
X123646000Y-62563387D01*
X123646000Y-61896613D01*
X123979688Y-62119576D01*
X124338761Y-62191000D01*
X124581239Y-62191000D01*
X124940312Y-62119576D01*
X125347501Y-61847501D01*
X125619576Y-61440312D01*
X125624173Y-61417200D01*
X126490622Y-61417200D01*
X133876536Y-68803114D01*
G36*
X138753000Y-67628310D02*
X138849673Y-67861699D01*
X139028302Y-68040327D01*
X139196749Y-68110100D01*
X139048007Y-68110100D01*
X138781944Y-68220307D01*
X138578307Y-68423944D01*
X138468100Y-68690007D01*
X138468100Y-68971581D01*
X138435867Y-68977993D01*
X138357319Y-68993617D01*
X138206087Y-69094667D01*
X138198156Y-69106536D01*
X138112122Y-69106536D01*
X138103327Y-69085302D01*
X137924699Y-68906673D01*
X137903464Y-68897877D01*
X137903464Y-68737114D01*
X138291949Y-68348630D01*
X138330123Y-68323123D01*
X138431173Y-68171891D01*
X138457700Y-68038530D01*
X138466657Y-67993501D01*
X138457700Y-67948471D01*
X138457700Y-67848007D01*
X138486188Y-67842340D01*
X138691293Y-67705293D01*
X138753000Y-67612942D01*
X138753000Y-67628310D01*
X138753000Y-67628310D01*
G37*
X138753000Y-67628310D02*
X138849673Y-67861699D01*
X139028302Y-68040327D01*
X139196749Y-68110100D01*
X139048007Y-68110100D01*
X138781944Y-68220307D01*
X138578307Y-68423944D01*
X138468100Y-68690007D01*
X138468100Y-68971581D01*
X138435867Y-68977993D01*
X138357319Y-68993617D01*
X138206087Y-69094667D01*
X138198156Y-69106536D01*
X138112122Y-69106536D01*
X138103327Y-69085302D01*
X137924699Y-68906673D01*
X137903464Y-68897877D01*
X137903464Y-68737114D01*
X138291949Y-68348630D01*
X138330123Y-68323123D01*
X138431173Y-68171891D01*
X138457700Y-68038530D01*
X138466657Y-67993501D01*
X138457700Y-67948471D01*
X138457700Y-67848007D01*
X138486188Y-67842340D01*
X138691293Y-67705293D01*
X138753000Y-67612942D01*
X138753000Y-67628310D01*
G36*
X140002500Y-64643000D02*
X140022500Y-64643000D01*
X140022500Y-64897000D01*
X140002500Y-64897000D01*
X140002500Y-66675000D01*
X140839250Y-66675000D01*
X140998000Y-66516250D01*
X140998000Y-65975690D01*
X140919428Y-65786000D01*
X140939820Y-65736769D01*
X141116379Y-65854743D01*
X141348750Y-65900964D01*
X141784385Y-65900964D01*
X141923422Y-66040000D01*
X140936836Y-67026586D01*
X140839250Y-66929000D01*
X140002500Y-66929000D01*
X140002500Y-66949000D01*
X139748500Y-66949000D01*
X139748500Y-66929000D01*
X139728500Y-66929000D01*
X139728500Y-66675000D01*
X139748500Y-66675000D01*
X139748500Y-64897000D01*
X139728500Y-64897000D01*
X139728500Y-64643000D01*
X139748500Y-64643000D01*
X139748500Y-64623000D01*
X140002500Y-64623000D01*
X140002500Y-64643000D01*
X140002500Y-64643000D01*
G37*
X140002500Y-64643000D02*
X140022500Y-64643000D01*
X140022500Y-64897000D01*
X140002500Y-64897000D01*
X140002500Y-66675000D01*
X140839250Y-66675000D01*
X140998000Y-66516250D01*
X140998000Y-65975690D01*
X140919428Y-65786000D01*
X140939820Y-65736769D01*
X141116379Y-65854743D01*
X141348750Y-65900964D01*
X141784385Y-65900964D01*
X141923422Y-66040000D01*
X140936836Y-67026586D01*
X140839250Y-66929000D01*
X140002500Y-66929000D01*
X140002500Y-66949000D01*
X139748500Y-66949000D01*
X139748500Y-66929000D01*
X139728500Y-66929000D01*
X139728500Y-66675000D01*
X139748500Y-66675000D01*
X139748500Y-64897000D01*
X139728500Y-64897000D01*
X139728500Y-64643000D01*
X139748500Y-64643000D01*
X139748500Y-64623000D01*
X140002500Y-64623000D01*
X140002500Y-64643000D01*
G36*
X129054312Y-61619340D02*
X129296250Y-61667464D01*
X129783750Y-61667464D01*
X129949013Y-61634591D01*
X131648680Y-63334259D01*
X131674188Y-63372434D01*
X131712362Y-63397941D01*
X131825420Y-63473484D01*
X132003811Y-63508968D01*
X132048841Y-63500011D01*
X133306199Y-63500011D01*
X133285000Y-63551191D01*
X133285000Y-63879250D01*
X133443750Y-64038000D01*
X134493000Y-64038000D01*
X134493000Y-64018000D01*
X134747000Y-64018000D01*
X134747000Y-64038000D01*
X134767000Y-64038000D01*
X134767000Y-64292000D01*
X134747000Y-64292000D01*
X134747000Y-64312000D01*
X134493000Y-64312000D01*
X134493000Y-64292000D01*
X133443750Y-64292000D01*
X133285000Y-64450750D01*
X133285000Y-64778809D01*
X133381673Y-65012198D01*
X133560301Y-65190827D01*
X133793690Y-65287500D01*
X133809058Y-65287500D01*
X133716707Y-65349207D01*
X133579660Y-65554312D01*
X133531536Y-65796250D01*
X133531536Y-66164958D01*
X128981200Y-61614622D01*
X128981200Y-61570488D01*
X129054312Y-61619340D01*
X129054312Y-61619340D01*
G37*
X129054312Y-61619340D02*
X129296250Y-61667464D01*
X129783750Y-61667464D01*
X129949013Y-61634591D01*
X131648680Y-63334259D01*
X131674188Y-63372434D01*
X131712362Y-63397941D01*
X131825420Y-63473484D01*
X132003811Y-63508968D01*
X132048841Y-63500011D01*
X133306199Y-63500011D01*
X133285000Y-63551191D01*
X133285000Y-63879250D01*
X133443750Y-64038000D01*
X134493000Y-64038000D01*
X134493000Y-64018000D01*
X134747000Y-64018000D01*
X134747000Y-64038000D01*
X134767000Y-64038000D01*
X134767000Y-64292000D01*
X134747000Y-64292000D01*
X134747000Y-64312000D01*
X134493000Y-64312000D01*
X134493000Y-64292000D01*
X133443750Y-64292000D01*
X133285000Y-64450750D01*
X133285000Y-64778809D01*
X133381673Y-65012198D01*
X133560301Y-65190827D01*
X133793690Y-65287500D01*
X133809058Y-65287500D01*
X133716707Y-65349207D01*
X133579660Y-65554312D01*
X133531536Y-65796250D01*
X133531536Y-66164958D01*
X128981200Y-61614622D01*
X128981200Y-61570488D01*
X129054312Y-61619340D01*
G36*
X138868113Y-63691862D02*
X138849673Y-63710301D01*
X138753000Y-63943690D01*
X138753000Y-63959058D01*
X138691293Y-63866707D01*
X138633145Y-63827854D01*
X138657472Y-63791446D01*
X138812585Y-63636334D01*
X138868113Y-63691862D01*
X138868113Y-63691862D01*
G37*
X138868113Y-63691862D02*
X138849673Y-63710301D01*
X138753000Y-63943690D01*
X138753000Y-63959058D01*
X138691293Y-63866707D01*
X138633145Y-63827854D01*
X138657472Y-63791446D01*
X138812585Y-63636334D01*
X138868113Y-63691862D01*
G36*
X144322801Y-56704380D02*
X144322800Y-59721536D01*
X143930000Y-59721536D01*
X143781341Y-59751106D01*
X143655314Y-59835314D01*
X143571106Y-59961341D01*
X143547000Y-60082531D01*
X143547000Y-59831690D01*
X143450327Y-59598301D01*
X143271698Y-59419673D01*
X143038309Y-59323000D01*
X141872750Y-59323000D01*
X141714000Y-59481750D01*
X141714000Y-60706000D01*
X141734000Y-60706000D01*
X141734000Y-60960000D01*
X141714000Y-60960000D01*
X141714000Y-62184250D01*
X141872750Y-62343000D01*
X143038309Y-62343000D01*
X143271698Y-62246327D01*
X143450327Y-62067699D01*
X143546575Y-61835335D01*
X143571106Y-61958659D01*
X143655314Y-62084686D01*
X143781341Y-62168894D01*
X143930000Y-62198464D01*
X145594000Y-62198464D01*
X145594000Y-62563387D01*
X145260312Y-62340424D01*
X144901239Y-62269000D01*
X144658761Y-62269000D01*
X144299688Y-62340424D01*
X143892499Y-62612499D01*
X143620424Y-63019688D01*
X143615827Y-63042800D01*
X142418181Y-63042800D01*
X142290615Y-62851885D01*
X142093621Y-62720257D01*
X141861250Y-62674036D01*
X141425614Y-62674036D01*
X141112712Y-62361134D01*
X141100595Y-62343000D01*
X141301250Y-62343000D01*
X141460000Y-62184250D01*
X141460000Y-60960000D01*
X139785750Y-60960000D01*
X139627000Y-61118750D01*
X139627000Y-61834310D01*
X139723673Y-62067699D01*
X139851355Y-62195380D01*
X139194790Y-62195380D01*
X139149760Y-62186423D01*
X139104730Y-62195380D01*
X138971369Y-62221907D01*
X138820137Y-62322957D01*
X138794630Y-62361131D01*
X138112962Y-63042800D01*
X136002446Y-63042800D01*
X135966889Y-63007243D01*
X136120188Y-62943744D01*
X136323825Y-62740107D01*
X136434032Y-62474044D01*
X136434032Y-62186058D01*
X136396921Y-62096464D01*
X138612000Y-62096464D01*
X138760659Y-62066894D01*
X138886686Y-61982686D01*
X138970894Y-61856659D01*
X139000464Y-61708000D01*
X139000464Y-59958000D01*
X138975340Y-59831690D01*
X139627000Y-59831690D01*
X139627000Y-60547250D01*
X139785750Y-60706000D01*
X141460000Y-60706000D01*
X141460000Y-59481750D01*
X141301250Y-59323000D01*
X140135691Y-59323000D01*
X139902302Y-59419673D01*
X139723673Y-59598301D01*
X139627000Y-59831690D01*
X138975340Y-59831690D01*
X138970894Y-59809341D01*
X138886686Y-59683314D01*
X138760659Y-59599106D01*
X138612000Y-59569536D01*
X135962000Y-59569536D01*
X135878417Y-59586162D01*
X138086460Y-57378119D01*
X138124634Y-57352612D01*
X138150143Y-57314435D01*
X138852980Y-56611599D01*
X141285571Y-56611599D01*
X141330601Y-56620556D01*
X141375631Y-56611599D01*
X141508992Y-56585072D01*
X141660224Y-56484022D01*
X141685733Y-56445845D01*
X142875000Y-55256578D01*
X144322801Y-56704380D01*
X144322801Y-56704380D01*
G37*
X144322801Y-56704380D02*
X144322800Y-59721536D01*
X143930000Y-59721536D01*
X143781341Y-59751106D01*
X143655314Y-59835314D01*
X143571106Y-59961341D01*
X143547000Y-60082531D01*
X143547000Y-59831690D01*
X143450327Y-59598301D01*
X143271698Y-59419673D01*
X143038309Y-59323000D01*
X141872750Y-59323000D01*
X141714000Y-59481750D01*
X141714000Y-60706000D01*
X141734000Y-60706000D01*
X141734000Y-60960000D01*
X141714000Y-60960000D01*
X141714000Y-62184250D01*
X141872750Y-62343000D01*
X143038309Y-62343000D01*
X143271698Y-62246327D01*
X143450327Y-62067699D01*
X143546575Y-61835335D01*
X143571106Y-61958659D01*
X143655314Y-62084686D01*
X143781341Y-62168894D01*
X143930000Y-62198464D01*
X145594000Y-62198464D01*
X145594000Y-62563387D01*
X145260312Y-62340424D01*
X144901239Y-62269000D01*
X144658761Y-62269000D01*
X144299688Y-62340424D01*
X143892499Y-62612499D01*
X143620424Y-63019688D01*
X143615827Y-63042800D01*
X142418181Y-63042800D01*
X142290615Y-62851885D01*
X142093621Y-62720257D01*
X141861250Y-62674036D01*
X141425614Y-62674036D01*
X141112712Y-62361134D01*
X141100595Y-62343000D01*
X141301250Y-62343000D01*
X141460000Y-62184250D01*
X141460000Y-60960000D01*
X139785750Y-60960000D01*
X139627000Y-61118750D01*
X139627000Y-61834310D01*
X139723673Y-62067699D01*
X139851355Y-62195380D01*
X139194790Y-62195380D01*
X139149760Y-62186423D01*
X139104730Y-62195380D01*
X138971369Y-62221907D01*
X138820137Y-62322957D01*
X138794630Y-62361131D01*
X138112962Y-63042800D01*
X136002446Y-63042800D01*
X135966889Y-63007243D01*
X136120188Y-62943744D01*
X136323825Y-62740107D01*
X136434032Y-62474044D01*
X136434032Y-62186058D01*
X136396921Y-62096464D01*
X138612000Y-62096464D01*
X138760659Y-62066894D01*
X138886686Y-61982686D01*
X138970894Y-61856659D01*
X139000464Y-61708000D01*
X139000464Y-59958000D01*
X138975340Y-59831690D01*
X139627000Y-59831690D01*
X139627000Y-60547250D01*
X139785750Y-60706000D01*
X141460000Y-60706000D01*
X141460000Y-59481750D01*
X141301250Y-59323000D01*
X140135691Y-59323000D01*
X139902302Y-59419673D01*
X139723673Y-59598301D01*
X139627000Y-59831690D01*
X138975340Y-59831690D01*
X138970894Y-59809341D01*
X138886686Y-59683314D01*
X138760659Y-59599106D01*
X138612000Y-59569536D01*
X135962000Y-59569536D01*
X135878417Y-59586162D01*
X138086460Y-57378119D01*
X138124634Y-57352612D01*
X138150143Y-57314435D01*
X138852980Y-56611599D01*
X141285571Y-56611599D01*
X141330601Y-56620556D01*
X141375631Y-56611599D01*
X141508992Y-56585072D01*
X141660224Y-56484022D01*
X141685733Y-56445845D01*
X142875000Y-55256578D01*
X144322801Y-56704380D01*
G36*
X128066801Y-57593379D02*
X128066800Y-61700222D01*
X127035132Y-60668554D01*
X127009623Y-60630377D01*
X126858391Y-60529327D01*
X126725030Y-60502800D01*
X126680000Y-60493843D01*
X126634970Y-60502800D01*
X125624173Y-60502800D01*
X125619576Y-60479688D01*
X125347501Y-60072499D01*
X124943037Y-59802245D01*
X125341358Y-59615183D01*
X125731645Y-59186924D01*
X125901476Y-58776890D01*
X125780155Y-58547000D01*
X124587000Y-58547000D01*
X124587000Y-58567000D01*
X124333000Y-58567000D01*
X124333000Y-58547000D01*
X124313000Y-58547000D01*
X124313000Y-58293000D01*
X124333000Y-58293000D01*
X124333000Y-58273000D01*
X124587000Y-58273000D01*
X124587000Y-58293000D01*
X125780155Y-58293000D01*
X125901476Y-58063110D01*
X125731645Y-57653076D01*
X125341358Y-57224817D01*
X124943037Y-57037755D01*
X125347501Y-56767501D01*
X125619576Y-56360312D01*
X125624173Y-56337200D01*
X126810622Y-56337200D01*
X128066801Y-57593379D01*
X128066801Y-57593379D01*
G37*
X128066801Y-57593379D02*
X128066800Y-61700222D01*
X127035132Y-60668554D01*
X127009623Y-60630377D01*
X126858391Y-60529327D01*
X126725030Y-60502800D01*
X126680000Y-60493843D01*
X126634970Y-60502800D01*
X125624173Y-60502800D01*
X125619576Y-60479688D01*
X125347501Y-60072499D01*
X124943037Y-59802245D01*
X125341358Y-59615183D01*
X125731645Y-59186924D01*
X125901476Y-58776890D01*
X125780155Y-58547000D01*
X124587000Y-58547000D01*
X124587000Y-58567000D01*
X124333000Y-58567000D01*
X124333000Y-58547000D01*
X124313000Y-58547000D01*
X124313000Y-58293000D01*
X124333000Y-58293000D01*
X124333000Y-58273000D01*
X124587000Y-58273000D01*
X124587000Y-58293000D01*
X125780155Y-58293000D01*
X125901476Y-58063110D01*
X125731645Y-57653076D01*
X125341358Y-57224817D01*
X124943037Y-57037755D01*
X125347501Y-56767501D01*
X125619576Y-56360312D01*
X125624173Y-56337200D01*
X126810622Y-56337200D01*
X128066801Y-57593379D01*
G36*
X131231341Y-54973894D02*
X131380000Y-55003464D01*
X131953885Y-55003464D01*
X132130801Y-55180380D01*
X132130801Y-55222247D01*
X132028809Y-55180000D01*
X131700750Y-55180000D01*
X131542000Y-55338750D01*
X131542000Y-56388000D01*
X131562000Y-56388000D01*
X131562000Y-56642000D01*
X131542000Y-56642000D01*
X131542000Y-58420000D01*
X131562000Y-58420000D01*
X131562000Y-58674000D01*
X131542000Y-58674000D01*
X131542000Y-60452000D01*
X131562000Y-60452000D01*
X131562000Y-60706000D01*
X131542000Y-60706000D01*
X131542000Y-60726000D01*
X131288000Y-60726000D01*
X131288000Y-60706000D01*
X131268000Y-60706000D01*
X131268000Y-60452000D01*
X131288000Y-60452000D01*
X131288000Y-58674000D01*
X131268000Y-58674000D01*
X131268000Y-58420000D01*
X131288000Y-58420000D01*
X131288000Y-56642000D01*
X131268000Y-56642000D01*
X131268000Y-56388000D01*
X131288000Y-56388000D01*
X131288000Y-55338750D01*
X131140200Y-55190950D01*
X131140200Y-54912996D01*
X131231341Y-54973894D01*
X131231341Y-54973894D01*
G37*
X131231341Y-54973894D02*
X131380000Y-55003464D01*
X131953885Y-55003464D01*
X132130801Y-55180380D01*
X132130801Y-55222247D01*
X132028809Y-55180000D01*
X131700750Y-55180000D01*
X131542000Y-55338750D01*
X131542000Y-56388000D01*
X131562000Y-56388000D01*
X131562000Y-56642000D01*
X131542000Y-56642000D01*
X131542000Y-58420000D01*
X131562000Y-58420000D01*
X131562000Y-58674000D01*
X131542000Y-58674000D01*
X131542000Y-60452000D01*
X131562000Y-60452000D01*
X131562000Y-60706000D01*
X131542000Y-60706000D01*
X131542000Y-60726000D01*
X131288000Y-60726000D01*
X131288000Y-60706000D01*
X131268000Y-60706000D01*
X131268000Y-60452000D01*
X131288000Y-60452000D01*
X131288000Y-58674000D01*
X131268000Y-58674000D01*
X131268000Y-58420000D01*
X131288000Y-58420000D01*
X131288000Y-56642000D01*
X131268000Y-56642000D01*
X131268000Y-56388000D01*
X131288000Y-56388000D01*
X131288000Y-55338750D01*
X131140200Y-55190950D01*
X131140200Y-54912996D01*
X131231341Y-54973894D01*
G36*
X131358804Y-44920524D02*
X131024982Y-45309241D01*
X130865327Y-45796117D01*
X131015429Y-46002000D01*
X132042000Y-46002000D01*
X132042000Y-45982000D01*
X132296000Y-45982000D01*
X132296000Y-46002000D01*
X133322571Y-46002000D01*
X133472673Y-45796117D01*
X133313018Y-45309241D01*
X132979196Y-44920524D01*
X132950499Y-44906000D01*
X136847501Y-44906000D01*
X136818804Y-44920524D01*
X136484982Y-45309241D01*
X136325327Y-45796117D01*
X136475429Y-46002000D01*
X137502000Y-46002000D01*
X137502000Y-45982000D01*
X137756000Y-45982000D01*
X137756000Y-46002000D01*
X138782571Y-46002000D01*
X138932673Y-45796117D01*
X138773018Y-45309241D01*
X138439196Y-44920524D01*
X138410499Y-44906000D01*
X144591119Y-44906000D01*
X145594000Y-45908881D01*
X145594000Y-49685474D01*
X145470198Y-49561673D01*
X145236809Y-49465000D01*
X144908750Y-49465000D01*
X144750000Y-49623750D01*
X144750000Y-50673000D01*
X144770000Y-50673000D01*
X144770000Y-50927000D01*
X144750000Y-50927000D01*
X144750000Y-51976250D01*
X144908750Y-52135000D01*
X145236809Y-52135000D01*
X145470198Y-52038327D01*
X145594000Y-51914526D01*
X145594000Y-59721536D01*
X145237200Y-59721536D01*
X145237200Y-56560030D01*
X145246157Y-56515000D01*
X145210673Y-56336609D01*
X145135130Y-56223551D01*
X145109623Y-56185377D01*
X145071449Y-56159870D01*
X143332200Y-54420622D01*
X143332200Y-52115029D01*
X143341157Y-52069999D01*
X143332200Y-52024969D01*
X143332200Y-51774516D01*
X143438793Y-51703293D01*
X143500500Y-51610942D01*
X143500500Y-51626310D01*
X143597173Y-51859699D01*
X143775802Y-52038327D01*
X144009191Y-52135000D01*
X144337250Y-52135000D01*
X144496000Y-51976250D01*
X144496000Y-50927000D01*
X144476000Y-50927000D01*
X144476000Y-50673000D01*
X144496000Y-50673000D01*
X144496000Y-49623750D01*
X144337250Y-49465000D01*
X144009191Y-49465000D01*
X143775802Y-49561673D01*
X143597173Y-49740301D01*
X143500500Y-49973690D01*
X143500500Y-49989058D01*
X143438793Y-49896707D01*
X143233688Y-49759660D01*
X142991750Y-49711536D01*
X142504250Y-49711536D01*
X142262312Y-49759660D01*
X142057207Y-49896707D01*
X141920160Y-50101812D01*
X141872036Y-50343750D01*
X141872036Y-51214134D01*
X141627767Y-51050919D01*
X141341616Y-50994000D01*
X140914578Y-50994000D01*
X141007446Y-50901132D01*
X141045623Y-50875623D01*
X141146673Y-50724391D01*
X141173200Y-50591030D01*
X141173200Y-50591029D01*
X141182157Y-50546000D01*
X141173200Y-50500970D01*
X141173200Y-49553993D01*
X141204621Y-49547743D01*
X141401615Y-49416115D01*
X141533243Y-49219121D01*
X141579464Y-48986750D01*
X141579464Y-48549250D01*
X141533243Y-48316879D01*
X141459546Y-48206584D01*
X141550699Y-48168827D01*
X141729327Y-47990198D01*
X141826000Y-47756809D01*
X141826000Y-47478750D01*
X141667250Y-47320000D01*
X140843000Y-47320000D01*
X140843000Y-47340000D01*
X140589000Y-47340000D01*
X140589000Y-47320000D01*
X139764750Y-47320000D01*
X139606000Y-47478750D01*
X139606000Y-47756809D01*
X139702673Y-47990198D01*
X139881301Y-48168827D01*
X139972454Y-48206584D01*
X139898757Y-48316879D01*
X139852536Y-48549250D01*
X139852536Y-48986750D01*
X139898757Y-49219121D01*
X140030385Y-49416115D01*
X140227379Y-49547743D01*
X140258801Y-49553993D01*
X140258800Y-50356622D01*
X138875622Y-51739800D01*
X138823464Y-51739800D01*
X138823464Y-51667000D01*
X138793894Y-51518341D01*
X138709686Y-51392314D01*
X138583659Y-51308106D01*
X138435000Y-51278536D01*
X137785000Y-51278536D01*
X137636341Y-51308106D01*
X137510314Y-51392314D01*
X137426106Y-51518341D01*
X137396536Y-51667000D01*
X137396536Y-52146433D01*
X137303993Y-52108100D01*
X137082678Y-52108100D01*
X136923464Y-51948886D01*
X136923464Y-51667000D01*
X136893894Y-51518341D01*
X136809686Y-51392314D01*
X136683659Y-51308106D01*
X136535000Y-51278536D01*
X135885000Y-51278536D01*
X135736341Y-51308106D01*
X135610314Y-51392314D01*
X135526106Y-51518341D01*
X135496536Y-51667000D01*
X135496536Y-51932800D01*
X132802168Y-51932800D01*
X132798894Y-51916341D01*
X132714686Y-51790314D01*
X132588659Y-51706106D01*
X132440000Y-51676536D01*
X132030614Y-51676536D01*
X130882464Y-50528386D01*
X130882464Y-50223750D01*
X130834340Y-49981812D01*
X130697293Y-49776707D01*
X130604942Y-49715000D01*
X130620310Y-49715000D01*
X130853699Y-49618327D01*
X131029142Y-49442883D01*
X131293320Y-49442883D01*
X131427156Y-49887954D01*
X131721125Y-50247929D01*
X132130474Y-50468006D01*
X132169256Y-50472803D01*
X132352000Y-50347361D01*
X132352000Y-49256000D01*
X132606000Y-49256000D01*
X132606000Y-50347361D01*
X132788744Y-50472803D01*
X132827526Y-50468006D01*
X133236875Y-50247929D01*
X133530844Y-49887954D01*
X133664680Y-49442883D01*
X136133320Y-49442883D01*
X136267156Y-49887954D01*
X136561125Y-50247929D01*
X136970474Y-50468006D01*
X137009256Y-50472803D01*
X137192000Y-50347361D01*
X137192000Y-49256000D01*
X137446000Y-49256000D01*
X137446000Y-50347361D01*
X137628744Y-50472803D01*
X137667526Y-50468006D01*
X138076875Y-50247929D01*
X138370844Y-49887954D01*
X138504680Y-49442883D01*
X138349148Y-49256000D01*
X137446000Y-49256000D01*
X137192000Y-49256000D01*
X136288852Y-49256000D01*
X136133320Y-49442883D01*
X133664680Y-49442883D01*
X133509148Y-49256000D01*
X132606000Y-49256000D01*
X132352000Y-49256000D01*
X131448852Y-49256000D01*
X131293320Y-49442883D01*
X131029142Y-49442883D01*
X131032327Y-49439698D01*
X131129000Y-49206309D01*
X131129000Y-48878250D01*
X131065867Y-48815117D01*
X131293320Y-48815117D01*
X131448852Y-49002000D01*
X132352000Y-49002000D01*
X132352000Y-47910639D01*
X132606000Y-47910639D01*
X132606000Y-49002000D01*
X133509148Y-49002000D01*
X133664680Y-48815117D01*
X136133320Y-48815117D01*
X136288852Y-49002000D01*
X137192000Y-49002000D01*
X137192000Y-47910639D01*
X137446000Y-47910639D01*
X137446000Y-49002000D01*
X138349148Y-49002000D01*
X138504680Y-48815117D01*
X138370844Y-48370046D01*
X138076875Y-48010071D01*
X137667526Y-47789994D01*
X137628744Y-47785197D01*
X137446000Y-47910639D01*
X137192000Y-47910639D01*
X137009256Y-47785197D01*
X136970474Y-47789994D01*
X136561125Y-48010071D01*
X136267156Y-48370046D01*
X136133320Y-48815117D01*
X133664680Y-48815117D01*
X133530844Y-48370046D01*
X133236875Y-48010071D01*
X132827526Y-47789994D01*
X132788744Y-47785197D01*
X132606000Y-47910639D01*
X132352000Y-47910639D01*
X132169256Y-47785197D01*
X132130474Y-47789994D01*
X131721125Y-48010071D01*
X131427156Y-48370046D01*
X131293320Y-48815117D01*
X131065867Y-48815117D01*
X130970250Y-48719500D01*
X129921000Y-48719500D01*
X129921000Y-48739500D01*
X129667000Y-48739500D01*
X129667000Y-48719500D01*
X128617750Y-48719500D01*
X128459000Y-48878250D01*
X128459000Y-49206309D01*
X128555673Y-49439698D01*
X128734301Y-49618327D01*
X128967690Y-49715000D01*
X128983058Y-49715000D01*
X128890707Y-49776707D01*
X128753660Y-49981812D01*
X128705536Y-50223750D01*
X128705536Y-50711250D01*
X128753660Y-50953188D01*
X128890707Y-51158293D01*
X129095812Y-51295340D01*
X129337750Y-51343464D01*
X130250250Y-51343464D01*
X130378813Y-51317891D01*
X131013832Y-51952910D01*
X130991536Y-52065000D01*
X130991536Y-52505439D01*
X130841673Y-52655301D01*
X130784034Y-52794455D01*
X130628464Y-52638885D01*
X130628464Y-52065000D01*
X130598894Y-51916341D01*
X130514686Y-51790314D01*
X130388659Y-51706106D01*
X130240000Y-51676536D01*
X129180000Y-51676536D01*
X129031341Y-51706106D01*
X128905314Y-51790314D01*
X128821106Y-51916341D01*
X128817832Y-51932800D01*
X125572542Y-51932800D01*
X125584686Y-51924686D01*
X125668894Y-51798659D01*
X125698464Y-51650000D01*
X125698464Y-49950000D01*
X125668894Y-49801341D01*
X125584686Y-49675314D01*
X125458659Y-49591106D01*
X125310000Y-49561536D01*
X123646000Y-49561536D01*
X123646000Y-46665574D01*
X124099000Y-46665574D01*
X124099000Y-47314426D01*
X124347305Y-47913887D01*
X124806113Y-48372695D01*
X125405574Y-48621000D01*
X126054426Y-48621000D01*
X126653887Y-48372695D01*
X127047891Y-47978691D01*
X128459000Y-47978691D01*
X128459000Y-48306750D01*
X128617750Y-48465500D01*
X129667000Y-48465500D01*
X129667000Y-47628750D01*
X129921000Y-47628750D01*
X129921000Y-48465500D01*
X130970250Y-48465500D01*
X131129000Y-48306750D01*
X131129000Y-47978691D01*
X131032327Y-47745302D01*
X130853699Y-47566673D01*
X130620310Y-47470000D01*
X130079750Y-47470000D01*
X129921000Y-47628750D01*
X129667000Y-47628750D01*
X129508250Y-47470000D01*
X128967690Y-47470000D01*
X128734301Y-47566673D01*
X128555673Y-47745302D01*
X128459000Y-47978691D01*
X127047891Y-47978691D01*
X127112695Y-47913887D01*
X127361000Y-47314426D01*
X127361000Y-46665574D01*
X127276629Y-46461883D01*
X130865327Y-46461883D01*
X131024982Y-46948759D01*
X131358804Y-47337476D01*
X131815971Y-47568856D01*
X131839600Y-47571910D01*
X132042000Y-47448224D01*
X132042000Y-46256000D01*
X132296000Y-46256000D01*
X132296000Y-47448224D01*
X132498400Y-47571910D01*
X132522029Y-47568856D01*
X132979196Y-47337476D01*
X133313018Y-46948759D01*
X133472673Y-46461883D01*
X136325327Y-46461883D01*
X136484982Y-46948759D01*
X136818804Y-47337476D01*
X137275971Y-47568856D01*
X137299600Y-47571910D01*
X137502000Y-47448224D01*
X137502000Y-46256000D01*
X137756000Y-46256000D01*
X137756000Y-47448224D01*
X137958400Y-47571910D01*
X137982029Y-47568856D01*
X138439196Y-47337476D01*
X138773018Y-46948759D01*
X138877809Y-46629191D01*
X139606000Y-46629191D01*
X139606000Y-46907250D01*
X139764750Y-47066000D01*
X140589000Y-47066000D01*
X140589000Y-46279250D01*
X140843000Y-46279250D01*
X140843000Y-47066000D01*
X141667250Y-47066000D01*
X141826000Y-46907250D01*
X141826000Y-46665574D01*
X141879000Y-46665574D01*
X141879000Y-47314426D01*
X142127305Y-47913887D01*
X142586113Y-48372695D01*
X143185574Y-48621000D01*
X143834426Y-48621000D01*
X144433887Y-48372695D01*
X144892695Y-47913887D01*
X145141000Y-47314426D01*
X145141000Y-46665574D01*
X144892695Y-46066113D01*
X144433887Y-45607305D01*
X143834426Y-45359000D01*
X143185574Y-45359000D01*
X142586113Y-45607305D01*
X142127305Y-46066113D01*
X141879000Y-46665574D01*
X141826000Y-46665574D01*
X141826000Y-46629191D01*
X141729327Y-46395802D01*
X141550699Y-46217173D01*
X141317310Y-46120500D01*
X141001750Y-46120500D01*
X140843000Y-46279250D01*
X140589000Y-46279250D01*
X140430250Y-46120500D01*
X140114690Y-46120500D01*
X139881301Y-46217173D01*
X139702673Y-46395802D01*
X139606000Y-46629191D01*
X138877809Y-46629191D01*
X138932673Y-46461883D01*
X138782571Y-46256000D01*
X137756000Y-46256000D01*
X137502000Y-46256000D01*
X136475429Y-46256000D01*
X136325327Y-46461883D01*
X133472673Y-46461883D01*
X133322571Y-46256000D01*
X132296000Y-46256000D01*
X132042000Y-46256000D01*
X131015429Y-46256000D01*
X130865327Y-46461883D01*
X127276629Y-46461883D01*
X127112695Y-46066113D01*
X126653887Y-45607305D01*
X126054426Y-45359000D01*
X125405574Y-45359000D01*
X124806113Y-45607305D01*
X124347305Y-46066113D01*
X124099000Y-46665574D01*
X123646000Y-46665574D01*
X123646000Y-45908881D01*
X124648881Y-44906000D01*
X131387501Y-44906000D01*
X131358804Y-44920524D01*
X131358804Y-44920524D01*
G37*
X131358804Y-44920524D02*
X131024982Y-45309241D01*
X130865327Y-45796117D01*
X131015429Y-46002000D01*
X132042000Y-46002000D01*
X132042000Y-45982000D01*
X132296000Y-45982000D01*
X132296000Y-46002000D01*
X133322571Y-46002000D01*
X133472673Y-45796117D01*
X133313018Y-45309241D01*
X132979196Y-44920524D01*
X132950499Y-44906000D01*
X136847501Y-44906000D01*
X136818804Y-44920524D01*
X136484982Y-45309241D01*
X136325327Y-45796117D01*
X136475429Y-46002000D01*
X137502000Y-46002000D01*
X137502000Y-45982000D01*
X137756000Y-45982000D01*
X137756000Y-46002000D01*
X138782571Y-46002000D01*
X138932673Y-45796117D01*
X138773018Y-45309241D01*
X138439196Y-44920524D01*
X138410499Y-44906000D01*
X144591119Y-44906000D01*
X145594000Y-45908881D01*
X145594000Y-49685474D01*
X145470198Y-49561673D01*
X145236809Y-49465000D01*
X144908750Y-49465000D01*
X144750000Y-49623750D01*
X144750000Y-50673000D01*
X144770000Y-50673000D01*
X144770000Y-50927000D01*
X144750000Y-50927000D01*
X144750000Y-51976250D01*
X144908750Y-52135000D01*
X145236809Y-52135000D01*
X145470198Y-52038327D01*
X145594000Y-51914526D01*
X145594000Y-59721536D01*
X145237200Y-59721536D01*
X145237200Y-56560030D01*
X145246157Y-56515000D01*
X145210673Y-56336609D01*
X145135130Y-56223551D01*
X145109623Y-56185377D01*
X145071449Y-56159870D01*
X143332200Y-54420622D01*
X143332200Y-52115029D01*
X143341157Y-52069999D01*
X143332200Y-52024969D01*
X143332200Y-51774516D01*
X143438793Y-51703293D01*
X143500500Y-51610942D01*
X143500500Y-51626310D01*
X143597173Y-51859699D01*
X143775802Y-52038327D01*
X144009191Y-52135000D01*
X144337250Y-52135000D01*
X144496000Y-51976250D01*
X144496000Y-50927000D01*
X144476000Y-50927000D01*
X144476000Y-50673000D01*
X144496000Y-50673000D01*
X144496000Y-49623750D01*
X144337250Y-49465000D01*
X144009191Y-49465000D01*
X143775802Y-49561673D01*
X143597173Y-49740301D01*
X143500500Y-49973690D01*
X143500500Y-49989058D01*
X143438793Y-49896707D01*
X143233688Y-49759660D01*
X142991750Y-49711536D01*
X142504250Y-49711536D01*
X142262312Y-49759660D01*
X142057207Y-49896707D01*
X141920160Y-50101812D01*
X141872036Y-50343750D01*
X141872036Y-51214134D01*
X141627767Y-51050919D01*
X141341616Y-50994000D01*
X140914578Y-50994000D01*
X141007446Y-50901132D01*
X141045623Y-50875623D01*
X141146673Y-50724391D01*
X141173200Y-50591030D01*
X141173200Y-50591029D01*
X141182157Y-50546000D01*
X141173200Y-50500970D01*
X141173200Y-49553993D01*
X141204621Y-49547743D01*
X141401615Y-49416115D01*
X141533243Y-49219121D01*
X141579464Y-48986750D01*
X141579464Y-48549250D01*
X141533243Y-48316879D01*
X141459546Y-48206584D01*
X141550699Y-48168827D01*
X141729327Y-47990198D01*
X141826000Y-47756809D01*
X141826000Y-47478750D01*
X141667250Y-47320000D01*
X140843000Y-47320000D01*
X140843000Y-47340000D01*
X140589000Y-47340000D01*
X140589000Y-47320000D01*
X139764750Y-47320000D01*
X139606000Y-47478750D01*
X139606000Y-47756809D01*
X139702673Y-47990198D01*
X139881301Y-48168827D01*
X139972454Y-48206584D01*
X139898757Y-48316879D01*
X139852536Y-48549250D01*
X139852536Y-48986750D01*
X139898757Y-49219121D01*
X140030385Y-49416115D01*
X140227379Y-49547743D01*
X140258801Y-49553993D01*
X140258800Y-50356622D01*
X138875622Y-51739800D01*
X138823464Y-51739800D01*
X138823464Y-51667000D01*
X138793894Y-51518341D01*
X138709686Y-51392314D01*
X138583659Y-51308106D01*
X138435000Y-51278536D01*
X137785000Y-51278536D01*
X137636341Y-51308106D01*
X137510314Y-51392314D01*
X137426106Y-51518341D01*
X137396536Y-51667000D01*
X137396536Y-52146433D01*
X137303993Y-52108100D01*
X137082678Y-52108100D01*
X136923464Y-51948886D01*
X136923464Y-51667000D01*
X136893894Y-51518341D01*
X136809686Y-51392314D01*
X136683659Y-51308106D01*
X136535000Y-51278536D01*
X135885000Y-51278536D01*
X135736341Y-51308106D01*
X135610314Y-51392314D01*
X135526106Y-51518341D01*
X135496536Y-51667000D01*
X135496536Y-51932800D01*
X132802168Y-51932800D01*
X132798894Y-51916341D01*
X132714686Y-51790314D01*
X132588659Y-51706106D01*
X132440000Y-51676536D01*
X132030614Y-51676536D01*
X130882464Y-50528386D01*
X130882464Y-50223750D01*
X130834340Y-49981812D01*
X130697293Y-49776707D01*
X130604942Y-49715000D01*
X130620310Y-49715000D01*
X130853699Y-49618327D01*
X131029142Y-49442883D01*
X131293320Y-49442883D01*
X131427156Y-49887954D01*
X131721125Y-50247929D01*
X132130474Y-50468006D01*
X132169256Y-50472803D01*
X132352000Y-50347361D01*
X132352000Y-49256000D01*
X132606000Y-49256000D01*
X132606000Y-50347361D01*
X132788744Y-50472803D01*
X132827526Y-50468006D01*
X133236875Y-50247929D01*
X133530844Y-49887954D01*
X133664680Y-49442883D01*
X136133320Y-49442883D01*
X136267156Y-49887954D01*
X136561125Y-50247929D01*
X136970474Y-50468006D01*
X137009256Y-50472803D01*
X137192000Y-50347361D01*
X137192000Y-49256000D01*
X137446000Y-49256000D01*
X137446000Y-50347361D01*
X137628744Y-50472803D01*
X137667526Y-50468006D01*
X138076875Y-50247929D01*
X138370844Y-49887954D01*
X138504680Y-49442883D01*
X138349148Y-49256000D01*
X137446000Y-49256000D01*
X137192000Y-49256000D01*
X136288852Y-49256000D01*
X136133320Y-49442883D01*
X133664680Y-49442883D01*
X133509148Y-49256000D01*
X132606000Y-49256000D01*
X132352000Y-49256000D01*
X131448852Y-49256000D01*
X131293320Y-49442883D01*
X131029142Y-49442883D01*
X131032327Y-49439698D01*
X131129000Y-49206309D01*
X131129000Y-48878250D01*
X131065867Y-48815117D01*
X131293320Y-48815117D01*
X131448852Y-49002000D01*
X132352000Y-49002000D01*
X132352000Y-47910639D01*
X132606000Y-47910639D01*
X132606000Y-49002000D01*
X133509148Y-49002000D01*
X133664680Y-48815117D01*
X136133320Y-48815117D01*
X136288852Y-49002000D01*
X137192000Y-49002000D01*
X137192000Y-47910639D01*
X137446000Y-47910639D01*
X137446000Y-49002000D01*
X138349148Y-49002000D01*
X138504680Y-48815117D01*
X138370844Y-48370046D01*
X138076875Y-48010071D01*
X137667526Y-47789994D01*
X137628744Y-47785197D01*
X137446000Y-47910639D01*
X137192000Y-47910639D01*
X137009256Y-47785197D01*
X136970474Y-47789994D01*
X136561125Y-48010071D01*
X136267156Y-48370046D01*
X136133320Y-48815117D01*
X133664680Y-48815117D01*
X133530844Y-48370046D01*
X133236875Y-48010071D01*
X132827526Y-47789994D01*
X132788744Y-47785197D01*
X132606000Y-47910639D01*
X132352000Y-47910639D01*
X132169256Y-47785197D01*
X132130474Y-47789994D01*
X131721125Y-48010071D01*
X131427156Y-48370046D01*
X131293320Y-48815117D01*
X131065867Y-48815117D01*
X130970250Y-48719500D01*
X129921000Y-48719500D01*
X129921000Y-48739500D01*
X129667000Y-48739500D01*
X129667000Y-48719500D01*
X128617750Y-48719500D01*
X128459000Y-48878250D01*
X128459000Y-49206309D01*
X128555673Y-49439698D01*
X128734301Y-49618327D01*
X128967690Y-49715000D01*
X128983058Y-49715000D01*
X128890707Y-49776707D01*
X128753660Y-49981812D01*
X128705536Y-50223750D01*
X128705536Y-50711250D01*
X128753660Y-50953188D01*
X128890707Y-51158293D01*
X129095812Y-51295340D01*
X129337750Y-51343464D01*
X130250250Y-51343464D01*
X130378813Y-51317891D01*
X131013832Y-51952910D01*
X130991536Y-52065000D01*
X130991536Y-52505439D01*
X130841673Y-52655301D01*
X130784034Y-52794455D01*
X130628464Y-52638885D01*
X130628464Y-52065000D01*
X130598894Y-51916341D01*
X130514686Y-51790314D01*
X130388659Y-51706106D01*
X130240000Y-51676536D01*
X129180000Y-51676536D01*
X129031341Y-51706106D01*
X128905314Y-51790314D01*
X128821106Y-51916341D01*
X128817832Y-51932800D01*
X125572542Y-51932800D01*
X125584686Y-51924686D01*
X125668894Y-51798659D01*
X125698464Y-51650000D01*
X125698464Y-49950000D01*
X125668894Y-49801341D01*
X125584686Y-49675314D01*
X125458659Y-49591106D01*
X125310000Y-49561536D01*
X123646000Y-49561536D01*
X123646000Y-46665574D01*
X124099000Y-46665574D01*
X124099000Y-47314426D01*
X124347305Y-47913887D01*
X124806113Y-48372695D01*
X125405574Y-48621000D01*
X126054426Y-48621000D01*
X126653887Y-48372695D01*
X127047891Y-47978691D01*
X128459000Y-47978691D01*
X128459000Y-48306750D01*
X128617750Y-48465500D01*
X129667000Y-48465500D01*
X129667000Y-47628750D01*
X129921000Y-47628750D01*
X129921000Y-48465500D01*
X130970250Y-48465500D01*
X131129000Y-48306750D01*
X131129000Y-47978691D01*
X131032327Y-47745302D01*
X130853699Y-47566673D01*
X130620310Y-47470000D01*
X130079750Y-47470000D01*
X129921000Y-47628750D01*
X129667000Y-47628750D01*
X129508250Y-47470000D01*
X128967690Y-47470000D01*
X128734301Y-47566673D01*
X128555673Y-47745302D01*
X128459000Y-47978691D01*
X127047891Y-47978691D01*
X127112695Y-47913887D01*
X127361000Y-47314426D01*
X127361000Y-46665574D01*
X127276629Y-46461883D01*
X130865327Y-46461883D01*
X131024982Y-46948759D01*
X131358804Y-47337476D01*
X131815971Y-47568856D01*
X131839600Y-47571910D01*
X132042000Y-47448224D01*
X132042000Y-46256000D01*
X132296000Y-46256000D01*
X132296000Y-47448224D01*
X132498400Y-47571910D01*
X132522029Y-47568856D01*
X132979196Y-47337476D01*
X133313018Y-46948759D01*
X133472673Y-46461883D01*
X136325327Y-46461883D01*
X136484982Y-46948759D01*
X136818804Y-47337476D01*
X137275971Y-47568856D01*
X137299600Y-47571910D01*
X137502000Y-47448224D01*
X137502000Y-46256000D01*
X137756000Y-46256000D01*
X137756000Y-47448224D01*
X137958400Y-47571910D01*
X137982029Y-47568856D01*
X138439196Y-47337476D01*
X138773018Y-46948759D01*
X138877809Y-46629191D01*
X139606000Y-46629191D01*
X139606000Y-46907250D01*
X139764750Y-47066000D01*
X140589000Y-47066000D01*
X140589000Y-46279250D01*
X140843000Y-46279250D01*
X140843000Y-47066000D01*
X141667250Y-47066000D01*
X141826000Y-46907250D01*
X141826000Y-46665574D01*
X141879000Y-46665574D01*
X141879000Y-47314426D01*
X142127305Y-47913887D01*
X142586113Y-48372695D01*
X143185574Y-48621000D01*
X143834426Y-48621000D01*
X144433887Y-48372695D01*
X144892695Y-47913887D01*
X145141000Y-47314426D01*
X145141000Y-46665574D01*
X144892695Y-46066113D01*
X144433887Y-45607305D01*
X143834426Y-45359000D01*
X143185574Y-45359000D01*
X142586113Y-45607305D01*
X142127305Y-46066113D01*
X141879000Y-46665574D01*
X141826000Y-46665574D01*
X141826000Y-46629191D01*
X141729327Y-46395802D01*
X141550699Y-46217173D01*
X141317310Y-46120500D01*
X141001750Y-46120500D01*
X140843000Y-46279250D01*
X140589000Y-46279250D01*
X140430250Y-46120500D01*
X140114690Y-46120500D01*
X139881301Y-46217173D01*
X139702673Y-46395802D01*
X139606000Y-46629191D01*
X138877809Y-46629191D01*
X138932673Y-46461883D01*
X138782571Y-46256000D01*
X137756000Y-46256000D01*
X137502000Y-46256000D01*
X136475429Y-46256000D01*
X136325327Y-46461883D01*
X133472673Y-46461883D01*
X133322571Y-46256000D01*
X132296000Y-46256000D01*
X132042000Y-46256000D01*
X131015429Y-46256000D01*
X130865327Y-46461883D01*
X127276629Y-46461883D01*
X127112695Y-46066113D01*
X126653887Y-45607305D01*
X126054426Y-45359000D01*
X125405574Y-45359000D01*
X124806113Y-45607305D01*
X124347305Y-46066113D01*
X124099000Y-46665574D01*
X123646000Y-46665574D01*
X123646000Y-45908881D01*
X124648881Y-44906000D01*
X131387501Y-44906000D01*
X131358804Y-44920524D01*
G36*
X139770919Y-52357767D02*
X139987739Y-52682261D01*
X140074152Y-52740000D01*
X139968690Y-52740000D01*
X139735301Y-52836673D01*
X139556673Y-53015302D01*
X139460000Y-53248691D01*
X139460000Y-53689250D01*
X139618750Y-53848000D01*
X140843000Y-53848000D01*
X140843000Y-53828000D01*
X141097000Y-53828000D01*
X141097000Y-53848000D01*
X141117000Y-53848000D01*
X141117000Y-54102000D01*
X141097000Y-54102000D01*
X141097000Y-55051250D01*
X141255750Y-55210000D01*
X141628422Y-55210000D01*
X141141223Y-55697199D01*
X139636550Y-55697199D01*
X139805693Y-55528056D01*
X139915900Y-55261993D01*
X139915900Y-55188134D01*
X139968690Y-55210000D01*
X140684250Y-55210000D01*
X140843000Y-55051250D01*
X140843000Y-54102000D01*
X139618750Y-54102000D01*
X139460000Y-54260750D01*
X139460000Y-54445465D01*
X139335993Y-54394100D01*
X139114678Y-54394100D01*
X138823464Y-54102886D01*
X138823464Y-53867000D01*
X138793894Y-53718341D01*
X138709686Y-53592314D01*
X138583659Y-53508106D01*
X138435000Y-53478536D01*
X137994561Y-53478536D01*
X137844699Y-53328673D01*
X137733243Y-53282506D01*
X137773693Y-53242056D01*
X137826129Y-53115464D01*
X138435000Y-53115464D01*
X138583659Y-53085894D01*
X138709686Y-53001686D01*
X138793894Y-52875659D01*
X138823464Y-52727000D01*
X138823464Y-52654200D01*
X139019970Y-52654200D01*
X139065000Y-52663157D01*
X139110030Y-52654200D01*
X139243391Y-52627673D01*
X139394623Y-52526623D01*
X139420132Y-52488446D01*
X139734401Y-52174177D01*
X139770919Y-52357767D01*
X139770919Y-52357767D01*
G37*
X139770919Y-52357767D02*
X139987739Y-52682261D01*
X140074152Y-52740000D01*
X139968690Y-52740000D01*
X139735301Y-52836673D01*
X139556673Y-53015302D01*
X139460000Y-53248691D01*
X139460000Y-53689250D01*
X139618750Y-53848000D01*
X140843000Y-53848000D01*
X140843000Y-53828000D01*
X141097000Y-53828000D01*
X141097000Y-53848000D01*
X141117000Y-53848000D01*
X141117000Y-54102000D01*
X141097000Y-54102000D01*
X141097000Y-55051250D01*
X141255750Y-55210000D01*
X141628422Y-55210000D01*
X141141223Y-55697199D01*
X139636550Y-55697199D01*
X139805693Y-55528056D01*
X139915900Y-55261993D01*
X139915900Y-55188134D01*
X139968690Y-55210000D01*
X140684250Y-55210000D01*
X140843000Y-55051250D01*
X140843000Y-54102000D01*
X139618750Y-54102000D01*
X139460000Y-54260750D01*
X139460000Y-54445465D01*
X139335993Y-54394100D01*
X139114678Y-54394100D01*
X138823464Y-54102886D01*
X138823464Y-53867000D01*
X138793894Y-53718341D01*
X138709686Y-53592314D01*
X138583659Y-53508106D01*
X138435000Y-53478536D01*
X137994561Y-53478536D01*
X137844699Y-53328673D01*
X137733243Y-53282506D01*
X137773693Y-53242056D01*
X137826129Y-53115464D01*
X138435000Y-53115464D01*
X138583659Y-53085894D01*
X138709686Y-53001686D01*
X138793894Y-52875659D01*
X138823464Y-52727000D01*
X138823464Y-52654200D01*
X139019970Y-52654200D01*
X139065000Y-52663157D01*
X139110030Y-52654200D01*
X139243391Y-52627673D01*
X139394623Y-52526623D01*
X139420132Y-52488446D01*
X139734401Y-52174177D01*
X139770919Y-52357767D01*
G36*
X133693554Y-54127868D02*
X133655377Y-54153377D01*
X133604848Y-54229000D01*
X133554327Y-54304610D01*
X133518843Y-54483000D01*
X133527800Y-54528030D01*
X133527800Y-54801536D01*
X133110000Y-54801536D01*
X133020030Y-54819432D01*
X133018673Y-54812609D01*
X132943130Y-54699551D01*
X132917623Y-54661377D01*
X132879449Y-54635870D01*
X132828464Y-54584885D01*
X132828464Y-54174561D01*
X132978327Y-54024699D01*
X133075000Y-53791310D01*
X133075000Y-53625750D01*
X132916250Y-53467000D01*
X132037000Y-53467000D01*
X132037000Y-53487000D01*
X131783000Y-53487000D01*
X131783000Y-53467000D01*
X131763000Y-53467000D01*
X131763000Y-53213000D01*
X131783000Y-53213000D01*
X131783000Y-53193000D01*
X132037000Y-53193000D01*
X132037000Y-53213000D01*
X132916250Y-53213000D01*
X133075000Y-53054250D01*
X133075000Y-52888690D01*
X133057814Y-52847200D01*
X134974221Y-52847200D01*
X133693554Y-54127868D01*
X133693554Y-54127868D01*
G37*
X133693554Y-54127868D02*
X133655377Y-54153377D01*
X133604848Y-54229000D01*
X133554327Y-54304610D01*
X133518843Y-54483000D01*
X133527800Y-54528030D01*
X133527800Y-54801536D01*
X133110000Y-54801536D01*
X133020030Y-54819432D01*
X133018673Y-54812609D01*
X132943130Y-54699551D01*
X132917623Y-54661377D01*
X132879449Y-54635870D01*
X132828464Y-54584885D01*
X132828464Y-54174561D01*
X132978327Y-54024699D01*
X133075000Y-53791310D01*
X133075000Y-53625750D01*
X132916250Y-53467000D01*
X132037000Y-53467000D01*
X132037000Y-53487000D01*
X131783000Y-53487000D01*
X131783000Y-53467000D01*
X131763000Y-53467000D01*
X131763000Y-53213000D01*
X131783000Y-53213000D01*
X131783000Y-53193000D01*
X132037000Y-53193000D01*
X132037000Y-53213000D01*
X132916250Y-53213000D01*
X133075000Y-53054250D01*
X133075000Y-52888690D01*
X133057814Y-52847200D01*
X134974221Y-52847200D01*
X133693554Y-54127868D01*
G36*
X137287000Y-54270000D02*
X137307000Y-54270000D01*
X137307000Y-54524000D01*
X137287000Y-54524000D01*
X137287000Y-54544000D01*
X137033000Y-54544000D01*
X137033000Y-54524000D01*
X137013000Y-54524000D01*
X137013000Y-54270000D01*
X137033000Y-54270000D01*
X137033000Y-54250000D01*
X137287000Y-54250000D01*
X137287000Y-54270000D01*
X137287000Y-54270000D01*
G37*
X137287000Y-54270000D02*
X137307000Y-54270000D01*
X137307000Y-54524000D01*
X137287000Y-54524000D01*
X137287000Y-54544000D01*
X137033000Y-54544000D01*
X137033000Y-54524000D01*
X137013000Y-54524000D01*
X137013000Y-54270000D01*
X137033000Y-54270000D01*
X137033000Y-54250000D01*
X137287000Y-54250000D01*
X137287000Y-54270000D01*
G04 #@! TD*
M02*
