G04 #@! TF.GenerationSoftware,KiCad,Pcbnew,5.0.2+dfsg1-1*
G04 #@! TF.CreationDate,2019-04-15T18:08:30-07:00*
G04 #@! TF.ProjectId,feather51,66656174-6865-4723-9531-2e6b69636164,A*
G04 #@! TF.SameCoordinates,Original*
G04 #@! TF.FileFunction,Legend,Bot*
G04 #@! TF.FilePolarity,Positive*
%FSLAX46Y46*%
G04 Gerber Fmt 4.6, Leading zero omitted, Abs format (unit mm)*
G04 Created by KiCad (PCBNEW 5.0.2+dfsg1-1) date Mon 15 Apr 2019 06:08:30 PM PDT*
%MOMM*%
%LPD*%
G01*
G04 APERTURE LIST*
%ADD10C,0.150000*%
%ADD11C,0.120000*%
G04 APERTURE END LIST*
D10*
G04 #@! TO.C,D2*
X138802000Y-61468000D02*
X138802000Y-60198000D01*
G36*
X140072000Y-61468000D02*
X138802000Y-60833000D01*
X140072000Y-60198000D01*
X140072000Y-61468000D01*
G37*
X140072000Y-61468000D02*
X138802000Y-60833000D01*
X140072000Y-60198000D01*
X140072000Y-61468000D01*
X137532000Y-62103000D02*
X137532000Y-62738000D01*
X137532000Y-58928000D02*
X137532000Y-59563000D01*
X136637000Y-62308000D02*
X142237000Y-62308000D01*
X136637000Y-59358000D02*
X142237000Y-59358000D01*
G04 #@! TO.C,D1*
X133350000Y-58030000D02*
X134620000Y-58030000D01*
G36*
X133350000Y-59300000D02*
X133985000Y-58030000D01*
X134620000Y-59300000D01*
X133350000Y-59300000D01*
G37*
X133350000Y-59300000D02*
X133985000Y-58030000D01*
X134620000Y-59300000D01*
X133350000Y-59300000D01*
X132715000Y-56760000D02*
X132080000Y-56760000D01*
X135890000Y-56760000D02*
X135255000Y-56760000D01*
X132510000Y-55865000D02*
X132510000Y-61465000D01*
X135460000Y-55865000D02*
X135460000Y-61465000D01*
D11*
G04 #@! TO.C,C1*
X129084000Y-49788578D02*
X129084000Y-49271422D01*
X130504000Y-49788578D02*
X130504000Y-49271422D01*
G04 #@! TO.C,C2*
X130218922Y-57225000D02*
X130736078Y-57225000D01*
X130218922Y-55805000D02*
X130736078Y-55805000D01*
G04 #@! TO.C,C3*
X130218922Y-57837000D02*
X130736078Y-57837000D01*
X130218922Y-59257000D02*
X130736078Y-59257000D01*
G04 #@! TO.C,C4*
X138679422Y-65480000D02*
X139196578Y-65480000D01*
X138679422Y-64060000D02*
X139196578Y-64060000D01*
G04 #@! TO.C,C5*
X138679422Y-66092000D02*
X139196578Y-66092000D01*
X138679422Y-67512000D02*
X139196578Y-67512000D01*
G04 #@! TO.C,C6*
X135330000Y-65361078D02*
X135330000Y-64843922D01*
X133910000Y-65361078D02*
X133910000Y-64843922D01*
G04 #@! TO.C,C7*
X130218922Y-59869000D02*
X130736078Y-59869000D01*
X130218922Y-61289000D02*
X130736078Y-61289000D01*
G04 #@! TO.C,C8*
X143944078Y-50090000D02*
X143426922Y-50090000D01*
X143944078Y-51510000D02*
X143426922Y-51510000D01*
G04 #@! TO.C,R1*
X142115000Y-64450279D02*
X142115000Y-64124721D01*
X141095000Y-64450279D02*
X141095000Y-64124721D01*
G04 #@! TO.C,R3*
X137759221Y-82806000D02*
X138084779Y-82806000D01*
X137759221Y-81786000D02*
X138084779Y-81786000D01*
G04 #@! TO.C,R4*
X140206000Y-48143279D02*
X140206000Y-47817721D01*
X141226000Y-48143279D02*
X141226000Y-47817721D01*
G04 #@! TO.C,R6*
X142115000Y-77505779D02*
X142115000Y-77180221D01*
X141095000Y-77505779D02*
X141095000Y-77180221D01*
G04 #@! TO.C,U1*
X129910000Y-51730000D02*
X132360000Y-51730000D01*
X131710000Y-54950000D02*
X129910000Y-54950000D01*
G04 #@! TO.C,U2*
X133280000Y-69235000D02*
X133280000Y-68510000D01*
X138500000Y-73730000D02*
X137775000Y-73730000D01*
X138500000Y-73005000D02*
X138500000Y-73730000D01*
X138500000Y-68510000D02*
X137775000Y-68510000D01*
X138500000Y-69235000D02*
X138500000Y-68510000D01*
X133280000Y-73730000D02*
X134005000Y-73730000D01*
X133280000Y-73005000D02*
X133280000Y-73730000D01*
G04 #@! TO.C,U3*
X135550000Y-54197000D02*
X135550000Y-52397000D01*
X138770000Y-52397000D02*
X138770000Y-54847000D01*
G04 #@! TO.C,D2*
D10*
X140175095Y-58872380D02*
X140175095Y-57872380D01*
X139937000Y-57872380D01*
X139794142Y-57920000D01*
X139698904Y-58015238D01*
X139651285Y-58110476D01*
X139603666Y-58300952D01*
X139603666Y-58443809D01*
X139651285Y-58634285D01*
X139698904Y-58729523D01*
X139794142Y-58824761D01*
X139937000Y-58872380D01*
X140175095Y-58872380D01*
X139222714Y-57967619D02*
X139175095Y-57920000D01*
X139079857Y-57872380D01*
X138841761Y-57872380D01*
X138746523Y-57920000D01*
X138698904Y-57967619D01*
X138651285Y-58062857D01*
X138651285Y-58158095D01*
X138698904Y-58300952D01*
X139270333Y-58872380D01*
X138651285Y-58872380D01*
G04 #@! TO.C,D1*
X137263095Y-58237380D02*
X137263095Y-57237380D01*
X137025000Y-57237380D01*
X136882142Y-57285000D01*
X136786904Y-57380238D01*
X136739285Y-57475476D01*
X136691666Y-57665952D01*
X136691666Y-57808809D01*
X136739285Y-57999285D01*
X136786904Y-58094523D01*
X136882142Y-58189761D01*
X137025000Y-58237380D01*
X137263095Y-58237380D01*
X135739285Y-58237380D02*
X136310714Y-58237380D01*
X136025000Y-58237380D02*
X136025000Y-57237380D01*
X136120238Y-57380238D01*
X136215476Y-57475476D01*
X136310714Y-57523095D01*
G04 #@! TO.C,C1*
X128055666Y-49252142D02*
X128103285Y-49299761D01*
X128246142Y-49347380D01*
X128341380Y-49347380D01*
X128484238Y-49299761D01*
X128579476Y-49204523D01*
X128627095Y-49109285D01*
X128674714Y-48918809D01*
X128674714Y-48775952D01*
X128627095Y-48585476D01*
X128579476Y-48490238D01*
X128484238Y-48395000D01*
X128341380Y-48347380D01*
X128246142Y-48347380D01*
X128103285Y-48395000D01*
X128055666Y-48442619D01*
X127103285Y-49347380D02*
X127674714Y-49347380D01*
X127389000Y-49347380D02*
X127389000Y-48347380D01*
X127484238Y-48490238D01*
X127579476Y-48585476D01*
X127674714Y-48633095D01*
G04 #@! TO.C,C2*
X128182666Y-56872142D02*
X128230285Y-56919761D01*
X128373142Y-56967380D01*
X128468380Y-56967380D01*
X128611238Y-56919761D01*
X128706476Y-56824523D01*
X128754095Y-56729285D01*
X128801714Y-56538809D01*
X128801714Y-56395952D01*
X128754095Y-56205476D01*
X128706476Y-56110238D01*
X128611238Y-56015000D01*
X128468380Y-55967380D01*
X128373142Y-55967380D01*
X128230285Y-56015000D01*
X128182666Y-56062619D01*
X127801714Y-56062619D02*
X127754095Y-56015000D01*
X127658857Y-55967380D01*
X127420761Y-55967380D01*
X127325523Y-56015000D01*
X127277904Y-56062619D01*
X127230285Y-56157857D01*
X127230285Y-56253095D01*
X127277904Y-56395952D01*
X127849333Y-56967380D01*
X127230285Y-56967380D01*
G04 #@! TO.C,C3*
X128182666Y-58904142D02*
X128230285Y-58951761D01*
X128373142Y-58999380D01*
X128468380Y-58999380D01*
X128611238Y-58951761D01*
X128706476Y-58856523D01*
X128754095Y-58761285D01*
X128801714Y-58570809D01*
X128801714Y-58427952D01*
X128754095Y-58237476D01*
X128706476Y-58142238D01*
X128611238Y-58047000D01*
X128468380Y-57999380D01*
X128373142Y-57999380D01*
X128230285Y-58047000D01*
X128182666Y-58094619D01*
X127849333Y-57999380D02*
X127230285Y-57999380D01*
X127563619Y-58380333D01*
X127420761Y-58380333D01*
X127325523Y-58427952D01*
X127277904Y-58475571D01*
X127230285Y-58570809D01*
X127230285Y-58808904D01*
X127277904Y-58904142D01*
X127325523Y-58951761D01*
X127420761Y-58999380D01*
X127706476Y-58999380D01*
X127801714Y-58951761D01*
X127849333Y-58904142D01*
G04 #@! TO.C,C4*
X136691666Y-65127142D02*
X136739285Y-65174761D01*
X136882142Y-65222380D01*
X136977380Y-65222380D01*
X137120238Y-65174761D01*
X137215476Y-65079523D01*
X137263095Y-64984285D01*
X137310714Y-64793809D01*
X137310714Y-64650952D01*
X137263095Y-64460476D01*
X137215476Y-64365238D01*
X137120238Y-64270000D01*
X136977380Y-64222380D01*
X136882142Y-64222380D01*
X136739285Y-64270000D01*
X136691666Y-64317619D01*
X135834523Y-64555714D02*
X135834523Y-65222380D01*
X136072619Y-64174761D02*
X136310714Y-64889047D01*
X135691666Y-64889047D01*
G04 #@! TO.C,C5*
X136691666Y-67159142D02*
X136739285Y-67206761D01*
X136882142Y-67254380D01*
X136977380Y-67254380D01*
X137120238Y-67206761D01*
X137215476Y-67111523D01*
X137263095Y-67016285D01*
X137310714Y-66825809D01*
X137310714Y-66682952D01*
X137263095Y-66492476D01*
X137215476Y-66397238D01*
X137120238Y-66302000D01*
X136977380Y-66254380D01*
X136882142Y-66254380D01*
X136739285Y-66302000D01*
X136691666Y-66349619D01*
X135786904Y-66254380D02*
X136263095Y-66254380D01*
X136310714Y-66730571D01*
X136263095Y-66682952D01*
X136167857Y-66635333D01*
X135929761Y-66635333D01*
X135834523Y-66682952D01*
X135786904Y-66730571D01*
X135739285Y-66825809D01*
X135739285Y-67063904D01*
X135786904Y-67159142D01*
X135834523Y-67206761D01*
X135929761Y-67254380D01*
X136167857Y-67254380D01*
X136263095Y-67206761D01*
X136310714Y-67159142D01*
G04 #@! TO.C,C6*
X132881666Y-65127142D02*
X132929285Y-65174761D01*
X133072142Y-65222380D01*
X133167380Y-65222380D01*
X133310238Y-65174761D01*
X133405476Y-65079523D01*
X133453095Y-64984285D01*
X133500714Y-64793809D01*
X133500714Y-64650952D01*
X133453095Y-64460476D01*
X133405476Y-64365238D01*
X133310238Y-64270000D01*
X133167380Y-64222380D01*
X133072142Y-64222380D01*
X132929285Y-64270000D01*
X132881666Y-64317619D01*
X132024523Y-64222380D02*
X132215000Y-64222380D01*
X132310238Y-64270000D01*
X132357857Y-64317619D01*
X132453095Y-64460476D01*
X132500714Y-64650952D01*
X132500714Y-65031904D01*
X132453095Y-65127142D01*
X132405476Y-65174761D01*
X132310238Y-65222380D01*
X132119761Y-65222380D01*
X132024523Y-65174761D01*
X131976904Y-65127142D01*
X131929285Y-65031904D01*
X131929285Y-64793809D01*
X131976904Y-64698571D01*
X132024523Y-64650952D01*
X132119761Y-64603333D01*
X132310238Y-64603333D01*
X132405476Y-64650952D01*
X132453095Y-64698571D01*
X132500714Y-64793809D01*
G04 #@! TO.C,C7*
X128182666Y-60936142D02*
X128230285Y-60983761D01*
X128373142Y-61031380D01*
X128468380Y-61031380D01*
X128611238Y-60983761D01*
X128706476Y-60888523D01*
X128754095Y-60793285D01*
X128801714Y-60602809D01*
X128801714Y-60459952D01*
X128754095Y-60269476D01*
X128706476Y-60174238D01*
X128611238Y-60079000D01*
X128468380Y-60031380D01*
X128373142Y-60031380D01*
X128230285Y-60079000D01*
X128182666Y-60126619D01*
X127849333Y-60031380D02*
X127182666Y-60031380D01*
X127611238Y-61031380D01*
G04 #@! TO.C,C8*
X144311666Y-53062142D02*
X144359285Y-53109761D01*
X144502142Y-53157380D01*
X144597380Y-53157380D01*
X144740238Y-53109761D01*
X144835476Y-53014523D01*
X144883095Y-52919285D01*
X144930714Y-52728809D01*
X144930714Y-52585952D01*
X144883095Y-52395476D01*
X144835476Y-52300238D01*
X144740238Y-52205000D01*
X144597380Y-52157380D01*
X144502142Y-52157380D01*
X144359285Y-52205000D01*
X144311666Y-52252619D01*
X143740238Y-52585952D02*
X143835476Y-52538333D01*
X143883095Y-52490714D01*
X143930714Y-52395476D01*
X143930714Y-52347857D01*
X143883095Y-52252619D01*
X143835476Y-52205000D01*
X143740238Y-52157380D01*
X143549761Y-52157380D01*
X143454523Y-52205000D01*
X143406904Y-52252619D01*
X143359285Y-52347857D01*
X143359285Y-52395476D01*
X143406904Y-52490714D01*
X143454523Y-52538333D01*
X143549761Y-52585952D01*
X143740238Y-52585952D01*
X143835476Y-52633571D01*
X143883095Y-52681190D01*
X143930714Y-52776428D01*
X143930714Y-52966904D01*
X143883095Y-53062142D01*
X143835476Y-53109761D01*
X143740238Y-53157380D01*
X143549761Y-53157380D01*
X143454523Y-53109761D01*
X143406904Y-53062142D01*
X143359285Y-52966904D01*
X143359285Y-52776428D01*
X143406904Y-52681190D01*
X143454523Y-52633571D01*
X143549761Y-52585952D01*
G04 #@! TO.C,R1*
X143295666Y-65222380D02*
X143629000Y-64746190D01*
X143867095Y-65222380D02*
X143867095Y-64222380D01*
X143486142Y-64222380D01*
X143390904Y-64270000D01*
X143343285Y-64317619D01*
X143295666Y-64412857D01*
X143295666Y-64555714D01*
X143343285Y-64650952D01*
X143390904Y-64698571D01*
X143486142Y-64746190D01*
X143867095Y-64746190D01*
X142343285Y-65222380D02*
X142914714Y-65222380D01*
X142629000Y-65222380D02*
X142629000Y-64222380D01*
X142724238Y-64365238D01*
X142819476Y-64460476D01*
X142914714Y-64508095D01*
G04 #@! TO.C,R3*
X138088666Y-81478380D02*
X138422000Y-81002190D01*
X138660095Y-81478380D02*
X138660095Y-80478380D01*
X138279142Y-80478380D01*
X138183904Y-80526000D01*
X138136285Y-80573619D01*
X138088666Y-80668857D01*
X138088666Y-80811714D01*
X138136285Y-80906952D01*
X138183904Y-80954571D01*
X138279142Y-81002190D01*
X138660095Y-81002190D01*
X137755333Y-80478380D02*
X137136285Y-80478380D01*
X137469619Y-80859333D01*
X137326761Y-80859333D01*
X137231523Y-80906952D01*
X137183904Y-80954571D01*
X137136285Y-81049809D01*
X137136285Y-81287904D01*
X137183904Y-81383142D01*
X137231523Y-81430761D01*
X137326761Y-81478380D01*
X137612476Y-81478380D01*
X137707714Y-81430761D01*
X137755333Y-81383142D01*
G04 #@! TO.C,R4*
X139231666Y-49347380D02*
X139565000Y-48871190D01*
X139803095Y-49347380D02*
X139803095Y-48347380D01*
X139422142Y-48347380D01*
X139326904Y-48395000D01*
X139279285Y-48442619D01*
X139231666Y-48537857D01*
X139231666Y-48680714D01*
X139279285Y-48775952D01*
X139326904Y-48823571D01*
X139422142Y-48871190D01*
X139803095Y-48871190D01*
X138374523Y-48680714D02*
X138374523Y-49347380D01*
X138612619Y-48299761D02*
X138850714Y-49014047D01*
X138231666Y-49014047D01*
G04 #@! TO.C,R6*
X140120666Y-77795380D02*
X140454000Y-77319190D01*
X140692095Y-77795380D02*
X140692095Y-76795380D01*
X140311142Y-76795380D01*
X140215904Y-76843000D01*
X140168285Y-76890619D01*
X140120666Y-76985857D01*
X140120666Y-77128714D01*
X140168285Y-77223952D01*
X140215904Y-77271571D01*
X140311142Y-77319190D01*
X140692095Y-77319190D01*
X139263523Y-76795380D02*
X139454000Y-76795380D01*
X139549238Y-76843000D01*
X139596857Y-76890619D01*
X139692095Y-77033476D01*
X139739714Y-77223952D01*
X139739714Y-77604904D01*
X139692095Y-77700142D01*
X139644476Y-77747761D01*
X139549238Y-77795380D01*
X139358761Y-77795380D01*
X139263523Y-77747761D01*
X139215904Y-77700142D01*
X139168285Y-77604904D01*
X139168285Y-77366809D01*
X139215904Y-77271571D01*
X139263523Y-77223952D01*
X139358761Y-77176333D01*
X139549238Y-77176333D01*
X139644476Y-77223952D01*
X139692095Y-77271571D01*
X139739714Y-77366809D01*
G04 #@! TO.C,U1*
X129031904Y-52792380D02*
X129031904Y-53601904D01*
X128984285Y-53697142D01*
X128936666Y-53744761D01*
X128841428Y-53792380D01*
X128650952Y-53792380D01*
X128555714Y-53744761D01*
X128508095Y-53697142D01*
X128460476Y-53601904D01*
X128460476Y-52792380D01*
X127460476Y-53792380D02*
X128031904Y-53792380D01*
X127746190Y-53792380D02*
X127746190Y-52792380D01*
X127841428Y-52935238D01*
X127936666Y-53030476D01*
X128031904Y-53078095D01*
G04 #@! TO.C,U2*
X135381904Y-74382380D02*
X135381904Y-75191904D01*
X135334285Y-75287142D01*
X135286666Y-75334761D01*
X135191428Y-75382380D01*
X135000952Y-75382380D01*
X134905714Y-75334761D01*
X134858095Y-75287142D01*
X134810476Y-75191904D01*
X134810476Y-74382380D01*
X134381904Y-74477619D02*
X134334285Y-74430000D01*
X134239047Y-74382380D01*
X134000952Y-74382380D01*
X133905714Y-74430000D01*
X133858095Y-74477619D01*
X133810476Y-74572857D01*
X133810476Y-74668095D01*
X133858095Y-74810952D01*
X134429523Y-75382380D01*
X133810476Y-75382380D01*
G04 #@! TO.C,U3*
X135381904Y-50887380D02*
X135381904Y-51696904D01*
X135334285Y-51792142D01*
X135286666Y-51839761D01*
X135191428Y-51887380D01*
X135000952Y-51887380D01*
X134905714Y-51839761D01*
X134858095Y-51792142D01*
X134810476Y-51696904D01*
X134810476Y-50887380D01*
X134429523Y-50887380D02*
X133810476Y-50887380D01*
X134143809Y-51268333D01*
X134000952Y-51268333D01*
X133905714Y-51315952D01*
X133858095Y-51363571D01*
X133810476Y-51458809D01*
X133810476Y-51696904D01*
X133858095Y-51792142D01*
X133905714Y-51839761D01*
X134000952Y-51887380D01*
X134286666Y-51887380D01*
X134381904Y-51839761D01*
X134429523Y-51792142D01*
G04 #@! TD*
M02*
